<svg xmlns="http://www.w3.org/2000/svg" viewBox="0 0 16 7.12"><defs><style>.cls-1{fill:#db71b0;}.cls-2{fill:#394ee5;}</style></defs><title>favicon</title><g id="Слой_2" data-name="Слой 2"><g id="Слой_1-2" data-name="Слой 1"><g id="Vector"><path id="path0_fill" data-name="path0 fill" class="cls-1" d="M7.8,3a2.19,2.19,0,0,1,.1-.46,1.91,1.91,0,0,1,.37-.67,1.55,1.55,0,0,1,.59-.42,2.11,2.11,0,0,1,.8-.15,2,2,0,0,1,.79.15,1.61,1.61,0,0,1,.59.42,1.91,1.91,0,0,1,.37.67,2.79,2.79,0,0,1,.1.46h1.59a3.43,3.43,0,0,0-.23-.91A3.19,3.19,0,0,0,11.09.26,3.77,3.77,0,0,0,9.67,0,3.87,3.87,0,0,0,8.24.26,3.22,3.22,0,0,0,6.43,2.08,3.41,3.41,0,0,0,6.2,3H7.8Z"/></g><g id="Vector-2" data-name="Vector"><path id="path1_fill" data-name="path1 fill" class="cls-2" d="M1.6,3a2.12,2.12,0,0,1,.11-.45,2,2,0,0,1,.39-.67,1.82,1.82,0,0,1,.6-.43,2,2,0,0,1,.77-.15,2.29,2.29,0,0,1,.42,0,1.64,1.64,0,0,1,.32.09,1.41,1.41,0,0,1,.24.12l.19.12.16.09a.4.4,0,0,0,.16,0,.3.3,0,0,0,.19-.05.6.6,0,0,0,.12-.12L5.79.9A2.59,2.59,0,0,0,5.36.53,2.88,2.88,0,0,0,4.82.25,3.2,3.2,0,0,0,4.19.07,3.62,3.62,0,0,0,3.48,0,3.83,3.83,0,0,0,2.06.25,3.29,3.29,0,0,0,1,1,3.18,3.18,0,0,0,.24,2,3.58,3.58,0,0,0,0,3Z"/></g><g id="Vector-3" data-name="Vector"><path id="path2_fill" data-name="path2 fill" class="cls-1" d="M3.1,5.05a3.15,3.15,0,0,0,.64,1.09,2.93,2.93,0,0,0,1,.72,3.48,3.48,0,0,0,1.37.26,3.59,3.59,0,0,0,1.45-.27,2.5,2.5,0,0,0,1-.8L8,5.4a.3.3,0,0,0-.1-.07l-.11,0a.29.29,0,0,0-.13,0l-.12.07a1.61,1.61,0,0,1-.27.2A1.72,1.72,0,0,1,7,5.74a1.4,1.4,0,0,1-.33.07l-.39,0a1.66,1.66,0,0,1-.69-.14A1.71,1.71,0,0,1,5,5.28a2.06,2.06,0,0,1-.39-.67,2.66,2.66,0,0,1-.09-.35H2.9A3.54,3.54,0,0,0,3.1,5.05Z"/></g><g id="Vector-4" data-name="Vector"><path id="path5_fill" data-name="path5 fill" class="cls-2" d="M9.32,5a3.22,3.22,0,0,0,1.82,1.82,3.7,3.7,0,0,0,1.43.26A3.83,3.83,0,0,0,14,6.86,3.19,3.19,0,0,0,15.79,5,3.15,3.15,0,0,0,16,4.26H14.4a2.19,2.19,0,0,1-.08.33,1.91,1.91,0,0,1-.37.67,1.55,1.55,0,0,1-.59.42,2.22,2.22,0,0,1-1.59,0,1.61,1.61,0,0,1-.59-.42,1.91,1.91,0,0,1-.37-.67,2.2,2.2,0,0,1-.08-.33H9.12A3.5,3.5,0,0,0,9.32,5Z"/></g></g></g></svg>