<svg width="261" height="100" viewBox="0 0 261 100" version="1.1" xmlns="http://www.w3.org/2000/svg" xmlns:xlink="http://www.w3.org/1999/xlink">
<title>figure_14</title>
<desc>Created using Figma</desc>
<g id="Canvas" transform="translate(1264 -6583)">
<g id="figure_14">
<g id="Vector">
<use xlink:href="#path0_fill" transform="translate(-1100.2 6583)" fill="#DB71B0"/>
</g>
<g id="Vector">
<use xlink:href="#path1_fill" transform="translate(-1128.8 6583.1)" fill="#DB71B0"/>
</g>
<g id="Vector">
<use xlink:href="#path2_fill" transform="translate(-1116.5 6602)" fill="#DB71B0"/>
</g>
<g id="Vector">
<use xlink:href="#path3_fill" transform="translate(-1088.4 6602)" fill="#DB71B0"/>
</g>
<g id="Vector">
<use xlink:href="#path4_fill" transform="translate(-1165 6583)" fill="#DB71B0"/>
</g>
<g id="Vector">
<use xlink:href="#path5_fill" transform="translate(-1193.6 6583.1)" fill="#DB71B0"/>
</g>
<g id="Vector">
<use xlink:href="#path6_fill" transform="translate(-1181.2 6602)" fill="#DB71B0"/>
</g>
<g id="Vector">
<use xlink:href="#path7_fill" transform="translate(-1153.1 6602)" fill="#DB71B0"/>
</g>
<g id="Vector">
<use xlink:href="#path8_fill" transform="translate(-1105.9 6616.9)" fill="#DB71B0"/>
</g>
<g id="Vector">
<use xlink:href="#path9_fill" transform="translate(-1134.6 6617)" fill="#DB71B0"/>
</g>
<g id="Vector">
<use xlink:href="#path10_fill" transform="translate(-1122.2 6635.8)" fill="#DB71B0"/>
</g>
<g id="Vector">
<use xlink:href="#path11_fill" transform="translate(-1094.1 6635.9)" fill="#DB71B0"/>
</g>
<g id="Vector">
<use xlink:href="#path12_fill" transform="translate(-1170.7 6616.9)" fill="#DB71B0"/>
</g>
<g id="Vector">
<use xlink:href="#path13_fill" transform="translate(-1199.3 6617)" fill="#DB71B0"/>
</g>
<g id="Vector">
<use xlink:href="#path14_fill" transform="translate(-1186.9 6635.8)" fill="#DB71B0"/>
</g>
<g id="Vector">
<use xlink:href="#path15_fill" transform="translate(-1158.9 6635.9)" fill="#DB71B0"/>
</g>
<g id="Vector">
<use xlink:href="#path16_fill" transform="translate(-1235.4 6616.9)" fill="#DB71B0"/>
</g>
<g id="Vector">
<use xlink:href="#path17_fill" transform="translate(-1264 6617)" fill="#DB71B0"/>
</g>
<g id="Vector">
<use xlink:href="#path18_fill" transform="translate(-1251.7 6635.8)" fill="#DB71B0"/>
</g>
<g id="Vector">
<use xlink:href="#path19_fill" transform="translate(-1223.6 6635.9)" fill="#DB71B0"/>
</g>
<g id="Vector">
<use xlink:href="#path20_fill" transform="translate(-1046.9 6650.7)" fill="#DB71B0"/>
</g>
<g id="Vector">
<use xlink:href="#path21_fill" transform="translate(-1075.6 6650.8)" fill="#DB71B0"/>
</g>
<g id="Vector">
<use xlink:href="#path22_fill" transform="translate(-1063.2 6669.7)" fill="#DB71B0"/>
</g>
<g id="Vector">
<use xlink:href="#path23_fill" transform="translate(-1035.1 6669.7)" fill="#DB71B0"/>
</g>
<g id="Vector">
<use xlink:href="#path24_fill" transform="translate(-1111.7 6650.7)" fill="#DB71B0"/>
</g>
<g id="Vector">
<use xlink:href="#path25_fill" transform="translate(-1140.3 6650.8)" fill="#DB71B0"/>
</g>
<g id="Vector">
<use xlink:href="#path26_fill" transform="translate(-1127.9 6669.7)" fill="#DB71B0"/>
</g>
<g id="Vector">
<use xlink:href="#path27_fill" transform="translate(-1099.9 6669.7)" fill="#DB71B0"/>
</g>
</g>
</g>
<defs>
<path id="path0_fill" d="M 7 13.6C 7.1 12.9 7.2 12.2 7.5 11.5C 7.9 10.3 8.49999 9.3 9.19999 8.4C 9.89999 7.6 10.8 6.9 11.9 6.5C 13 6.1 14.2 5.8 15.6 5.8C 17 5.8 18.2 6 19.2 6.5C 20.3 6.9 21.2 7.6 21.9 8.4C 22.6 9.2 23.2 10.3 23.6 11.5C 23.8 12.2 24 12.9 24.1 13.6L 31.4 13.6C 31.2 12.1 30.9 10.8 30.4 9.4C 29.6 7.5 28.6 5.9 27.2 4.5C 25.8 3.1 24.2 2 22.2 1.2C 20.3 0.4 18.1 3.05176e-06 15.7 3.05176e-06C 13.3 3.05176e-06 11.2 0.4 9.19999 1.2C 7.19999 2 5.59999 3.1 4.19999 4.5C 2.79999 5.9 1.7 7.5 0.999997 9.4C 0.499997 10.7 0.0999969 12.1 -3.05176e-06 13.6L 7 13.6Z"/>
<path id="path1_fill" d="M 7.4 13.5C 7.5 12.8 7.7 12.1 7.9 11.4C 8.3 10.2 8.9 9.2 9.7 8.3C 10.5 7.5 11.4 6.8 12.4 6.4C 13.5 5.9 14.6 5.7 15.9 5.7C 16.6 5.7 17.3 5.8 17.8 5.9C 18.4 6 18.8 6.1 19.2 6.3C 19.6 6.5 20 6.6 20.3 6.8C 20.6 7 20.9 7.2 21.1 7.3C 21.4 7.5 21.6 7.6 21.8 7.7C 22 7.8 22.3 7.9 22.5 7.9C 22.9 7.9 23.2 7.8 23.4 7.7C 23.6 7.5 23.8 7.4 23.9 7.2L 26.3 4C 25.7 3.4 25.1 2.9 24.3 2.4C 23.6 1.9 22.8 1.5 21.9 1.1C 21 0.7 20.1 0.499997 19.1 0.299997C 18.1 0.0999969 17 1.52588e-06 15.9 1.52588e-06C 13.5 1.52588e-06 11.4 0.399998 9.4 1.2C 7.4 2 5.8 3 4.4 4.4C 3 5.8 1.9 7.4 1.1 9.3C 0.599997 10.6 0.200006 12.1 6.10352e-06 13.6L 7.4 13.6L 7.4 13.5Z"/>
<path id="path2_fill" d="M 0.799997 3.7C 1.5 5.6 2.50001 7.29999 3.70001 8.59999C 5.00001 9.99999 6.5 11.1 8.4 11.9C 10.2 12.7 12.3 13.1 14.6 13.1C 17.1 13.1 19.3 12.7 21.2 11.9C 23.1 11.1 24.6 9.90001 25.8 8.30001L 23 5.30001C 22.8 5.10001 22.7 5 22.5 5C 22.3 4.9 22.2 4.9 22 4.9C 21.8 4.9 21.6 4.9 21.4 5C 21.2 5.1 21 5.20001 20.9 5.30001C 20.5 5.70001 20.1 6 19.7 6.2C 19.3 6.4 18.9 6.60001 18.4 6.80001C 17.9 7.00001 17.5 7.09999 16.9 7.09999C 16.4 7.19999 15.8 7.2 15.1 7.2C 14 7.2 12.9 6.99999 12 6.59999C 11 6.19999 10.2 5.5 9.4 4.7C 8.7 3.9 8.10001 2.79999 7.70001 1.59999C 7.50001 1.09999 7.4 0.600003 7.3 3.05176e-06L -6.10352e-06 3.05176e-06C 0.0999939 1.3 0.399997 2.5 0.799997 3.7Z"/>
<path id="path3_fill" d="M 1.10001 3.59999C 1.90001 5.49999 2.9 7.19999 4.3 8.59999C 5.7 9.99999 7.4 11.1 9.3 11.9C 11.3 12.7 13.4 13.1 15.8 13.1C 18.2 13.1 20.3 12.7 22.3 11.9C 24.2 11.1 25.9 9.99999 27.3 8.59999C 28.7 7.19999 29.8 5.49999 30.5 3.59999C 31 2.49999 31.3 1.3 31.5 3.05176e-06L 24.2 3.05176e-06C 24.1 0.500003 24 1 23.8 1.5C 23.4 2.7 22.8 3.69999 22.1 4.59999C 21.4 5.39999 20.5 6.1 19.4 6.5C 18.3 6.9 17.1 7.2 15.8 7.2C 14.4 7.2 13.2 7 12.1 6.5C 11 6.1 10.1 5.39999 9.39999 4.59999C 8.69999 3.79999 8.1 2.7 7.7 1.5C 7.5 1 7.4 0.500003 7.3 3.05176e-06L 0 3.05176e-06C 0.3 1.3 0.600006 2.49999 1.10001 3.59999Z"/>
<path id="path4_fill" d="M 7 13.6C 7.1 12.9 7.2 12.2 7.5 11.5C 7.9 10.3 8.5 9.3 9.2 8.4C 9.9 7.6 10.8 6.9 11.9 6.5C 13 6.1 14.2 5.8 15.6 5.8C 17 5.8 18.2 6 19.2 6.5C 20.3 6.9 21.2 7.6 21.9 8.4C 22.6 9.2 23.2 10.3 23.6 11.5C 23.8 12.2 24 12.9 24.1 13.6L 31.4 13.6C 31.2 12.1 30.9 10.8 30.4 9.4C 29.6 7.5 28.6 5.9 27.2 4.5C 25.8 3.1 24.2 2 22.2 1.2C 20.3 0.4 18.1 3.05176e-06 15.7 3.05176e-06C 13.3 3.05176e-06 11.2 0.4 9.2 1.2C 7.2 2 5.6 3.1 4.2 4.5C 2.8 5.9 1.7 7.5 1 9.4C 0.500002 10.7 0.100002 12.1 1.52588e-06 13.6L 7 13.6Z"/>
<path id="path5_fill" d="M 7.4 13.5C 7.5 12.8 7.7 12.1 7.9 11.4C 8.3 10.2 8.9 9.2 9.7 8.3C 10.5 7.5 11.4 6.8 12.4 6.4C 13.5 5.9 14.6 5.7 15.9 5.7C 16.6 5.7 17.3 5.8 17.8 5.9C 18.4 6 18.8 6.1 19.2 6.3C 19.6 6.5 20 6.6 20.3 6.8C 20.6 7 20.9 7.2 21.1 7.3C 21.4 7.5 21.6 7.6 21.8 7.7C 22 7.8 22.3 7.9 22.5 7.9C 22.9 7.9 23.2 7.8 23.4 7.7C 23.6 7.5 23.8 7.4 23.9 7.2L 26.3 4C 25.7 3.4 25.1 2.9 24.3 2.4C 23.6 1.9 22.8 1.5 21.9 1.1C 21 0.7 20.1 0.499997 19.1 0.299997C 18.1 0.0999969 17 1.52588e-06 15.9 1.52588e-06C 13.5 1.52588e-06 11.4 0.399998 9.4 1.2C 7.4 2 5.8 3 4.4 4.4C 3 5.8 1.9 7.4 1.1 9.3C 0.600002 10.6 0.200003 12.1 3.05176e-06 13.6L 7.4 13.6L 7.4 13.5Z"/>
<path id="path6_fill" d="M 0.8 3.7C 1.5 5.6 2.5 7.29999 3.7 8.59999C 5 9.99999 6.5 11.1 8.4 11.9C 10.2 12.7 12.3 13.1 14.6 13.1C 17.1 13.1 19.3 12.7 21.2 11.9C 23 11.1 24.6 9.90001 25.8 8.30001L 23 5.30001C 22.8 5.10001 22.7 5 22.5 5C 22.3 4.9 22.2 4.9 22 4.9C 21.8 4.9 21.6 4.9 21.4 5C 21.2 5.1 21 5.20001 20.9 5.30001C 20.5 5.70001 20.1 6 19.7 6.2C 19.3 6.4 18.9 6.60001 18.4 6.80001C 17.9 7.00001 17.5 7.09999 16.9 7.09999C 16.4 7.19999 15.8 7.2 15.1 7.2C 14 7.2 12.9 6.99999 12 6.59999C 11 6.19999 10.2 5.5 9.4 4.7C 8.7 3.9 8.1 2.79999 7.7 1.59999C 7.5 1.09999 7.4 0.600003 7.3 3.05176e-06L -3.05176e-06 3.05176e-06C 0.0999969 1.3 0.4 2.5 0.8 3.7Z"/>
<path id="path7_fill" d="M 1.1 3.59999C 1.9 5.49999 2.9 7.19999 4.3 8.59999C 5.7 9.99999 7.40001 11.1 9.30001 11.9C 11.3 12.7 13.4 13.1 15.8 13.1C 18.2 13.1 20.3 12.7 22.3 11.9C 24.2 11.1 25.9 9.99999 27.3 8.59999C 28.7 7.19999 29.8 5.49999 30.5 3.59999C 31 2.49999 31.3 1.3 31.5 3.05176e-06L 24.2 3.05176e-06C 24.1 0.500003 24 1 23.8 1.5C 23.4 2.7 22.8 3.69999 22.1 4.59999C 21.4 5.39999 20.5 6.1 19.4 6.5C 18.3 6.9 17.1 7.2 15.8 7.2C 14.4 7.2 13.2 7 12.1 6.5C 11 6.1 10.1 5.39999 9.4 4.59999C 8.7 3.79999 8.1 2.7 7.7 1.5C 7.5 1 7.40001 0.500003 7.30001 3.05176e-06L 3.05176e-06 3.05176e-06C 0.300003 1.3 0.600002 2.49999 1.1 3.59999Z"/>
<path id="path8_fill" d="M 7 13.6C 7.1 12.9 7.2 12.2 7.5 11.5C 7.9 10.3 8.5 9.30001 9.2 8.40001C 9.9 7.60001 10.8 6.9 11.9 6.5C 13 6.1 14.2 5.8 15.6 5.8C 17 5.8 18.2 6 19.2 6.5C 20.3 6.9 21.2 7.60001 21.9 8.40001C 22.6 9.20001 23.2 10.3 23.6 11.5C 23.8 12.2 24 12.9 24.1 13.6L 31.4 13.6C 31.2 12.1 30.9 10.8 30.4 9.40001C 29.6 7.50001 28.6 5.9 27.2 4.5C 25.8 3.1 24.2 1.99999 22.2 1.19999C 20.3 0.399994 18.1 -3.05176e-06 15.7 -3.05176e-06C 13.3 -3.05176e-06 11.2 0.399994 9.2 1.19999C 7.2 1.99999 5.6 3.1 4.2 4.5C 2.8 5.9 1.7 7.50001 1 9.40001C 0.5 10.7 0.1 12.1 2.84217e-14 13.6L 7 13.6Z"/>
<path id="path9_fill" d="M 7.4 13.5C 7.5 12.8 7.7 12.1 7.9 11.4C 8.3 10.2 8.9 9.20001 9.7 8.30001C 10.5 7.50001 11.4 6.8 12.4 6.4C 13.5 5.9 14.6 5.7 15.9 5.7C 16.6 5.7 17.3 5.8 17.8 5.9C 18.4 6 18.8 6.10001 19.2 6.30001C 19.6 6.50001 20 6.60001 20.3 6.80001C 20.6 7.00001 20.9 7.20001 21.1 7.30001C 21.4 7.50001 21.6 7.6 21.8 7.7C 22 7.8 22.3 7.9 22.5 7.9C 22.9 7.9 23.2 7.8 23.4 7.7C 23.6 7.5 23.8 7.4 23.9 7.2L 26.3 4C 25.7 3.4 25.1 2.9 24.3 2.4C 23.6 1.9 22.8 1.49999 21.9 1.09999C 21 0.699994 20.1 0.500006 19.1 0.300006C 18.1 0.100006 17 3.05176e-06 15.9 3.05176e-06C 13.5 3.05176e-06 11.4 0.4 9.4 1.2C 7.4 2 5.8 3 4.4 4.4C 3 5.8 1.89999 7.40001 1.09999 9.30001C 0.599994 10.6 0.200003 12.1 3.05176e-06 13.6L 7.4 13.6L 7.4 13.5Z"/>
<path id="path10_fill" d="M 0.8 3.7C 1.5 5.6 2.49999 7.3 3.69999 8.6C 4.99999 10 6.50001 11.1 8.40001 11.9C 10.2 12.7 12.3 13.1 14.6 13.1C 17.1 13.1 19.3 12.7 21.2 11.9C 23 11.1 24.6 9.89999 25.8 8.29999L 23 5.29999C 22.8 5.09999 22.7 5.00001 22.5 5.00001C 22.3 4.90001 22.2 4.9 22 4.9C 21.8 4.9 21.6 4.90001 21.4 5.00001C 21.2 5.10001 21 5.19999 20.9 5.29999C 20.5 5.69999 20.1 6 19.7 6.2C 19.3 6.4 18.9 6.59999 18.4 6.79999C 17.9 6.99999 17.5 7.1 16.9 7.1C 16.4 7.2 15.8 7.2 15.1 7.2C 14 7.2 12.9 7 12 6.6C 11 6.2 10.2 5.5 9.40001 4.7C 8.70001 3.9 8.09999 2.8 7.69999 1.6C 7.49999 1.1 7.4 0.600006 7.3 6.10352e-06L -3.05176e-06 6.10352e-06C 0.0999969 1.40001 0.4 2.6 0.8 3.7Z"/>
<path id="path11_fill" d="M 1.09999 3.6C 1.89999 5.5 2.90001 7.2 4.30001 8.6C 5.70001 10 7.40001 11.1 9.30001 11.9C 11.3 12.7 13.4 13.1 15.8 13.1C 18.2 13.1 20.3 12.7 22.3 11.9C 24.2 11.1 25.9 10 27.3 8.6C 28.7 7.2 29.8 5.5 30.5 3.6C 31 2.5 31.3 1.3 31.5 -3.05176e-06L 24.2 -3.05176e-06C 24.1 0.499997 24 0.999997 23.8 1.5C 23.4 2.7 22.8 3.7 22.1 4.6C 21.4 5.4 20.5 6.1 19.4 6.5C 18.3 6.9 17.1 7.19999 15.8 7.19999C 14.4 7.19999 13.2 7 12.1 6.5C 11 6.1 10.1 5.4 9.4 4.6C 8.7 3.8 8.1 2.7 7.7 1.5C 7.5 0.999997 7.40001 0.499997 7.30001 -3.05176e-06L 3.05176e-06 -3.05176e-06C 0.300003 1.3 0.599994 2.4 1.09999 3.6Z"/>
<path id="path12_fill" d="M 7 13.6C 7.1 12.9 7.2 12.2 7.5 11.5C 7.9 10.3 8.5 9.30001 9.2 8.40001C 9.9 7.60001 10.8 6.9 11.9 6.5C 13 6.1 14.2 5.8 15.6 5.8C 17 5.8 18.2 6 19.2 6.5C 20.3 6.9 21.2 7.60001 21.9 8.40001C 22.6 9.20001 23.2 10.3 23.6 11.5C 23.8 12.2 24 12.9 24.1 13.6L 31.4 13.6C 31.2 12.1 30.9 10.8 30.4 9.40001C 29.6 7.50001 28.6 5.9 27.2 4.5C 25.8 3.1 24.2 1.99999 22.2 1.19999C 20.3 0.399994 18.1 -3.05176e-06 15.7 -3.05176e-06C 13.3 -3.05176e-06 11.2 0.399994 9.2 1.19999C 7.2 1.99999 5.6 3.1 4.2 4.5C 2.8 5.9 1.7 7.50001 0.999997 9.40001C 0.499997 10.7 0.0999969 12.1 -3.05176e-06 13.6L 7 13.6Z"/>
<path id="path13_fill" d="M 7.4 13.5C 7.5 12.8 7.7 12.1 7.9 11.4C 8.3 10.2 8.9 9.20001 9.7 8.30001C 10.5 7.50001 11.4 6.8 12.4 6.4C 13.5 5.9 14.6 5.7 15.9 5.7C 16.6 5.7 17.3 5.8 17.8 5.9C 18.4 6 18.8 6.10001 19.2 6.30001C 19.6 6.50001 20 6.60001 20.3 6.80001C 20.6 7.00001 20.9 7.20001 21.1 7.30001C 21.4 7.50001 21.6 7.6 21.8 7.7C 22 7.8 22.3 7.9 22.5 7.9C 22.9 7.9 23.2 7.8 23.4 7.7C 23.6 7.5 23.8 7.4 23.9 7.2L 26.3 4C 25.7 3.4 25.1 2.9 24.3 2.4C 23.6 1.9 22.8 1.49999 21.9 1.09999C 21 0.699994 20.1 0.500006 19.1 0.300006C 18.1 0.100006 17 3.05176e-06 15.9 3.05176e-06C 13.5 3.05176e-06 11.4 0.4 9.4 1.2C 7.4 2 5.8 3 4.4 4.4C 3 5.8 1.9 7.40001 1.1 9.30001C 0.599997 10.6 0.199998 12.1 -1.52588e-06 13.6L 7.4 13.6L 7.4 13.5Z"/>
<path id="path14_fill" d="M 0.800003 3.7C 1.5 5.6 2.5 7.3 3.7 8.6C 5 10 6.5 11.1 8.4 11.9C 10.2 12.7 12.3 13.1 14.6 13.1C 17.1 13.1 19.3 12.7 21.2 11.9C 23 11.1 24.6 9.89999 25.8 8.29999L 23 5.29999C 22.8 5.09999 22.7 5.00001 22.5 5.00001C 22.3 4.90001 22.2 4.9 22 4.9C 21.8 4.9 21.6 4.90001 21.4 5.00001C 21.2 5.10001 21 5.19999 20.9 5.29999C 20.5 5.69999 20.1 6 19.7 6.2C 19.3 6.4 18.9 6.59999 18.4 6.79999C 17.9 6.99999 17.5 7.1 16.9 7.1C 16.4 7.2 15.8 7.2 15.1 7.2C 14 7.2 12.9 7 12 6.6C 11 6.2 10.2 5.5 9.4 4.7C 8.7 3.9 8.1 2.8 7.7 1.6C 7.5 1.1 7.4 0.600006 7.3 6.10352e-06L -1.42109e-14 6.10352e-06C 0.1 1.40001 0.400003 2.6 0.800003 3.7Z"/>
<path id="path15_fill" d="M 1.1 3.6C 1.9 5.5 2.9 7.2 4.3 8.6C 5.7 10 7.4 11.1 9.3 11.9C 11.3 12.7 13.4 13.1 15.8 13.1C 18.2 13.1 20.3 12.7 22.3 11.9C 24.2 11.1 25.9 10 27.3 8.6C 28.7 7.2 29.8 5.5 30.5 3.6C 31 2.5 31.3 1.3 31.5 -3.05176e-06L 24.2 -3.05176e-06C 24.1 0.499997 24 0.999997 23.8 1.5C 23.4 2.7 22.8 3.7 22.1 4.6C 21.4 5.4 20.5 6.1 19.4 6.5C 18.3 6.9 17.1 7.19999 15.8 7.19999C 14.4 7.19999 13.2 7 12.1 6.5C 11 6.1 10.1 5.4 9.4 4.6C 8.7 3.8 8.1 2.7 7.7 1.5C 7.5 0.999997 7.4 0.499997 7.3 -3.05176e-06L -1.42109e-14 -3.05176e-06C 0.4 1.3 0.699998 2.4 1.1 3.6Z"/>
<path id="path16_fill" d="M 7 13.6C 7.1 12.9 7.2 12.2 7.5 11.5C 7.9 10.3 8.5 9.30001 9.2 8.40001C 9.9 7.60001 10.8 6.9 11.9 6.5C 13 6.1 14.2 5.8 15.6 5.8C 17 5.8 18.2 6 19.2 6.5C 20.3 6.9 21.2 7.60001 21.9 8.40001C 22.6 9.20001 23.2 10.3 23.6 11.5C 23.8 12.2 24 12.9 24.1 13.6L 31.4 13.6C 31.2 12.1 30.9 10.8 30.4 9.40001C 29.6 7.50001 28.6 5.9 27.2 4.5C 25.8 3.1 24.2 1.99999 22.2 1.19999C 20.3 0.399994 18.1 -3.05176e-06 15.7 -3.05176e-06C 13.3 -3.05176e-06 11.2 0.399994 9.2 1.19999C 7.2 1.99999 5.6 3.1 4.2 4.5C 2.8 5.9 1.7 7.50001 1 9.40001C 0.5 10.7 0.1 12.1 -1.42109e-14 13.6L 7 13.6Z"/>
<path id="path17_fill" d="M 7.4 13.5C 7.5 12.8 7.7 12.1 7.9 11.4C 8.3 10.2 8.9 9.20001 9.7 8.30001C 10.5 7.50001 11.4 6.8 12.4 6.4C 13.5 5.9 14.6 5.7 15.9 5.7C 16.6 5.7 17.3 5.8 17.8 5.9C 18.4 6 18.8 6.10001 19.2 6.30001C 19.6 6.50001 20 6.60001 20.3 6.80001C 20.6 7.00001 20.9 7.20001 21.1 7.30001C 21.4 7.50001 21.6 7.6 21.8 7.7C 22 7.8 22.3 7.9 22.5 7.9C 22.9 7.9 23.2 7.8 23.4 7.7C 23.6 7.5 23.8 7.4 23.9 7.2L 26.3 4C 25.7 3.4 25.1 2.9 24.3 2.4C 23.6 1.9 22.8 1.49999 21.9 1.09999C 21 0.699994 20.1 0.500006 19.1 0.300006C 18.1 0.100006 17 3.05176e-06 15.9 3.05176e-06C 13.5 3.05176e-06 11.4 0.4 9.4 1.2C 7.4 2 5.8 3 4.4 4.4C 3 5.8 1.9 7.40001 1.1 9.30001C 0.6 10.6 0.2 12.1 -3.8147e-07 13.6L 7.4 13.6L 7.4 13.5Z"/>
<path id="path18_fill" d="M 0.8 3.7C 1.5 5.6 2.5 7.3 3.7 8.6C 5 10 6.5 11.1 8.4 11.9C 10.2 12.7 12.3 13.1 14.6 13.1C 17.1 13.1 19.3 12.7 21.2 11.9C 23 11.1 24.6 9.89999 25.8 8.29999L 23 5.29999C 22.8 5.09999 22.7 5.00001 22.5 5.00001C 22.3 4.90001 22.2 4.9 22 4.9C 21.8 4.9 21.6 4.90001 21.4 5.00001C 21.2 5.10001 21 5.19999 20.9 5.29999C 20.5 5.69999 20.1 6 19.7 6.2C 19.3 6.4 18.9 6.59999 18.4 6.79999C 17.9 6.99999 17.5 7.1 16.9 7.1C 16.4 7.2 15.8 7.2 15.1 7.2C 14 7.2 12.9 7 12 6.6C 11 6.2 10.2 5.5 9.4 4.7C 8.7 3.9 8.1 2.8 7.7 1.6C 7.5 1.1 7.4 0.600006 7.3 6.10352e-06L 7.62939e-07 6.10352e-06C 0.100001 1.40001 0.4 2.6 0.8 3.7Z"/>
<path id="path19_fill" d="M 1.1 3.6C 1.9 5.5 2.9 7.2 4.3 8.6C 5.7 10 7.4 11.1 9.3 11.9C 11.3 12.7 13.4 13.1 15.8 13.1C 18.2 13.1 20.3 12.7 22.3 11.9C 24.2 11.1 25.9 10 27.3 8.6C 28.7 7.2 29.8 5.5 30.5 3.6C 31 2.5 31.3 1.3 31.5 -3.05176e-06L 24.2 -3.05176e-06C 24.1 0.499997 24 0.999997 23.8 1.5C 23.4 2.7 22.8 3.7 22.1 4.6C 21.4 5.4 20.5 6.1 19.4 6.5C 18.3 6.9 17.1 7.19999 15.8 7.19999C 14.4 7.19999 13.2 7 12.1 6.5C 11 6.1 10.1 5.4 9.4 4.6C 8.7 3.8 8.1 2.7 7.7 1.5C 7.5 0.999997 7.4 0.499997 7.3 -3.05176e-06L -7.62939e-07 -3.05176e-06C 0.299999 1.3 0.600002 2.4 1.1 3.6Z"/>
<path id="path20_fill" d="M 7 13.6C 7.1 12.9 7.2 12.2 7.5 11.5C 7.9 10.3 8.5 9.29999 9.2 8.39999C 9.9 7.59999 10.8 6.9 11.9 6.5C 13 6.1 14.2 5.8 15.6 5.8C 17 5.8 18.2 6 19.2 6.5C 20.3 6.9 21.2 7.59999 21.9 8.39999C 22.6 9.19999 23.2 10.3 23.6 11.5C 23.8 12.2 24 12.9 24.1 13.6L 31.4 13.6C 31.2 12.1 30.9 10.8 30.4 9.39999C 29.6 7.49999 28.6 5.9 27.2 4.5C 25.8 3.1 24.2 2 22.2 1.2C 20.3 0.399997 18.1 0 15.7 0C 13.3 0 11.2 0.399997 9.2 1.2C 7.2 2 5.6 3.1 4.2 4.5C 2.8 5.9 1.7 7.49999 1 9.39999C 0.5 10.7 0.1 12.1 5.68434e-14 13.6L 7 13.6Z"/>
<path id="path21_fill" d="M 7.4 13.5C 7.5 12.8 7.7 12.1 7.9 11.4C 8.3 10.2 8.9 9.19999 9.7 8.29999C 10.5 7.49999 11.4 6.8 12.4 6.4C 13.5 5.9 14.6 5.7 15.9 5.7C 16.6 5.7 17.3 5.8 17.8 5.9C 18.4 6 18.8 6.09999 19.2 6.29999C 19.6 6.49999 20 6.59999 20.3 6.79999C 20.6 6.99999 20.9 7.19999 21.1 7.29999C 21.4 7.49999 21.6 7.6 21.8 7.7C 22 7.8 22.3 7.9 22.5 7.9C 22.9 7.9 23.2 7.8 23.4 7.7C 23.6 7.5 23.8 7.4 23.9 7.2L 26.3 4.00001C 25.7 3.40001 25.1 2.9 24.3 2.4C 23.6 1.9 22.8 1.5 21.9 1.1C 21 0.699997 20.1 0.499994 19.1 0.299994C 18.1 0.0999939 17 6.10352e-06 15.9 6.10352e-06C 13.5 6.10352e-06 11.4 0.400003 9.4 1.2C 7.4 2 5.8 3 4.4 4.4C 3 5.8 1.89999 7.39999 1.09999 9.29999C 0.599994 10.6 0.200003 12.1 3.05176e-06 13.6L 7.4 13.6L 7.4 13.5Z"/>
<path id="path22_fill" d="M 0.8 3.7C 1.5 5.6 2.49999 7.30001 3.69999 8.60001C 4.99999 10 6.50001 11.1 8.40001 11.9C 10.2 12.7 12.3 13.1 14.6 13.1C 17.1 13.1 19.3 12.7 21.2 11.9C 23 11.1 24.6 9.9 25.8 8.3L 23 5.3C 22.8 5.1 22.7 5 22.5 5C 22.3 4.9 22.2 4.89999 22 4.89999C 21.8 4.89999 21.6 4.9 21.4 5C 21.2 5.1 21 5.2 20.9 5.3C 20.5 5.7 20.1 6 19.7 6.2C 19.3 6.4 18.9 6.6 18.4 6.8C 17.9 7 17.5 7.10001 16.9 7.10001C 16.4 7.20001 15.8 7.2 15.1 7.2C 14 7.2 12.9 7.00001 12 6.60001C 11 6.20001 10.2 5.5 9.40001 4.7C 8.70001 3.9 8.09999 2.80001 7.69999 1.60001C 7.49999 1.10001 7.4 0.6 7.3 -2.84217e-14L -3.05176e-06 -2.84217e-14C 0.0999969 1.3 0.4 2.5 0.8 3.7Z"/>
<path id="path23_fill" d="M 1.09999 3.60001C 1.89999 5.50001 2.90001 7.20001 4.30001 8.60001C 5.70001 10 7.40001 11.1 9.30001 11.9C 11.3 12.7 13.4 13.1 15.8 13.1C 18.2 13.1 20.3 12.7 22.3 11.9C 24.2 11.1 25.9 10 27.3 8.60001C 28.7 7.20001 29.8 5.50001 30.5 3.60001C 31 2.50001 31.3 1.3 31.5 0L 24.2 0C 24.1 0.5 24 1 23.8 1.5C 23.4 2.7 22.8 3.70001 22.1 4.60001C 21.4 5.40001 20.5 6.1 19.4 6.5C 18.3 6.9 17.1 7.2 15.8 7.2C 14.4 7.2 13.2 7 12.1 6.5C 11 6.1 10.1 5.40001 9.4 4.60001C 8.7 3.80001 8.1 2.7 7.7 1.5C 7.5 1 7.40001 0.5 7.30001 0L 3.05176e-06 0C 0.300003 1.3 0.599994 2.50001 1.09999 3.60001Z"/>
<path id="path24_fill" d="M 7 13.6C 7.1 12.9 7.2 12.2 7.5 11.5C 7.9 10.3 8.49999 9.29999 9.19999 8.39999C 9.89999 7.59999 10.8 6.9 11.9 6.5C 13 6.1 14.2 5.8 15.6 5.8C 17 5.8 18.2 6 19.2 6.5C 20.3 6.9 21.2 7.59999 21.9 8.39999C 22.6 9.19999 23.2 10.3 23.6 11.5C 23.8 12.2 24 12.9 24.1 13.6L 31.4 13.6C 31.2 12.1 30.9 10.8 30.4 9.39999C 29.6 7.49999 28.6 5.9 27.2 4.5C 25.8 3.1 24.2 2 22.2 1.2C 20.3 0.399997 18.1 0 15.7 0C 13.3 0 11.2 0.399997 9.19999 1.2C 7.19999 2 5.59999 3.1 4.19999 4.5C 2.79999 5.9 1.7 7.49999 0.999997 9.39999C 0.499997 10.7 0.0999969 12.1 -3.05176e-06 13.6L 7 13.6Z"/>
<path id="path25_fill" d="M 7.4 13.5C 7.5 12.8 7.7 12.1 7.9 11.4C 8.3 10.2 8.9 9.19999 9.7 8.29999C 10.5 7.49999 11.4 6.8 12.4 6.4C 13.5 5.9 14.6 5.7 15.9 5.7C 16.6 5.7 17.3 5.8 17.8 5.9C 18.4 6 18.8 6.09999 19.2 6.29999C 19.6 6.49999 20 6.59999 20.3 6.79999C 20.6 6.99999 20.9 7.19999 21.1 7.29999C 21.4 7.49999 21.6 7.6 21.8 7.7C 22 7.8 22.3 7.9 22.5 7.9C 22.9 7.9 23.2 7.8 23.4 7.7C 23.6 7.5 23.8 7.4 23.9 7.2L 26.3 4.00001C 25.7 3.40001 25.1 2.9 24.3 2.4C 23.6 1.9 22.8 1.5 21.9 1.1C 21 0.699997 20.1 0.499994 19.1 0.299994C 18.1 0.0999939 17 6.10352e-06 15.9 6.10352e-06C 13.5 6.10352e-06 11.4 0.400003 9.4 1.2C 7.4 2 5.8 3 4.4 4.4C 3 5.8 1.9 7.39999 1.1 9.29999C 0.599997 10.6 0.200006 12.1 6.10352e-06 13.6L 7.4 13.6L 7.4 13.5Z"/>
<path id="path26_fill" d="M 0.800003 3.7C 1.5 5.6 2.5 7.30001 3.7 8.60001C 5 10 6.49999 11.1 8.39999 11.9C 10.2 12.7 12.3 13.1 14.6 13.1C 17.1 13.1 19.3 12.7 21.2 11.9C 23.1 11.1 24.6 9.9 25.8 8.3L 23 5.3C 22.8 5.1 22.7 5 22.5 5C 22.3 4.9 22.2 4.89999 22 4.89999C 21.8 4.89999 21.6 4.9 21.4 5C 21.2 5.1 21 5.2 20.9 5.3C 20.5 5.7 20.1 6 19.7 6.2C 19.3 6.4 18.9 6.6 18.4 6.8C 17.9 7 17.5 7.10001 16.9 7.10001C 16.4 7.20001 15.8 7.2 15.1 7.2C 14 7.2 12.9 7.00001 12 6.60001C 11 6.20001 10.2 5.5 9.39999 4.7C 8.69999 3.9 8.1 2.80001 7.7 1.60001C 7.5 1.10001 7.4 0.6 7.3 -2.84217e-14L 2.84217e-14 -2.84217e-14C 0.1 1.3 0.400003 2.5 0.800003 3.7Z"/>
<path id="path27_fill" d="M 1.10001 3.60001C 1.90001 5.50001 2.9 7.20001 4.3 8.60001C 5.7 10 7.4 11.1 9.3 11.9C 11.3 12.7 13.4 13.1 15.8 13.1C 18.2 13.1 20.3 12.7 22.3 11.9C 24.2 11.1 25.9 10 27.3 8.60001C 28.7 7.20001 29.8 5.50001 30.5 3.60001C 31 2.50001 31.3 1.3 31.5 0L 24.2 0C 24.1 0.5 24 1 23.8 1.5C 23.4 2.7 22.8 3.70001 22.1 4.60001C 21.4 5.40001 20.5 6.1 19.4 6.5C 18.3 6.9 17.1 7.2 15.8 7.2C 14.4 7.2 13.2 7 12.1 6.5C 11 6.1 10.1 5.40001 9.39999 4.60001C 8.69999 3.80001 8.1 2.7 7.7 1.5C 7.5 1 7.4 0.5 7.3 0L 0 0C 0.4 1.3 0.700006 2.50001 1.10001 3.60001Z"/>
</defs>
</svg>
