<svg width="347" height="229" viewBox="0 0 347 229" version="1.1" xmlns="http://www.w3.org/2000/svg" xmlns:xlink="http://www.w3.org/1999/xlink">
<title>figure_5</title>
<desc>Created using Figma</desc>
<g id="Canvas" transform="translate(1307 -3393)">
<g id="figure_5">
<g id="Vector">
<use xlink:href="#path0_fill" transform="translate(-1189.7 3393)" fill="url(#paint0_linear)"/>
</g>
<g id="pattern">
<g id="Vector">
<use xlink:href="#path1_fill" transform="translate(-1143.2 3437.3)" fill="url(#paint1_linear)"/>
</g>
<g id="Vector">
<use xlink:href="#path2_fill" transform="translate(-1171.8 3437.4)" fill="url(#paint2_linear)"/>
</g>
<g id="Vector">
<use xlink:href="#path3_fill" transform="translate(-1159.4 3456.3)" fill="url(#paint3_linear)"/>
</g>
<g id="Vector">
<use xlink:href="#path4_fill" transform="translate(-1131.4 3456.4)" fill="url(#paint4_linear)"/>
</g>
<g id="Vector">
<use xlink:href="#path5_fill" transform="translate(-1207.9 3437.3)" fill="url(#paint5_linear)"/>
</g>
<g id="Vector">
<use xlink:href="#path6_fill" transform="translate(-1236.5 3437.4)" fill="url(#paint6_linear)"/>
</g>
<g id="Vector">
<use xlink:href="#path7_fill" transform="translate(-1224.2 3456.3)" fill="url(#paint7_linear)"/>
</g>
<g id="Vector">
<use xlink:href="#path8_fill" transform="translate(-1196.1 3456.4)" fill="url(#paint8_linear)"/>
</g>
<g id="Vector">
<use xlink:href="#path9_fill" transform="translate(-1148.9 3471.2)" fill="url(#paint9_linear)"/>
</g>
<g id="Vector">
<use xlink:href="#path10_fill" transform="translate(-1177.5 3471.3)" fill="url(#paint10_linear)"/>
</g>
<g id="Vector">
<use xlink:href="#path11_fill" transform="translate(-1165.2 3490.2)" fill="url(#paint11_linear)"/>
</g>
<g id="Vector">
<use xlink:href="#path12_fill" transform="translate(-1137.1 3490.2)" fill="url(#paint12_linear)"/>
</g>
<g id="Vector">
<use xlink:href="#path13_fill" transform="translate(-1213.7 3471.2)" fill="url(#paint13_linear)"/>
</g>
<g id="Vector">
<use xlink:href="#path14_fill" transform="translate(-1242.3 3471.3)" fill="url(#paint14_linear)"/>
</g>
<g id="Vector">
<use xlink:href="#path15_fill" transform="translate(-1229.9 3490.2)" fill="url(#paint15_linear)"/>
</g>
<g id="Vector">
<use xlink:href="#path16_fill" transform="translate(-1201.8 3490.2)" fill="url(#paint16_linear)"/>
</g>
<g id="Vector">
<use xlink:href="#path17_fill" transform="translate(-1278.4 3471.2)" fill="url(#paint17_linear)"/>
</g>
<g id="Vector">
<use xlink:href="#path18_fill" transform="translate(-1307 3471.3)" fill="url(#paint18_linear)"/>
</g>
<g id="Vector">
<use xlink:href="#path19_fill" transform="translate(-1294.6 3490.2)" fill="url(#paint19_linear)"/>
</g>
<g id="Vector">
<use xlink:href="#path20_fill" transform="translate(-1266.6 3490.2)" fill="url(#paint20_linear)"/>
</g>
<g id="Vector">
<use xlink:href="#path21_fill" transform="translate(-1089.9 3505)" fill="url(#paint21_linear)"/>
</g>
<g id="Vector">
<use xlink:href="#path22_fill" transform="translate(-1118.5 3505.1)" fill="url(#paint22_linear)"/>
</g>
<g id="Vector">
<use xlink:href="#path23_fill" transform="translate(-1106.1 3524)" fill="url(#paint23_linear)"/>
</g>
<g id="Vector">
<use xlink:href="#path24_fill" transform="translate(-1078.1 3524.1)" fill="url(#paint24_linear)"/>
</g>
<g id="Vector">
<use xlink:href="#path25_fill" transform="translate(-1154.7 3505)" fill="url(#paint25_linear)"/>
</g>
<g id="Vector">
<use xlink:href="#path26_fill" transform="translate(-1183.3 3505.1)" fill="url(#paint26_linear)"/>
</g>
<g id="Vector">
<use xlink:href="#path27_fill" transform="translate(-1170.9 3524)" fill="url(#paint27_linear)"/>
</g>
<g id="Vector">
<use xlink:href="#path28_fill" transform="translate(-1142.8 3524.1)" fill="url(#paint28_linear)"/>
</g>
</g>
</g>
</g>
<defs>
<linearGradient id="paint0_linear" x1="0" y1="0" x2="1" y2="0" gradientUnits="userSpaceOnUse" gradientTransform="matrix(246.618 -161.054 161.054 246.618 -95.3842 75.6692)">
<stop offset="0" stop-color="#394EE5"/>
<stop offset="0.9949" stop-color="#DB71B0"/>
</linearGradient>
<linearGradient id="paint1_linear" x1="0" y1="0" x2="1" y2="0" gradientUnits="userSpaceOnUse" gradientTransform="matrix(31.4961 0 0 31.4961 -0.2522 -8.92965)">
<stop offset="0" stop-color="#FFFFFF"/>
<stop offset="0.9949" stop-color="#DB71B0"/>
</linearGradient>
<linearGradient id="paint2_linear" x1="0" y1="0" x2="1" y2="0" gradientUnits="userSpaceOnUse" gradientTransform="matrix(26.3286 0 0 26.3286 0.1111 -6.4459)">
<stop offset="0" stop-color="#FFFFFF"/>
<stop offset="0.9949" stop-color="#DB71B0"/>
</linearGradient>
<linearGradient id="paint3_linear" x1="0" y1="0" x2="1" y2="0" gradientUnits="userSpaceOnUse" gradientTransform="matrix(25.8932 0 0 25.8932 -0.0861 -6.3619)">
<stop offset="0" stop-color="#FFFFFF"/>
<stop offset="0.9949" stop-color="#DB71B0"/>
</linearGradient>
<linearGradient id="paint4_linear" x1="0" y1="0" x2="1" y2="0" gradientUnits="userSpaceOnUse" gradientTransform="matrix(31.3439 0 0 31.3439 0.1689 -9.18725)">
<stop offset="0" stop-color="#FFFFFF"/>
<stop offset="0.9949" stop-color="#DB71B0"/>
</linearGradient>
<linearGradient id="paint5_linear" x1="0" y1="0" x2="1" y2="0" gradientUnits="userSpaceOnUse" gradientTransform="matrix(31.4961 0 0 31.4961 -0.2917 -8.92965)">
<stop offset="0" stop-color="#FFFFFF"/>
<stop offset="0.9949" stop-color="#DB71B0"/>
</linearGradient>
<linearGradient id="paint6_linear" x1="0" y1="0" x2="1" y2="0" gradientUnits="userSpaceOnUse" gradientTransform="matrix(26.3286 0 0 26.3286 0.0716 -6.4459)">
<stop offset="0" stop-color="#FFFFFF"/>
<stop offset="0.9949" stop-color="#DB71B0"/>
</linearGradient>
<linearGradient id="paint7_linear" x1="0" y1="0" x2="1" y2="0" gradientUnits="userSpaceOnUse" gradientTransform="matrix(25.8932 0 0 25.8932 -0.0256 -6.3619)">
<stop offset="0" stop-color="#FFFFFF"/>
<stop offset="0.9949" stop-color="#DB71B0"/>
</linearGradient>
<linearGradient id="paint8_linear" x1="0" y1="0" x2="1" y2="0" gradientUnits="userSpaceOnUse" gradientTransform="matrix(31.344 0 0 31.344 0.1294 -9.1873)">
<stop offset="0" stop-color="#FFFFFF"/>
<stop offset="0.9949" stop-color="#DB71B0"/>
</linearGradient>
<linearGradient id="paint9_linear" x1="0" y1="0" x2="1" y2="0" gradientUnits="userSpaceOnUse" gradientTransform="matrix(31.4962 0 0 31.4962 -0.2844 -8.9693)">
<stop offset="0" stop-color="#FFFFFF"/>
<stop offset="0.9949" stop-color="#DB71B0"/>
</linearGradient>
<linearGradient id="paint10_linear" x1="0" y1="0" x2="1" y2="0" gradientUnits="userSpaceOnUse" gradientTransform="matrix(26.3286 0 0 26.3286 0.0789 -6.4855)">
<stop offset="0" stop-color="#FFFFFF"/>
<stop offset="0.9949" stop-color="#DB71B0"/>
</linearGradient>
<linearGradient id="paint11_linear" x1="0" y1="0" x2="1" y2="0" gradientUnits="userSpaceOnUse" gradientTransform="matrix(25.8933 0 0 25.8933 -0.0183 -6.40165)">
<stop offset="0" stop-color="#FFFFFF"/>
<stop offset="0.9949" stop-color="#DB71B0"/>
</linearGradient>
<linearGradient id="paint12_linear" x1="0" y1="0" x2="1" y2="0" gradientUnits="userSpaceOnUse" gradientTransform="matrix(31.3439 0 0 31.3439 0.1368 -9.12695)">
<stop offset="0" stop-color="#FFFFFF"/>
<stop offset="0.9949" stop-color="#DB71B0"/>
</linearGradient>
<linearGradient id="paint13_linear" x1="0" y1="0" x2="1" y2="0" gradientUnits="userSpaceOnUse" gradientTransform="matrix(31.4961 0 0 31.4961 -0.2238 -8.96925)">
<stop offset="0" stop-color="#FFFFFF"/>
<stop offset="0.9949" stop-color="#DB71B0"/>
</linearGradient>
<linearGradient id="paint14_linear" x1="0" y1="0" x2="1" y2="0" gradientUnits="userSpaceOnUse" gradientTransform="matrix(26.3286 0 0 26.3286 0.1395 -6.4855)">
<stop offset="0" stop-color="#FFFFFF"/>
<stop offset="0.9949" stop-color="#DB71B0"/>
</linearGradient>
<linearGradient id="paint15_linear" x1="0" y1="0" x2="1" y2="0" gradientUnits="userSpaceOnUse" gradientTransform="matrix(25.8932 0 0 25.8932 -0.0577 -6.4016)">
<stop offset="0" stop-color="#FFFFFF"/>
<stop offset="0.9949" stop-color="#DB71B0"/>
</linearGradient>
<linearGradient id="paint16_linear" x1="0" y1="0" x2="1" y2="0" gradientUnits="userSpaceOnUse" gradientTransform="matrix(31.3439 0 0 31.3439 0.0973 -9.12695)">
<stop offset="0" stop-color="#FFFFFF"/>
<stop offset="0.9949" stop-color="#DB71B0"/>
</linearGradient>
<linearGradient id="paint17_linear" x1="0" y1="0" x2="1" y2="0" gradientUnits="userSpaceOnUse" gradientTransform="matrix(31.4961 0 0 31.4961 -0.2633 -8.96925)">
<stop offset="0" stop-color="#FFFFFF"/>
<stop offset="0.9949" stop-color="#DB71B0"/>
</linearGradient>
<linearGradient id="paint18_linear" x1="0" y1="0" x2="1" y2="0" gradientUnits="userSpaceOnUse" gradientTransform="matrix(26.3286 0 0 26.3286 0.1 -6.4855)">
<stop offset="0" stop-color="#FFFFFF"/>
<stop offset="0.9949" stop-color="#DB71B0"/>
</linearGradient>
<linearGradient id="paint19_linear" x1="0" y1="0" x2="1" y2="0" gradientUnits="userSpaceOnUse" gradientTransform="matrix(25.8932 0 0 25.8932 -0.0972 -6.4016)">
<stop offset="0" stop-color="#FFFFFF"/>
<stop offset="0.9949" stop-color="#DB71B0"/>
</linearGradient>
<linearGradient id="paint20_linear" x1="0" y1="0" x2="1" y2="0" gradientUnits="userSpaceOnUse" gradientTransform="matrix(31.344 0 0 31.344 0.1578 -9.127)">
<stop offset="0" stop-color="#FFFFFF"/>
<stop offset="0.9949" stop-color="#DB71B0"/>
</linearGradient>
<linearGradient id="paint21_linear" x1="0" y1="0" x2="1" y2="0" gradientUnits="userSpaceOnUse" gradientTransform="matrix(31.4961 0 0 31.4961 -0.277 -8.90895)">
<stop offset="0" stop-color="#FFFFFF"/>
<stop offset="0.9949" stop-color="#DB71B0"/>
</linearGradient>
<linearGradient id="paint22_linear" x1="0" y1="0" x2="1" y2="0" gradientUnits="userSpaceOnUse" gradientTransform="matrix(26.3286 0 0 26.3286 0.0862 -6.4252)">
<stop offset="0" stop-color="#FFFFFF"/>
<stop offset="0.9949" stop-color="#DB71B0"/>
</linearGradient>
<linearGradient id="paint23_linear" x1="0" y1="0" x2="1" y2="0" gradientUnits="userSpaceOnUse" gradientTransform="matrix(25.8932 0 0 25.8932 -0.1109 -6.3412)">
<stop offset="0" stop-color="#FFFFFF"/>
<stop offset="0.9949" stop-color="#DB71B0"/>
</linearGradient>
<linearGradient id="paint24_linear" x1="0" y1="0" x2="1" y2="0" gradientUnits="userSpaceOnUse" gradientTransform="matrix(31.3439 0 0 31.3439 0.1441 -9.16655)">
<stop offset="0" stop-color="#FFFFFF"/>
<stop offset="0.9949" stop-color="#DB71B0"/>
</linearGradient>
<linearGradient id="paint25_linear" x1="0" y1="0" x2="1" y2="0" gradientUnits="userSpaceOnUse" gradientTransform="matrix(31.4961 0 0 31.4961 -0.2165 -8.90895)">
<stop offset="0" stop-color="#FFFFFF"/>
<stop offset="0.9949" stop-color="#DB71B0"/>
</linearGradient>
<linearGradient id="paint26_linear" x1="0" y1="0" x2="1" y2="0" gradientUnits="userSpaceOnUse" gradientTransform="matrix(26.3286 0 0 26.3286 0.1468 -6.4252)">
<stop offset="0" stop-color="#FFFFFF"/>
<stop offset="0.9949" stop-color="#DB71B0"/>
</linearGradient>
<linearGradient id="paint27_linear" x1="0" y1="0" x2="1" y2="0" gradientUnits="userSpaceOnUse" gradientTransform="matrix(25.8932 0 0 25.8932 -0.0504 -6.3412)">
<stop offset="0" stop-color="#FFFFFF"/>
<stop offset="0.9949" stop-color="#DB71B0"/>
</linearGradient>
<linearGradient id="paint28_linear" x1="0" y1="0" x2="1" y2="0" gradientUnits="userSpaceOnUse" gradientTransform="matrix(31.344 0 0 31.344 0.1046 -9.1666)">
<stop offset="0" stop-color="#FFFFFF"/>
<stop offset="0.9949" stop-color="#DB71B0"/>
</linearGradient>
<path id="path0_fill" d="M 114.5 229C 177.737 229 229 177.737 229 114.5C 229 51.2634 177.737 0 114.5 0C 51.2634 0 -3.05176e-06 51.2634 -3.05176e-06 114.5C -3.05176e-06 177.737 51.2634 229 114.5 229Z"/>
<path id="path1_fill" d="M 7 13.6C 7.1 12.9 7.2 12.2 7.5 11.5C 7.9 10.3 8.49999 9.3 9.19999 8.4C 9.89999 7.6 10.8 6.9 11.9 6.5C 13 6.1 14.2 5.8 15.6 5.8C 17 5.8 18.2 6 19.2 6.5C 20.3 6.9 21.2 7.6 21.9 8.4C 22.6 9.2 23.2 10.3 23.6 11.5C 23.8 12.2 24 12.9 24.1 13.6L 31.4 13.6C 31.2 12.1 30.9 10.8 30.4 9.4C 29.6 7.5 28.6 5.9 27.2 4.5C 25.8 3.1 24.2 2 22.2 1.2C 20.3 0.4 18.1 -7.62939e-07 15.7 -7.62939e-07C 13.3 -7.62939e-07 11.2 0.4 9.19999 1.2C 7.19999 2 5.59999 3.1 4.19999 4.5C 2.79999 5.9 1.7 7.5 0.999997 9.4C 0.499997 10.7 0.0999969 12.1 -3.05176e-06 13.6L 7 13.6Z"/>
<path id="path2_fill" d="M 7.4 13.5C 7.5 12.8 7.7 12.1 7.9 11.4C 8.3 10.2 8.9 9.2 9.7 8.3C 10.5 7.5 11.4 6.8 12.4 6.4C 13.5 5.9 14.6 5.7 15.9 5.7C 16.6 5.7 17.3 5.8 17.8 5.9C 18.4 6 18.8 6.1 19.2 6.3C 19.6 6.5 20 6.6 20.3 6.8C 20.6 7 20.9 7.2 21.1 7.3C 21.4 7.5 21.6 7.6 21.8 7.7C 22 7.8 22.3 7.9 22.5 7.9C 22.9 7.9 23.2 7.8 23.4 7.7C 23.6 7.5 23.8 7.4 23.9 7.2L 26.3 4C 25.7 3.4 25.1 2.9 24.3 2.4C 23.6 1.9 22.8 1.5 21.9 1.1C 21 0.7 20.1 0.500001 19.1 0.300001C 18.1 0.100001 17 1.52588e-06 15.9 1.52588e-06C 13.5 1.52588e-06 11.4 0.399998 9.4 1.2C 7.4 2 5.8 3 4.4 4.4C 3 5.8 1.9 7.4 1.1 9.3C 0.599997 10.6 0.200006 12.1 6.10352e-06 13.6L 7.4 13.6L 7.4 13.5Z"/>
<path id="path3_fill" d="M 0.800003 3.7C 1.5 5.6 2.5 7.3 3.7 8.6C 5 10 6.49999 11.1 8.39999 11.9C 10.2 12.7 12.3 13.1 14.6 13.1C 17.1 13.1 19.3 12.7 21.2 11.9C 23.1 11.1 24.6 9.9 25.8 8.3L 23 5.3C 22.8 5.1 22.7 5 22.5 5C 22.3 4.9 22.2 4.9 22 4.9C 21.8 4.9 21.6 4.9 21.4 5C 21.2 5.1 21 5.2 20.9 5.3C 20.5 5.7 20.1 6 19.7 6.2C 19.3 6.4 18.9 6.6 18.4 6.8C 17.9 7 17.5 7.1 16.9 7.1C 16.4 7.2 15.8 7.2 15.1 7.2C 14 7.2 12.9 7 12 6.6C 11 6.2 10.2 5.5 9.39999 4.7C 8.69999 3.9 8.1 2.8 7.7 1.6C 7.5 1.1 7.4 0.599999 7.3 -7.62939e-07L 2.84217e-14 -7.62939e-07C 0.1 1.3 0.400003 2.6 0.800003 3.7Z"/>
<path id="path4_fill" d="M 1.10001 3.6C 1.90001 5.5 2.9 7.2 4.3 8.6C 5.7 10 7.4 11.1 9.3 11.9C 11.3 12.7 13.4 13.1 15.8 13.1C 18.2 13.1 20.3 12.7 22.3 11.9C 24.2 11.1 25.9 10 27.3 8.6C 28.7 7.2 29.8 5.5 30.5 3.6C 31 2.5 31.3 1.3 31.5 1.52588e-06L 24.2 1.52588e-06C 24.1 0.500002 24 1 23.8 1.5C 23.4 2.7 22.8 3.7 22.1 4.6C 21.4 5.4 20.5 6.1 19.4 6.5C 18.3 6.9 17.1 7.2 15.8 7.2C 14.4 7.2 13.2 7 12.1 6.5C 11 6.1 10.1 5.4 9.39999 4.6C 8.69999 3.8 8.1 2.7 7.7 1.5C 7.5 1 7.4 0.500002 7.3 1.52588e-06L 0 1.52588e-06C 0.4 1.2 0.700006 2.4 1.10001 3.6Z"/>
<path id="path5_fill" d="M 7 13.6C 7.1 12.9 7.2 12.2 7.5 11.5C 7.9 10.3 8.5 9.3 9.2 8.4C 9.9 7.5 10.8 6.9 11.9 6.5C 13 6.1 14.2 5.8 15.6 5.8C 17 5.8 18.2 6 19.2 6.5C 20.3 6.9 21.2 7.6 21.9 8.4C 22.6 9.2 23.2 10.3 23.6 11.5C 23.8 12.2 24 12.9 24.1 13.6L 31.4 13.6C 31.2 12.1 30.9 10.8 30.4 9.4C 29.6 7.5 28.6 5.9 27.2 4.5C 25.8 3.1 24.2 2 22.2 1.2C 20.3 0.4 18.1 -7.62939e-07 15.7 -7.62939e-07C 13.3 -7.62939e-07 11.2 0.4 9.2 1.2C 7.2 2 5.6 3.1 4.2 4.5C 2.8 5.9 1.7 7.5 1 9.4C 0.5 10.7 0.1 12.1 0 13.6L 7 13.6Z"/>
<path id="path6_fill" d="M 7.4 13.5C 7.5 12.8 7.7 12.1 7.9 11.4C 8.3 10.2 8.9 9.2 9.7 8.3C 10.5 7.5 11.4 6.8 12.4 6.4C 13.5 5.9 14.6 5.7 15.9 5.7C 16.6 5.7 17.3 5.8 17.8 5.9C 18.4 6 18.8 6.1 19.2 6.3C 19.6 6.5 20 6.6 20.3 6.8C 20.6 7 20.9 7.2 21.1 7.3C 21.4 7.5 21.6 7.6 21.8 7.7C 22 7.8 22.3 7.9 22.5 7.9C 22.9 7.9 23.2 7.8 23.4 7.7C 23.6 7.5 23.8 7.4 23.9 7.2L 26.3 4C 25.7 3.4 25.1 2.9 24.3 2.4C 23.6 1.9 22.8 1.5 21.9 1.1C 21 0.7 20.1 0.500001 19.1 0.300001C 18.1 0.100001 17 1.52588e-06 15.9 1.52588e-06C 13.5 1.52588e-06 11.4 0.399998 9.4 1.2C 7.4 2 5.8 3 4.4 4.4C 3 5.8 1.9 7.4 1.1 9.3C 0.6 10.6 0.200002 12.1 1.52588e-06 13.6L 7.4 13.6L 7.4 13.5Z"/>
<path id="path7_fill" d="M 0.8 3.7C 1.5 5.6 2.5 7.3 3.7 8.6C 5 10 6.5 11.1 8.4 11.9C 10.2 12.7 12.3 13.1 14.6 13.1C 17.1 13.1 19.3 12.7 21.2 11.9C 23 11.1 24.6 9.9 25.8 8.3L 23 5.3C 22.8 5.1 22.7 5 22.5 5C 22.3 4.9 22.2 4.9 22 4.9C 21.8 4.9 21.6 4.9 21.4 5C 21.2 5.1 21 5.2 20.9 5.3C 20.5 5.7 20.1 6 19.7 6.2C 19.3 6.4 18.9 6.6 18.4 6.8C 17.9 7 17.5 7.1 16.9 7.1C 16.4 7.2 15.8 7.2 15.1 7.2C 14 7.2 12.9 7 12 6.6C 11 6.2 10.2 5.5 9.4 4.7C 8.7 3.9 8.1 2.8 7.7 1.6C 7.5 1.1 7.4 0.599999 7.3 -7.62939e-07L -3.05176e-06 -7.62939e-07C 0.0999969 1.3 0.4 2.6 0.8 3.7Z"/>
<path id="path8_fill" d="M 1.1 3.6C 1.9 5.5 2.9 7.2 4.3 8.6C 5.7 10 7.4 11.1 9.3 11.9C 11.3 12.7 13.4 13.1 15.8 13.1C 18.2 13.1 20.3 12.7 22.3 11.9C 24.2 11.1 25.9 10 27.3 8.6C 28.7 7.2 29.8 5.5 30.5 3.6C 31 2.5 31.3 1.3 31.5 1.52588e-06L 24.2 1.52588e-06C 24.1 0.500002 24 1 23.8 1.5C 23.4 2.7 22.8 3.7 22.1 4.6C 21.4 5.4 20.5 6.1 19.4 6.5C 18.3 6.9 17.1 7.2 15.8 7.2C 14.4 7.2 13.2 7 12.1 6.5C 11 6.1 10.1 5.4 9.4 4.6C 8.7 3.8 8.1 2.7 7.7 1.5C 7.5 1 7.4 0.500002 7.3 1.52588e-06L 3.05176e-06 1.52588e-06C 0.300003 1.2 0.600002 2.4 1.1 3.6Z"/>
<path id="path9_fill" d="M 7 13.6C 7.1 12.9 7.2 12.2 7.5 11.5C 7.9 10.3 8.5 9.3 9.2 8.4C 9.9 7.6 10.8 6.9 11.9 6.5C 13 6.1 14.2 5.8 15.6 5.8C 17 5.8 18.2 6 19.2 6.5C 20.3 6.9 21.2 7.6 21.9 8.4C 22.6 9.2 23.2 10.3 23.6 11.5C 23.8 12.2 24 12.9 24.1 13.6L 31.4 13.6C 31.2 12.1 30.9 10.8 30.4 9.4C 29.6 7.5 28.6 5.9 27.2 4.5C 25.8 3.1 24.2 2 22.2 1.2C 20.3 0.400001 18.1 -3.05176e-06 15.7 -3.05176e-06C 13.3 -3.05176e-06 11.2 0.400001 9.2 1.2C 7.2 2 5.6 3.1 4.2 4.5C 2.8 5.9 1.7 7.5 1 9.4C 0.5 10.7 0.1 12.1 2.84217e-14 13.6L 7 13.6Z"/>
<path id="path10_fill" d="M 7.4 13.5C 7.5 12.8 7.7 12.1 7.9 11.4C 8.3 10.2 8.90001 9.2 9.70001 8.3C 10.5 7.5 11.4 6.8 12.4 6.4C 13.5 5.9 14.6 5.7 15.9 5.7C 16.6 5.7 17.3 5.8 17.8 5.9C 18.4 6 18.8 6.1 19.2 6.3C 19.6 6.5 20 6.6 20.3 6.8C 20.6 7 20.9 7.2 21.1 7.3C 21.4 7.5 21.6 7.6 21.8 7.7C 22 7.8 22.3 7.9 22.5 7.9C 22.9 7.9 23.2 7.8 23.4 7.7C 23.6 7.5 23.8 7.4 23.9 7.2L 26.3 4C 25.7 3.4 25.1 2.9 24.3 2.4C 23.6 1.9 22.8 1.5 21.9 1.1C 21 0.700002 20.1 0.499998 19.1 0.299998C 18.1 0.0999985 17 3.05176e-06 15.9 3.05176e-06C 13.5 3.05176e-06 11.4 0.4 9.4 1.2C 7.4 2 5.8 3 4.4 4.4C 3 5.8 1.9 7.4 1.1 9.3C 0.6 10.6 0.199994 12.1 -6.10352e-06 13.6L 7.4 13.6L 7.4 13.5Z"/>
<path id="path11_fill" d="M 0.8 3.7C 1.5 5.6 2.49999 7.3 3.69999 8.6C 4.99999 10 6.50001 11.1 8.40001 11.9C 10.2 12.7 12.3 13.1 14.6 13.1C 17.1 13.1 19.3 12.7 21.2 11.9C 23 11.1 24.6 9.9 25.8 8.3L 23 5.3C 22.8 5.1 22.7 5 22.5 5C 22.3 4.9 22.2 4.9 22 4.9C 21.8 4.9 21.6 4.9 21.4 5C 21.2 5.1 21 5.2 20.9 5.3C 20.5 5.7 20.1 6 19.7 6.2C 19.3 6.4 18.9 6.6 18.4 6.8C 17.9 7 17.5 7.1 16.9 7.1C 16.4 7.2 15.8 7.2 15.1 7.2C 14 7.2 12.9 7 12 6.6C 11 6.2 10.2 5.5 9.40001 4.7C 8.70001 3.9 8.09999 2.8 7.69999 1.6C 7.49999 1.1 7.4 0.599997 7.3 -3.05176e-06L -3.05176e-06 -3.05176e-06C 0.0999969 1.3 0.4 2.5 0.8 3.7Z"/>
<path id="path12_fill" d="M 1.09999 3.6C 1.89999 5.5 2.90001 7.2 4.30001 8.6C 5.70001 10 7.40001 11.1 9.30001 11.9C 11.3 12.7 13.4 13.1 15.8 13.1C 18.2 13.1 20.3 12.7 22.3 11.9C 24.2 11.1 25.9 10 27.3 8.6C 28.7 7.2 29.8 5.5 30.5 3.6C 31 2.5 31.3 1.3 31.5 -3.05176e-06L 24.2 -3.05176e-06C 24.1 0.499997 24 0.999997 23.8 1.5C 23.4 2.7 22.8 3.7 22.1 4.6C 21.4 5.4 20.5 6.1 19.4 6.5C 18.3 6.9 17.1 7.2 15.8 7.2C 14.4 7.2 13.2 7 12.1 6.5C 11 6.1 10.1 5.4 9.4 4.6C 8.7 3.8 8.1 2.7 7.7 1.5C 7.5 0.999997 7.40001 0.499997 7.30001 -3.05176e-06L 3.05176e-06 -3.05176e-06C 0.300003 1.3 0.599994 2.5 1.09999 3.6Z"/>
<path id="path13_fill" d="M 7 13.6C 7.1 12.9 7.2 12.2 7.5 11.5C 7.9 10.3 8.5 9.3 9.2 8.4C 9.9 7.6 10.8 6.9 11.9 6.5C 13 6.1 14.2 5.8 15.6 5.8C 17 5.8 18.2 6 19.2 6.5C 20.3 6.9 21.2 7.6 21.9 8.4C 22.6 9.2 23.2 10.3 23.6 11.5C 23.8 12.2 24 12.9 24.1 13.6L 31.4 13.6C 31.2 12.1 30.9 10.8 30.4 9.4C 29.6 7.5 28.6 5.9 27.2 4.5C 25.8 3.1 24.2 2 22.2 1.2C 20.3 0.400001 18.1 -3.05176e-06 15.7 -3.05176e-06C 13.3 -3.05176e-06 11.2 0.400001 9.2 1.2C 7.2 2 5.6 3.1 4.2 4.5C 2.8 5.9 1.7 7.5 0.999997 9.4C 0.499997 10.7 0.0999969 12.1 -3.05176e-06 13.6L 7 13.6Z"/>
<path id="path14_fill" d="M 7.4 13.5C 7.5 12.8 7.7 12.1 7.9 11.4C 8.3 10.2 8.9 9.2 9.7 8.3C 10.5 7.5 11.4 6.8 12.4 6.4C 13.5 5.9 14.6 5.7 15.9 5.7C 16.6 5.7 17.3 5.8 17.8 5.9C 18.4 6 18.8 6.1 19.2 6.3C 19.6 6.5 20 6.6 20.3 6.8C 20.6 7 20.9 7.2 21.1 7.3C 21.4 7.5 21.6 7.6 21.8 7.7C 22 7.8 22.3 7.9 22.5 7.9C 22.9 7.9 23.2 7.8 23.4 7.7C 23.6 7.5 23.8 7.4 23.9 7.2L 26.3 4C 25.7 3.4 25.1 2.9 24.3 2.4C 23.6 1.9 22.8 1.5 21.9 1.1C 21 0.700002 20.1 0.499998 19.1 0.299998C 18.1 0.0999985 17 3.05176e-06 15.9 3.05176e-06C 13.5 3.05176e-06 11.4 0.4 9.4 1.2C 7.4 2 5.8 3 4.4 4.4C 3 5.8 1.9 7.4 1.1 9.3C 0.599997 10.6 0.199998 12.1 -1.52588e-06 13.6L 7.4 13.6L 7.4 13.5Z"/>
<path id="path15_fill" d="M 0.800003 3.7C 1.5 5.6 2.5 7.3 3.7 8.6C 5 10 6.5 11.1 8.4 11.9C 10.2 12.7 12.3 13.1 14.6 13.1C 17.1 13.1 19.3 12.7 21.2 11.9C 23 11.1 24.6 9.9 25.8 8.3L 23 5.3C 22.8 5.1 22.7 5 22.5 5C 22.3 4.9 22.2 4.9 22 4.9C 21.8 4.9 21.6 4.9 21.4 5C 21.2 5.1 21 5.2 20.9 5.3C 20.5 5.7 20.1 6 19.7 6.2C 19.3 6.4 18.9 6.6 18.4 6.8C 17.9 7 17.5 7.1 16.9 7.1C 16.4 7.2 15.8 7.2 15.1 7.2C 14 7.2 12.9 7 12 6.6C 11 6.2 10.2 5.5 9.4 4.7C 8.7 3.9 8.1 2.8 7.7 1.6C 7.5 1.1 7.4 0.599997 7.3 -3.05176e-06L -1.42109e-14 -3.05176e-06C 0.1 1.3 0.400003 2.5 0.800003 3.7Z"/>
<path id="path16_fill" d="M 1.1 3.6C 1.9 5.5 2.9 7.2 4.3 8.6C 5.7 10 7.4 11.1 9.3 11.9C 11.3 12.7 13.4 13.1 15.8 13.1C 18.2 13.1 20.3 12.7 22.3 11.9C 24.2 11.1 25.9 10 27.3 8.6C 28.7 7.2 29.8 5.5 30.5 3.6C 31 2.5 31.3 1.3 31.5 -3.05176e-06L 24.2 -3.05176e-06C 24.1 0.499997 24 0.999997 23.8 1.5C 23.4 2.7 22.8 3.7 22.1 4.6C 21.4 5.4 20.5 6.1 19.4 6.5C 18.3 6.9 17.1 7.2 15.8 7.2C 14.4 7.2 13.2 7 12.1 6.5C 11 6.1 10.1 5.4 9.4 4.6C 8.7 3.8 8.1 2.7 7.7 1.5C 7.5 0.999997 7.4 0.499997 7.3 -3.05176e-06L -1.52588e-06 -3.05176e-06C 0.299998 1.3 0.599997 2.5 1.1 3.6Z"/>
<path id="path17_fill" d="M 7 13.6C 7.1 12.9 7.2 12.2 7.5 11.5C 7.9 10.3 8.5 9.3 9.2 8.4C 9.9 7.6 10.8 6.9 11.9 6.5C 13 6.1 14.2 5.8 15.6 5.8C 17 5.8 18.2 6 19.2 6.5C 20.3 6.9 21.2 7.6 21.9 8.4C 22.6 9.2 23.2 10.3 23.6 11.5C 23.8 12.2 24 12.9 24.1 13.6L 31.4 13.6C 31.2 12.1 30.9 10.8 30.4 9.4C 29.6 7.5 28.6 5.9 27.2 4.5C 25.8 3.1 24.2 2 22.2 1.2C 20.3 0.400001 18.1 -3.05176e-06 15.7 -3.05176e-06C 13.3 -3.05176e-06 11.2 0.400001 9.2 1.2C 7.2 2 5.6 3.1 4.2 4.5C 2.8 5.9 1.7 7.5 1 9.4C 0.5 10.7 0.1 12.1 -1.06581e-14 13.6L 7 13.6Z"/>
<path id="path18_fill" d="M 7.4 13.5C 7.5 12.8 7.7 12.1 7.9 11.4C 8.3 10.2 8.9 9.2 9.7 8.3C 10.5 7.5 11.4 6.8 12.4 6.4C 13.5 5.9 14.6 5.7 15.9 5.7C 16.6 5.7 17.3 5.8 17.8 5.9C 18.4 6 18.8 6.1 19.2 6.3C 19.6 6.5 20 6.6 20.3 6.8C 20.6 7 20.9 7.2 21.1 7.3C 21.4 7.5 21.6 7.6 21.8 7.7C 22 7.8 22.3 7.9 22.5 7.9C 22.9 7.9 23.2 7.8 23.4 7.7C 23.6 7.5 23.8 7.4 23.9 7.2L 26.3 4C 25.7 3.4 25.1 2.9 24.3 2.4C 23.6 1.9 22.8 1.5 21.9 1.1C 21 0.700002 20.1 0.499998 19.1 0.299998C 18.1 0.0999985 17 3.05176e-06 15.9 3.05176e-06C 13.5 3.05176e-06 11.4 0.4 9.4 1.2C 7.4 2 5.8 3 4.4 4.4C 3 5.8 1.9 7.4 1.1 9.3C 0.6 10.6 0.2 12.1 -1.49011e-09 13.6L 7.4 13.6L 7.4 13.5Z"/>
<path id="path19_fill" d="M 0.8 3.7C 1.5 5.6 2.5 7.3 3.7 8.6C 5 10 6.5 11.1 8.4 11.9C 10.2 12.7 12.3 13.1 14.6 13.1C 17.1 13.1 19.3 12.7 21.2 11.9C 23 11.1 24.6 9.9 25.8 8.3L 23 5.3C 22.8 5.1 22.7 5 22.5 5C 22.3 4.9 22.2 4.9 22 4.9C 21.8 4.9 21.6 4.9 21.4 5C 21.2 5.1 21 5.2 20.9 5.3C 20.5 5.7 20.1 6 19.7 6.2C 19.3 6.4 18.9 6.6 18.4 6.8C 17.9 7 17.5 7.1 16.9 7.1C 16.4 7.2 15.8 7.2 15.1 7.2C 14 7.2 12.9 7 12 6.6C 11 6.2 10.2 5.5 9.4 4.7C 8.7 3.9 8.1 2.8 7.7 1.6C 7.5 1.1 7.4 0.599997 7.3 -3.05176e-06L 1.90735e-07 -3.05176e-06C 0.1 1.3 0.4 2.5 0.8 3.7Z"/>
<path id="path20_fill" d="M 1.1 3.6C 1.9 5.5 2.9 7.2 4.3 8.6C 5.7 10 7.4 11.1 9.3 11.9C 11.3 12.7 13.4 13.1 15.8 13.1C 18.2 13.1 20.3 12.7 22.3 11.9C 24.2 11.1 25.9 10 27.3 8.6C 28.7 7.2 29.8 5.5 30.5 3.6C 31 2.5 31.3 1.3 31.5 -3.05176e-06L 24.2 -3.05176e-06C 24.1 0.499997 24 0.999997 23.8 1.5C 23.4 2.7 22.8 3.7 22.1 4.6C 21.4 5.4 20.5 6.1 19.4 6.5C 18.3 6.9 17.1 7.2 15.8 7.2C 14.4 7.2 13.2 7 12.1 6.5C 11 6.1 10.1 5.4 9.4 4.6C 8.7 3.8 8.1 2.7 7.7 1.5C 7.5 0.999997 7.4 0.499997 7.3 -3.05176e-06L -7.62939e-07 -3.05176e-06C 0.299999 1.3 0.700002 2.5 1.1 3.6Z"/>
<path id="path21_fill" d="M 7 13.6C 7.1 12.9 7.2 12.2 7.5 11.5C 7.9 10.3 8.5 9.3 9.2 8.4C 9.9 7.6 10.8 6.9 11.9 6.5C 13 6.1 14.2 5.8 15.6 5.8C 17 5.8 18.2 6 19.2 6.5C 20.3 6.9 21.2 7.6 21.9 8.4C 22.6 9.2 23.2 10.3 23.6 11.5C 23.8 12.2 24 12.9 24.1 13.6L 31.4 13.6C 31.2 12.1 30.9 10.8 30.4 9.4C 29.6 7.5 28.6 5.9 27.2 4.5C 25.8 3.1 24.2 2 22.2 1.2C 20.3 0.399997 18.1 1.42109e-14 15.7 1.42109e-14C 13.3 1.42109e-14 11.2 0.399997 9.2 1.2C 7.2 2 5.6 3.1 4.2 4.5C 2.8 5.9 1.7 7.5 1 9.4C 0.5 10.7 0.1 12.1 2.84217e-14 13.6L 7 13.6Z"/>
<path id="path22_fill" d="M 7.4 13.5C 7.5 12.8 7.7 12.1 7.9 11.4C 8.3 10.2 8.90001 9.2 9.70001 8.3C 10.5 7.5 11.4 6.8 12.4 6.4C 13.5 5.9 14.6 5.7 15.9 5.7C 16.6 5.7 17.3 5.8 17.8 5.9C 18.4 6 18.8 6.1 19.2 6.3C 19.6 6.5 20 6.6 20.3 6.8C 20.6 7 20.9 7.2 21.1 7.3C 21.4 7.5 21.6 7.6 21.8 7.7C 22 7.8 22.3 7.9 22.5 7.9C 22.9 7.9 23.2 7.8 23.4 7.7C 23.6 7.5 23.8 7.4 23.9 7.2L 26.3 4C 25.7 3.4 25.1 2.9 24.3 2.4C 23.6 1.9 22.8 1.5 21.9 1.1C 21 0.699997 20.1 0.500002 19.1 0.300002C 18.1 0.100002 17 -1.52588e-06 15.9 -1.52588e-06C 13.5 -1.52588e-06 11.4 0.400003 9.4 1.2C 7.4 2 5.8 3 4.4 4.4C 3 5.8 1.9 7.4 1.1 9.3C 0.6 10.6 0.199994 12.1 -6.10352e-06 13.6L 7.4 13.6L 7.4 13.5Z"/>
<path id="path23_fill" d="M 0.800006 3.7C 1.50001 5.6 2.5 7.30001 3.7 8.60001C 5 10 6.5 11.1 8.4 11.9C 10.2 12.7 12.3 13.1 14.6 13.1C 17.1 13.1 19.3 12.7 21.2 11.9C 23.1 11.1 24.6 9.9 25.8 8.3L 23 5.3C 22.8 5.1 22.7 5 22.5 5C 22.3 4.9 22.2 4.89999 22 4.89999C 21.8 4.89999 21.6 4.9 21.4 5C 21.2 5.1 21 5.2 20.9 5.3C 20.5 5.7 20.1 6 19.7 6.2C 19.3 6.4 18.9 6.6 18.4 6.8C 17.9 7 17.5 7.10001 16.9 7.10001C 16.4 7.20001 15.8 7.2 15.1 7.2C 14 7.2 12.9 7.00001 12 6.60001C 11 6.20001 10.2 5.5 9.4 4.7C 8.7 3.9 8.1 2.80001 7.7 1.60001C 7.5 1.10001 7.40001 0.6 7.30001 -2.84217e-14L 3.05176e-06 -2.84217e-14C 0.100003 1.4 0.300006 2.6 0.800006 3.7Z"/>
<path id="path24_fill" d="M 1.09999 3.6C 1.89999 5.5 2.90001 7.2 4.30001 8.6C 5.70001 10 7.40001 11.1 9.30001 11.9C 11.3 12.7 13.4 13.1 15.8 13.1C 18.2 13.1 20.3 12.7 22.3 11.9C 24.2 11.1 25.9 10 27.3 8.6C 28.7 7.2 29.8 5.5 30.5 3.6C 31 2.5 31.3 1.30001 31.5 6.10352e-06L 24.2 6.10352e-06C 24.1 0.500006 24 1.00001 23.8 1.50001C 23.4 2.70001 22.8 3.7 22.1 4.6C 21.4 5.4 20.5 6.10001 19.4 6.50001C 18.3 6.90001 17.1 7.2 15.8 7.2C 14.4 7.2 13.2 7.00001 12.1 6.50001C 11 6.10001 10.1 5.4 9.4 4.6C 8.7 3.8 8.1 2.70001 7.7 1.50001C 7.5 1.00001 7.40001 0.500006 7.30001 6.10352e-06L 3.05176e-06 6.10352e-06C 0.300003 1.20001 0.599994 2.4 1.09999 3.6Z"/>
<path id="path25_fill" d="M 7 13.6C 7.1 12.9 7.2 12.2 7.5 11.5C 7.9 10.3 8.49999 9.3 9.19999 8.4C 9.89999 7.6 10.8 6.9 11.9 6.5C 13 6.1 14.2 5.8 15.6 5.8C 17 5.8 18.2 6 19.2 6.5C 20.3 6.9 21.2 7.6 21.9 8.4C 22.6 9.2 23.2 10.3 23.6 11.5C 23.8 12.2 24 12.9 24.1 13.6L 31.4 13.6C 31.2 12.1 30.9 10.8 30.4 9.4C 29.6 7.5 28.6 5.9 27.2 4.5C 25.8 3.1 24.2 2 22.2 1.2C 20.3 0.399997 18.1 1.42109e-14 15.7 1.42109e-14C 13.3 1.42109e-14 11.2 0.399997 9.19999 1.2C 7.19999 2 5.59999 3.1 4.19999 4.5C 2.79999 5.9 1.7 7.5 0.999997 9.4C 0.499997 10.7 0.0999969 12.1 -3.05176e-06 13.6L 7 13.6Z"/>
<path id="path26_fill" d="M 7.4 13.5C 7.5 12.8 7.7 12.1 7.9 11.4C 8.3 10.2 8.9 9.2 9.7 8.3C 10.5 7.5 11.4 6.8 12.4 6.4C 13.5 5.9 14.6 5.7 15.9 5.7C 16.6 5.7 17.3 5.8 17.8 5.9C 18.4 6 18.8 6.1 19.2 6.3C 19.6 6.5 20 6.6 20.3 6.8C 20.6 7 20.9 7.2 21.1 7.3C 21.4 7.5 21.6 7.6 21.8 7.7C 22 7.8 22.3 7.9 22.5 7.9C 22.9 7.9 23.2 7.8 23.4 7.7C 23.6 7.5 23.8 7.4 23.9 7.2L 26.3 4C 25.7 3.4 25.1 2.9 24.3 2.4C 23.6 1.9 22.8 1.5 21.9 1.1C 21 0.699997 20.1 0.500002 19.1 0.300002C 18.1 0.100002 17 -1.52588e-06 15.9 -1.52588e-06C 13.5 -1.52588e-06 11.4 0.400003 9.4 1.2C 7.4 2 5.8 3 4.4 4.4C 3 5.8 1.9 7.4 1.1 9.3C 0.599997 10.6 0.199998 12.1 -1.52588e-06 13.6L 7.4 13.6L 7.4 13.5Z"/>
<path id="path27_fill" d="M 0.800003 3.7C 1.5 5.6 2.5 7.30001 3.7 8.60001C 5 10 6.49999 11.1 8.39999 11.9C 10.2 12.7 12.3 13.1 14.6 13.1C 17.1 13.1 19.3 12.7 21.2 11.9C 23.1 11.1 24.6 9.9 25.8 8.3L 23 5.3C 22.8 5.1 22.7 5 22.5 5C 22.3 4.9 22.2 4.89999 22 4.89999C 21.8 4.89999 21.6 4.9 21.4 5C 21.2 5.1 21 5.2 20.9 5.3C 20.5 5.7 20.1 6 19.7 6.2C 19.3 6.4 18.9 6.6 18.4 6.8C 17.9 7 17.5 7.10001 16.9 7.10001C 16.4 7.20001 15.8 7.2 15.1 7.2C 14 7.2 12.9 7.00001 12 6.60001C 11 6.20001 10.2 5.5 9.39999 4.7C 8.69999 3.9 8.1 2.80001 7.7 1.60001C 7.5 1.10001 7.4 0.6 7.3 -2.84217e-14L 2.84217e-14 -2.84217e-14C 0.1 1.4 0.400003 2.6 0.800003 3.7Z"/>
<path id="path28_fill" d="M 1.1 3.6C 1.9 5.5 2.89999 7.2 4.29999 8.6C 5.69999 10 7.39999 11.1 9.29999 11.9C 11.3 12.7 13.4 13.1 15.8 13.1C 18.2 13.1 20.3 12.7 22.3 11.9C 24.2 11.1 25.9 10 27.3 8.6C 28.7 7.2 29.8 5.5 30.5 3.6C 31 2.5 31.3 1.30001 31.5 6.10352e-06L 24.2 6.10352e-06C 24.1 0.500006 24 1.00001 23.8 1.50001C 23.4 2.70001 22.8 3.7 22.1 4.6C 21.4 5.4 20.5 6.10001 19.4 6.50001C 18.3 6.90001 17.1 7.2 15.8 7.2C 14.4 7.2 13.2 7.00001 12.1 6.50001C 11 6.10001 10.1 5.4 9.4 4.6C 8.7 3.8 8.1 2.70001 7.7 1.50001C 7.5 1.00001 7.39999 0.500006 7.29999 6.10352e-06L 6.10352e-06 6.10352e-06C 0.300006 1.20001 0.599997 2.4 1.1 3.6Z"/>
</defs>
</svg>
