<svg width="376" height="324" viewBox="0 0 376 324" version="1.1" xmlns="http://www.w3.org/2000/svg" xmlns:xlink="http://www.w3.org/1999/xlink">
<title>figure_10</title>
<desc>Created using Figma</desc>
<g id="Canvas" transform="translate(1321 -4926)">
<g id="figure_10">
<g id="Vector">
<use xlink:href="#path0_fill" transform="translate(-1321 4928.7)" fill="url(#paint0_linear)"/>
</g>
<g id="pattern">
<g id="Vector">
<use xlink:href="#path1_fill" transform="translate(-1041.8 4926)" fill="#394EE5"/>
</g>
<g id="Vector">
<use xlink:href="#path2_fill" transform="translate(-1070.4 4926.1)" fill="#394EE5"/>
</g>
<g id="Vector">
<use xlink:href="#path3_fill" transform="translate(-1058.1 4945)" fill="#394EE5"/>
</g>
<g id="Vector">
<use xlink:href="#path4_fill" transform="translate(-1030 4945)" fill="#394EE5"/>
</g>
<g id="Vector">
<use xlink:href="#path5_fill" transform="translate(-1106.6 4926)" fill="#394EE5"/>
</g>
<g id="Vector">
<use xlink:href="#path6_fill" transform="translate(-1135.1 4926)" fill="#394EE5"/>
</g>
<g id="Vector">
<use xlink:href="#path7_fill" transform="translate(-1122.8 4945)" fill="#394EE5"/>
</g>
<g id="Vector">
<use xlink:href="#path8_fill" transform="translate(-1094.7 4945)" fill="#394EE5"/>
</g>
<g id="Vector">
<use xlink:href="#path9_fill" transform="translate(-1047.5 4959.9)" fill="#394EE5"/>
</g>
<g id="Vector">
<use xlink:href="#path10_fill" transform="translate(-1076.2 4960)" fill="#394EE5"/>
</g>
<g id="Vector">
<use xlink:href="#path11_fill" transform="translate(-1063.8 4978.9)" fill="#394EE5"/>
</g>
<g id="Vector">
<use xlink:href="#path12_fill" transform="translate(-1035.7 4978.9)" fill="#394EE5"/>
</g>
<g id="Vector">
<use xlink:href="#path13_fill" transform="translate(-1112.3 4959.9)" fill="#394EE5"/>
</g>
<g id="Vector">
<use xlink:href="#path14_fill" transform="translate(-1140.9 4960)" fill="#394EE5"/>
</g>
<g id="Vector">
<use xlink:href="#path15_fill" transform="translate(-1128.5 4978.9)" fill="#394EE5"/>
</g>
<g id="Vector">
<use xlink:href="#path16_fill" transform="translate(-1100.5 4978.9)" fill="#394EE5"/>
</g>
<g id="Vector">
<use xlink:href="#path17_fill" transform="translate(-1177 4959.9)" fill="#394EE5"/>
</g>
<g id="Vector">
<use xlink:href="#path18_fill" transform="translate(-1205.6 4960)" fill="#394EE5"/>
</g>
<g id="Vector">
<use xlink:href="#path19_fill" transform="translate(-1193.3 4978.9)" fill="#394EE5"/>
</g>
<g id="Vector">
<use xlink:href="#path20_fill" transform="translate(-1165.2 4978.9)" fill="#394EE5"/>
</g>
<g id="Vector">
<use xlink:href="#path21_fill" transform="translate(-988.5 4993.7)" fill="#394EE5"/>
</g>
<g id="Vector">
<use xlink:href="#path22_fill" transform="translate(-1017.2 4993.8)" fill="#394EE5"/>
</g>
<g id="Vector">
<use xlink:href="#path23_fill" transform="translate(-1004.8 5012.7)" fill="#394EE5"/>
</g>
<g id="Vector">
<use xlink:href="#path24_fill" transform="translate(-976.7 5012.8)" fill="#394EE5"/>
</g>
<g id="Vector">
<use xlink:href="#path25_fill" transform="translate(-1053.3 4993.7)" fill="#394EE5"/>
</g>
<g id="Vector">
<use xlink:href="#path26_fill" transform="translate(-1081.9 4993.8)" fill="#394EE5"/>
</g>
<g id="Vector">
<use xlink:href="#path27_fill" transform="translate(-1069.5 5012.7)" fill="#394EE5"/>
</g>
<g id="Vector">
<use xlink:href="#path28_fill" transform="translate(-1041.5 5012.8)" fill="#394EE5"/>
</g>
</g>
</g>
</g>
<defs>
<linearGradient id="paint0_linear" x1="0" y1="0" x2="1" y2="0" gradientUnits="userSpaceOnUse" gradientTransform="matrix(281.218 -281.218 281.218 281.218 -149.105 188.899)">
<stop offset="0" stop-color="#2F0D56"/>
<stop offset="0.9949" stop-color="#DB71B0"/>
</linearGradient>
<path id="path0_fill" d="M 160.5 321C 249.142 321 321 249.142 321 160.5C 321 71.8583 249.142 0 160.5 0C 71.8583 0 0 71.8583 0 160.5C 0 249.142 71.8583 321 160.5 321Z"/>
<path id="path1_fill" d="M 7.00001 13.6C 7.10001 12.9 7.20001 12.2 7.50001 11.5C 7.90001 10.3 8.49999 9.3 9.19999 8.4C 9.89999 7.6 10.8 6.9 11.9 6.5C 13 6.1 14.2 5.8 15.6 5.8C 17 5.8 18.2 6 19.2 6.5C 20.3 6.9 21.2 7.6 21.9 8.4C 22.6 9.2 23.2 10.3 23.6 11.5C 23.8 12.2 24 12.9 24.1 13.6L 31.4 13.6C 31.2 12.1 30.9 10.8 30.4 9.4C 29.6 7.5 28.6 5.9 27.2 4.5C 25.8 3.1 24.2 2 22.2 1.2C 20.3 0.4 18.1 0 15.7 0C 13.3 0 11.2 0.4 9.19999 1.2C 7.19999 2 5.59999 3.1 4.19999 4.5C 2.79999 5.9 1.70001 7.5 1.00001 9.4C 0.500012 10.7 0.100012 12.1 1.2207e-05 13.6L 7.00001 13.6L 7.00001 13.6Z"/>
<path id="path2_fill" d="M 7.4 13.5C 7.5 12.8 7.7 12.1 7.9 11.4C 8.3 10.2 8.89999 9.2 9.69999 8.3C 10.5 7.5 11.4 6.8 12.4 6.4C 13.5 5.9 14.6 5.7 15.9 5.7C 16.6 5.7 17.3 5.8 17.8 5.9C 18.4 6 18.8 6.1 19.2 6.3C 19.6 6.5 20 6.6 20.3 6.8C 20.6 7 20.9 7.2 21.1 7.3C 21.4 7.5 21.6 7.6 21.8 7.7C 22 7.8 22.3 7.9 22.5 7.9C 22.9 7.9 23.2 7.8 23.4 7.7C 23.6 7.5 23.8 7.4 23.9 7.2L 26.3 4C 25.7 3.4 25.1 2.9 24.3 2.4C 23.6 1.9 22.8 1.5 21.9 1.1C 21 0.7 20.1 0.5 19.1 0.3C 18.1 0.1 17 1.49012e-09 15.9 1.49012e-09C 13.5 1.49012e-09 11.4 0.4 9.4 1.2C 7.4 2 5.8 3 4.4 4.4C 3 5.8 1.9 7.4 1.1 9.3C 0.599997 10.6 0.200006 12.1 6.10352e-06 13.6L 7.4 13.6L 7.4 13.5Z"/>
<path id="path3_fill" d="M 0.800012 3.7C 1.50001 5.6 2.50001 7.3 3.70001 8.6C 5.00001 10 6.49999 11.1 8.39999 11.9C 10.2 12.7 12.3 13.1 14.6 13.1C 17.1 13.1 19.3 12.7 21.2 11.9C 23 11.1 24.6 9.9 25.8 8.3L 23 5.3C 22.8 5.1 22.7 5 22.5 5C 22.3 4.9 22.2 4.9 22 4.9C 21.8 4.9 21.6 4.9 21.4 5C 21.2 5.1 21 5.2 20.9 5.3C 20.5 5.7 20.1 6 19.7 6.2C 19.3 6.4 18.9 6.6 18.4 6.8C 17.9 7 17.5 7.1 16.9 7.1C 16.4 7.2 15.8 7.2 15.1 7.2C 14 7.2 12.9 7 12 6.6C 11 6.2 10.2 5.5 9.39999 4.7C 8.69999 3.9 8.10001 2.8 7.70001 1.6C 7.50001 1.1 7.40001 0.6 7.30001 0L -6.10352e-06 0C 0.0999939 1.3 0.400012 2.5 0.800012 3.7Z"/>
<path id="path4_fill" d="M 1.10001 3.6C 1.90001 5.5 2.89999 7.2 4.29999 8.6C 5.69999 10 7.39999 11.1 9.29999 11.9C 11.3 12.7 13.4 13.1 15.8 13.1C 18.2 13.1 20.3 12.7 22.3 11.9C 24.2 11.1 25.9 10 27.3 8.6C 28.7 7.2 29.8 5.5 30.5 3.6C 31 2.5 31.3 1.3 31.5 0L 24.2 0C 24.1 0.5 24 1 23.8 1.5C 23.4 2.7 22.8 3.7 22.1 4.6C 21.4 5.4 20.5 6.1 19.4 6.5C 18.3 6.9 17.1 7.2 15.8 7.2C 14.4 7.2 13.2 7 12.1 6.5C 11 6.1 10.1 5.4 9.39999 4.6C 8.69999 3.8 8.10001 2.7 7.70001 1.5C 7.50001 1 7.39999 0.5 7.29999 0L -5.68434e-14 0C 0.3 1.3 0.600006 2.5 1.10001 3.6Z"/>
<path id="path5_fill" d="M 6.99999 13.6C 7.09999 12.9 7.19999 12.2 7.49999 11.5C 7.89999 10.3 8.50001 9.3 9.20001 8.4C 9.90001 7.6 10.8 6.9 11.9 6.5C 13 6.1 14.2 5.8 15.6 5.8C 17 5.8 18.2 6 19.2 6.5C 20.3 6.9 21.2 7.6 21.9 8.4C 22.6 9.2 23.2 10.3 23.6 11.5C 23.8 12.2 24 12.9 24.1 13.6L 31.4 13.6C 31.2 12.1 30.9 10.8 30.4 9.4C 29.6 7.5 28.6 5.9 27.2 4.5C 25.8 3.1 24.2 2 22.2 1.2C 20.3 0.4 18.1 0 15.7 0C 13.3 0 11.2 0.4 9.20001 1.2C 7.20001 2 5.60001 3.1 4.20001 4.5C 2.80001 5.9 1.69999 7.5 0.999994 9.4C 0.499994 10.7 0.0999939 12.1 -6.10352e-06 13.6L 6.99999 13.6L 6.99999 13.6Z"/>
<path id="path6_fill" d="M 7.3 13.6C 7.4 12.9 7.6 12.2 7.8 11.5C 8.2 10.3 8.8 9.3 9.6 8.4C 10.4 7.6 11.3 6.9 12.3 6.5C 13.4 6 14.5 5.8 15.8 5.8C 16.5 5.8 17.2 5.9 17.7 6C 18.3 6.1 18.7 6.2 19.1 6.4C 19.5 6.6 19.9 6.7 20.2 6.9C 20.5 7.1 20.8 7.3 21 7.4C 21.3 7.6 21.5 7.7 21.7 7.8C 22.1 8 22.3 8 22.6 8C 23 8 23.3 7.9 23.5 7.8C 23.7 7.6 23.9 7.5 24 7.3L 26.4 4.1C 25.8 3.5 25.2 3 24.4 2.5C 23.7 2 22.9 1.6 22 1.2C 21.1 0.8 20.1 0.5 19.1 0.3C 18.1 0.1 17 0 15.9 0C 13.5 0 11.4 0.4 9.4 1.2C 7.4 2 5.8 3 4.4 4.4C 3 5.8 1.9 7.4 1.1 9.3C 0.6 10.6 0.199994 12.1 -6.10352e-06 13.6L 7.3 13.6L 7.3 13.6Z"/>
<path id="path7_fill" d="M 0.8 3.7C 1.5 5.6 2.49999 7.3 3.69999 8.6C 4.99999 10 6.50001 11.1 8.40001 11.9C 10.2 12.7 12.3 13.1 14.6 13.1C 17.1 13.1 19.3 12.7 21.2 11.9C 23.1 11.1 24.6 9.9 25.8 8.3L 23 5.3C 22.8 5.1 22.7 5 22.5 5C 22.3 4.9 22.2 4.9 22 4.9C 21.8 4.9 21.6 4.9 21.4 5C 21.2 5.1 21 5.2 20.9 5.3C 20.5 5.7 20.1 6 19.7 6.2C 19.3 6.4 18.9 6.6 18.4 6.8C 17.9 7 17.5 7.1 16.9 7.1C 16.4 7.2 15.8 7.2 15.1 7.2C 14 7.2 12.9 7 12 6.6C 11 6.2 10.2 5.5 9.40001 4.7C 8.70001 3.9 8.09999 2.8 7.69999 1.6C 7.49999 1.1 7.4 0.6 7.3 0L -3.05176e-06 0C 0.0999969 1.3 0.4 2.5 0.8 3.7Z"/>
<path id="path8_fill" d="M 1.09999 3.6C 1.89999 5.5 2.90001 7.2 4.30001 8.6C 5.70001 10 7.40001 11.1 9.30001 11.9C 11.3 12.7 13.4 13.1 15.8 13.1C 18.2 13.1 20.3 12.7 22.3 11.9C 24.2 11.1 25.9 10 27.3 8.6C 28.7 7.2 29.8 5.5 30.5 3.6C 31 2.5 31.3 1.3 31.5 0L 24.2 0C 24.1 0.5 24 1 23.8 1.5C 23.4 2.7 22.8 3.7 22.1 4.6C 21.4 5.4 20.5 6.1 19.4 6.5C 18.3 6.9 17.1 7.2 15.8 7.2C 14.4 7.2 13.2 7 12.1 6.5C 11 6.1 10.1 5.4 9.4 4.6C 8.7 3.8 8.1 2.7 7.7 1.5C 7.5 1 7.40001 0.5 7.30001 0L 3.05176e-06 0C 0.300003 1.3 0.599994 2.5 1.09999 3.6Z"/>
<path id="path9_fill" d="M 7 13.6C 7.1 12.9 7.2 12.2 7.5 11.5C 7.9 10.3 8.50001 9.3 9.20001 8.4C 9.90001 7.6 10.8 6.9 11.9 6.5C 13 6.1 14.2 5.8 15.6 5.8C 17 5.8 18.2 6 19.2 6.5C 20.3 6.9 21.2 7.6 21.9 8.4C 22.6 9.2 23.2 10.3 23.6 11.5C 23.8 12.2 24 12.9 24.1 13.6L 31.4 13.6C 31.2 12.1 30.9 10.8 30.4 9.4C 29.6 7.5 28.6 5.9 27.2 4.5C 25.8 3.1 24.2 2 22.2 1.2C 20.3 0.399998 18.1 1.52588e-06 15.7 1.52588e-06C 13.3 1.52588e-06 11.2 0.399998 9.20001 1.2C 7.20001 2 5.60001 3.1 4.20001 4.5C 2.80001 5.9 1.7 7.5 1 9.4C 0.5 10.7 0.1 12.1 0 13.6L 7 13.6Z"/>
<path id="path10_fill" d="M 7.4 13.5C 7.5 12.8 7.7 12.1 7.9 11.4C 8.3 10.2 8.9 9.2 9.7 8.3C 10.5 7.5 11.4 6.8 12.4 6.4C 13.5 5.9 14.6 5.7 15.9 5.7C 16.6 5.7 17.3 5.8 17.8 5.9C 18.4 6 18.8 6.1 19.2 6.3C 19.6 6.5 20 6.6 20.3 6.8C 20.6 7 20.9 7.2 21.1 7.3C 21.4 7.5 21.6 7.6 21.8 7.7C 22 7.8 22.3 7.9 22.5 7.9C 22.9 7.9 23.2 7.8 23.4 7.7C 23.6 7.5 23.8 7.4 23.9 7.2L 26.3 4C 25.7 3.4 25.1 2.9 24.3 2.4C 23.6 1.9 22.8 1.5 21.9 1.1C 21 0.699998 20.1 0.499999 19.1 0.299999C 18.1 0.0999992 17 0 15.9 0C 13.5 0 11.4 0.400001 9.4 1.2C 7.4 2 5.8 3 4.4 4.4C 3 5.8 1.89999 7.4 1.09999 9.3C 0.599994 10.6 0.200003 12.1 3.05176e-06 13.6L 7.4 13.6L 7.4 13.5Z"/>
<path id="path11_fill" d="M 0.8 3.7C 1.5 5.6 2.49999 7.3 3.69999 8.6C 4.99999 10 6.50001 11.1 8.40001 11.9C 10.2 12.7 12.3 13.1 14.6 13.1C 17.1 13.1 19.3 12.7 21.2 11.9C 23.1 11.1 24.6 9.9 25.8 8.3L 23 5.3C 22.8 5.1 22.7 5 22.5 5C 22.3 4.9 22.2 4.9 22 4.9C 21.8 4.9 21.6 4.9 21.4 5C 21.2 5.1 21 5.2 20.9 5.3C 20.5 5.7 20.1 6 19.7 6.2C 19.3 6.4 18.9 6.6 18.4 6.8C 17.9 7 17.5 7.1 16.9 7.1C 16.4 7.2 15.8 7.2 15.1 7.2C 14 7.2 12.9 7 12 6.6C 11 6.2 10.2 5.5 9.40001 4.7C 8.70001 3.9 8.09999 2.8 7.69999 1.6C 7.49999 1.1 7.4 0.600002 7.3 1.52588e-06L 1.2207e-05 1.52588e-06C 0.100012 1.3 0.4 2.5 0.8 3.7Z"/>
<path id="path12_fill" d="M 1.09999 3.6C 1.89999 5.5 2.90001 7.2 4.30001 8.6C 5.70001 10 7.40001 11.1 9.30001 11.9C 11.3 12.7 13.4 13.1 15.8 13.1C 18.2 13.1 20.3 12.7 22.3 11.9C 24.2 11.1 25.9 10 27.3 8.6C 28.7 7.2 29.8 5.5 30.5 3.6C 31 2.5 31.3 1.3 31.5 1.52588e-06L 24.2 1.52588e-06C 24.1 0.500002 24 1 23.8 1.5C 23.4 2.7 22.8 3.7 22.1 4.6C 21.4 5.4 20.5 6.1 19.4 6.5C 18.3 6.9 17.1 7.2 15.8 7.2C 14.4 7.2 13.2 7 12.1 6.5C 11 6.1 10.1 5.4 9.40001 4.6C 8.70001 3.8 8.1 2.7 7.7 1.5C 7.5 1 7.40001 0.500002 7.30001 1.52588e-06L -1.2207e-05 1.52588e-06C 0.299988 1.3 0.599994 2.5 1.09999 3.6Z"/>
<path id="path13_fill" d="M 7 13.6C 7.1 12.9 7.2 12.2 7.5 11.5C 7.9 10.3 8.49999 9.3 9.19999 8.4C 9.89999 7.6 10.8 6.9 11.9 6.5C 13 6.1 14.2 5.8 15.6 5.8C 17 5.8 18.2 6 19.2 6.5C 20.3 6.9 21.2 7.6 21.9 8.4C 22.6 9.2 23.2 10.3 23.6 11.5C 23.8 12.2 24 12.9 24.1 13.6L 31.4 13.6C 31.2 12.1 30.9 10.8 30.4 9.4C 29.6 7.5 28.6 5.9 27.2 4.5C 25.8 3.1 24.2 2 22.2 1.2C 20.3 0.399998 18.1 1.52588e-06 15.7 1.52588e-06C 13.3 1.52588e-06 11.2 0.399998 9.19999 1.2C 7.19999 2 5.59999 3.1 4.19999 4.5C 2.79999 5.9 1.7 7.5 0.999997 9.4C 0.499997 10.7 0.0999969 12.1 -3.05176e-06 13.6L 7 13.6Z"/>
<path id="path14_fill" d="M 7.4 13.5C 7.5 12.8 7.7 12.1 7.9 11.4C 8.3 10.2 8.9 9.2 9.7 8.3C 10.5 7.5 11.4 6.8 12.4 6.4C 13.5 5.9 14.6 5.7 15.9 5.7C 16.6 5.7 17.3 5.8 17.8 5.9C 18.4 6 18.8 6.1 19.2 6.3C 19.6 6.5 20 6.6 20.3 6.8C 20.6 7 20.9 7.2 21.1 7.3C 21.4 7.5 21.6 7.6 21.8 7.7C 22 7.8 22.3 7.9 22.5 7.9C 22.9 7.9 23.2 7.8 23.4 7.7C 23.6 7.5 23.8 7.4 23.9 7.2L 26.3 4C 25.7 3.4 25.1 2.9 24.3 2.4C 23.6 1.9 22.8 1.5 21.9 1.1C 21 0.699998 20.1 0.499999 19.1 0.299999C 18.1 0.0999992 17 0 15.9 0C 13.5 0 11.4 0.400001 9.4 1.2C 7.4 2 5.8 3 4.4 4.4C 3 5.8 1.9 7.4 1.1 9.3C 0.599997 10.6 0.200006 12.1 6.10352e-06 13.6L 7.4 13.6L 7.4 13.5Z"/>
<path id="path15_fill" d="M 0.800003 3.7C 1.5 5.6 2.5 7.3 3.7 8.6C 5 10 6.49999 11.1 8.39999 11.9C 10.2 12.7 12.3 13.1 14.6 13.1C 17.1 13.1 19.3 12.7 21.2 11.9C 23 11.1 24.6 9.9 25.8 8.3L 23 5.3C 22.8 5.1 22.7 5 22.5 5C 22.3 4.9 22.2 4.9 22 4.9C 21.8 4.9 21.6 4.9 21.4 5C 21.2 5.1 21 5.2 20.9 5.3C 20.5 5.7 20.1 6 19.7 6.2C 19.3 6.4 18.9 6.6 18.4 6.8C 17.9 7 17.5 7.1 16.9 7.1C 16.4 7.2 15.8 7.2 15.1 7.2C 14 7.2 12.9 7 12 6.6C 11 6.2 10.2 5.5 9.39999 4.7C 8.69999 3.9 8.1 2.8 7.7 1.6C 7.5 1.1 7.4 0.600002 7.3 1.52588e-06L 2.84217e-14 1.52588e-06C 0.1 1.3 0.400003 2.5 0.800003 3.7Z"/>
<path id="path16_fill" d="M 1.10001 3.6C 1.90001 5.5 2.9 7.2 4.3 8.6C 5.7 10 7.4 11.1 9.3 11.9C 11.3 12.7 13.4 13.1 15.8 13.1C 18.2 13.1 20.3 12.7 22.3 11.9C 24.2 11.1 25.9 10 27.3 8.6C 28.7 7.2 29.8 5.5 30.5 3.6C 31 2.5 31.3 1.3 31.5 1.52588e-06L 24.2 1.52588e-06C 24.1 0.500002 24 1 23.8 1.5C 23.4 2.7 22.8 3.7 22.1 4.6C 21.4 5.4 20.5 6.1 19.4 6.5C 18.3 6.9 17.1 7.2 15.8 7.2C 14.4 7.2 13.2 7 12.1 6.5C 11 6.1 10.1 5.4 9.39999 4.6C 8.69999 3.8 8.1 2.7 7.7 1.5C 7.5 1 7.4 0.500002 7.3 1.52588e-06L 0 1.52588e-06C 0.4 1.3 0.700006 2.5 1.10001 3.6Z"/>
<path id="path17_fill" d="M 7 13.6C 7.1 12.9 7.2 12.2 7.5 11.5C 7.9 10.3 8.5 9.3 9.2 8.4C 9.9 7.6 10.8 6.9 11.9 6.5C 13 6.1 14.2 5.8 15.6 5.8C 17 5.8 18.2 6 19.2 6.5C 20.3 6.9 21.2 7.6 21.9 8.4C 22.6 9.2 23.2 10.3 23.6 11.5C 23.8 12.2 24 12.9 24.1 13.6L 31.4 13.6C 31.2 12.1 30.9 10.8 30.4 9.4C 29.6 7.5 28.6 5.9 27.2 4.5C 25.8 3.1 24.2 2 22.2 1.2C 20.3 0.399998 18.1 1.52588e-06 15.7 1.52588e-06C 13.3 1.52588e-06 11.2 0.399998 9.2 1.2C 7.2 2 5.6 3.1 4.2 4.5C 2.8 5.9 1.7 7.5 1 9.4C 0.5 10.7 0.1 12.1 2.84217e-14 13.6L 7 13.6Z"/>
<path id="path18_fill" d="M 7.4 13.5C 7.5 12.8 7.7 12.1 7.9 11.4C 8.3 10.2 8.9 9.2 9.7 8.3C 10.5 7.5 11.4 6.8 12.4 6.4C 13.5 5.9 14.6 5.7 15.9 5.7C 16.6 5.7 17.3 5.8 17.8 5.9C 18.4 6 18.8 6.1 19.2 6.3C 19.6 6.5 20 6.6 20.3 6.8C 20.6 7 20.9 7.2 21.1 7.3C 21.4 7.5 21.6 7.6 21.8 7.7C 22 7.8 22.3 7.9 22.5 7.9C 22.9 7.9 23.2 7.8 23.4 7.7C 23.6 7.5 23.8 7.4 23.9 7.2L 26.3 4C 25.7 3.4 25.1 2.9 24.3 2.4C 23.6 1.9 22.8 1.5 21.9 1.1C 21 0.699998 20.1 0.499999 19.1 0.299999C 18.1 0.0999992 17 0 15.9 0C 13.5 0 11.4 0.400001 9.4 1.2C 7.4 2 5.8 3 4.4 4.4C 3 5.8 1.9 7.4 1.1 9.3C 0.6 10.6 0.200002 12.1 1.52588e-06 13.6L 7.4 13.6L 7.4 13.5Z"/>
<path id="path19_fill" d="M 0.8 3.7C 1.5 5.6 2.49999 7.3 3.69999 8.6C 4.99999 10 6.50001 11.1 8.40001 11.9C 10.2 12.7 12.3 13.1 14.6 13.1C 17.1 13.1 19.3 12.7 21.2 11.9C 23 11.1 24.6 9.9 25.8 8.3L 23 5.3C 22.8 5.1 22.7 5 22.5 5C 22.3 4.9 22.2 4.9 22 4.9C 21.8 4.9 21.6 4.9 21.4 5C 21.2 5.1 21 5.2 20.9 5.3C 20.5 5.7 20.1 6 19.7 6.2C 19.3 6.4 18.9 6.6 18.4 6.8C 17.9 7 17.5 7.1 16.9 7.1C 16.4 7.2 15.8 7.2 15.1 7.2C 14 7.2 12.9 7 12 6.6C 11 6.2 10.2 5.5 9.40001 4.7C 8.70001 3.9 8.09999 2.8 7.69999 1.6C 7.49999 1.1 7.4 0.600002 7.3 1.52588e-06L -3.05176e-06 1.52588e-06C 0.0999969 1.3 0.4 2.5 0.8 3.7Z"/>
<path id="path20_fill" d="M 1.09999 3.6C 1.89999 5.5 2.90001 7.2 4.30001 8.6C 5.70001 10 7.40001 11.1 9.30001 11.9C 11.3 12.7 13.4 13.1 15.8 13.1C 18.2 13.1 20.3 12.7 22.3 11.9C 24.2 11.1 25.9 10 27.3 8.6C 28.7 7.2 29.8 5.5 30.5 3.6C 31 2.5 31.3 1.3 31.5 1.52588e-06L 24.2 1.52588e-06C 24.1 0.500002 24 1 23.8 1.5C 23.4 2.7 22.8 3.7 22.1 4.6C 21.4 5.4 20.5 6.1 19.4 6.5C 18.3 6.9 17.1 7.2 15.8 7.2C 14.4 7.2 13.2 7 12.1 6.5C 11 6.1 10.1 5.4 9.4 4.6C 8.7 3.8 8.1 2.7 7.7 1.5C 7.5 1 7.40001 0.500002 7.30001 1.52588e-06L 3.05176e-06 1.52588e-06C 0.300003 1.3 0.599994 2.5 1.09999 3.6Z"/>
<path id="path21_fill" d="M 7 13.6C 7.1 12.9 7.2 12.2 7.5 11.5C 7.9 10.3 8.50001 9.3 9.20001 8.4C 9.90001 7.6 10.8 6.9 11.9 6.5C 13 6.1 14.2 5.8 15.6 5.8C 17 5.8 18.2 6 19.2 6.5C 20.3 6.9 21.2 7.6 21.9 8.4C 22.6 9.2 23.2 10.3 23.6 11.5C 23.8 12.2 24 12.9 24.1 13.6L 31.4 13.6C 31.2 12.1 30.9 10.8 30.4 9.4C 29.6 7.5 28.6 5.9 27.2 4.5C 25.8 3.1 24.2 2 22.2 1.2C 20.3 0.400001 18.1 -3.05176e-06 15.7 -3.05176e-06C 13.3 -3.05176e-06 11.2 0.400001 9.20001 1.2C 7.20001 2 5.60001 3.1 4.20001 4.5C 2.80001 5.9 1.7 7.5 1 9.4C 0.5 10.7 0.1 12.1 0 13.6L 7 13.6Z"/>
<path id="path22_fill" d="M 7.40001 13.5C 7.50001 12.8 7.70001 12.1 7.90001 11.4C 8.30001 10.2 8.9 9.2 9.7 8.3C 10.5 7.5 11.4 6.8 12.4 6.4C 13.5 5.9 14.6 5.7 15.9 5.7C 16.6 5.7 17.3 5.8 17.8 5.9C 18.4 6 18.8 6.1 19.2 6.3C 19.6 6.5 20 6.6 20.3 6.8C 20.6 7 20.9 7.2 21.1 7.3C 21.4 7.5 21.6 7.6 21.8 7.7C 22 7.8 22.3 7.9 22.5 7.9C 22.9 7.9 23.2 7.8 23.4 7.7C 23.6 7.5 23.8 7.4 23.9 7.2L 26.3 4C 25.7 3.4 25.1 2.9 24.3 2.4C 23.6 1.9 22.8 1.5 21.9 1.1C 21 0.700002 20.1 0.499998 19.1 0.299998C 18.1 0.0999985 17 3.05176e-06 15.9 3.05176e-06C 13.5 3.05176e-06 11.4 0.4 9.40001 1.2C 7.40001 2 5.80001 3 4.40001 4.4C 3.00001 5.8 1.89999 7.4 1.09999 9.3C 0.599994 10.6 0.199988 12.1 -1.2207e-05 13.6L 7.40001 13.6L 7.40001 13.5Z"/>
<path id="path23_fill" d="M 0.8 3.7C 1.5 5.6 2.49999 7.3 3.69999 8.6C 4.99999 10 6.50001 11.1 8.40001 11.9C 10.2 12.7 12.3 13.1 14.6 13.1C 17.1 13.1 19.3 12.7 21.2 11.9C 23 11.1 24.6 9.9 25.8 8.3L 23 5.3C 22.8 5.1 22.7 5 22.5 5C 22.3 4.9 22.2 4.9 22 4.9C 21.8 4.9 21.6 4.9 21.4 5C 21.2 5.1 21 5.2 20.9 5.3C 20.5 5.7 20.1 6 19.7 6.2C 19.3 6.4 18.9 6.6 18.4 6.8C 17.9 7 17.5 7.1 16.9 7.1C 16.4 7.2 15.8 7.2 15.1 7.2C 14 7.2 12.9 7 12 6.6C 11 6.2 10.2 5.5 9.40001 4.7C 8.70001 3.9 8.09999 2.8 7.69999 1.6C 7.49999 1.1 7.4 0.599997 7.3 -3.05176e-06L 1.2207e-05 -3.05176e-06C 0.100012 1.3 0.4 2.6 0.8 3.7Z"/>
<path id="path24_fill" d="M 1.09999 3.6C 1.89999 5.5 2.90001 7.2 4.30001 8.6C 5.70001 10 7.40001 11.1 9.30001 11.9C 11.3 12.7 13.4 13.1 15.8 13.1C 18.2 13.1 20.3 12.7 22.3 11.9C 24.2 11.1 25.9 10 27.3 8.6C 28.7 7.2 29.8 5.5 30.5 3.6C 31 2.5 31.3 1.3 31.5 3.05176e-06L 24.2 3.05176e-06C 24.1 0.500003 24 1 23.8 1.5C 23.4 2.7 22.8 3.7 22.1 4.6C 21.4 5.4 20.5 6.1 19.4 6.5C 18.3 6.9 17.1 7.2 15.8 7.2C 14.4 7.2 13.2 7 12.1 6.5C 11 6.1 10.1 5.4 9.40001 4.6C 8.70001 3.8 8.1 2.7 7.7 1.5C 7.5 1 7.40001 0.500003 7.30001 3.05176e-06L -1.2207e-05 3.05176e-06C 0.299988 1.2 0.599994 2.4 1.09999 3.6Z"/>
<path id="path25_fill" d="M 7.00001 13.6C 7.10001 12.9 7.20001 12.2 7.50001 11.5C 7.90001 10.3 8.49999 9.3 9.19999 8.4C 9.89999 7.6 10.8 6.9 11.9 6.5C 13 6.1 14.2 5.8 15.6 5.8C 17 5.8 18.2 6 19.2 6.5C 20.3 6.9 21.2 7.6 21.9 8.4C 22.6 9.2 23.2 10.3 23.6 11.5C 23.8 12.2 24 12.9 24.1 13.6L 31.4 13.6C 31.2 12.1 30.9 10.8 30.4 9.4C 29.6 7.5 28.6 5.9 27.2 4.5C 25.8 3.1 24.2 2 22.2 1.2C 20.3 0.400001 18.1 -3.05176e-06 15.7 -3.05176e-06C 13.3 -3.05176e-06 11.2 0.400001 9.19999 1.2C 7.19999 2 5.59999 3.1 4.19999 4.5C 2.79999 5.9 1.70001 7.5 1.00001 9.4C 0.500012 10.7 0.100012 12.1 1.2207e-05 13.6L 7.00001 13.6Z"/>
<path id="path26_fill" d="M 7.4 13.5C 7.5 12.8 7.7 12.1 7.9 11.4C 8.3 10.2 8.9 9.2 9.7 8.3C 10.5 7.5 11.4 6.8 12.4 6.4C 13.5 5.9 14.6 5.7 15.9 5.7C 16.6 5.7 17.3 5.8 17.8 5.9C 18.4 6 18.8 6.1 19.2 6.3C 19.6 6.5 20 6.6 20.3 6.8C 20.6 7 20.9 7.2 21.1 7.3C 21.4 7.5 21.6 7.6 21.8 7.7C 22 7.8 22.3 7.9 22.5 7.9C 22.9 7.9 23.2 7.8 23.4 7.7C 23.6 7.5 23.8 7.4 23.9 7.2L 26.3 4C 25.7 3.4 25.1 2.9 24.3 2.4C 23.6 1.9 22.8 1.5 21.9 1.1C 21 0.700002 20.1 0.499998 19.1 0.299998C 18.1 0.0999985 17 3.05176e-06 15.9 3.05176e-06C 13.5 3.05176e-06 11.4 0.4 9.4 1.2C 7.4 2 5.8 3 4.4 4.4C 3 5.8 1.9 7.4 1.1 9.3C 0.599997 10.6 0.200006 12.1 6.10352e-06 13.6L 7.4 13.6L 7.4 13.5Z"/>
<path id="path27_fill" d="M 0.800003 3.7C 1.5 5.6 2.5 7.3 3.7 8.6C 5 10 6.49999 11.1 8.39999 11.9C 10.2 12.7 12.3 13.1 14.6 13.1C 17.1 13.1 19.3 12.7 21.2 11.9C 23.1 11.1 24.6 9.9 25.8 8.3L 23 5.3C 22.8 5.1 22.7 5 22.5 5C 22.3 4.9 22.2 4.9 22 4.9C 21.8 4.9 21.6 4.9 21.4 5C 21.2 5.1 21 5.2 20.9 5.3C 20.5 5.7 20.1 6 19.7 6.2C 19.3 6.4 18.9 6.6 18.4 6.8C 17.9 7 17.5 7.1 16.9 7.1C 16.4 7.2 15.8 7.2 15.1 7.2C 14 7.2 12.9 7 12 6.6C 11 6.2 10.2 5.5 9.39999 4.7C 8.69999 3.9 8.10001 2.8 7.70001 1.6C 7.50001 1.1 7.39999 0.599997 7.29999 -3.05176e-06L 0 -3.05176e-06C 0.1 1.3 0.400003 2.6 0.800003 3.7Z"/>
<path id="path28_fill" d="M 1.10001 3.6C 1.90001 5.5 2.89999 7.2 4.29999 8.6C 5.69999 10 7.39999 11.1 9.29999 11.9C 11.3 12.7 13.4 13.1 15.8 13.1C 18.2 13.1 20.3 12.7 22.3 11.9C 24.2 11.1 25.9 10 27.3 8.6C 28.7 7.2 29.8 5.5 30.5 3.6C 31 2.5 31.3 1.3 31.5 3.05176e-06L 24.2 3.05176e-06C 24.1 0.500003 24 1 23.8 1.5C 23.4 2.7 22.8 3.7 22.1 4.6C 21.4 5.4 20.5 6.1 19.4 6.5C 18.3 6.9 17.1 7.2 15.8 7.2C 14.4 7.2 13.2 7 12.1 6.5C 11 6.1 10.1 5.4 9.39999 4.6C 8.69999 3.8 8.10001 2.7 7.70001 1.5C 7.50001 1 7.39999 0.500003 7.29999 3.05176e-06L -5.68434e-14 3.05176e-06C 0.4 1.2 0.700006 2.4 1.10001 3.6Z"/>
</defs>
</svg>
