<svg width="208" height="66" viewBox="0 0 208 66" version="1.1" xmlns="http://www.w3.org/2000/svg" xmlns:xlink="http://www.w3.org/1999/xlink">
<title>figure_11</title>
<desc>Created using Figma</desc>
<g id="Canvas" transform="translate(1237 -5415)">
<g id="figure_11">
<g id="pattern">
<g id="Vector">
<use xlink:href="#path0_fill" transform="translate(-1073.2 5415)" fill="url(#paint0_linear)"/>
</g>
<g id="Vector">
<use xlink:href="#path1_fill" transform="translate(-1101.8 5415.1)" fill="url(#paint1_linear)"/>
</g>
<g id="Vector">
<use xlink:href="#path2_fill" transform="translate(-1089.4 5434)" fill="url(#paint2_linear)"/>
</g>
<g id="Vector">
<use xlink:href="#path3_fill" transform="translate(-1061.4 5434.1)" fill="url(#paint3_linear)"/>
</g>
<g id="Vector">
<use xlink:href="#path4_fill" transform="translate(-1137.9 5415)" fill="url(#paint4_linear)"/>
</g>
<g id="Vector">
<use xlink:href="#path5_fill" transform="translate(-1166.5 5415.1)" fill="url(#paint5_linear)"/>
</g>
<g id="Vector">
<use xlink:href="#path6_fill" transform="translate(-1154.2 5434)" fill="url(#paint6_linear)"/>
</g>
<g id="Vector">
<use xlink:href="#path7_fill" transform="translate(-1126.1 5434.1)" fill="url(#paint7_linear)"/>
</g>
<g id="Vector">
<use xlink:href="#path8_fill" transform="translate(-1107.5 5449)" fill="url(#paint8_linear)"/>
</g>
<g id="Vector">
<use xlink:href="#path9_fill" transform="translate(-1143.7 5448.9)" fill="url(#paint9_linear)"/>
</g>
<g id="Vector">
<use xlink:href="#path10_fill" transform="translate(-1172.3 5449)" fill="url(#paint10_linear)"/>
</g>
<g id="Vector">
<use xlink:href="#path11_fill" transform="translate(-1159.9 5467.9)" fill="url(#paint11_linear)"/>
</g>
<g id="Vector">
<use xlink:href="#path12_fill" transform="translate(-1131.8 5467.9)" fill="url(#paint12_linear)"/>
</g>
<g id="Vector">
<use xlink:href="#path13_fill" transform="translate(-1208.4 5448.9)" fill="url(#paint13_linear)"/>
</g>
<g id="Vector">
<use xlink:href="#path14_fill" transform="translate(-1237 5449)" fill="url(#paint14_linear)"/>
</g>
<g id="Vector">
<use xlink:href="#path15_fill" transform="translate(-1224.6 5467.9)" fill="url(#paint15_linear)"/>
</g>
<g id="Vector">
<use xlink:href="#path16_fill" transform="translate(-1196.6 5467.9)" fill="url(#paint16_linear)"/>
</g>
</g>
</g>
</g>
<defs>
<linearGradient id="paint0_linear" x1="0" y1="0" x2="1" y2="0" gradientUnits="userSpaceOnUse" gradientTransform="matrix(31.4961 0 0 31.4961 -0.2522 -8.91545)">
<stop offset="0" stop-color="#394EE5"/>
<stop offset="0.9949" stop-color="#2F0D56"/>
</linearGradient>
<linearGradient id="paint1_linear" x1="0" y1="0" x2="1" y2="0" gradientUnits="userSpaceOnUse" gradientTransform="matrix(26.3286 0 0 26.3286 0.1111 -6.4317)">
<stop offset="0" stop-color="#394EE5"/>
<stop offset="0.9949" stop-color="#2F0D56"/>
</linearGradient>
<linearGradient id="paint2_linear" x1="0" y1="0" x2="1" y2="0" gradientUnits="userSpaceOnUse" gradientTransform="matrix(25.8932 0 0 25.8932 -0.0861 -6.3478)">
<stop offset="0" stop-color="#394EE5"/>
<stop offset="0.9949" stop-color="#2F0D56"/>
</linearGradient>
<linearGradient id="paint3_linear" x1="0" y1="0" x2="1" y2="0" gradientUnits="userSpaceOnUse" gradientTransform="matrix(31.3439 0 0 31.3439 0.1689 -9.17315)">
<stop offset="0" stop-color="#394EE5"/>
<stop offset="0.9949" stop-color="#2F0D56"/>
</linearGradient>
<linearGradient id="paint4_linear" x1="0" y1="0" x2="1" y2="0" gradientUnits="userSpaceOnUse" gradientTransform="matrix(31.4961 0 0 31.4961 -0.2917 -8.91545)">
<stop offset="0" stop-color="#394EE5"/>
<stop offset="0.9949" stop-color="#2F0D56"/>
</linearGradient>
<linearGradient id="paint5_linear" x1="0" y1="0" x2="1" y2="0" gradientUnits="userSpaceOnUse" gradientTransform="matrix(26.3286 0 0 26.3286 0.0716 -6.4317)">
<stop offset="0" stop-color="#394EE5"/>
<stop offset="0.9949" stop-color="#2F0D56"/>
</linearGradient>
<linearGradient id="paint6_linear" x1="0" y1="0" x2="1" y2="0" gradientUnits="userSpaceOnUse" gradientTransform="matrix(25.8932 0 0 25.8932 -0.0256 -6.3478)">
<stop offset="0" stop-color="#394EE5"/>
<stop offset="0.9949" stop-color="#2F0D56"/>
</linearGradient>
<linearGradient id="paint7_linear" x1="0" y1="0" x2="1" y2="0" gradientUnits="userSpaceOnUse" gradientTransform="matrix(31.344 0 0 31.344 0.1294 -9.1732)">
<stop offset="0" stop-color="#394EE5"/>
<stop offset="0.9949" stop-color="#2F0D56"/>
</linearGradient>
<linearGradient id="paint8_linear" x1="0" y1="0" x2="1" y2="0" gradientUnits="userSpaceOnUse" gradientTransform="matrix(26.3286 0 0 26.3286 0.0789 -6.4713)">
<stop offset="0" stop-color="#394EE5"/>
<stop offset="0.9949" stop-color="#2F0D56"/>
</linearGradient>
<linearGradient id="paint9_linear" x1="0" y1="0" x2="1" y2="0" gradientUnits="userSpaceOnUse" gradientTransform="matrix(31.4961 0 0 31.4961 -0.2238 -8.95505)">
<stop offset="0" stop-color="#394EE5"/>
<stop offset="0.9949" stop-color="#2F0D56"/>
</linearGradient>
<linearGradient id="paint10_linear" x1="0" y1="0" x2="1" y2="0" gradientUnits="userSpaceOnUse" gradientTransform="matrix(26.3286 0 0 26.3286 0.1395 -6.4713)">
<stop offset="0" stop-color="#394EE5"/>
<stop offset="0.9949" stop-color="#2F0D56"/>
</linearGradient>
<linearGradient id="paint11_linear" x1="0" y1="0" x2="1" y2="0" gradientUnits="userSpaceOnUse" gradientTransform="matrix(25.8932 0 0 25.8932 -0.0577 -6.3874)">
<stop offset="0" stop-color="#394EE5"/>
<stop offset="0.9949" stop-color="#2F0D56"/>
</linearGradient>
<linearGradient id="paint12_linear" x1="0" y1="0" x2="1" y2="0" gradientUnits="userSpaceOnUse" gradientTransform="matrix(31.3439 0 0 31.3439 0.0973 -9.11275)">
<stop offset="0" stop-color="#394EE5"/>
<stop offset="0.9949" stop-color="#2F0D56"/>
</linearGradient>
<linearGradient id="paint13_linear" x1="0" y1="0" x2="1" y2="0" gradientUnits="userSpaceOnUse" gradientTransform="matrix(31.4961 0 0 31.4961 -0.2633 -8.95505)">
<stop offset="0" stop-color="#394EE5"/>
<stop offset="0.9949" stop-color="#2F0D56"/>
</linearGradient>
<linearGradient id="paint14_linear" x1="0" y1="0" x2="1" y2="0" gradientUnits="userSpaceOnUse" gradientTransform="matrix(26.3286 0 0 26.3286 0.1 -6.4713)">
<stop offset="0" stop-color="#394EE5"/>
<stop offset="0.9949" stop-color="#2F0D56"/>
</linearGradient>
<linearGradient id="paint15_linear" x1="0" y1="0" x2="1" y2="0" gradientUnits="userSpaceOnUse" gradientTransform="matrix(25.8932 0 0 25.8932 -0.0972 -6.3874)">
<stop offset="0" stop-color="#394EE5"/>
<stop offset="0.9949" stop-color="#2F0D56"/>
</linearGradient>
<linearGradient id="paint16_linear" x1="0" y1="0" x2="1" y2="0" gradientUnits="userSpaceOnUse" gradientTransform="matrix(31.344 0 0 31.344 0.1578 -9.1128)">
<stop offset="0" stop-color="#394EE5"/>
<stop offset="0.9949" stop-color="#2F0D56"/>
</linearGradient>
<path id="path0_fill" d="M 7 13.6C 7.1 12.9 7.2 12.2 7.5 11.5C 7.9 10.3 8.49999 9.3 9.19999 8.4C 9.89999 7.6 10.8 6.89999 11.9 6.49999C 13 6.09999 14.2 5.8 15.6 5.8C 17 5.8 18.2 5.99999 19.2 6.49999C 20.3 6.89999 21.2 7.6 21.9 8.4C 22.6 9.2 23.2 10.3 23.6 11.5C 23.8 12.2 24 12.9 24.1 13.6L 31.4 13.6C 31.2 12.1 30.9 10.8 30.4 9.4C 29.6 7.5 28.6 5.89999 27.2 4.49999C 25.8 3.09999 24.2 2.00001 22.2 1.20001C 20.3 0.400006 18.1 -6.10352e-06 15.7 -6.10352e-06C 13.3 -6.10352e-06 11.2 0.400006 9.19999 1.20001C 7.19999 2.00001 5.59999 3.09999 4.19999 4.49999C 2.79999 5.89999 1.7 7.5 0.999997 9.4C 0.499997 10.7 0.0999969 12.1 -3.05176e-06 13.6L 7 13.6Z"/>
<path id="path1_fill" d="M 7.4 13.5C 7.5 12.8 7.7 12.1 7.9 11.4C 8.3 10.2 8.9 9.2 9.7 8.3C 10.5 7.5 11.4 6.79999 12.4 6.39999C 13.5 5.89999 14.6 5.7 15.9 5.7C 16.6 5.7 17.3 5.79999 17.8 5.89999C 18.4 5.99999 18.8 6.1 19.2 6.3C 19.6 6.5 20 6.6 20.3 6.8C 20.6 7 20.9 7.2 21.1 7.3C 21.4 7.5 21.6 7.6 21.8 7.7C 22 7.8 22.3 7.89999 22.5 7.89999C 22.9 7.89999 23.2 7.8 23.4 7.7C 23.6 7.5 23.8 7.4 23.9 7.2L 26.3 4C 25.7 3.4 25.1 2.89999 24.3 2.39999C 23.6 1.89999 22.8 1.50001 21.9 1.10001C 21 0.700006 20.1 0.500003 19.1 0.300003C 18.1 0.100003 17 0 15.9 0C 13.5 0 11.4 0.399997 9.4 1.2C 7.4 2 5.8 2.99999 4.4 4.39999C 3 5.79999 1.9 7.4 1.1 9.3C 0.599997 10.6 0.200006 12.1 6.10352e-06 13.6L 7.4 13.6L 7.4 13.5Z"/>
<path id="path2_fill" d="M 0.800003 3.70001C 1.5 5.60001 2.5 7.3 3.7 8.6C 5 10 6.49999 11.1 8.39999 11.9C 10.2 12.7 12.3 13.1 14.6 13.1C 17.1 13.1 19.3 12.7 21.2 11.9C 23.1 11.1 24.6 9.9 25.8 8.3L 23 5.3C 22.8 5.1 22.7 4.99999 22.5 4.99999C 22.3 4.89999 22.2 4.9 22 4.9C 21.8 4.9 21.6 4.89999 21.4 4.99999C 21.2 5.09999 21 5.2 20.9 5.3C 20.5 5.7 20.1 6.00001 19.7 6.20001C 19.3 6.40001 18.9 6.6 18.4 6.8C 17.9 7 17.5 7.1 16.9 7.1C 16.4 7.2 15.8 7.20001 15.1 7.20001C 14 7.20001 12.9 7 12 6.6C 11 6.2 10.2 5.50001 9.39999 4.70001C 8.69999 3.90001 8.1 2.8 7.7 1.6C 7.5 1.1 7.4 0.599994 7.3 -6.10352e-06L 2.84217e-14 -6.10352e-06C 0.1 1.39999 0.400003 2.60001 0.800003 3.70001Z"/>
<path id="path3_fill" d="M 1.10001 3.60001C 1.90001 5.50001 2.9 7.20001 4.3 8.60001C 5.7 10 7.4 11.1 9.3 11.9C 11.3 12.7 13.4 13.1 15.8 13.1C 18.2 13.1 20.3 12.7 22.3 11.9C 24.2 11.1 25.9 10 27.3 8.60001C 28.7 7.20001 29.8 5.50001 30.5 3.60001C 31 2.50001 31.3 1.3 31.5 0L 24.2 0C 24.1 0.5 24 1 23.8 1.5C 23.4 2.7 22.8 3.70001 22.1 4.60001C 21.4 5.40001 20.5 6.1 19.4 6.5C 18.3 6.9 17.1 7.2 15.8 7.2C 14.4 7.2 13.2 7 12.1 6.5C 11 6.1 10.1 5.40001 9.39999 4.60001C 8.69999 3.80001 8.1 2.7 7.7 1.5C 7.5 1 7.4 0.5 7.3 0L 0 0C 0.4 1.2 0.700006 2.40001 1.10001 3.60001Z"/>
<path id="path4_fill" d="M 7 13.6C 7.1 12.9 7.2 12.2 7.5 11.5C 7.9 10.3 8.5 9.3 9.2 8.4C 9.9 7.5 10.8 6.89999 11.9 6.49999C 13 6.09999 14.2 5.8 15.6 5.8C 17 5.8 18.2 5.99999 19.2 6.49999C 20.3 6.89999 21.2 7.6 21.9 8.4C 22.6 9.2 23.2 10.3 23.6 11.5C 23.8 12.2 24 12.9 24.1 13.6L 31.4 13.6C 31.2 12.1 30.9 10.8 30.4 9.4C 29.6 7.5 28.6 5.89999 27.2 4.49999C 25.8 3.09999 24.2 2.00001 22.2 1.20001C 20.3 0.400006 18.1 -6.10352e-06 15.7 -6.10352e-06C 13.3 -6.10352e-06 11.2 0.400006 9.2 1.20001C 7.2 2.00001 5.6 3.09999 4.2 4.49999C 2.8 5.89999 1.7 7.5 1 9.4C 0.5 10.7 0.1 12.1 0 13.6L 7 13.6Z"/>
<path id="path5_fill" d="M 7.4 13.5C 7.5 12.8 7.7 12.1 7.9 11.4C 8.3 10.2 8.9 9.2 9.7 8.3C 10.5 7.5 11.4 6.79999 12.4 6.39999C 13.5 5.89999 14.6 5.7 15.9 5.7C 16.6 5.7 17.3 5.79999 17.8 5.89999C 18.4 5.99999 18.8 6.1 19.2 6.3C 19.6 6.5 20 6.6 20.3 6.8C 20.6 7 20.9 7.2 21.1 7.3C 21.4 7.5 21.6 7.6 21.8 7.7C 22 7.8 22.3 7.89999 22.5 7.89999C 22.9 7.89999 23.2 7.8 23.4 7.7C 23.6 7.5 23.8 7.4 23.9 7.2L 26.3 4C 25.7 3.4 25.1 2.89999 24.3 2.39999C 23.6 1.89999 22.8 1.50001 21.9 1.10001C 21 0.700006 20.1 0.500003 19.1 0.300003C 18.1 0.100003 17 0 15.9 0C 13.5 0 11.4 0.399997 9.4 1.2C 7.4 2 5.8 2.99999 4.4 4.39999C 3 5.79999 1.9 7.4 1.1 9.3C 0.6 10.6 0.200002 12.1 1.52588e-06 13.6L 7.4 13.6L 7.4 13.5Z"/>
<path id="path6_fill" d="M 0.8 3.70001C 1.5 5.60001 2.5 7.3 3.7 8.6C 5 10 6.5 11.1 8.4 11.9C 10.2 12.7 12.3 13.1 14.6 13.1C 17.1 13.1 19.3 12.7 21.2 11.9C 23 11.1 24.6 9.9 25.8 8.3L 23 5.3C 22.8 5.1 22.7 4.99999 22.5 4.99999C 22.3 4.89999 22.2 4.9 22 4.9C 21.8 4.9 21.6 4.89999 21.4 4.99999C 21.2 5.09999 21 5.2 20.9 5.3C 20.5 5.7 20.1 6.00001 19.7 6.20001C 19.3 6.40001 18.9 6.6 18.4 6.8C 17.9 7 17.5 7.1 16.9 7.1C 16.4 7.2 15.8 7.20001 15.1 7.20001C 14 7.20001 12.9 7 12 6.6C 11 6.2 10.2 5.50001 9.4 4.70001C 8.7 3.90001 8.1 2.8 7.7 1.6C 7.5 1.1 7.4 0.599994 7.3 -6.10352e-06L -3.05176e-06 -6.10352e-06C 0.0999969 1.39999 0.4 2.60001 0.8 3.70001Z"/>
<path id="path7_fill" d="M 1.1 3.60001C 1.9 5.50001 2.9 7.20001 4.3 8.60001C 5.7 10 7.4 11.1 9.3 11.9C 11.3 12.7 13.4 13.1 15.8 13.1C 18.2 13.1 20.3 12.7 22.3 11.9C 24.2 11.1 25.9 10 27.3 8.60001C 28.7 7.20001 29.8 5.50001 30.5 3.60001C 31 2.50001 31.3 1.3 31.5 0L 24.2 0C 24.1 0.5 24 1 23.8 1.5C 23.4 2.7 22.8 3.70001 22.1 4.60001C 21.4 5.40001 20.5 6.1 19.4 6.5C 18.3 6.9 17.1 7.2 15.8 7.2C 14.4 7.2 13.2 7 12.1 6.5C 11 6.1 10.1 5.40001 9.4 4.60001C 8.7 3.80001 8.1 2.7 7.7 1.5C 7.5 1 7.4 0.5 7.3 0L 3.05176e-06 0C 0.300003 1.2 0.600002 2.40001 1.1 3.60001Z"/>
<path id="path8_fill" d="M 7.4 13.5C 7.5 12.8 7.7 12.1 7.9 11.4C 8.3 10.2 8.90001 9.2 9.70001 8.3C 10.5 7.5 11.4 6.8 12.4 6.4C 13.5 5.9 14.6 5.70001 15.9 5.70001C 16.6 5.70001 17.3 5.8 17.8 5.9C 18.4 6 18.8 6.1 19.2 6.3C 19.6 6.5 20 6.6 20.3 6.8C 20.6 7 20.9 7.2 21.1 7.3C 21.4 7.5 21.6 7.60001 21.8 7.70001C 22 7.80001 22.3 7.9 22.5 7.9C 22.9 7.9 23.2 7.80001 23.4 7.70001C 23.6 7.50001 23.8 7.40001 23.9 7.20001L 26.3 3.99999C 25.7 3.39999 25.1 2.9 24.3 2.4C 23.6 1.9 22.8 1.5 21.9 1.1C 21 0.7 20.1 0.499997 19.1 0.299997C 18.1 0.0999969 17 -6.10352e-06 15.9 -6.10352e-06C 13.5 -6.10352e-06 11.4 0.400006 9.4 1.20001C 7.4 2.00001 5.8 3 4.4 4.4C 3 5.8 1.9 7.4 1.1 9.3C 0.6 10.6 0.199994 12.1 -6.10352e-06 13.6L 7.4 13.6L 7.4 13.5Z"/>
<path id="path9_fill" d="M 7 13.6C 7.1 12.9 7.2 12.2 7.5 11.5C 7.9 10.3 8.5 9.3 9.2 8.4C 9.9 7.5 10.8 6.9 11.9 6.5C 13 6.1 14.2 5.80001 15.6 5.80001C 17 5.80001 18.2 6 19.2 6.5C 20.3 6.9 21.2 7.6 21.9 8.4C 22.6 9.2 23.2 10.3 23.6 11.5C 23.8 12.2 24 12.9 24.1 13.6L 31.4 13.6C 31.2 12.1 30.9 10.8 30.4 9.4C 29.6 7.5 28.6 5.9 27.2 4.5C 25.8 3.1 24.2 2 22.2 1.2C 20.3 0.4 18.1 3.05176e-06 15.7 3.05176e-06C 13.3 3.05176e-06 11.2 0.4 9.2 1.2C 7.2 2 5.6 3.1 4.2 4.5C 2.8 5.9 1.7 7.5 0.999997 9.4C 0.499997 10.7 0.0999969 12.1 -3.05176e-06 13.6L 7 13.6Z"/>
<path id="path10_fill" d="M 7.4 13.5C 7.5 12.8 7.7 12.1 7.9 11.4C 8.3 10.2 8.9 9.2 9.7 8.3C 10.5 7.5 11.4 6.8 12.4 6.4C 13.5 5.9 14.6 5.70001 15.9 5.70001C 16.6 5.70001 17.3 5.8 17.8 5.9C 18.4 6 18.8 6.1 19.2 6.3C 19.6 6.5 20 6.6 20.3 6.8C 20.6 7 20.9 7.2 21.1 7.3C 21.4 7.5 21.6 7.60001 21.8 7.70001C 22 7.80001 22.3 7.9 22.5 7.9C 22.9 7.9 23.2 7.80001 23.4 7.70001C 23.6 7.50001 23.8 7.40001 23.9 7.20001L 26.3 3.99999C 25.7 3.39999 25.1 2.9 24.3 2.4C 23.6 1.9 22.8 1.5 21.9 1.1C 21 0.7 20.1 0.499997 19.1 0.299997C 18.1 0.0999969 17 -6.10352e-06 15.9 -6.10352e-06C 13.5 -6.10352e-06 11.4 0.400006 9.4 1.20001C 7.4 2.00001 5.8 3 4.4 4.4C 3 5.8 1.9 7.4 1.1 9.3C 0.599997 10.6 0.199998 12.1 -1.52588e-06 13.6L 7.4 13.6L 7.4 13.5Z"/>
<path id="path11_fill" d="M 0.800003 3.7C 1.5 5.6 2.5 7.29999 3.7 8.59999C 5 9.99999 6.5 11.1 8.4 11.9C 10.2 12.7 12.3 13.1 14.6 13.1C 17.1 13.1 19.3 12.7 21.2 11.9C 23 11.1 24.6 9.90001 25.8 8.30001L 23 5.30001C 22.8 5.10001 22.7 5 22.5 5C 22.3 4.9 22.2 4.9 22 4.9C 21.8 4.9 21.6 4.9 21.4 5C 21.2 5.1 21 5.20001 20.9 5.30001C 20.5 5.70001 20.1 6 19.7 6.2C 19.3 6.4 18.9 6.60001 18.4 6.80001C 17.9 7.00001 17.5 7.09999 16.9 7.09999C 16.4 7.19999 15.8 7.2 15.1 7.2C 14 7.2 12.9 6.99999 12 6.59999C 11 6.19999 10.2 5.5 9.4 4.7C 8.7 3.9 8.1 2.79999 7.7 1.59999C 7.5 1.09999 7.4 0.600003 7.3 3.05176e-06L -1.42109e-14 3.05176e-06C 0.1 1.3 0.400003 2.5 0.800003 3.7Z"/>
<path id="path12_fill" d="M 1.1 3.59999C 1.9 5.49999 2.9 7.19999 4.3 8.59999C 5.7 9.99999 7.4 11.1 9.3 11.9C 11.3 12.7 13.4 13.1 15.8 13.1C 18.2 13.1 20.3 12.7 22.3 11.9C 24.2 11.1 25.9 9.99999 27.3 8.59999C 28.7 7.19999 29.8 5.49999 30.5 3.59999C 31 2.49999 31.3 1.3 31.5 3.05176e-06L 24.2 3.05176e-06C 24.1 0.500003 24 1 23.8 1.5C 23.4 2.7 22.8 3.69999 22.1 4.59999C 21.4 5.39999 20.5 6.1 19.4 6.5C 18.3 6.9 17.1 7.2 15.8 7.2C 14.4 7.2 13.2 7 12.1 6.5C 11 6.1 10.1 5.39999 9.4 4.59999C 8.7 3.79999 8.1 2.7 7.7 1.5C 7.5 1 7.4 0.500003 7.3 3.05176e-06L -1.52588e-06 3.05176e-06C 0.299998 1.3 0.599997 2.49999 1.1 3.59999Z"/>
<path id="path13_fill" d="M 7 13.6C 7.1 12.9 7.2 12.2 7.5 11.5C 7.9 10.3 8.5 9.3 9.2 8.4C 9.9 7.5 10.8 6.9 11.9 6.5C 13 6.1 14.2 5.80001 15.6 5.80001C 17 5.80001 18.2 6 19.2 6.5C 20.3 6.9 21.2 7.6 21.9 8.4C 22.6 9.2 23.2 10.3 23.6 11.5C 23.8 12.2 24 12.9 24.1 13.6L 31.4 13.6C 31.2 12.1 30.9 10.8 30.4 9.4C 29.6 7.5 28.6 5.9 27.2 4.5C 25.8 3.1 24.2 2 22.2 1.2C 20.3 0.4 18.1 3.05176e-06 15.7 3.05176e-06C 13.3 3.05176e-06 11.2 0.4 9.2 1.2C 7.2 2 5.6 3.1 4.2 4.5C 2.8 5.9 1.7 7.5 1 9.4C 0.5 10.7 0.1 12.1 -1.06581e-14 13.6L 7 13.6Z"/>
<path id="path14_fill" d="M 7.4 13.5C 7.5 12.8 7.7 12.1 7.9 11.4C 8.3 10.2 8.9 9.2 9.7 8.3C 10.5 7.5 11.4 6.8 12.4 6.4C 13.5 5.9 14.6 5.70001 15.9 5.70001C 16.6 5.70001 17.3 5.8 17.8 5.9C 18.4 6 18.8 6.1 19.2 6.3C 19.6 6.5 20 6.6 20.3 6.8C 20.6 7 20.9 7.2 21.1 7.3C 21.4 7.5 21.6 7.60001 21.8 7.70001C 22 7.80001 22.3 7.9 22.5 7.9C 22.9 7.9 23.2 7.80001 23.4 7.70001C 23.6 7.50001 23.8 7.40001 23.9 7.20001L 26.3 3.99999C 25.7 3.39999 25.1 2.9 24.3 2.4C 23.6 1.9 22.8 1.5 21.9 1.1C 21 0.7 20.1 0.499997 19.1 0.299997C 18.1 0.0999969 17 -6.10352e-06 15.9 -6.10352e-06C 13.5 -6.10352e-06 11.4 0.400006 9.4 1.20001C 7.4 2.00001 5.8 3 4.4 4.4C 3 5.8 1.9 7.4 1.1 9.3C 0.6 10.6 0.2 12.1 -1.49011e-09 13.6L 7.4 13.6L 7.4 13.5Z"/>
<path id="path15_fill" d="M 0.8 3.7C 1.5 5.6 2.5 7.29999 3.7 8.59999C 5 9.99999 6.5 11.1 8.4 11.9C 10.2 12.7 12.3 13.1 14.6 13.1C 17.1 13.1 19.3 12.7 21.2 11.9C 23 11.1 24.6 9.90001 25.8 8.30001L 23 5.30001C 22.8 5.10001 22.7 5 22.5 5C 22.3 4.9 22.2 4.9 22 4.9C 21.8 4.9 21.6 4.9 21.4 5C 21.2 5.1 21 5.20001 20.9 5.30001C 20.5 5.70001 20.1 6 19.7 6.2C 19.3 6.4 18.9 6.60001 18.4 6.80001C 17.9 7.00001 17.5 7.09999 16.9 7.09999C 16.4 7.19999 15.8 7.2 15.1 7.2C 14 7.2 12.9 6.99999 12 6.59999C 11 6.19999 10.2 5.5 9.4 4.7C 8.7 3.9 8.1 2.79999 7.7 1.59999C 7.5 1.09999 7.4 0.600003 7.3 3.05176e-06L 1.90735e-07 3.05176e-06C 0.1 1.3 0.4 2.5 0.8 3.7Z"/>
<path id="path16_fill" d="M 1.1 3.59999C 1.9 5.49999 2.9 7.19999 4.3 8.59999C 5.7 9.99999 7.4 11.1 9.3 11.9C 11.3 12.7 13.4 13.1 15.8 13.1C 18.2 13.1 20.3 12.7 22.3 11.9C 24.2 11.1 25.9 9.99999 27.3 8.59999C 28.7 7.19999 29.8 5.49999 30.5 3.59999C 31 2.49999 31.3 1.3 31.5 3.05176e-06L 24.2 3.05176e-06C 24.1 0.500003 24 1 23.8 1.5C 23.4 2.7 22.8 3.69999 22.1 4.59999C 21.4 5.39999 20.5 6.1 19.4 6.5C 18.3 6.9 17.1 7.2 15.8 7.2C 14.4 7.2 13.2 7 12.1 6.5C 11 6.1 10.1 5.39999 9.4 4.59999C 8.7 3.79999 8.1 2.7 7.7 1.5C 7.5 1 7.4 0.500003 7.3 3.05176e-06L -7.62939e-07 3.05176e-06C 0.299999 1.3 0.700002 2.49999 1.1 3.59999Z"/>
</defs>
</svg>
