<svg width="552" height="552" viewBox="0 0 552 552" version="1.1" xmlns="http://www.w3.org/2000/svg" xmlns:xlink="http://www.w3.org/1999/xlink">
<title>figure_15</title>
<desc>Created using Figma</desc>
<g id="Canvas" transform="translate(1410 -6849)">
<g id="figure_15">
<g id="Vector">
<use xlink:href="#path0_fill" transform="translate(-1410 6849)" fill="url(#paint0_linear)"/>
</g>
<g id="pattern">
<g id="Vector">
<use xlink:href="#path1_fill" transform="translate(-1020.9 7193.8)" fill="#DB71B0"/>
</g>
<g id="Vector">
<use xlink:href="#path2_fill" transform="translate(-1049.5 7193.9)" fill="#DB71B0"/>
</g>
<g id="Vector">
<use xlink:href="#path3_fill" transform="translate(-1037.1 7212.8)" fill="#DB71B0"/>
</g>
<g id="Vector">
<use xlink:href="#path4_fill" transform="translate(-1009.1 7212.8)" fill="#DB71B0"/>
</g>
<g id="Vector">
<use xlink:href="#path5_fill" transform="translate(-1085.6 7193.8)" fill="#DB71B0"/>
</g>
<g id="Vector">
<use xlink:href="#path6_fill" transform="translate(-1114.2 7193.9)" fill="#DB71B0"/>
</g>
<g id="Vector">
<use xlink:href="#path7_fill" transform="translate(-1101.9 7212.8)" fill="#DB71B0"/>
</g>
<g id="Vector">
<use xlink:href="#path8_fill" transform="translate(-1073.8 7212.8)" fill="#DB71B0"/>
</g>
<g id="Vector">
<use xlink:href="#path9_fill" transform="translate(-961.9 7227.7)" fill="#DB71B0"/>
</g>
<g id="Vector">
<use xlink:href="#path10_fill" transform="translate(-990.5 7227.8)" fill="#DB71B0"/>
</g>
<g id="Vector">
<use xlink:href="#path11_fill" transform="translate(-978.1 7246.7)" fill="#DB71B0"/>
</g>
<g id="Vector">
<use xlink:href="#path12_fill" transform="translate(-950.1 7246.7)" fill="#DB71B0"/>
</g>
<g id="Vector">
<use xlink:href="#path13_fill" transform="translate(-1026.6 7227.7)" fill="#DB71B0"/>
</g>
<g id="Vector">
<use xlink:href="#path14_fill" transform="translate(-1055.2 7227.8)" fill="#DB71B0"/>
</g>
<g id="Vector">
<use xlink:href="#path15_fill" transform="translate(-1042.9 7246.7)" fill="#DB71B0"/>
</g>
<g id="Vector">
<use xlink:href="#path16_fill" transform="translate(-1014.8 7246.7)" fill="#DB71B0"/>
</g>
<g id="Vector">
<use xlink:href="#path9_fill" transform="translate(-1091.4 7227.7)" fill="#DB71B0"/>
</g>
<g id="Vector">
<use xlink:href="#path10_fill" transform="translate(-1120 7227.8)" fill="#DB71B0"/>
</g>
<g id="Vector">
<use xlink:href="#path17_fill" transform="translate(-1107.6 7246.7)" fill="#DB71B0"/>
</g>
<g id="Vector">
<use xlink:href="#path18_fill" transform="translate(-1079.5 7246.7)" fill="#DB71B0"/>
</g>
<g id="Vector">
<use xlink:href="#path19_fill" transform="translate(-1097.1 7261.5)" fill="#DB71B0"/>
</g>
<g id="Vector">
<use xlink:href="#path20_fill" transform="translate(-1125.7 7261.6)" fill="#DB71B0"/>
</g>
<g id="Vector">
<use xlink:href="#path21_fill" transform="translate(-1113.3 7280.5)" fill="#DB71B0"/>
</g>
<g id="Vector">
<use xlink:href="#path22_fill" transform="translate(-1085.3 7280.6)" fill="#DB71B0"/>
</g>
<g id="Vector">
<use xlink:href="#path23_fill" transform="translate(-1161.8 7261.5)" fill="#DB71B0"/>
</g>
<g id="Vector">
<use xlink:href="#path24_fill" transform="translate(-1190.4 7261.6)" fill="#DB71B0"/>
</g>
<g id="Vector">
<use xlink:href="#path25_fill" transform="translate(-1178.1 7280.5)" fill="#DB71B0"/>
</g>
<g id="Vector">
<use xlink:href="#path26_fill" transform="translate(-1150 7280.6)" fill="#DB71B0"/>
</g>
</g>
</g>
</g>
<defs>
<linearGradient id="paint0_linear" x1="0" y1="0" x2="1" y2="0" gradientUnits="userSpaceOnUse" gradientTransform="matrix(-321.97 511.061 -511.061 -321.97 658.731 235.047)">
<stop offset="0" stop-color="#394EE5"/>
<stop offset="1" stop-color="#2F0D56"/>
</linearGradient>
<path id="path0_fill" d="M 276 552C 428.431 552 552 428.431 552 276C 552 123.569 428.431 0 276 0C 123.569 0 0 123.569 0 276C 0 428.431 123.569 552 276 552Z"/>
<path id="path1_fill" d="M 7.00001 13.6C 7.10001 12.9 7.20001 12.2 7.50001 11.5C 7.90001 10.3 8.49999 9.30001 9.19999 8.40001C 9.89999 7.60001 10.8 6.90001 11.9 6.50001C 13 6.10001 14.2 5.8 15.6 5.8C 17 5.8 18.2 6.00001 19.2 6.50001C 20.3 6.90001 21.2 7.60001 21.9 8.40001C 22.6 9.20001 23.2 10.3 23.6 11.5C 23.8 12.2 24 12.9 24.1 13.6L 31.4 13.6C 31.2 12.1 30.9 10.8 30.4 9.40001C 29.6 7.50001 28.6 5.90001 27.2 4.50001C 25.8 3.10001 24.2 1.99999 22.2 1.19999C 20.3 0.399994 18.1 1.2207e-05 15.7 1.2207e-05C 13.3 1.2207e-05 11.2 0.399994 9.19999 1.19999C 7.19999 1.99999 5.59999 3.10001 4.19999 4.50001C 2.79999 5.90001 1.70001 7.50001 1.00001 9.40001C 0.500006 10.7 0.100006 12.1 6.10352e-06 13.6L 7.00001 13.6Z"/>
<path id="path2_fill" d="M 7.39999 13.5C 7.49999 12.8 7.69999 12.1 7.89999 11.4C 8.29999 10.2 8.90001 9.20001 9.70001 8.30001C 10.5 7.50001 11.4 6.80001 12.4 6.40001C 13.5 5.90001 14.6 5.7 15.9 5.7C 16.6 5.7 17.3 5.80001 17.8 5.90001C 18.4 6.00001 18.8 6.10001 19.2 6.30001C 19.6 6.50001 20 6.60001 20.3 6.80001C 20.6 7.00001 20.9 7.20001 21.1 7.30001C 21.4 7.50001 21.6 7.6 21.8 7.7C 22 7.8 22.3 7.90001 22.5 7.90001C 22.9 7.90001 23.2 7.8 23.4 7.7C 23.6 7.5 23.8 7.4 23.9 7.2L 26.3 3.99999C 25.7 3.39999 25.1 2.90001 24.3 2.40001C 23.6 1.90001 22.8 1.49999 21.9 1.09999C 21 0.699994 20.1 0.500006 19.1 0.300006C 18.1 0.100006 17 -1.2207e-05 15.9 -1.2207e-05C 13.5 -1.2207e-05 11.4 0.4 9.39999 1.2C 7.39999 2 5.79999 3.00001 4.39999 4.40001C 2.99999 5.80001 1.90001 7.40001 1.10001 9.30001C 0.600006 10.6 0.2 12.1 1.13687e-13 13.6L 7.39999 13.6L 7.39999 13.5Z"/>
<path id="path3_fill" d="M 0.800012 3.69999C 1.50001 5.59999 2.50001 7.29999 3.70001 8.59999C 5.00001 9.99999 6.49999 11.1 8.39999 11.9C 10.2 12.7 12.3 13.1 14.6 13.1C 17.1 13.1 19.3 12.7 21.2 11.9C 23 11.1 24.6 9.9 25.8 8.3L 23 5.3C 22.8 5.1 22.7 5.00001 22.5 5.00001C 22.3 4.90001 22.2 4.90001 22 4.90001C 21.8 4.90001 21.6 4.90001 21.4 5.00001C 21.2 5.10001 21 5.2 20.9 5.3C 20.5 5.7 20.1 5.99999 19.7 6.19999C 19.3 6.39999 18.9 6.6 18.4 6.8C 17.9 7 17.5 7.09999 16.9 7.09999C 16.4 7.19999 15.8 7.19999 15.1 7.19999C 14 7.19999 12.9 6.99999 12 6.59999C 11 6.19999 10.2 5.49999 9.39999 4.69999C 8.69999 3.89999 8.10001 2.79999 7.70001 1.59999C 7.50001 1.09999 7.40001 0.600012 7.30001 1.2207e-05L -6.10352e-06 1.2207e-05C 0.0999939 1.30001 0.400012 2.49999 0.800012 3.69999Z"/>
<path id="path4_fill" d="M 1.1 3.59999C 1.9 5.49999 2.90001 7.19999 4.30001 8.59999C 5.70001 9.99999 7.40001 11.1 9.30001 11.9C 11.3 12.7 13.4 13.1 15.8 13.1C 18.2 13.1 20.3 12.7 22.3 11.9C 24.2 11.1 25.9 9.99999 27.3 8.59999C 28.7 7.19999 29.8 5.49999 30.5 3.59999C 31 2.49999 31.3 1.30001 31.5 1.2207e-05L 24.2 1.2207e-05C 24.1 0.500012 24 1.00001 23.8 1.50001C 23.4 2.70001 22.8 3.69999 22.1 4.59999C 21.4 5.39999 20.5 6.10001 19.4 6.50001C 18.3 6.90001 17.1 7.19999 15.8 7.19999C 14.4 7.19999 13.2 7.00001 12.1 6.50001C 11 6.10001 10.1 5.39999 9.39999 4.59999C 8.69999 3.79999 8.10001 2.70001 7.70001 1.50001C 7.50001 1.00001 7.40001 0.500012 7.30001 1.2207e-05L -6.10352e-06 1.2207e-05C 0.399994 1.30001 0.7 2.49999 1.1 3.59999Z"/>
<path id="path5_fill" d="M 6.99999 13.6C 7.09999 12.9 7.19999 12.2 7.49999 11.5C 7.89999 10.3 8.50001 9.30001 9.20001 8.40001C 9.90001 7.60001 10.8 6.90001 11.9 6.50001C 13 6.10001 14.2 5.8 15.6 5.8C 17 5.8 18.2 6.00001 19.2 6.50001C 20.3 6.90001 21.2 7.60001 21.9 8.40001C 22.6 9.20001 23.2 10.3 23.6 11.5C 23.8 12.2 24 12.9 24.1 13.6L 31.4 13.6C 31.2 12.1 30.9 10.8 30.4 9.40001C 29.6 7.50001 28.6 5.90001 27.2 4.50001C 25.8 3.10001 24.2 1.99999 22.2 1.19999C 20.3 0.399994 18.1 1.2207e-05 15.7 1.2207e-05C 13.3 1.2207e-05 11.2 0.399994 9.20001 1.19999C 7.20001 1.99999 5.60001 3.10001 4.20001 4.50001C 2.80001 5.90001 1.69999 7.50001 0.999994 9.40001C 0.499994 10.7 0.0999939 12.1 -6.10352e-06 13.6L 6.99999 13.6Z"/>
<path id="path6_fill" d="M 7.40001 13.5C 7.50001 12.8 7.70001 12.1 7.90001 11.4C 8.30001 10.2 8.9 9.20001 9.7 8.30001C 10.5 7.50001 11.4 6.80001 12.4 6.40001C 13.5 5.90001 14.6 5.7 15.9 5.7C 16.6 5.7 17.3 5.80001 17.8 5.90001C 18.4 6.00001 18.8 6.10001 19.2 6.30001C 19.6 6.50001 20 6.60001 20.3 6.80001C 20.6 7.00001 20.9 7.20001 21.1 7.30001C 21.4 7.50001 21.6 7.6 21.8 7.7C 22 7.8 22.3 7.90001 22.5 7.90001C 22.9 7.90001 23.2 7.8 23.4 7.7C 23.6 7.5 23.8 7.4 23.9 7.2L 26.3 3.99999C 25.7 3.39999 25.1 2.90001 24.3 2.40001C 23.6 1.90001 22.8 1.49999 21.9 1.09999C 21 0.699994 20.1 0.500006 19.1 0.300006C 18.1 0.100006 17 -1.2207e-05 15.9 -1.2207e-05C 13.5 -1.2207e-05 11.4 0.4 9.40001 1.2C 7.40001 2 5.80001 3.00001 4.40001 4.40001C 3.00001 5.80001 1.89999 7.40001 1.09999 9.30001C 0.599994 10.6 0.199988 12.1 -1.2207e-05 13.6L 7.40001 13.6L 7.40001 13.5Z"/>
<path id="path7_fill" d="M 0.799994 3.69999C 1.49999 5.59999 2.49999 7.29999 3.69999 8.59999C 4.99999 9.99999 6.5 11.1 8.4 11.9C 10.2 12.7 12.3 13.1 14.6 13.1C 17.1 13.1 19.3 12.7 21.2 11.9C 23.1 11.1 24.6 9.9 25.8 8.3L 23 5.3C 22.8 5.1 22.7 5.00001 22.5 5.00001C 22.3 4.90001 22.2 4.90001 22 4.90001C 21.8 4.90001 21.6 4.90001 21.4 5.00001C 21.2 5.10001 21 5.2 20.9 5.3C 20.5 5.7 20.1 5.99999 19.7 6.19999C 19.3 6.39999 18.9 6.6 18.4 6.8C 17.9 7 17.5 7.09999 16.9 7.09999C 16.4 7.19999 15.8 7.19999 15.1 7.19999C 14 7.19999 12.9 6.99999 12 6.59999C 11 6.19999 10.2 5.49999 9.4 4.69999C 8.7 3.89999 8.09999 2.79999 7.69999 1.59999C 7.49999 1.09999 7.39999 0.600012 7.29999 1.2207e-05L 6.10352e-06 1.2207e-05C 0.100006 1.30001 0.399994 2.49999 0.799994 3.69999Z"/>
<path id="path8_fill" d="M 1.09999 3.59999C 1.89999 5.49999 2.9 7.19999 4.3 8.59999C 5.7 9.99999 7.4 11.1 9.3 11.9C 11.3 12.7 13.4 13.1 15.8 13.1C 18.2 13.1 20.3 12.7 22.3 11.9C 24.2 11.1 25.9 9.99999 27.3 8.59999C 28.7 7.19999 29.8 5.49999 30.5 3.59999C 31 2.49999 31.3 1.30001 31.5 1.2207e-05L 24.2 1.2207e-05C 24.1 0.500012 24 1.00001 23.8 1.50001C 23.4 2.70001 22.8 3.69999 22.1 4.59999C 21.4 5.39999 20.5 6.10001 19.4 6.50001C 18.3 6.90001 17.1 7.19999 15.8 7.19999C 14.4 7.19999 13.2 7.00001 12.1 6.50001C 11 6.10001 10.1 5.39999 9.40001 4.59999C 8.70001 3.79999 8.09999 2.70001 7.69999 1.50001C 7.49999 1.00001 7.4 0.500012 7.3 1.2207e-05L 1.2207e-05 1.2207e-05C 0.300012 1.30001 0.599988 2.49999 1.09999 3.59999Z"/>
<path id="path9_fill" d="M 7.00001 13.6C 7.10001 12.9 7.20001 12.2 7.50001 11.5C 7.90001 10.3 8.49999 9.3 9.19999 8.4C 9.89999 7.5 10.8 6.90001 11.9 6.50001C 13 6.10001 14.2 5.79999 15.6 5.79999C 17 5.79999 18.2 6.00001 19.2 6.50001C 20.3 6.90001 21.2 7.6 21.9 8.4C 22.6 9.2 23.2 10.3 23.6 11.5C 23.8 12.2 24 12.9 24.1 13.6L 31.4 13.6C 31.2 12.1 30.9 10.8 30.4 9.4C 29.6 7.5 28.6 5.90001 27.2 4.50001C 25.8 3.10001 24.2 1.99999 22.2 1.19999C 20.3 0.399988 18.1 6.10352e-06 15.7 6.10352e-06C 13.3 6.10352e-06 11.2 0.399988 9.19999 1.19999C 7.19999 1.99999 5.59999 3.10001 4.19999 4.50001C 2.79999 5.90001 1.70001 7.5 1.00001 9.4C 0.500006 10.7 0.100006 12.1 6.10352e-06 13.6L 7.00001 13.6Z"/>
<path id="path10_fill" d="M 7.39999 13.5C 7.49999 12.8 7.69999 12.1 7.89999 11.4C 8.29999 10.2 8.90001 9.2 9.70001 8.3C 10.5 7.5 11.4 6.80001 12.4 6.40001C 13.5 5.90001 14.6 5.69999 15.9 5.69999C 16.6 5.69999 17.3 5.80001 17.8 5.90001C 18.4 6.00001 18.8 6.1 19.2 6.3C 19.6 6.5 20 6.6 20.3 6.8C 20.6 7 20.9 7.2 21.1 7.3C 21.4 7.5 21.6 7.59999 21.8 7.69999C 22 7.79999 22.3 7.90001 22.5 7.90001C 22.9 7.90001 23.2 7.79999 23.4 7.69999C 23.6 7.49999 23.8 7.39999 23.9 7.19999L 26.3 4.00001C 25.7 3.40001 25.1 2.90001 24.3 2.40001C 23.6 1.90001 22.8 1.49999 21.9 1.09999C 21 0.699988 20.1 0.5 19.1 0.3C 18.1 0.1 17 1.2207e-05 15.9 1.2207e-05C 13.5 1.2207e-05 11.4 0.399994 9.39999 1.19999C 7.39999 1.99999 5.79999 3.00001 4.39999 4.40001C 2.99999 5.80001 1.90001 7.4 1.10001 9.3C 0.600006 10.6 0.2 12.1 1.13687e-13 13.6L 7.39999 13.6L 7.39999 13.5Z"/>
<path id="path11_fill" d="M 0.800012 3.69999C 1.50001 5.59999 2.50001 7.30001 3.70001 8.60001C 5.00001 10 6.49999 11.1 8.39999 11.9C 10.2 12.7 12.3 13.1 14.6 13.1C 17.1 13.1 19.3 12.7 21.2 11.9C 23 11.1 24.6 9.89999 25.8 8.29999L 23 5.29999C 22.8 5.09999 22.7 5.00001 22.5 5.00001C 22.3 4.90001 22.2 4.9 22 4.9C 21.8 4.9 21.6 4.90001 21.4 5.00001C 21.2 5.10001 21 5.19999 20.9 5.29999C 20.5 5.69999 20.1 5.99999 19.7 6.19999C 19.3 6.39999 18.9 6.59999 18.4 6.79999C 17.9 6.99999 17.5 7.10001 16.9 7.10001C 16.4 7.20001 15.8 7.19999 15.1 7.19999C 14 7.19999 12.9 7.00001 12 6.60001C 11 6.20001 10.2 5.49999 9.39999 4.69999C 8.69999 3.89999 8.10001 2.80001 7.70001 1.60001C 7.50001 1.10001 7.40001 0.600006 7.30001 6.10352e-06L -6.10352e-06 6.10352e-06C 0.0999939 1.30001 0.400012 2.49999 0.800012 3.69999Z"/>
<path id="path12_fill" d="M 1.1 3.60001C 1.9 5.50001 2.90001 7.20001 4.30001 8.60001C 5.70001 10 7.40001 11.1 9.30001 11.9C 11.3 12.7 13.4 13.1 15.8 13.1C 18.2 13.1 20.3 12.7 22.3 11.9C 24.2 11.1 25.9 10 27.3 8.60001C 28.7 7.20001 29.8 5.50001 30.5 3.60001C 31 2.50001 31.3 1.30001 31.5 6.10352e-06L 24.2 6.10352e-06C 24.1 0.500006 24 1.00001 23.8 1.50001C 23.4 2.70001 22.8 3.70001 22.1 4.60001C 21.4 5.40001 20.5 6.10001 19.4 6.50001C 18.3 6.90001 17.1 7.19999 15.8 7.19999C 14.4 7.19999 13.2 7.00001 12.1 6.50001C 11 6.10001 10.1 5.40001 9.39999 4.60001C 8.69999 3.80001 8.10001 2.70001 7.70001 1.50001C 7.50001 1.00001 7.40001 0.500006 7.30001 6.10352e-06L -6.10352e-06 6.10352e-06C 0.399994 1.30001 0.7 2.50001 1.1 3.60001Z"/>
<path id="path13_fill" d="M 6.99999 13.6C 7.09999 12.9 7.19999 12.2 7.49999 11.5C 7.89999 10.3 8.50001 9.3 9.20001 8.4C 9.90001 7.6 10.8 6.90001 11.9 6.50001C 13 6.10001 14.2 5.79999 15.6 5.79999C 17 5.79999 18.2 6.00001 19.2 6.50001C 20.3 6.90001 21.2 7.6 21.9 8.4C 22.6 9.2 23.2 10.3 23.6 11.5C 23.8 12.2 24 12.9 24.1 13.6L 31.4 13.6C 31.2 12.1 30.9 10.8 30.4 9.4C 29.6 7.5 28.6 5.90001 27.2 4.50001C 25.8 3.10001 24.2 1.99999 22.2 1.19999C 20.3 0.399988 18.1 6.10352e-06 15.7 6.10352e-06C 13.3 6.10352e-06 11.2 0.399988 9.20001 1.19999C 7.20001 1.99999 5.60001 3.10001 4.20001 4.50001C 2.80001 5.90001 1.69999 7.5 0.999994 9.4C 0.499994 10.7 0.0999939 12.1 -6.10352e-06 13.6L 6.99999 13.6Z"/>
<path id="path14_fill" d="M 7.40001 13.5C 7.50001 12.8 7.70001 12.1 7.90001 11.4C 8.30001 10.2 8.9 9.2 9.7 8.3C 10.5 7.5 11.4 6.80001 12.4 6.40001C 13.5 5.90001 14.6 5.69999 15.9 5.69999C 16.6 5.69999 17.3 5.80001 17.8 5.90001C 18.4 6.00001 18.8 6.1 19.2 6.3C 19.6 6.5 20 6.6 20.3 6.8C 20.6 7 20.9 7.2 21.1 7.3C 21.4 7.5 21.6 7.59999 21.8 7.69999C 22 7.79999 22.3 7.90001 22.5 7.90001C 22.9 7.90001 23.2 7.79999 23.4 7.69999C 23.6 7.49999 23.8 7.39999 23.9 7.19999L 26.3 4.00001C 25.7 3.40001 25.1 2.90001 24.3 2.40001C 23.6 1.90001 22.8 1.49999 21.9 1.09999C 21 0.699988 20.1 0.5 19.1 0.3C 18.1 0.1 17 1.2207e-05 15.9 1.2207e-05C 13.5 1.2207e-05 11.4 0.399994 9.40001 1.19999C 7.40001 1.99999 5.80001 3.00001 4.40001 4.40001C 3.00001 5.80001 1.89999 7.4 1.09999 9.3C 0.599994 10.6 0.199988 12.1 -1.2207e-05 13.6L 7.40001 13.6L 7.40001 13.5Z"/>
<path id="path15_fill" d="M 0.799994 3.69999C 1.49999 5.59999 2.49999 7.30001 3.69999 8.60001C 4.99999 10 6.5 11.1 8.4 11.9C 10.2 12.7 12.3 13.1 14.6 13.1C 17.1 13.1 19.3 12.7 21.2 11.9C 23.1 11.1 24.6 9.89999 25.8 8.29999L 23 5.29999C 22.8 5.09999 22.7 5.00001 22.5 5.00001C 22.3 4.90001 22.2 4.9 22 4.9C 21.8 4.9 21.6 4.90001 21.4 5.00001C 21.2 5.10001 21 5.19999 20.9 5.29999C 20.5 5.69999 20.1 5.99999 19.7 6.19999C 19.3 6.39999 18.9 6.59999 18.4 6.79999C 17.9 6.99999 17.5 7.10001 16.9 7.10001C 16.4 7.20001 15.8 7.19999 15.1 7.19999C 14 7.19999 12.9 7.00001 12 6.60001C 11 6.20001 10.2 5.49999 9.4 4.69999C 8.7 3.89999 8.09999 2.80001 7.69999 1.60001C 7.49999 1.10001 7.39999 0.600006 7.29999 6.10352e-06L 6.10352e-06 6.10352e-06C 0.100006 1.30001 0.399994 2.49999 0.799994 3.69999Z"/>
<path id="path16_fill" d="M 1.09999 3.60001C 1.89999 5.50001 2.9 7.20001 4.3 8.60001C 5.7 10 7.4 11.1 9.3 11.9C 11.3 12.7 13.4 13.1 15.8 13.1C 18.2 13.1 20.3 12.7 22.3 11.9C 24.2 11.1 25.9 10 27.3 8.60001C 28.7 7.20001 29.8 5.50001 30.5 3.60001C 31 2.50001 31.3 1.30001 31.5 6.10352e-06L 24.2 6.10352e-06C 24.1 0.500006 24 1.00001 23.8 1.50001C 23.4 2.70001 22.8 3.70001 22.1 4.60001C 21.4 5.40001 20.5 6.10001 19.4 6.50001C 18.3 6.90001 17.1 7.19999 15.8 7.19999C 14.4 7.19999 13.2 7.00001 12.1 6.50001C 11 6.10001 10.1 5.40001 9.40001 4.60001C 8.70001 3.80001 8.09999 2.70001 7.69999 1.50001C 7.49999 1.00001 7.4 0.500006 7.3 6.10352e-06L 1.2207e-05 6.10352e-06C 0.300012 1.30001 0.599988 2.50001 1.09999 3.60001Z"/>
<path id="path17_fill" d="M 0.800012 3.69999C 1.50001 5.59999 2.50001 7.30001 3.70001 8.60001C 5.00001 10 6.49999 11.1 8.39999 11.9C 10.2 12.7 12.3 13.1 14.6 13.1C 17.1 13.1 19.3 12.7 21.2 11.9C 23.1 11.1 24.6 9.89999 25.8 8.29999L 23 5.29999C 22.8 5.09999 22.7 5.00001 22.5 5.00001C 22.3 4.90001 22.2 4.9 22 4.9C 21.8 4.9 21.6 4.90001 21.4 5.00001C 21.2 5.10001 21 5.19999 20.9 5.29999C 20.5 5.69999 20.1 5.99999 19.7 6.19999C 19.3 6.39999 18.9 6.59999 18.4 6.79999C 17.9 6.99999 17.5 7.10001 16.9 7.10001C 16.4 7.20001 15.8 7.19999 15.1 7.19999C 14 7.19999 12.9 7.00001 12 6.60001C 11 6.20001 10.2 5.49999 9.39999 4.69999C 8.69999 3.89999 8.10001 2.80001 7.70001 1.60001C 7.50001 1.10001 7.40001 0.600006 7.30001 6.10352e-06L -6.10352e-06 6.10352e-06C 0.0999939 1.30001 0.400012 2.49999 0.800012 3.69999Z"/>
<path id="path18_fill" d="M 1.10001 3.60001C 1.90001 5.50001 2.89999 7.20001 4.29999 8.60001C 5.69999 10 7.39999 11.1 9.29999 11.9C 11.3 12.7 13.4 13.1 15.8 13.1C 18.2 13.1 20.3 12.7 22.3 11.9C 24.2 11.1 25.9 10 27.3 8.60001C 28.7 7.20001 29.8 5.50001 30.5 3.60001C 31 2.50001 31.3 1.30001 31.5 6.10352e-06L 24.2 6.10352e-06C 24.1 0.500006 24 1.00001 23.8 1.50001C 23.4 2.70001 22.8 3.70001 22.1 4.60001C 21.4 5.40001 20.5 6.10001 19.4 6.50001C 18.3 6.90001 17.1 7.19999 15.8 7.19999C 14.4 7.19999 13.2 7.00001 12.1 6.50001C 11 6.10001 10.1 5.40001 9.39999 4.60001C 8.69999 3.80001 8.10001 2.70001 7.70001 1.50001C 7.50001 1.00001 7.39999 0.500006 7.29999 6.10352e-06L -5.68434e-14 6.10352e-06C 0.3 1.30001 0.600006 2.50001 1.10001 3.60001Z"/>
<path id="path19_fill" d="M 6.99999 13.6C 7.09999 12.9 7.19999 12.2 7.49999 11.5C 7.89999 10.3 8.50001 9.29999 9.20001 8.39999C 9.90001 7.59999 10.8 6.89999 11.9 6.49999C 13 6.09999 14.2 5.80001 15.6 5.80001C 17 5.80001 18.2 5.99999 19.2 6.49999C 20.3 6.89999 21.2 7.59999 21.9 8.39999C 22.6 9.19999 23.2 10.3 23.6 11.5C 23.8 12.2 24 12.9 24.1 13.6L 31.4 13.6C 31.2 12.1 30.9 10.8 30.4 9.39999C 29.6 7.49999 28.6 5.89999 27.2 4.49999C 25.8 3.09999 24.2 2.00001 22.2 1.20001C 20.3 0.400006 18.1 -6.10352e-06 15.7 -6.10352e-06C 13.3 -6.10352e-06 11.2 0.400006 9.20001 1.20001C 7.20001 2.00001 5.60001 3.09999 4.20001 4.49999C 2.80001 5.89999 1.69999 7.49999 0.999994 9.39999C 0.499994 10.7 0.0999939 12.1 -6.10352e-06 13.6L 6.99999 13.6Z"/>
<path id="path20_fill" d="M 7.40001 13.5C 7.50001 12.8 7.70001 12.1 7.90001 11.4C 8.30001 10.2 8.9 9.19999 9.7 8.29999C 10.5 7.49999 11.4 6.79999 12.4 6.39999C 13.5 5.89999 14.6 5.70001 15.9 5.70001C 16.6 5.70001 17.3 5.79999 17.8 5.89999C 18.4 5.99999 18.8 6.09999 19.2 6.29999C 19.6 6.49999 20 6.59999 20.3 6.79999C 20.6 6.99999 20.9 7.19999 21.1 7.29999C 21.4 7.49999 21.6 7.60001 21.8 7.70001C 22 7.80001 22.3 7.89999 22.5 7.89999C 22.9 7.89999 23.2 7.80001 23.4 7.70001C 23.6 7.50001 23.8 7.40001 23.9 7.20001L 26.3 4C 25.7 3.4 25.1 2.89999 24.3 2.39999C 23.6 1.89999 22.8 1.50001 21.9 1.10001C 21 0.700006 20.1 0.499988 19.1 0.299988C 18.1 0.0999878 17 1.13687e-13 15.9 1.13687e-13C 13.5 1.13687e-13 11.4 0.400012 9.40001 1.20001C 7.40001 2.00001 5.80001 2.99999 4.40001 4.39999C 3.00001 5.79999 1.89999 7.39999 1.09999 9.29999C 0.599994 10.6 0.199988 12.1 -1.2207e-05 13.6L 7.40001 13.6L 7.40001 13.5Z"/>
<path id="path21_fill" d="M 0.8 3.70001C 1.5 5.60001 2.49999 7.3 3.69999 8.6C 4.99999 10 6.50001 11.1 8.40001 11.9C 10.2 12.7 12.3 13.1 14.6 13.1C 17.1 13.1 19.3 12.7 21.2 11.9C 23 11.1 24.6 9.90001 25.8 8.30001L 23 5.30001C 22.8 5.10001 22.7 4.99999 22.5 4.99999C 22.3 4.89999 22.2 4.89999 22 4.89999C 21.8 4.89999 21.6 4.89999 21.4 4.99999C 21.2 5.09999 21 5.20001 20.9 5.30001C 20.5 5.70001 20.1 6.00001 19.7 6.20001C 19.3 6.40001 18.9 6.60001 18.4 6.80001C 17.9 7.00001 17.5 7.1 16.9 7.1C 16.4 7.2 15.8 7.20001 15.1 7.20001C 14 7.20001 12.9 7 12 6.6C 11 6.2 10.2 5.50001 9.40001 4.70001C 8.70001 3.90001 8.09999 2.8 7.69999 1.6C 7.49999 1.1 7.4 0.599994 7.3 -6.10352e-06L 1.2207e-05 -6.10352e-06C 0.100012 1.39999 0.4 2.60001 0.8 3.70001Z"/>
<path id="path22_fill" d="M 1.09999 3.60001C 1.89999 5.50001 2.9 7.20001 4.3 8.60001C 5.7 10 7.4 11.1 9.3 11.9C 11.3 12.7 13.4 13.1 15.8 13.1C 18.2 13.1 20.3 12.7 22.3 11.9C 24.2 11.1 25.9 10 27.3 8.60001C 28.7 7.20001 29.8 5.50001 30.5 3.60001C 31 2.50001 31.3 1.3 31.5 0L 24.2 0C 24.1 0.5 24 1 23.8 1.5C 23.4 2.7 22.8 3.70001 22.1 4.60001C 21.4 5.40001 20.5 6.1 19.4 6.5C 18.3 6.9 17.1 7.20001 15.8 7.20001C 14.4 7.20001 13.2 7 12.1 6.5C 11 6.1 10.1 5.40001 9.40001 4.60001C 8.70001 3.80001 8.09999 2.7 7.69999 1.5C 7.49999 1 7.4 0.5 7.3 0L 1.2207e-05 0C 0.300012 1.2 0.699988 2.40001 1.09999 3.60001Z"/>
<path id="path23_fill" d="M 7 13.6C 7.1 12.9 7.2 12.2 7.5 11.5C 7.9 10.3 8.49999 9.29999 9.19999 8.39999C 9.89999 7.59999 10.8 6.89999 11.9 6.49999C 13 6.09999 14.2 5.80001 15.6 5.80001C 17 5.80001 18.2 5.99999 19.2 6.49999C 20.3 6.89999 21.2 7.59999 21.9 8.39999C 22.6 9.19999 23.2 10.3 23.6 11.5C 23.8 12.2 24 12.9 24.1 13.6L 31.4 13.6C 31.2 12.1 30.9 10.8 30.4 9.39999C 29.6 7.49999 28.6 5.89999 27.2 4.49999C 25.8 3.09999 24.2 2.00001 22.2 1.20001C 20.3 0.400006 18.1 -6.10352e-06 15.7 -6.10352e-06C 13.3 -6.10352e-06 11.2 0.400006 9.19999 1.20001C 7.19999 2.00001 5.59999 3.09999 4.19999 4.49999C 2.79999 5.89999 1.7 7.49999 0.999997 9.39999C 0.499997 10.7 0.0999969 12.1 -3.05176e-06 13.6L 7 13.6Z"/>
<path id="path24_fill" d="M 7.4 13.5C 7.5 12.8 7.7 12.1 7.9 11.4C 8.3 10.2 8.9 9.19999 9.7 8.29999C 10.5 7.49999 11.4 6.79999 12.4 6.39999C 13.5 5.89999 14.6 5.70001 15.9 5.70001C 16.6 5.70001 17.3 5.79999 17.8 5.89999C 18.4 5.99999 18.8 6.09999 19.2 6.29999C 19.6 6.49999 20 6.59999 20.3 6.79999C 20.6 6.99999 20.9 7.19999 21.1 7.29999C 21.4 7.49999 21.6 7.60001 21.8 7.70001C 22 7.80001 22.3 7.89999 22.5 7.89999C 22.9 7.89999 23.2 7.80001 23.4 7.70001C 23.6 7.50001 23.8 7.40001 23.9 7.20001L 26.3 4C 25.7 3.4 25.1 2.89999 24.3 2.39999C 23.6 1.89999 22.8 1.50001 21.9 1.10001C 21 0.700006 20.1 0.499988 19.1 0.299988C 18.1 0.0999878 17 1.13687e-13 15.9 1.13687e-13C 13.5 1.13687e-13 11.4 0.400012 9.4 1.20001C 7.4 2.00001 5.8 2.99999 4.4 4.39999C 3 5.79999 1.9 7.39999 1.1 9.29999C 0.599997 10.6 0.200006 12.1 6.10352e-06 13.6L 7.4 13.6L 7.4 13.5Z"/>
<path id="path25_fill" d="M 0.799997 3.70001C 1.5 5.60001 2.50001 7.3 3.70001 8.6C 5.00001 10 6.5 11.1 8.4 11.9C 10.2 12.7 12.3 13.1 14.6 13.1C 17.1 13.1 19.3 12.7 21.2 11.9C 23.1 11.1 24.6 9.90001 25.8 8.30001L 23 5.30001C 22.8 5.10001 22.7 4.99999 22.5 4.99999C 22.3 4.89999 22.2 4.89999 22 4.89999C 21.8 4.89999 21.6 4.89999 21.4 4.99999C 21.2 5.09999 21 5.20001 20.9 5.30001C 20.5 5.70001 20.1 6.00001 19.7 6.20001C 19.3 6.40001 18.9 6.60001 18.4 6.80001C 17.9 7.00001 17.5 7.1 16.9 7.1C 16.4 7.2 15.8 7.20001 15.1 7.20001C 14 7.20001 12.9 7 12 6.6C 11 6.2 10.2 5.50001 9.4 4.70001C 8.7 3.90001 8.10001 2.8 7.70001 1.6C 7.50001 1.1 7.4 0.599994 7.3 -6.10352e-06L -6.10352e-06 -6.10352e-06C 0.0999939 1.39999 0.399997 2.60001 0.799997 3.70001Z"/>
<path id="path26_fill" d="M 1.10001 3.60001C 1.90001 5.50001 2.89999 7.20001 4.29999 8.60001C 5.69999 10 7.39999 11.1 9.29999 11.9C 11.3 12.7 13.4 13.1 15.8 13.1C 18.2 13.1 20.3 12.7 22.3 11.9C 24.2 11.1 25.9 10 27.3 8.60001C 28.7 7.20001 29.8 5.50001 30.5 3.60001C 31 2.50001 31.3 1.3 31.5 0L 24.2 0C 24.1 0.5 24 1 23.8 1.5C 23.4 2.7 22.8 3.70001 22.1 4.60001C 21.4 5.40001 20.5 6.1 19.4 6.5C 18.3 6.9 17.1 7.20001 15.8 7.20001C 14.4 7.20001 13.2 7 12.1 6.5C 11 6.1 10.1 5.40001 9.39999 4.60001C 8.69999 3.80001 8.10001 2.7 7.70001 1.5C 7.50001 1 7.39999 0.5 7.29999 0L -5.68434e-14 0C 0.3 1.2 0.600006 2.40001 1.10001 3.60001Z"/>
</defs>
</svg>
