<svg width="233" height="66" viewBox="0 0 233 66" version="1.1" xmlns="http://www.w3.org/2000/svg" xmlns:xlink="http://www.w3.org/1999/xlink">
<title>figure_9</title>
<desc>Created using Figma</desc>
<g id="Canvas" transform="translate(1250 -4694)">
<g id="figure_9">
<g id="pattern">
<g id="Vector">
<use xlink:href="#path0_fill" transform="translate(-1151.1 4694)" fill="#DB71B0"/>
</g>
<g id="Vector">
<use xlink:href="#path1_fill" transform="translate(-1179.4 4694.1)" fill="#DB71B0"/>
</g>
<g id="Vector">
<use xlink:href="#path2_fill" transform="translate(-1167.2 4713)" fill="#DB71B0"/>
</g>
<g id="Vector">
<use xlink:href="#path3_fill" transform="translate(-1139.1 4713)" fill="#DB71B0"/>
</g>
<g id="Vector">
<use xlink:href="#path4_fill" transform="translate(-1055.8 4728)" fill="#DB71B0"/>
</g>
<g id="Vector">
<use xlink:href="#path5_fill" transform="translate(-1043.4 4746.9)" fill="#DB71B0"/>
</g>
<g id="Vector">
<use xlink:href="#path6_fill" transform="translate(-1091.9 4727.9)" fill="#DB71B0"/>
</g>
<g id="Vector">
<use xlink:href="#path7_fill" transform="translate(-1120.5 4728)" fill="#DB71B0"/>
</g>
<g id="Vector">
<use xlink:href="#path8_fill" transform="translate(-1108.2 4746.9)" fill="#DB71B0"/>
</g>
<g id="Vector">
<use xlink:href="#path9_fill" transform="translate(-1080.1 4746.9)" fill="#DB71B0"/>
</g>
<g id="Vector">
<use xlink:href="#path10_fill" transform="translate(-1156.7 4727.9)" fill="#DB71B0"/>
</g>
<g id="Vector">
<use xlink:href="#path11_fill" transform="translate(-1185.3 4728)" fill="#DB71B0"/>
</g>
<g id="Vector">
<use xlink:href="#path12_fill" transform="translate(-1172.9 4746.9)" fill="#DB71B0"/>
</g>
<g id="Vector">
<use xlink:href="#path13_fill" transform="translate(-1144.8 4746.9)" fill="#DB71B0"/>
</g>
<g id="Vector">
<use xlink:href="#path14_fill" transform="translate(-1221.4 4727.9)" fill="#DB71B0"/>
</g>
<g id="Vector">
<use xlink:href="#path15_fill" transform="translate(-1250 4728)" fill="#DB71B0"/>
</g>
<g id="Vector">
<use xlink:href="#path16_fill" transform="translate(-1237.6 4746.9)" fill="#DB71B0"/>
</g>
<g id="Vector">
<use xlink:href="#path17_fill" transform="translate(-1209.6 4746.9)" fill="#DB71B0"/>
</g>
</g>
</g>
</g>
<defs>
<path id="path0_fill" d="M 7.2 13.6C 7.3 12.9 7.4 12.2 7.7 11.5C 8.1 10.3 8.7 9.3 9.4 8.4C 10.1 7.6 11 6.9 12.1 6.5C 13.2 6.1 14.4 5.8 15.8 5.8C 17.2 5.8 18.4 6 19.4 6.5C 20.5 6.9 21.4 7.6 22.1 8.4C 22.8 9.2 23.4 10.3 23.8 11.5C 24 12.2 24.2 12.9 24.3 13.6L 31.6 13.6C 31.4 12.1 31.1 10.8 30.6 9.4C 29.8 7.5 28.8 5.9 27.4 4.5C 26 3.1 24.4 2 22.4 1.2C 20.2 0.4 18.1 0 15.7 0C 13.3 0 11.2 0.4 9.2 1.2C 7.2 2 5.6 3.1 4.2 4.5C 2.8 5.9 1.7 7.5 1 9.4C 0.500003 10.7 0.100003 12.1 3.05176e-06 13.6L 7.2 13.6L 7.2 13.6Z"/>
<path id="path1_fill" d="M 7.3 13.5C 7.4 12.8 7.6 12.1 7.8 11.4C 8.2 10.2 8.8 9.2 9.6 8.3C 10.4 7.5 11.3 6.8 12.3 6.4C 13.4 5.9 14.5 5.7 15.8 5.7C 16.5 5.7 17.2 5.8 17.7 5.9C 18.3 6 18.7 6.1 19.1 6.3C 19.5 6.5 19.9 6.6 20.2 6.8C 20.5 7 20.8 7.2 21 7.3C 21.3 7.5 21.5 7.6 21.7 7.7C 22 7.9 22.2 7.9 22.5 7.9C 22.9 7.9 23.2 7.8 23.4 7.7C 23.6 7.5 23.8 7.4 23.9 7.2L 26.3 4C 25.7 3.4 25.1 2.9 24.3 2.4C 23.6 1.9 22.8 1.5 21.9 1.1C 21 0.7 20.1 0.5 19.1 0.3C 18.1 0.1 17 1.49012e-09 15.9 1.49012e-09C 13.5 1.49012e-09 11.4 0.4 9.4 1.2C 7.4 2 5.8 3 4.4 4.4C 3 5.8 1.9 7.4 1.1 9.3C 0.599998 10.6 0.2 12.1 -1.42109e-14 13.6L 7.3 13.6L 7.3 13.5Z"/>
<path id="path2_fill" d="M 0.8 3.7C 1.5 5.6 2.5 7.3 3.7 8.6C 5 10 6.5 11.1 8.4 11.9C 10.2 12.7 12.3 13.1 14.6 13.1C 17.1 13.1 19.3 12.7 21.2 11.9C 23 11.1 24.6 9.9 25.8 8.3L 23 5.3C 22.8 5.1 22.7 5 22.5 5C 22.3 4.9 22.2 4.9 22 4.9C 21.8 4.9 21.6 4.9 21.4 5C 21.2 5.1 21 5.2 20.9 5.3C 20.5 5.7 20.1 6 19.7 6.2C 19.3 6.4 18.9 6.6 18.4 6.8C 17.9 7 17.5 7.1 16.9 7.1C 16.4 7.2 15.8 7.2 15.1 7.2C 14 7.2 12.9 7 12 6.6C 11 6.2 10.2 5.5 9.4 4.7C 8.7 3.9 8.1 2.8 7.7 1.6C 7.5 1.1 7.4 0.6 7.3 0L -3.05176e-06 0C 0.0999969 1.3 0.4 2.5 0.8 3.7Z"/>
<path id="path3_fill" d="M 1.1 3.6C 1.9 5.5 2.9 7.2 4.3 8.6C 5.7 10 7.4 11.1 9.3 11.9C 11.3 12.7 13.4 13.1 15.8 13.1C 18.2 13.1 20.3 12.7 22.3 11.9C 24.2 11.1 25.9 10 27.3 8.6C 28.7 7.2 29.8 5.5 30.5 3.6C 31 2.5 31.3 1.3 31.5 0L 24.2 0C 24.1 0.5 24 1 23.8 1.5C 23.4 2.7 22.8 3.7 22.1 4.6C 21.4 5.4 20.5 6.1 19.4 6.5C 18.3 6.9 17.1 7.2 15.8 7.2C 14.4 7.2 13.2 7 12.1 6.5C 11 6.1 10.1 5.4 9.4 4.6C 8.7 3.8 8.1 2.7 7.7 1.5C 7.5 1 7.4 0.5 7.3 0L 3.05176e-06 0C 0.300003 1.3 0.600002 2.5 1.1 3.6Z"/>
<path id="path4_fill" d="M 7.4 13.5C 7.5 12.8 7.7 12.1 7.9 11.4C 8.3 10.2 8.9 9.2 9.7 8.3C 10.5 7.5 11.4 6.8 12.4 6.4C 13.5 5.9 14.6 5.7 15.9 5.7C 16.6 5.7 17.3 5.8 17.8 5.9C 18.4 6 18.8 6.1 19.2 6.3C 19.6 6.5 20 6.6 20.3 6.8C 20.6 7 20.9 7.2 21.1 7.3C 21.4 7.5 21.6 7.6 21.8 7.7C 22 7.8 22.3 7.9 22.5 7.9C 22.9 7.9 23.2 7.8 23.4 7.7C 23.6 7.5 23.8 7.4 23.9 7.2L 26.3 4C 25.7 3.4 25.1 2.9 24.3 2.4C 23.6 1.9 22.8 1.5 21.9 1.1C 21 0.699998 20.1 0.499999 19.1 0.299999C 18.1 0.0999992 17 0 15.9 0C 13.5 0 11.4 0.400001 9.4 1.2C 7.4 2 5.8 3 4.4 4.4C 3 5.8 1.9 7.4 1.1 9.3C 0.599997 10.6 0.200006 12.1 6.10352e-06 13.6L 7.4 13.6L 7.4 13.5Z"/>
<path id="path5_fill" d="M 0.800003 3.7C 1.5 5.6 2.5 7.3 3.7 8.6C 5 10 6.49999 11.1 8.39999 11.9C 10.2 12.7 12.3 13.1 14.6 13.1C 17.1 13.1 19.3 12.7 21.2 11.9C 23 11.1 24.6 9.9 25.8 8.3L 23 5.3C 22.8 5.1 22.7 5 22.5 5C 22.3 4.9 22.2 4.9 22 4.9C 21.8 4.9 21.6 4.9 21.4 5C 21.2 5.1 21 5.2 20.9 5.3C 20.5 5.7 20.1 6 19.7 6.2C 19.3 6.4 18.9 6.6 18.4 6.8C 17.9 7 17.5 7.1 16.9 7.1C 16.4 7.2 15.8 7.2 15.1 7.2C 14 7.2 12.9 7 12 6.6C 11 6.2 10.2 5.5 9.39999 4.7C 8.69999 3.9 8.1 2.8 7.7 1.6C 7.5 1.1 7.4 0.600002 7.3 1.52588e-06L 2.84217e-14 1.52588e-06C 0.1 1.3 0.400003 2.5 0.800003 3.7Z"/>
<path id="path6_fill" d="M 7 13.6C 7.1 12.9 7.2 12.2 7.5 11.5C 7.9 10.3 8.5 9.3 9.2 8.4C 9.9 7.6 10.8 6.9 11.9 6.5C 13 6.1 14.2 5.8 15.6 5.8C 17 5.8 18.2 6 19.2 6.5C 20.3 6.9 21.2 7.6 21.9 8.4C 22.6 9.2 23.2 10.3 23.6 11.5C 23.8 12.2 24 12.9 24.1 13.6L 31.4 13.6C 31.2 12.1 30.9 10.8 30.4 9.4C 29.6 7.5 28.6 5.9 27.2 4.5C 25.8 3.1 24.2 2 22.2 1.2C 20.3 0.399998 18.1 1.52588e-06 15.7 1.52588e-06C 13.3 1.52588e-06 11.2 0.399998 9.2 1.2C 7.2 2 5.6 3.1 4.2 4.5C 2.8 5.9 1.7 7.5 1 9.4C 0.5 10.7 0.1 12.1 2.84217e-14 13.6L 7 13.6Z"/>
<path id="path7_fill" d="M 7.4 13.5C 7.5 12.8 7.7 12.1 7.9 11.4C 8.3 10.2 8.90001 9.2 9.70001 8.3C 10.5 7.5 11.4 6.8 12.4 6.4C 13.5 5.9 14.6 5.7 15.9 5.7C 16.6 5.7 17.3 5.8 17.8 5.9C 18.4 6 18.8 6.1 19.2 6.3C 19.6 6.5 20 6.6 20.3 6.8C 20.6 7 20.9 7.2 21.1 7.3C 21.4 7.5 21.6 7.6 21.8 7.7C 22 7.8 22.3 7.9 22.5 7.9C 22.9 7.9 23.2 7.8 23.4 7.7C 23.6 7.5 23.8 7.4 23.9 7.2L 26.3 4C 25.7 3.4 25.1 2.9 24.3 2.4C 23.6 1.9 22.8 1.5 21.9 1.1C 21 0.699998 20.1 0.499999 19.1 0.299999C 18.1 0.0999992 17 0 15.9 0C 13.5 0 11.4 0.400001 9.4 1.2C 7.4 2 5.8 3 4.4 4.4C 3 5.8 1.9 7.4 1.1 9.3C 0.6 10.6 0.199994 12.1 -6.10352e-06 13.6L 7.4 13.6L 7.4 13.5Z"/>
<path id="path8_fill" d="M 0.8 3.7C 1.5 5.6 2.49999 7.3 3.69999 8.6C 4.99999 10 6.50001 11.1 8.40001 11.9C 10.2 12.7 12.3 13.1 14.6 13.1C 17.1 13.1 19.3 12.7 21.2 11.9C 23 11.1 24.6 9.9 25.8 8.3L 23 5.3C 22.8 5.1 22.7 5 22.5 5C 22.3 4.9 22.2 4.9 22 4.9C 21.8 4.9 21.6 4.9 21.4 5C 21.2 5.1 21 5.2 20.9 5.3C 20.5 5.7 20.1 6 19.7 6.2C 19.3 6.4 18.9 6.6 18.4 6.8C 17.9 7 17.5 7.1 16.9 7.1C 16.4 7.2 15.8 7.2 15.1 7.2C 14 7.2 12.9 7 12 6.6C 11 6.2 10.2 5.5 9.40001 4.7C 8.70001 3.9 8.09999 2.8 7.69999 1.6C 7.49999 1.1 7.4 0.600002 7.3 1.52588e-06L -3.05176e-06 1.52588e-06C 0.0999969 1.3 0.4 2.5 0.8 3.7Z"/>
<path id="path9_fill" d="M 1.09999 3.6C 1.89999 5.5 2.90001 7.2 4.30001 8.6C 5.70001 10 7.40001 11.1 9.30001 11.9C 11.3 12.7 13.4 13.1 15.8 13.1C 18.2 13.1 20.3 12.7 22.3 11.9C 24.2 11.1 25.9 10 27.3 8.6C 28.7 7.2 29.8 5.5 30.5 3.6C 31 2.5 31.3 1.3 31.5 1.52588e-06L 24.2 1.52588e-06C 24.1 0.500002 24 1 23.8 1.5C 23.4 2.7 22.8 3.7 22.1 4.6C 21.4 5.4 20.5 6.1 19.4 6.5C 18.3 6.9 17.1 7.2 15.8 7.2C 14.4 7.2 13.2 7 12.1 6.5C 11 6.1 10.1 5.4 9.4 4.6C 8.7 3.8 8.1 2.7 7.7 1.5C 7.5 1 7.40001 0.500002 7.30001 1.52588e-06L 3.05176e-06 1.52588e-06C 0.300003 1.3 0.599994 2.5 1.09999 3.6Z"/>
<path id="path10_fill" d="M 7 13.6C 7.1 12.9 7.2 12.2 7.5 11.5C 7.9 10.3 8.5 9.3 9.2 8.4C 9.9 7.6 10.8 6.9 11.9 6.5C 13 6.1 14.2 5.8 15.6 5.8C 17 5.8 18.2 6 19.2 6.5C 20.3 6.9 21.2 7.6 21.9 8.4C 22.6 9.2 23.2 10.3 23.6 11.5C 23.8 12.2 24 12.9 24.1 13.6L 31.4 13.6C 31.2 12.1 30.9 10.8 30.4 9.4C 29.6 7.5 28.6 5.9 27.2 4.5C 25.8 3.1 24.2 2 22.2 1.2C 20.3 0.399998 18.1 1.52588e-06 15.7 1.52588e-06C 13.3 1.52588e-06 11.2 0.399998 9.2 1.2C 7.2 2 5.6 3.1 4.2 4.5C 2.8 5.9 1.7 7.5 0.999997 9.4C 0.499997 10.7 0.0999969 12.1 -3.05176e-06 13.6L 7 13.6Z"/>
<path id="path11_fill" d="M 7.4 13.5C 7.5 12.8 7.7 12.1 7.9 11.4C 8.3 10.2 8.9 9.2 9.7 8.3C 10.5 7.5 11.4 6.8 12.4 6.4C 13.5 5.9 14.6 5.7 15.9 5.7C 16.6 5.7 17.3 5.8 17.8 5.9C 18.4 6 18.8 6.1 19.2 6.3C 19.6 6.5 20 6.6 20.3 6.8C 20.6 7 20.9 7.2 21.1 7.3C 21.4 7.5 21.6 7.6 21.8 7.7C 22 7.8 22.3 7.9 22.5 7.9C 22.9 7.9 23.2 7.8 23.4 7.7C 23.6 7.5 23.8 7.4 23.9 7.2L 26.3 4C 25.7 3.4 25.1 2.9 24.3 2.4C 23.6 1.9 22.8 1.5 21.9 1.1C 21 0.699998 20.1 0.499999 19.1 0.299999C 18.1 0.0999992 17 0 15.9 0C 13.5 0 11.4 0.400001 9.4 1.2C 7.4 2 5.8 3 4.4 4.4C 3 5.8 1.9 7.4 1.1 9.3C 0.599997 10.6 0.199998 12.1 -1.52588e-06 13.6L 7.4 13.6L 7.4 13.5Z"/>
<path id="path12_fill" d="M 0.800003 3.7C 1.5 5.6 2.5 7.3 3.7 8.6C 5 10 6.5 11.1 8.4 11.9C 10.2 12.7 12.3 13.1 14.6 13.1C 17.1 13.1 19.3 12.7 21.2 11.9C 23 11.1 24.6 9.9 25.8 8.3L 23 5.3C 22.8 5.1 22.7 5 22.5 5C 22.3 4.9 22.2 4.9 22 4.9C 21.8 4.9 21.6 4.9 21.4 5C 21.2 5.1 21 5.2 20.9 5.3C 20.5 5.7 20.1 6 19.7 6.2C 19.3 6.4 18.9 6.6 18.4 6.8C 17.9 7 17.5 7.1 16.9 7.1C 16.4 7.2 15.8 7.2 15.1 7.2C 14 7.2 12.9 7 12 6.6C 11 6.2 10.2 5.5 9.4 4.7C 8.7 3.9 8.1 2.8 7.7 1.6C 7.5 1.1 7.4 0.600002 7.3 1.52588e-06L -1.42109e-14 1.52588e-06C 0.1 1.3 0.400003 2.5 0.800003 3.7Z"/>
<path id="path13_fill" d="M 1.1 3.6C 1.9 5.5 2.9 7.2 4.3 8.6C 5.7 10 7.4 11.1 9.3 11.9C 11.3 12.7 13.4 13.1 15.8 13.1C 18.2 13.1 20.3 12.7 22.3 11.9C 24.2 11.1 25.9 10 27.3 8.6C 28.7 7.2 29.8 5.5 30.5 3.6C 31 2.5 31.3 1.3 31.5 1.52588e-06L 24.2 1.52588e-06C 24.1 0.500002 24 1 23.8 1.5C 23.4 2.7 22.8 3.7 22.1 4.6C 21.4 5.4 20.5 6.1 19.4 6.5C 18.3 6.9 17.1 7.2 15.8 7.2C 14.4 7.2 13.2 7 12.1 6.5C 11 6.1 10.1 5.4 9.4 4.6C 8.7 3.8 8.1 2.7 7.7 1.5C 7.5 1 7.4 0.500002 7.3 1.52588e-06L -1.52588e-06 1.52588e-06C 0.299998 1.3 0.599997 2.5 1.1 3.6Z"/>
<path id="path14_fill" d="M 7 13.6C 7.1 12.9 7.2 12.2 7.5 11.5C 7.9 10.3 8.5 9.3 9.2 8.4C 9.9 7.6 10.8 6.9 11.9 6.5C 13 6.1 14.2 5.8 15.6 5.8C 17 5.8 18.2 6 19.2 6.5C 20.3 6.9 21.2 7.6 21.9 8.4C 22.6 9.2 23.2 10.3 23.6 11.5C 23.8 12.2 24 12.9 24.1 13.6L 31.4 13.6C 31.2 12.1 30.9 10.8 30.4 9.4C 29.6 7.5 28.6 5.9 27.2 4.5C 25.8 3.1 24.2 2 22.2 1.2C 20.3 0.399998 18.1 1.52588e-06 15.7 1.52588e-06C 13.3 1.52588e-06 11.2 0.399998 9.2 1.2C 7.2 2 5.6 3.1 4.2 4.5C 2.8 5.9 1.7 7.5 1 9.4C 0.5 10.7 0.1 12.1 -1.06581e-14 13.6L 7 13.6Z"/>
<path id="path15_fill" d="M 7.4 13.5C 7.5 12.8 7.7 12.1 7.9 11.4C 8.3 10.2 8.9 9.2 9.7 8.3C 10.5 7.5 11.4 6.8 12.4 6.4C 13.5 5.9 14.6 5.7 15.9 5.7C 16.6 5.7 17.3 5.8 17.8 5.9C 18.4 6 18.8 6.1 19.2 6.3C 19.6 6.5 20 6.6 20.3 6.8C 20.6 7 20.9 7.2 21.1 7.3C 21.4 7.5 21.6 7.6 21.8 7.7C 22 7.8 22.3 7.9 22.5 7.9C 22.9 7.9 23.2 7.8 23.4 7.7C 23.6 7.5 23.8 7.4 23.9 7.2L 26.3 4C 25.7 3.4 25.1 2.9 24.3 2.4C 23.6 1.9 22.8 1.5 21.9 1.1C 21 0.699998 20.1 0.499999 19.1 0.299999C 18.1 0.0999992 17 0 15.9 0C 13.5 0 11.4 0.400001 9.4 1.2C 7.4 2 5.8 3 4.4 4.4C 3 5.8 1.9 7.4 1.1 9.3C 0.6 10.6 0.2 12.1 -1.49011e-09 13.6L 7.4 13.6L 7.4 13.5Z"/>
<path id="path16_fill" d="M 0.8 3.7C 1.5 5.6 2.5 7.3 3.7 8.6C 5 10 6.5 11.1 8.4 11.9C 10.2 12.7 12.3 13.1 14.6 13.1C 17.1 13.1 19.3 12.7 21.2 11.9C 23 11.1 24.6 9.9 25.8 8.3L 23 5.3C 22.8 5.1 22.7 5 22.5 5C 22.3 4.9 22.2 4.9 22 4.9C 21.8 4.9 21.6 4.9 21.4 5C 21.2 5.1 21 5.2 20.9 5.3C 20.5 5.7 20.1 6 19.7 6.2C 19.3 6.4 18.9 6.6 18.4 6.8C 17.9 7 17.5 7.1 16.9 7.1C 16.4 7.2 15.8 7.2 15.1 7.2C 14 7.2 12.9 7 12 6.6C 11 6.2 10.2 5.5 9.4 4.7C 8.7 3.9 8.1 2.8 7.7 1.6C 7.5 1.1 7.4 0.600002 7.3 1.52588e-06L 1.90735e-07 1.52588e-06C 0.1 1.3 0.4 2.5 0.8 3.7Z"/>
<path id="path17_fill" d="M 1.1 3.6C 1.9 5.5 2.9 7.2 4.3 8.6C 5.7 10 7.4 11.1 9.3 11.9C 11.3 12.7 13.4 13.1 15.8 13.1C 18.2 13.1 20.3 12.7 22.3 11.9C 24.2 11.1 25.9 10 27.3 8.6C 28.7 7.2 29.8 5.5 30.5 3.6C 31 2.5 31.3 1.3 31.5 1.52588e-06L 24.2 1.52588e-06C 24.1 0.500002 24 1 23.8 1.5C 23.4 2.7 22.8 3.7 22.1 4.6C 21.4 5.4 20.5 6.1 19.4 6.5C 18.3 6.9 17.1 7.2 15.8 7.2C 14.4 7.2 13.2 7 12.1 6.5C 11 6.1 10.1 5.4 9.4 4.6C 8.7 3.8 8.1 2.7 7.7 1.5C 7.5 1 7.4 0.500002 7.3 1.52588e-06L -7.62939e-07 1.52588e-06C 0.299999 1.3 0.700002 2.5 1.1 3.6Z"/>
</defs>
</svg>
