<svg width="482" height="265" viewBox="0 0 482 265" version="1.1" xmlns="http://www.w3.org/2000/svg" xmlns:xlink="http://www.w3.org/1999/xlink">
<title>figure_16</title>
<desc>Created using Figma</desc>
<g id="Canvas" transform="translate(1374 -7566)">
<g id="figure_16">
<g id="pattern">
<g id="Vector">
<use xlink:href="#path0_fill" transform="translate(-919.1 7769)" fill="#394EE5"/>
</g>
<g id="Vector">
<use xlink:href="#path1_fill" transform="translate(-938.9 7749.2)" fill="#394EE5"/>
</g>
<g id="Vector">
<use xlink:href="#path2_fill" transform="translate(-937.615 7765.1)" fill="#394EE5"/>
</g>
<g id="Vector">
<use xlink:href="#path3_fill" transform="translate(-917.3 7785.1)" fill="#394EE5"/>
</g>
<g id="Vector">
<use xlink:href="#path4_fill" transform="translate(-964.9 7723.2)" fill="#394EE5"/>
</g>
<g id="Vector">
<use xlink:href="#path5_fill" transform="translate(-984.7 7703.4)" fill="#394EE5"/>
</g>
<g id="Vector">
<use xlink:href="#path6_fill" transform="translate(-983.415 7719.3)" fill="#394EE5"/>
</g>
<g id="Vector">
<use xlink:href="#path7_fill" transform="translate(-963.1 7739.3)" fill="#394EE5"/>
</g>
<g id="Vector">
<use xlink:href="#path8_fill" transform="translate(-1010.7 7677.5)" fill="#394EE5"/>
</g>
<g id="Vector">
<use xlink:href="#path9_fill" transform="translate(-1030.4 7657.6)" fill="#394EE5"/>
</g>
<g id="Vector">
<use xlink:href="#path10_fill" transform="translate(-1029.22 7673.5)" fill="#394EE5"/>
</g>
<g id="Vector">
<use xlink:href="#path11_fill" transform="translate(-1008.9 7693.5)" fill="#394EE5"/>
</g>
<g id="Vector">
<use xlink:href="#path12_fill" transform="translate(-1056.5 7631.7)" fill="#394EE5"/>
</g>
<g id="Vector">
<use xlink:href="#path13_fill" transform="translate(-1076.2 7611.8)" fill="#394EE5"/>
</g>
<g id="Vector">
<use xlink:href="#path14_fill" transform="translate(-1074.92 7627.7)" fill="#394EE5"/>
</g>
<g id="Vector">
<use xlink:href="#path15_fill" transform="translate(-1054.7 7647.7)" fill="#394EE5"/>
</g>
<g id="Vector">
<use xlink:href="#path16_fill" transform="translate(-1102.2 7585.9)" fill="#394EE5"/>
</g>
<g id="Vector">
<use xlink:href="#path17_fill" transform="translate(-1122 7566)" fill="#394EE5"/>
</g>
<g id="Vector">
<use xlink:href="#path18_fill" transform="translate(-1120.72 7582)" fill="#394EE5"/>
</g>
<g id="Vector">
<use xlink:href="#path19_fill" transform="translate(-1100.4 7602)" fill="#394EE5"/>
</g>
<g id="Vector">
<use xlink:href="#path20_fill" transform="translate(-947.1 7788.9)" fill="#394EE5"/>
</g>
<g id="Vector">
<use xlink:href="#path21_fill" transform="translate(-966.9 7769)" fill="#394EE5"/>
</g>
<g id="Vector">
<use xlink:href="#path22_fill" transform="translate(-965.615 7785)" fill="#394EE5"/>
</g>
<g id="Vector">
<use xlink:href="#path23_fill" transform="translate(-945.3 7805)" fill="#394EE5"/>
</g>
<g id="Vector">
<use xlink:href="#path24_fill" transform="translate(-992.9 7743.1)" fill="#394EE5"/>
</g>
<g id="Vector">
<use xlink:href="#path25_fill" transform="translate(-1012.6 7723.3)" fill="#394EE5"/>
</g>
<g id="Vector">
<use xlink:href="#path26_fill" transform="translate(-1011.42 7739.2)" fill="#394EE5"/>
</g>
<g id="Vector">
<use xlink:href="#path27_fill" transform="translate(-991.1 7759.2)" fill="#394EE5"/>
</g>
<g id="Vector">
<use xlink:href="#path28_fill" transform="translate(-1038.7 7697.3)" fill="#394EE5"/>
</g>
<g id="Vector">
<use xlink:href="#path21_fill" transform="translate(-1058.4 7677.5)" fill="#394EE5"/>
</g>
<g id="Vector">
<use xlink:href="#path29_fill" transform="translate(-1057.22 7693.4)" fill="#394EE5"/>
</g>
<g id="Vector">
<use xlink:href="#path30_fill" transform="translate(-1036.9 7713.4)" fill="#394EE5"/>
</g>
<g id="Vector">
<use xlink:href="#path31_fill" transform="translate(-1084.4 7651.6)" fill="#394EE5"/>
</g>
<g id="Vector">
<use xlink:href="#path32_fill" transform="translate(-1104.2 7631.7)" fill="#394EE5"/>
</g>
<g id="Vector">
<use xlink:href="#path33_fill" transform="translate(-1102.92 7647.6)" fill="#394EE5"/>
</g>
<g id="Vector">
<use xlink:href="#path34_fill" transform="translate(-1082.7 7667.6)" fill="#394EE5"/>
</g>
<g id="Vector">
<use xlink:href="#path35_fill" transform="translate(-1130.2 7605.8)" fill="#394EE5"/>
</g>
<g id="Vector">
<use xlink:href="#path36_fill" transform="translate(-1150 7585.9)" fill="#394EE5"/>
</g>
<g id="Vector">
<use xlink:href="#path37_fill" transform="translate(-1148.72 7601.8)" fill="#394EE5"/>
</g>
<g id="Vector">
<use xlink:href="#path38_fill" transform="translate(-1128.4 7621.9)" fill="#394EE5"/>
</g>
<g id="Vector">
<use xlink:href="#path39_fill" transform="translate(-1020.9 7763)" fill="#394EE5"/>
</g>
<g id="Vector">
<use xlink:href="#path40_fill" transform="translate(-1040.6 7743.2)" fill="#394EE5"/>
</g>
<g id="Vector">
<use xlink:href="#path41_fill" transform="translate(-1039.42 7759.1)" fill="#394EE5"/>
</g>
<g id="Vector">
<use xlink:href="#path42_fill" transform="translate(-1019.1 7779.1)" fill="#394EE5"/>
</g>
<g id="Vector">
<use xlink:href="#path43_fill" transform="translate(-1066.7 7717.2)" fill="#394EE5"/>
</g>
<g id="Vector">
<use xlink:href="#path44_fill" transform="translate(-1086.4 7697.4)" fill="#394EE5"/>
</g>
<g id="Vector">
<use xlink:href="#path45_fill" transform="translate(-1085.22 7713.3)" fill="#394EE5"/>
</g>
<g id="Vector">
<use xlink:href="#path46_fill" transform="translate(-1064.9 7733.3)" fill="#394EE5"/>
</g>
<g id="Vector">
<use xlink:href="#path47_fill" transform="translate(-1112.4 7671.5)" fill="#394EE5"/>
</g>
<g id="Vector">
<use xlink:href="#path48_fill" transform="translate(-1132.2 7651.6)" fill="#394EE5"/>
</g>
<g id="Vector">
<use xlink:href="#path49_fill" transform="translate(-1130.92 7667.5)" fill="#394EE5"/>
</g>
<g id="Vector">
<use xlink:href="#path50_fill" transform="translate(-1110.7 7687.5)" fill="#394EE5"/>
</g>
<g id="Vector">
<use xlink:href="#path51_fill" transform="translate(-1158.2 7625.7)" fill="#394EE5"/>
</g>
<g id="Vector">
<use xlink:href="#path52_fill" transform="translate(-1178 7605.8)" fill="#394EE5"/>
</g>
<g id="Vector">
<use xlink:href="#path53_fill" transform="translate(-1176.72 7621.7)" fill="#394EE5"/>
</g>
<g id="Vector">
<use xlink:href="#path54_fill" transform="translate(-1156.4 7641.7)" fill="#394EE5"/>
</g>
<g id="Vector">
<use xlink:href="#path55_fill" transform="translate(-1048.9 7782.9)" fill="#394EE5"/>
</g>
<g id="Vector">
<use xlink:href="#path56_fill" transform="translate(-1068.6 7763)" fill="#394EE5"/>
</g>
<g id="Vector">
<use xlink:href="#path57_fill" transform="translate(-1067.42 7779)" fill="#394EE5"/>
</g>
<g id="Vector">
<use xlink:href="#path58_fill" transform="translate(-1047.1 7799)" fill="#394EE5"/>
</g>
<g id="Vector">
<use xlink:href="#path59_fill" transform="translate(-1094.7 7737.1)" fill="#394EE5"/>
</g>
<g id="Vector">
<use xlink:href="#path60_fill" transform="translate(-1114.4 7717.3)" fill="#394EE5"/>
</g>
<g id="Vector">
<use xlink:href="#path61_fill" transform="translate(-1113.22 7733.2)" fill="#394EE5"/>
</g>
<g id="Vector">
<use xlink:href="#path62_fill" transform="translate(-1092.9 7753.2)" fill="#394EE5"/>
</g>
<g id="Vector">
<use xlink:href="#path63_fill" transform="translate(-1140.4 7691.3)" fill="#394EE5"/>
</g>
<g id="Vector">
<use xlink:href="#path64_fill" transform="translate(-1160.2 7671.5)" fill="#394EE5"/>
</g>
<g id="Vector">
<use xlink:href="#path65_fill" transform="translate(-1158.92 7687.4)" fill="#394EE5"/>
</g>
<g id="Vector">
<use xlink:href="#path66_fill" transform="translate(-1138.6 7707.4)" fill="#394EE5"/>
</g>
<g id="Vector">
<use xlink:href="#path67_fill" transform="translate(-1186.2 7645.6)" fill="#394EE5"/>
</g>
<g id="Vector">
<use xlink:href="#path68_fill" transform="translate(-1206 7625.7)" fill="#394EE5"/>
</g>
<g id="Vector">
<use xlink:href="#path69_fill" transform="translate(-1204.72 7641.6)" fill="#394EE5"/>
</g>
<g id="Vector">
<use xlink:href="#path70_fill" transform="translate(-1184.4 7661.6)" fill="#394EE5"/>
</g>
<g id="Vector">
<use xlink:href="#path8_fill" transform="translate(-1122.7 7757)" fill="#394EE5"/>
</g>
<g id="Vector">
<use xlink:href="#path71_fill" transform="translate(-1142.4 7737.2)" fill="#394EE5"/>
</g>
<g id="Vector">
<use xlink:href="#path72_fill" transform="translate(-1141.12 7753.1)" fill="#394EE5"/>
</g>
<g id="Vector">
<use xlink:href="#path73_fill" transform="translate(-1120.9 7773.1)" fill="#394EE5"/>
</g>
<g id="Vector">
<use xlink:href="#path74_fill" transform="translate(-1168.4 7711.2)" fill="#394EE5"/>
</g>
<g id="Vector">
<use xlink:href="#path75_fill" transform="translate(-1188.2 7691.4)" fill="#394EE5"/>
</g>
<g id="Vector">
<use xlink:href="#path76_fill" transform="translate(-1186.92 7707.3)" fill="#394EE5"/>
</g>
<g id="Vector">
<use xlink:href="#path77_fill" transform="translate(-1166.6 7727.3)" fill="#394EE5"/>
</g>
<g id="Vector">
<use xlink:href="#path78_fill" transform="translate(-1214.2 7665.5)" fill="#394EE5"/>
</g>
<g id="Vector">
<use xlink:href="#path79_fill" transform="translate(-1234 7645.6)" fill="#394EE5"/>
</g>
<g id="Vector">
<use xlink:href="#path80_fill" transform="translate(-1232.72 7661.5)" fill="#394EE5"/>
</g>
<g id="Vector">
<use xlink:href="#path81_fill" transform="translate(-1212.4 7681.5)" fill="#394EE5"/>
</g>
<g id="Vector">
<use xlink:href="#path82_fill" transform="translate(-1320.9 7569.9)" fill="#394EE5"/>
</g>
<g id="Vector">
<use xlink:href="#path83_fill" transform="translate(-1150.7 7776.9)" fill="#394EE5"/>
</g>
<g id="Vector">
<use xlink:href="#path84_fill" transform="translate(-1170.4 7757)" fill="#394EE5"/>
</g>
<g id="Vector">
<use xlink:href="#path85_fill" transform="translate(-1169.12 7773)" fill="#394EE5"/>
</g>
<g id="Vector">
<use xlink:href="#path86_fill" transform="translate(-1148.9 7793)" fill="#394EE5"/>
</g>
<g id="Vector">
<use xlink:href="#path87_fill" transform="translate(-1196.4 7731.1)" fill="#394EE5"/>
</g>
<g id="Vector">
<use xlink:href="#path88_fill" transform="translate(-1216.2 7711.3)" fill="#394EE5"/>
</g>
<g id="Vector">
<use xlink:href="#path89_fill" transform="translate(-1214.92 7727.2)" fill="#394EE5"/>
</g>
<g id="Vector">
<use xlink:href="#path90_fill" transform="translate(-1194.6 7747.2)" fill="#394EE5"/>
</g>
<g id="Vector">
<use xlink:href="#path91_fill" transform="translate(-1242.2 7685.3)" fill="#394EE5"/>
</g>
<g id="Vector">
<use xlink:href="#path92_fill" transform="translate(-1262 7665.5)" fill="#394EE5"/>
</g>
<g id="Vector">
<use xlink:href="#path93_fill" transform="translate(-1260.72 7681.4)" fill="#394EE5"/>
</g>
<g id="Vector">
<use xlink:href="#path94_fill" transform="translate(-1240.4 7701.4)" fill="#394EE5"/>
</g>
<g id="Vector">
<use xlink:href="#path95_fill" transform="translate(-1224.4 7751)" fill="#394EE5"/>
</g>
<g id="Vector">
<use xlink:href="#path96_fill" transform="translate(-1244.2 7731.2)" fill="#394EE5"/>
</g>
<g id="Vector">
<use xlink:href="#path97_fill" transform="translate(-1242.92 7747.1)" fill="#394EE5"/>
</g>
<g id="Vector">
<use xlink:href="#path98_fill" transform="translate(-1222.6 7767.1)" fill="#394EE5"/>
</g>
<g id="Vector">
<use xlink:href="#path99_fill" transform="translate(-1270.2 7705.2)" fill="#394EE5"/>
</g>
<g id="Vector">
<use xlink:href="#path100_fill" transform="translate(-1290 7685.4)" fill="#394EE5"/>
</g>
<g id="Vector">
<use xlink:href="#path101_fill" transform="translate(-1288.72 7701.3)" fill="#394EE5"/>
</g>
<g id="Vector">
<use xlink:href="#path102_fill" transform="translate(-1268.4 7721.3)" fill="#394EE5"/>
</g>
<g id="Vector">
<use xlink:href="#path103_fill" transform="translate(-1252.4 7770.9)" fill="#394EE5"/>
</g>
<g id="Vector">
<use xlink:href="#path104_fill" transform="translate(-1272.2 7751)" fill="#394EE5"/>
</g>
<g id="Vector">
<use xlink:href="#path105_fill" transform="translate(-1270.92 7767)" fill="#394EE5"/>
</g>
<g id="Vector">
<use xlink:href="#path106_fill" transform="translate(-1250.6 7787)" fill="#394EE5"/>
</g>
<g id="Vector">
<use xlink:href="#path107_fill" transform="translate(-1298.2 7725.1)" fill="#394EE5"/>
</g>
<g id="Vector">
<use xlink:href="#path108_fill" transform="translate(-1318 7705.3)" fill="#394EE5"/>
</g>
<g id="Vector">
<use xlink:href="#path109_fill" transform="translate(-1316.72 7721.2)" fill="#394EE5"/>
</g>
<g id="Vector">
<use xlink:href="#path110_fill" transform="translate(-1296.4 7741.2)" fill="#394EE5"/>
</g>
<g id="Vector">
<use xlink:href="#path111_fill" transform="translate(-1326.2 7745)" fill="#394EE5"/>
</g>
<g id="Vector">
<use xlink:href="#path112_fill" transform="translate(-1346 7725.2)" fill="#394EE5"/>
</g>
<g id="Vector">
<use xlink:href="#path113_fill" transform="translate(-1344.72 7741.1)" fill="#394EE5"/>
</g>
<g id="Vector">
<use xlink:href="#path114_fill" transform="translate(-1324.4 7761.1)" fill="#394EE5"/>
</g>
<g id="Vector">
<use xlink:href="#path115_fill" transform="translate(-1354.2 7764.9)" fill="#394EE5"/>
</g>
<g id="Vector">
<use xlink:href="#path116_fill" transform="translate(-1374 7745.1)" fill="#394EE5"/>
</g>
<g id="Vector">
<use xlink:href="#path117_fill" transform="translate(-1372.72 7761)" fill="#394EE5"/>
</g>
<g id="Vector">
<use xlink:href="#path118_fill" transform="translate(-1352.4 7781)" fill="#394EE5"/>
</g>
</g>
</g>
</g>
<defs>
<path id="path0_fill" d="M 5.20001 8.69999C 5.80001 8.19999 6.4 7.90001 7 7.50001C 8.1 6.90001 9.29999 6.60001 10.4 6.50001C 11.5 6.40001 12.6 6.60001 13.7 7.00001C 14.8 7.40001 15.8 8.10001 16.8 9.10001C 17.8 10.1 18.5 11.1 18.9 12.1C 19.3 13.2 19.5 14.3 19.4 15.4C 19.3 16.5 19 17.6 18.4 18.8C 18.1 19.4 17.7 20 17.2 20.6L 22.3 25.7C 23.2 24.6 24 23.3 24.5 22C 25.3 20.1 25.7 18.2 25.7 16.2C 25.7 14.2 25.3 12.3 24.5 10.3C 23.7 8.39999 22.4 6.5 20.8 4.9C 19.1 3.2 17.3 1.99999 15.4 1.19999C 13.5 0.399988 11.5 6.10352e-06 9.5 6.10352e-06C 7.5 6.10352e-06 5.60001 0.399988 3.70001 1.19999C 2.40001 1.79999 1.2 2.5 -1.13687e-13 3.4L 5.20001 8.69999Z"/>
<path id="path1_fill" d="M 5.00001 8.59999C 5.60001 8.19999 6.2 7.79999 6.8 7.49999C 8 6.99999 9.09999 6.59999 10.2 6.59999C 11.3 6.49999 12.4 6.7 13.5 7.2C 14.6 7.6 15.6 8.3 16.5 9.2C 17 9.7 17.4 10.2 17.8 10.7C 18.1 11.2 18.4 11.6 18.5 12C 18.7 12.4 18.8 12.8 18.9 13.1C 19 13.4 19.1 13.8 19.1 14.1C 19.2 14.4 19.2 14.7 19.3 14.9C 19.4 15.1 19.5 15.3 19.7 15.5C 20 15.8 20.2 15.9 20.5 16C 20.8 16 21 16 21.3 16L 25.3 15.4C 25.3 14.6 25.2 13.7 25.1 12.8C 24.9 11.9 24.7 11.1 24.3 10.2C 23.9 9.3 23.5 8.49999 22.9 7.59999C 22.3 6.69999 21.6 5.89999 20.8 5.09999C 19.1 3.39999 17.3 2.20001 15.4 1.30001C 13.5 0.500006 11.5 -1.2207e-05 9.59999 -1.2207e-05C 7.59999 -1.2207e-05 5.7 0.4 3.8 1.2C 2.5 1.8 1.20001 2.49999 1.2207e-05 3.49999L 5.00001 8.59999Z"/>
<path id="path2_fill" d="M 1.4152 3.19999C 0.5152 4.99999 0.115206 6.9 0.0152063 8.8C -0.0847937 10.7 0.315206 12.6 1.01521 14.4C 1.71521 16.3 2.91521 18 4.61521 19.6C 6.41521 21.4 8.21521 22.6 10.1152 23.4C 12.0152 24.1 13.9152 24.4 15.9152 24.1L 16.0152 20C 16.0152 19.8 16.0152 19.6 15.9152 19.4C 15.8152 19.2 15.7152 19.1 15.6152 19C 15.5152 18.9 15.3152 18.7 15.1152 18.7C 14.9152 18.6 14.7152 18.6 14.5152 18.6C 13.9152 18.6 13.4152 18.5 13.0152 18.4C 12.5152 18.3 12.1152 18.1 11.7152 17.9C 11.3152 17.7 10.8152 17.4 10.4152 17.1C 10.0152 16.8 9.51521 16.4 9.11521 15.9C 8.31521 15.1 7.71519 14.2 7.31519 13.2C 6.91519 12.2 6.81519 11.2 6.81519 10C 6.91519 8.90001 7.21522 7.79999 7.71522 6.59999C 7.91522 6.09999 8.21521 5.59999 8.51521 5.19999L 3.31519 1.2207e-05C 2.61519 1.00001 1.9152 2.09999 1.4152 3.19999Z"/>
<path id="path3_fill" d="M 1.2 3.19999C 0.4 5.09999 -1.2207e-05 7.00001 -1.2207e-05 9.00001C -1.2207e-05 11 0.4 12.9 1.2 14.9C 2 16.8 3.30001 18.7 4.90001 20.3C 6.60001 22 8.40001 23.2 10.3 24C 12.2 24.8 14.2 25.2 16.2 25.2C 18.2 25.2 20.1 24.8 22 24C 23.1 23.5 24.2 22.9 25.2 22.1L 20.1 17C 19.7 17.3 19.2 17.6 18.8 17.8C 17.7 18.4 16.5 18.7 15.4 18.8C 14.3 18.9 13.2 18.7 12.1 18.3C 11 17.9 9.99999 17.2 9.09999 16.2C 8.09999 15.2 7.39999 14.2 6.99999 13.1C 6.59999 12 6.40001 10.9 6.40001 9.8C 6.50001 8.7 6.80001 7.60001 7.40001 6.40001C 7.60001 5.90001 7.9 5.49999 8.2 5.09999L 3.09999 1.2207e-05C 2.29999 1.00001 1.7 1.99999 1.2 3.19999Z"/>
<path id="path4_fill" d="M 5.19999 8.7C 5.79999 8.2 6.40001 7.89999 7.00001 7.49999C 8.10001 6.89999 9.30001 6.59999 10.4 6.49999C 11.5 6.39999 12.6 6.59999 13.7 6.99999C 14.8 7.39999 15.8 8.09999 16.8 9.09999C 17.8 10.1 18.5 11.1 18.9 12.1C 19.3 13.2 19.5 14.3 19.4 15.4C 19.3 16.5 19 17.6 18.4 18.8C 18.1 19.4 17.7 20 17.2 20.6L 22.3 25.7C 23.2 24.6 24 23.3 24.5 22C 25.3 20.1 25.7 18.2 25.7 16.2C 25.7 14.2 25.3 12.3 24.5 10.3C 23.7 8.40001 22.4 6.50001 20.8 4.90001C 19.1 3.20001 17.3 2 15.4 1.2C 13.5 0.4 11.5 -1.2207e-05 9.50001 -1.2207e-05C 7.50001 -1.2207e-05 5.59999 0.4 3.69999 1.2C 2.39999 1.8 1.20001 2.50001 1.2207e-05 3.40001L 5.19999 8.7Z"/>
<path id="path5_fill" d="M 4.99999 8.60001C 5.59999 8.20001 6.20001 7.8 6.80001 7.5C 8.00001 7 9.10001 6.60001 10.2 6.60001C 11.3 6.50001 12.4 6.70001 13.5 7.20001C 14.6 7.60001 15.6 8.30001 16.5 9.20001C 17 9.70001 17.4 10.2 17.8 10.7C 18.1 11.2 18.4 11.6 18.5 12C 18.7 12.4 18.8 12.8 18.9 13.1C 19 13.4 19.1 13.8 19.1 14.1C 19.2 14.4 19.2 14.7 19.3 14.9C 19.4 15.1 19.5 15.3 19.7 15.5C 20 15.8 20.2 15.9 20.5 16C 20.8 16 21 16 21.3 16L 25.3 15.4C 25.3 14.6 25.2 13.7 25.1 12.8C 24.9 11.9 24.7 11.1 24.3 10.2C 23.9 9.30001 23.5 8.50001 22.9 7.60001C 22.3 6.70001 21.6 5.90001 20.8 5.10001C 19.1 3.40001 17.3 2.19999 15.4 1.29999C 13.5 0.499988 11.5 0 9.6 0C 7.6 0 5.70001 0.400012 3.80001 1.20001C 2.50001 1.80001 1.19999 2.5 -6.10352e-06 3.5L 4.99999 8.60001Z"/>
<path id="path6_fill" d="M 1.41521 3.20001C 0.515212 5.00001 0.115218 6.90001 0.0152185 8.80001C -0.0847815 10.7 0.315219 12.6 1.01522 14.4C 1.71522 16.3 2.91519 18 4.61519 19.6C 6.41519 21.4 8.21519 22.6 10.1152 23.4C 12.0152 24.1 13.9152 24.4 15.9152 24.1L 16.0152 20C 16.0152 19.8 16.0152 19.6 15.9152 19.4C 15.8152 19.2 15.7152 19.1 15.6152 19C 15.5152 18.9 15.3152 18.7 15.1152 18.7C 14.9152 18.6 14.7152 18.6 14.5152 18.6C 13.9152 18.6 13.4152 18.5 13.0152 18.4C 12.5152 18.3 12.1152 18.1 11.7152 17.9C 11.3152 17.7 10.8152 17.4 10.4152 17.1C 10.0152 16.8 9.51519 16.4 9.11519 15.9C 8.31519 15.1 7.71521 14.2 7.31521 13.2C 6.91521 12.2 6.81521 11.2 6.81521 9.99999C 6.91521 8.89999 7.2152 7.8 7.7152 6.6C 7.9152 6.1 8.21522 5.60001 8.51522 5.20001L 3.31521 -6.10352e-06C 2.61521 0.999994 1.91521 2.10001 1.41521 3.20001Z"/>
<path id="path7_fill" d="M 1.20001 3.20001C 0.400012 5.10001 0 6.99999 0 8.99999C 0 11 0.400012 12.9 1.20001 14.9C 2.00001 16.8 3.29999 18.7 4.89999 20.3C 6.59999 22 8.39999 23.2 10.3 24C 12.2 24.8 14.2 25.2 16.2 25.2C 18.2 25.2 20.1 24.8 22 24C 23.1 23.5 24.2 22.9 25.2 22.1L 20.1 17C 19.7 17.3 19.2 17.6 18.8 17.8C 17.7 18.4 16.5 18.7 15.4 18.8C 14.3 18.9 13.2 18.7 12.1 18.3C 11 17.9 10 17.2 9.10001 16.2C 8.10001 15.2 7.4 14.2 7 13.1C 6.6 12 6.39999 10.9 6.39999 9.80001C 6.49999 8.70001 6.79999 7.59999 7.39999 6.39999C 7.59999 5.89999 7.90001 5.5 8.20001 5.1L 3.10001 -6.10352e-06C 2.30001 0.999994 1.70001 2.10001 1.20001 3.20001Z"/>
<path id="path8_fill" d="M 5.20001 8.69999C 5.80001 8.19999 6.39999 7.90001 6.99999 7.50001C 8.09999 6.90001 9.29999 6.60001 10.4 6.50001C 11.5 6.40001 12.6 6.60001 13.7 7.00001C 14.8 7.40001 15.8 8.10001 16.8 9.10001C 17.8 10.1 18.5 11.1 18.9 12.1C 19.3 13.2 19.5 14.3 19.4 15.4C 19.3 16.5 19 17.6 18.4 18.8C 18.1 19.4 17.7 20 17.2 20.6L 22.3 25.7C 23.2 24.6 24 23.3 24.5 22C 25.3 20.1 25.7 18.2 25.7 16.2C 25.7 14.2 25.3 12.3 24.5 10.3C 23.7 8.39999 22.4 6.5 20.8 4.9C 19.1 3.2 17.3 1.99999 15.4 1.19999C 13.5 0.399988 11.5 6.10352e-06 9.49999 6.10352e-06C 7.49999 6.10352e-06 5.60001 0.399988 3.70001 1.19999C 2.40001 1.79999 1.19999 2.5 -6.10352e-06 3.4L 5.20001 8.69999Z"/>
<path id="path9_fill" d="M 5.00001 8.6C 5.60001 8.2 6.2 7.8 6.8 7.5C 8 7 9.09999 6.6 10.2 6.6C 11.3 6.5 12.4 6.69999 13.5 7.19999C 14.6 7.59999 15.6 8.29999 16.5 9.19999C 17 9.69999 17.4 10.2 17.8 10.7C 18.1 11.2 18.4 11.6 18.5 12C 18.7 12.4 18.8 12.8 18.9 13.1C 19 13.4 19.1 13.8 19.1 14.1C 19.2 14.4 19.2 14.7 19.3 14.9C 19.4 15.1 19.5 15.3 19.7 15.5C 20 15.8 20.2 15.9 20.5 16C 20.8 16 21 16 21.3 16L 25.3 15.4C 25.3 14.6 25.2 13.7 25.1 12.8C 24.9 11.9 24.7 11.1 24.3 10.2C 23.9 9.29999 23.5 8.5 22.9 7.6C 22.3 6.7 21.6 5.9 20.8 5.1C 19.1 3.4 17.3 2.2 15.4 1.3C 13.5 0.5 11.5 -3.05176e-06 9.59999 -3.05176e-06C 7.59999 -3.05176e-06 5.7 0.399994 3.8 1.19999C 2.5 1.79999 1.20001 2.5 1.2207e-05 3.5L 5.00001 8.6Z"/>
<path id="path10_fill" d="M 1.41519 3.2C 0.515194 5 0.1152 6.89999 0.0152001 8.79999C -0.0847999 10.7 0.3152 12.6 1.0152 14.4C 1.7152 16.3 2.91521 18 4.61521 19.6C 6.41521 21.4 8.21521 22.6 10.1152 23.4C 12.0152 24.1 13.9152 24.4 15.9152 24.1L 16.0152 20C 16.0152 19.8 16.0152 19.6 15.9152 19.4C 15.8152 19.2 15.7152 19.1 15.6152 19C 15.5152 18.9 15.3152 18.7 15.1152 18.7C 14.9152 18.6 14.7152 18.6 14.5152 18.6C 13.9152 18.6 13.4152 18.5 13.0152 18.4C 12.5152 18.3 12.1152 18.1 11.7152 17.9C 11.3152 17.7 10.8152 17.4 10.4152 17.1C 10.0152 16.8 9.51521 16.4 9.11521 15.9C 8.31521 15.1 7.71522 14.2 7.31522 13.2C 6.91522 12.2 6.81522 11.2 6.81522 10C 6.91522 8.90001 7.21521 7.80001 7.71521 6.60001C 7.91521 6.10001 8.2152 5.59999 8.5152 5.19999L 3.31522 6.10352e-06C 2.61522 1.00001 2.01519 2.1 1.41519 3.2Z"/>
<path id="path11_fill" d="M 1.19999 3.19999C 0.399994 5.09999 1.2207e-05 7.00001 1.2207e-05 9.00001C 1.2207e-05 11 0.399994 12.9 1.19999 14.9C 1.99999 16.8 3.30001 18.7 4.90001 20.3C 6.60001 22 8.4 23.2 10.3 24C 12.2 24.8 14.2 25.2 16.2 25.2C 18.2 25.2 20.1 24.8 22 24C 23.1 23.5 24.2 22.9 25.2 22.1L 20.1 17C 19.7 17.3 19.2 17.6 18.8 17.8C 17.7 18.4 16.5 18.7 15.4 18.8C 14.3 18.9 13.2 18.7 12.1 18.3C 11 17.9 9.99999 17.2 9.09999 16.2C 8.09999 15.2 7.40001 14.2 7.00001 13.1C 6.60001 12 6.40001 10.9 6.40001 9.79999C 6.50001 8.69999 6.80001 7.6 7.40001 6.4C 7.60001 5.9 7.89999 5.50001 8.19999 5.10001L 3.09999 6.10352e-06C 2.29999 1.00001 1.69999 2.09999 1.19999 3.19999Z"/>
<path id="path12_fill" d="M 5.19999 8.7C 5.79999 8.2 6.40001 7.9 7.00001 7.5C 8.10001 6.9 9.3 6.6 10.4 6.5C 11.5 6.4 12.6 6.6 13.7 7C 14.8 7.4 15.8 8.09999 16.8 9.09999C 17.8 10.1 18.5 11.1 18.9 12.1C 19.3 13.2 19.5 14.3 19.4 15.4C 19.3 16.5 19 17.6 18.4 18.8C 18.1 19.4 17.7 20 17.2 20.6L 22.3 25.7C 23.2 24.6 24 23.3 24.5 22C 25.3 20.1 25.7 18.2 25.7 16.2C 25.7 14.2 25.3 12.3 24.5 10.3C 23.7 8.40001 22.4 6.5 20.8 4.9C 19.1 3.2 17.3 2 15.4 1.2C 13.5 0.4 11.5 3.05176e-06 9.50001 3.05176e-06C 7.50001 3.05176e-06 5.59999 0.4 3.69999 1.2C 2.39999 1.8 1.20001 2.5 6.10352e-06 3.4L 5.19999 8.7Z"/>
<path id="path13_fill" d="M 4.99999 8.6C 5.59999 8.2 6.20001 7.79999 6.80001 7.49999C 8.00001 6.99999 9.10001 6.6 10.2 6.6C 11.3 6.5 12.4 6.70001 13.5 7.20001C 14.6 7.60001 15.6 8.30001 16.5 9.20001C 17 9.70001 17.4 10.2 17.8 10.7C 18.1 11.2 18.4 11.6 18.5 12C 18.7 12.4 18.8 12.8 18.9 13.1C 19 13.4 19.1 13.8 19.1 14.1C 19.2 14.4 19.2 14.7 19.3 14.9C 19.4 15.1 19.5 15.3 19.7 15.5C 20 15.8 20.2 15.9 20.5 16C 20.8 16 21 16 21.3 16L 25.3 15.4C 25.3 14.6 25.2 13.7 25.1 12.8C 24.9 11.9 24.7 11.1 24.3 10.2C 23.9 9.30001 23.5 8.5 22.9 7.6C 22.3 6.7 21.6 5.9 20.8 5.1C 19.1 3.4 17.3 2.2 15.4 1.3C 13.5 0.499997 11.5 -6.10352e-06 9.6 -6.10352e-06C 7.6 -6.10352e-06 5.70001 0.400006 3.80001 1.20001C 2.50001 1.80001 1.19999 2.49999 -6.10352e-06 3.49999L 4.99999 8.6Z"/>
<path id="path14_fill" d="M 1.41521 3.2C 0.515212 5 0.115218 6.90001 0.0152185 8.80001C -0.0847815 10.7 0.315219 12.6 1.01522 14.4C 1.71522 16.3 2.91519 18 4.61519 19.6C 6.41519 21.4 8.21519 22.6 10.1152 23.4C 12.0152 24.1 13.9152 24.4 15.9152 24.1L 16.0152 20C 16.0152 19.8 16.0152 19.6 15.9152 19.4C 15.8152 19.2 15.7152 19.1 15.6152 19C 15.5152 18.9 15.3152 18.7 15.1152 18.7C 14.9152 18.6 14.7152 18.6 14.5152 18.6C 13.9152 18.6 13.4152 18.5 13.0152 18.4C 12.5152 18.3 12.1152 18.1 11.7152 17.9C 11.3152 17.7 10.8152 17.4 10.4152 17.1C 10.0152 16.8 9.51519 16.4 9.11519 15.9C 8.31519 15.1 7.71521 14.2 7.31521 13.2C 6.91521 12.2 6.81521 11.2 6.81521 10C 6.91521 8.9 7.2152 7.79999 7.7152 6.59999C 7.9152 6.09999 8.21522 5.6 8.51522 5.2L 3.31521 3.05176e-06C 2.51521 1.1 1.91521 2.1 1.41521 3.2Z"/>
<path id="path15_fill" d="M 1.20001 3.2C 0.400006 5.1 -6.10352e-06 7 -6.10352e-06 9C -6.10352e-06 11 0.400006 12.9 1.20001 14.9C 2.00001 16.8 3.29999 18.7 4.89999 20.3C 6.59999 22 8.40001 23.2 10.3 24C 12.2 24.8 14.2 25.2 16.2 25.2C 18.2 25.2 20.1 24.8 22 24C 23.1 23.5 24.2 22.9 25.2 22.1L 20.1 17C 19.7 17.3 19.2 17.6 18.8 17.8C 17.7 18.4 16.5 18.7 15.4 18.8C 14.3 18.9 13.2 18.7 12.1 18.3C 11 17.9 10 17.2 9.1 16.2C 8.1 15.2 7.39999 14.2 6.99999 13.1C 6.59999 12 6.39999 10.9 6.39999 9.80001C 6.49999 8.70001 6.79999 7.6 7.39999 6.4C 7.59999 5.9 7.90001 5.49999 8.20001 5.09999L 3.1 3.05176e-06C 2.3 1 1.70001 2.1 1.20001 3.2Z"/>
<path id="path16_fill" d="M 5.20001 8.7C 5.80001 8.2 6.39999 7.9 6.99999 7.5C 8.09999 6.9 9.29999 6.6 10.4 6.5C 11.5 6.4 12.6 6.6 13.7 7C 14.8 7.4 15.8 8.10001 16.8 9.10001C 17.8 10.1 18.5 11.1 18.9 12.1C 19.3 13.2 19.5 14.3 19.4 15.4C 19.3 16.5 19 17.6 18.4 18.8C 18.1 19.4 17.7 20 17.2 20.6L 22.3 25.7C 23.2 24.6 24 23.3 24.5 22C 25.3 20.1 25.7 18.2 25.7 16.2C 25.7 14.2 25.3 12.3 24.5 10.3C 23.7 8.4 22.4 6.49999 20.8 4.89999C 19.1 3.19999 17.3 2 15.4 1.2C 13.5 0.399997 11.5 -2.84217e-14 9.49999 -2.84217e-14C 7.49999 -2.84217e-14 5.60001 0.399997 3.70001 1.2C 2.40001 1.8 1.19999 2.49999 -6.10352e-06 3.39999L 5.20001 8.7Z"/>
<path id="path17_fill" d="M 5.00001 8.6C 5.60001 8.2 6.19999 7.80001 6.79999 7.50001C 7.99999 7.00001 9.09999 6.6 10.2 6.6C 11.3 6.5 12.4 6.7 13.5 7.2C 14.6 7.6 15.6 8.3 16.5 9.2C 17 9.7 17.4 10.2 17.8 10.7C 18.1 11.2 18.4 11.6 18.5 12C 18.7 12.4 18.8 12.8 18.9 13.1C 19 13.4 19.1 13.8 19.1 14.1C 19.2 14.4 19.2 14.7 19.3 14.9C 19.4 15.1 19.5 15.3 19.7 15.5C 20 15.8 20.2 15.9 20.5 16C 20.8 16 21 16 21.3 16L 25.3 15.4C 25.3 14.6 25.2 13.7 25.1 12.8C 24.9 11.9 24.7 11.1 24.3 10.2C 23.9 9.3 23.5 8.5 22.9 7.6C 22.3 6.7 21.6 5.9 20.8 5.1C 19.1 3.4 17.3 2.19999 15.4 1.29999C 13.5 0.499994 11.5 6.10352e-06 9.60001 6.10352e-06C 7.60001 6.10352e-06 5.69999 0.400003 3.79999 1.2C 2.49999 1.8 1.20001 2.50001 6.10352e-06 3.50001L 5.00001 8.6Z"/>
<path id="path18_fill" d="M 1.41521 3.2C 0.515209 5 0.1152 6.89999 0.0152001 8.79999C -0.0847999 10.7 0.3152 12.6 1.0152 14.4C 1.7152 16.3 2.91521 18 4.61521 19.6C 6.41521 21.4 8.21521 22.6 10.1152 23.4C 12.0152 24.1 13.9152 24.4 15.9152 24.1L 16.0152 20C 16.0152 19.8 16.0152 19.6 15.9152 19.4C 15.8152 19.2 15.7152 19.1 15.6152 19C 15.5152 18.9 15.3152 18.7 15.1152 18.7C 14.9152 18.6 14.7152 18.6 14.5152 18.6C 13.9152 18.6 13.4152 18.5 13.0152 18.4C 12.5152 18.3 12.1152 18.1 11.7152 17.9C 11.3152 17.7 10.8152 17.4 10.4152 17.1C 10.0152 16.8 9.51521 16.4 9.11521 15.9C 8.31521 15.1 7.71522 14.2 7.31522 13.2C 6.91522 12.2 6.81522 11.2 6.81522 10C 6.91522 8.90001 7.21521 7.8 7.71521 6.6C 7.91521 6.1 8.2152 5.6 8.5152 5.2L 3.31522 6.10352e-06C 2.61522 1.00001 1.91521 2.1 1.41521 3.2Z"/>
<path id="path19_fill" d="M 1.19999 3.2C 0.399994 5.1 1.2207e-05 7.00001 1.2207e-05 9.00001C 1.2207e-05 11 0.399994 12.9 1.19999 14.9C 1.99999 16.8 3.30001 18.7 4.90001 20.3C 6.60001 22 8.4 23.2 10.3 24C 12.2 24.8 14.2 25.2 16.2 25.2C 18.2 25.2 20.1 24.8 22 24C 23.1 23.5 24.2 22.9 25.2 22.1L 20.1 17C 19.7 17.3 19.2 17.6 18.8 17.8C 17.7 18.4 16.5 18.7 15.4 18.8C 14.3 18.9 13.2 18.7 12.1 18.3C 11 17.9 9.99999 17.2 9.09999 16.2C 8.09999 15.2 7.40001 14.2 7.00001 13.1C 6.60001 12 6.40001 10.9 6.40001 9.79999C 6.50001 8.69999 6.80001 7.6 7.40001 6.4C 7.60001 5.9 7.89999 5.5 8.19999 5.1L 3.09999 6.10352e-06C 2.29999 1.00001 1.59999 2 1.19999 3.2Z"/>
<path id="path20_fill" d="M 5.20001 8.70001C 5.80001 8.20001 6.4 7.9 7 7.5C 8.1 6.9 9.29999 6.6 10.4 6.5C 11.5 6.4 12.6 6.6 13.7 7C 14.8 7.4 15.8 8.10001 16.8 9.10001C 17.8 10.1 18.5 11.1 18.9 12.1C 19.3 13.2 19.5 14.3 19.4 15.4C 19.3 16.5 19 17.6 18.4 18.8C 18.1 19.4 17.7 20 17.2 20.6L 22.3 25.7C 23.2 24.6 24 23.3 24.5 22C 25.3 20.1 25.7 18.2 25.7 16.2C 25.7 14.2 25.3 12.3 24.5 10.3C 23.7 8.39999 22.4 6.49999 20.8 4.89999C 19.1 3.19999 17.3 2.00001 15.4 1.20001C 13.5 0.400012 11.5 -1.13687e-13 9.5 -1.13687e-13C 7.5 -1.13687e-13 5.60001 0.400012 3.70001 1.20001C 2.40001 1.80001 1.2 2.49999 -1.13687e-13 3.39999L 5.20001 8.70001Z"/>
<path id="path21_fill" d="M 5.00001 8.60001C 5.60001 8.20001 6.2 7.80001 6.8 7.50001C 8 7.00001 9.09999 6.60001 10.2 6.60001C 11.3 6.50001 12.4 6.69999 13.5 7.19999C 14.6 7.59999 15.6 8.29999 16.5 9.19999C 17 9.69999 17.4 10.2 17.8 10.7C 18.1 11.2 18.4 11.6 18.5 12C 18.7 12.4 18.8 12.8 18.9 13.1C 19 13.4 19.1 13.8 19.1 14.1C 19.2 14.4 19.2 14.7 19.3 14.9C 19.4 15.1 19.5 15.3 19.7 15.5C 20 15.8 20.2 15.9 20.5 16C 20.8 16 21 16 21.3 16L 25.3 15.4C 25.3 14.6 25.2 13.7 25.1 12.8C 24.9 11.9 24.7 11.1 24.3 10.2C 23.9 9.29999 23.5 8.50001 22.9 7.60001C 22.3 6.70001 21.6 5.90001 20.8 5.10001C 19.1 3.40001 17.3 2.19999 15.4 1.29999C 13.5 0.499994 11.5 6.10352e-06 9.59999 6.10352e-06C 7.59999 6.10352e-06 5.7 0.399988 3.8 1.19999C 2.5 1.79999 1.20001 2.50001 1.2207e-05 3.50001L 5.00001 8.60001Z"/>
<path id="path22_fill" d="M 1.4152 3.19999C 0.5152 4.99999 0.115206 6.89999 0.0152063 8.79999C -0.0847937 10.7 0.315206 12.6 1.01521 14.4C 1.71521 16.3 2.91521 18 4.61521 19.6C 6.41521 21.4 8.21521 22.6 10.1152 23.4C 12.0152 24.1 13.9152 24.4 15.9152 24.1L 16.0152 20C 16.0152 19.8 16.0152 19.6 15.9152 19.4C 15.8152 19.2 15.7152 19.1 15.6152 19C 15.5152 18.9 15.3152 18.7 15.1152 18.7C 14.9152 18.6 14.7152 18.6 14.5152 18.6C 13.9152 18.6 13.4152 18.5 13.0152 18.4C 12.5152 18.3 12.1152 18.1 11.7152 17.9C 11.3152 17.7 10.8152 17.4 10.4152 17.1C 10.0152 16.8 9.51521 16.4 9.11521 15.9C 8.31521 15.1 7.71519 14.2 7.31519 13.2C 6.91519 12.2 6.81519 11.2 6.81519 10C 6.91519 8.90001 7.21522 7.80001 7.71522 6.60001C 7.91522 6.10001 8.21521 5.59999 8.51521 5.19999L 3.31519 6.10352e-06C 2.61519 1.00001 1.9152 2.09999 1.4152 3.19999Z"/>
<path id="path23_fill" d="M 1.2 3.19999C 0.4 5.09999 -1.2207e-05 7.00001 -1.2207e-05 9.00001C -1.2207e-05 11 0.4 12.9 1.2 14.9C 2 16.8 3.30001 18.7 4.90001 20.3C 6.60001 22 8.40001 23.2 10.3 24C 12.2 24.8 14.2 25.2 16.2 25.2C 18.2 25.2 20.1 24.8 22 24C 23.1 23.5 24.2 22.9 25.2 22.1L 20.1 17C 19.7 17.3 19.2 17.6 18.8 17.8C 17.7 18.4 16.5 18.7 15.4 18.8C 14.3 18.9 13.2 18.7 12.1 18.3C 11 17.9 9.99999 17.2 9.09999 16.2C 8.09999 15.2 7.39999 14.2 6.99999 13.1C 6.59999 12 6.40001 10.9 6.40001 9.79999C 6.50001 8.69999 6.80001 7.6 7.40001 6.4C 7.60001 5.9 7.9 5.50001 8.2 5.10001L 3.09999 6.10352e-06C 2.29999 1.00001 1.7 1.99999 1.2 3.19999Z"/>
<path id="path24_fill" d="M 5.19999 8.69999C 5.79999 8.19999 6.40001 7.90001 7.00001 7.50001C 8.10001 6.90001 9.30001 6.60001 10.4 6.50001C 11.5 6.40001 12.6 6.60001 13.7 7.00001C 14.8 7.40001 15.8 8.09999 16.8 9.09999C 17.8 10.1 18.5 11.1 18.9 12.1C 19.3 13.2 19.5 14.3 19.4 15.4C 19.3 16.5 19 17.6 18.4 18.8C 18.1 19.4 17.7 20 17.2 20.6L 22.3 25.7C 23.2 24.6 24 23.3 24.5 22C 25.3 20.1 25.7 18.2 25.7 16.2C 25.7 14.2 25.3 12.3 24.5 10.3C 23.7 8.4 22.4 6.50001 20.8 4.90001C 19.1 3.20001 17.3 1.99999 15.4 1.19999C 13.5 0.399994 11.5 1.2207e-05 9.50001 1.2207e-05C 7.50001 1.2207e-05 5.59999 0.399994 3.69999 1.19999C 2.39999 1.79999 1.20001 2.50001 1.2207e-05 3.40001L 5.19999 8.69999Z"/>
<path id="path25_fill" d="M 5 8.6C 5.6 8.2 6.19999 7.79999 6.79999 7.49999C 7.99999 6.99999 9.10001 6.6 10.2 6.6C 11.3 6.5 12.4 6.70001 13.5 7.20001C 14.6 7.60001 15.6 8.30001 16.5 9.20001C 17 9.70001 17.4 10.2 17.8 10.7C 18.1 11.2 18.4 11.6 18.5 12C 18.7 12.4 18.8 12.8 18.9 13.1C 19 13.4 19.1 13.8 19.1 14.1C 19.2 14.4 19.2 14.7 19.3 14.9C 19.4 15.1 19.5 15.3 19.7 15.5C 20 15.8 20.2 15.9 20.5 16C 20.8 16 21 16 21.3 16L 25.3 15.4C 25.3 14.6 25.2 13.7 25.1 12.8C 24.9 11.9 24.7 11.1 24.3 10.2C 23.9 9.30001 23.5 8.5 22.9 7.6C 22.3 6.7 21.6 5.9 20.8 5.1C 19.1 3.4 17.3 2.20001 15.4 1.30001C 13.5 0.500012 11.5 -6.10352e-06 9.60001 -6.10352e-06C 7.60001 -6.10352e-06 5.69999 0.400006 3.79999 1.20001C 2.49999 1.80001 1.2 2.49999 5.68434e-14 3.49999L 5 8.6Z"/>
<path id="path26_fill" d="M 1.41521 3.2C 0.515212 5 0.115218 6.90001 0.0152185 8.80001C -0.0847815 10.7 0.315219 12.6 1.01522 14.4C 1.71522 16.3 2.91519 18 4.61519 19.6C 6.41519 21.4 8.21519 22.6 10.1152 23.4C 12.0152 24.1 13.9152 24.4 15.9152 24.1L 16.0152 20C 16.0152 19.8 16.0152 19.6 15.9152 19.4C 15.8152 19.2 15.7152 19.1 15.6152 19C 15.5152 18.9 15.3152 18.7 15.1152 18.7C 14.9152 18.6 14.7152 18.6 14.5152 18.6C 13.9152 18.6 13.4152 18.5 13.0152 18.4C 12.5152 18.3 12.1152 18.1 11.7152 17.9C 11.3152 17.7 10.8152 17.4 10.4152 17.1C 10.0152 16.8 9.51519 16.4 9.11519 15.9C 8.31519 15.1 7.71521 14.2 7.31521 13.2C 6.91521 12.2 6.81521 11.2 6.81521 9.99999C 6.91521 8.89999 7.2152 7.79999 7.7152 6.59999C 7.9152 6.09999 8.21522 5.6 8.51522 5.2L 3.31521 -1.2207e-05C 2.61521 0.999988 1.91521 2.1 1.41521 3.2Z"/>
<path id="path27_fill" d="M 1.20001 3.2C 0.400012 5.1 0 6.99999 0 8.99999C 0 11 0.400012 12.9 1.20001 14.9C 2.00001 16.8 3.29999 18.7 4.89999 20.3C 6.59999 22 8.39999 23.2 10.3 24C 12.2 24.8 14.2 25.2 16.2 25.2C 18.2 25.2 20.1 24.8 22 24C 23.1 23.5 24.2 22.9 25.2 22.1L 20.1 17C 19.7 17.3 19.2 17.6 18.8 17.8C 17.7 18.4 16.5 18.7 15.4 18.8C 14.3 18.9 13.2 18.7 12.1 18.3C 11 17.9 10 17.2 9.10001 16.2C 8.10001 15.2 7.4 14.2 7 13.1C 6.6 12 6.39999 10.9 6.39999 9.80001C 6.49999 8.70001 6.79999 7.60001 7.39999 6.40001C 7.59999 5.90001 7.90001 5.49999 8.20001 5.09999L 3.10001 -1.2207e-05C 2.30001 0.999988 1.70001 2.1 1.20001 3.2Z"/>
<path id="path28_fill" d="M 5.20001 8.70001C 5.80001 8.20001 6.39999 7.89999 6.99999 7.49999C 8.09999 6.89999 9.29999 6.59999 10.4 6.49999C 11.5 6.39999 12.6 6.59999 13.7 6.99999C 14.8 7.39999 15.8 8.1 16.8 9.1C 17.8 10.1 18.5 11.1 18.9 12.1C 19.3 13.2 19.5 14.3 19.4 15.4C 19.3 16.5 19 17.6 18.4 18.8C 18.1 19.4 17.7 20 17.2 20.6L 22.3 25.7C 23.2 24.6 24 23.3 24.5 22C 25.3 20.1 25.7 18.2 25.7 16.2C 25.7 14.2 25.3 12.3 24.5 10.3C 23.7 8.40001 22.4 6.49999 20.8 4.89999C 19.1 3.19999 17.3 2.00001 15.4 1.20001C 13.5 0.400006 11.5 -6.10352e-06 9.49999 -6.10352e-06C 7.49999 -6.10352e-06 5.60001 0.400006 3.70001 1.20001C 2.40001 1.80001 1.19999 2.49999 -6.10352e-06 3.39999L 5.20001 8.70001Z"/>
<path id="path29_fill" d="M 1.41519 3.20001C 0.515194 5.00001 0.1152 6.89999 0.0152001 8.79999C -0.0847999 10.7 0.3152 12.6 1.0152 14.4C 1.7152 16.3 2.91521 18 4.61521 19.6C 6.41521 21.4 8.21521 22.6 10.1152 23.4C 12.0152 24.1 13.9152 24.4 15.9152 24.1L 16.0152 20C 16.0152 19.8 16.0152 19.6 15.9152 19.4C 15.8152 19.2 15.7152 19.1 15.6152 19C 15.5152 18.9 15.3152 18.7 15.1152 18.7C 14.9152 18.6 14.7152 18.6 14.5152 18.6C 13.9152 18.6 13.4152 18.5 13.0152 18.4C 12.5152 18.3 12.1152 18.1 11.7152 17.9C 11.3152 17.7 10.8152 17.4 10.4152 17.1C 10.0152 16.8 9.51521 16.4 9.11521 15.9C 8.31521 15.1 7.71522 14.2 7.31522 13.2C 6.91522 12.2 6.81522 11.2 6.81522 10C 6.91522 8.9 7.21521 7.80001 7.71521 6.60001C 7.91521 6.10001 8.2152 5.60001 8.5152 5.20001L 3.31522 -5.68434e-14C 2.61522 1 2.01519 2.10001 1.41519 3.20001Z"/>
<path id="path30_fill" d="M 1.19999 3.20001C 0.399994 5.10001 1.2207e-05 7 1.2207e-05 9C 1.2207e-05 11 0.399994 12.9 1.19999 14.9C 1.99999 16.8 3.30001 18.7 4.90001 20.3C 6.60001 22 8.4 23.2 10.3 24C 12.2 24.8 14.2 25.2 16.2 25.2C 18.2 25.2 20.1 24.8 22 24C 23.1 23.5 24.2 22.9 25.2 22.1L 20.1 17C 19.7 17.3 19.2 17.6 18.8 17.8C 17.7 18.4 16.5 18.7 15.4 18.8C 14.3 18.9 13.2 18.7 12.1 18.3C 11 17.9 9.99999 17.2 9.09999 16.2C 8.09999 15.2 7.40001 14.2 7.00001 13.1C 6.60001 12 6.40001 10.9 6.40001 9.79999C 6.50001 8.69999 6.80001 7.59999 7.40001 6.39999C 7.60001 5.89999 7.89999 5.50001 8.19999 5.10001L 3.09999 1.13687e-13C 2.29999 1 1.69999 2.10001 1.19999 3.20001Z"/>
<path id="path31_fill" d="M 5.19999 8.69999C 5.79999 8.19999 6.40001 7.9 7.00001 7.5C 8.10001 6.9 9.30001 6.6 10.4 6.5C 11.5 6.4 12.6 6.6 13.7 7C 14.8 7.4 15.8 8.1 16.8 9.1C 17.8 10.1 18.5 11.1 18.9 12.1C 19.3 13.2 19.5 14.3 19.4 15.4C 19.3 16.5 19 17.6 18.4 18.8C 18.1 19.4 17.7 20 17.2 20.6L 22.3 25.7C 23.2 24.6 24 23.3 24.5 22C 25.3 20.1 25.7 18.2 25.7 16.2C 25.7 14.2 25.3 12.3 24.5 10.3C 23.7 8.4 22.4 6.50001 20.8 4.90001C 19.1 3.20001 17.3 1.99999 15.4 1.19999C 13.5 0.399994 11.5 -3.05176e-06 9.50001 -3.05176e-06C 7.50001 -3.05176e-06 5.59999 0.399994 3.69999 1.19999C 2.39999 1.79999 1.20001 2.50001 1.2207e-05 3.40001L 5.19999 8.69999Z"/>
<path id="path32_fill" d="M 4.99999 8.59999C 5.59999 8.19999 6.20001 7.8 6.80001 7.5C 8.00001 7 9.10001 6.59999 10.2 6.59999C 11.3 6.49999 12.4 6.7 13.5 7.2C 14.6 7.6 15.6 8.3 16.5 9.2C 17 9.7 17.4 10.2 17.8 10.7C 18.1 11.2 18.4 11.6 18.5 12C 18.7 12.4 18.8 12.8 18.9 13.1C 19 13.4 19.1 13.8 19.1 14.1C 19.2 14.4 19.2 14.7 19.3 14.9C 19.4 15.1 19.5 15.3 19.7 15.5C 20 15.8 20.2 15.9 20.5 16C 20.8 16 21 16 21.3 16L 25.3 15.4C 25.3 14.6 25.2 13.7 25.1 12.8C 24.9 11.9 24.7 11.1 24.3 10.2C 23.9 9.3 23.5 8.49999 22.9 7.59999C 22.3 6.69999 21.6 5.89999 20.8 5.09999C 19.1 3.39999 17.3 2.20001 15.4 1.30001C 13.5 0.500006 11.5 3.05176e-06 9.6 3.05176e-06C 7.6 3.05176e-06 5.70001 0.4 3.80001 1.2C 2.50001 1.8 1.19999 2.5 -6.10352e-06 3.5L 4.99999 8.59999Z"/>
<path id="path33_fill" d="M 1.41521 3.19999C 0.515212 4.99999 0.115218 6.9 0.0152185 8.8C -0.0847815 10.7 0.315219 12.6 1.01522 14.4C 1.71522 16.3 2.91519 18 4.61519 19.6C 6.41519 21.4 8.21519 22.6 10.1152 23.4C 12.0152 24.1 13.9152 24.4 15.9152 24.1L 16.0152 20C 16.0152 19.8 16.0152 19.6 15.9152 19.4C 15.8152 19.2 15.7152 19.1 15.6152 19C 15.5152 18.9 15.3152 18.7 15.1152 18.7C 14.9152 18.6 14.7152 18.6 14.5152 18.6C 13.9152 18.6 13.4152 18.5 13.0152 18.4C 12.5152 18.3 12.1152 18.1 11.7152 17.9C 11.3152 17.7 10.8152 17.4 10.4152 17.1C 10.0152 16.8 9.51519 16.4 9.11519 15.9C 8.31519 15.1 7.71521 14.2 7.31521 13.2C 6.91521 12.2 6.81521 11.2 6.81521 10C 6.91521 8.9 7.2152 7.8 7.7152 6.6C 7.9152 6.1 8.21522 5.59999 8.51522 5.19999L 3.31521 -3.05176e-06C 2.51521 1.1 1.91521 2.09999 1.41521 3.19999Z"/>
<path id="path34_fill" d="M 1.20001 3.19999C 0.400006 5.09999 -6.10352e-06 7 -6.10352e-06 9C -6.10352e-06 11 0.400006 12.9 1.20001 14.9C 2.00001 16.8 3.29999 18.7 4.89999 20.3C 6.59999 22 8.40001 23.2 10.3 24C 12.2 24.8 14.2 25.2 16.2 25.2C 18.2 25.2 20.1 24.8 22 24C 23.1 23.5 24.2 22.9 25.2 22.1L 20.1 17C 19.7 17.3 19.2 17.6 18.8 17.8C 17.7 18.4 16.5 18.7 15.4 18.8C 14.3 18.9 13.2 18.7 12.1 18.3C 11 17.9 10 17.2 9.1 16.2C 8.1 15.2 7.39999 14.2 6.99999 13.1C 6.59999 12 6.39999 10.9 6.39999 9.8C 6.49999 8.7 6.79999 7.60001 7.39999 6.40001C 7.59999 5.90001 7.90001 5.5 8.20001 5.1L 3.1 -3.05176e-06C 2.3 0.999997 1.70001 2.09999 1.20001 3.19999Z"/>
<path id="path35_fill" d="M 5.20001 8.70001C 5.80001 8.20001 6.39999 7.89999 6.99999 7.49999C 8.09999 6.89999 9.3 6.59999 10.4 6.49999C 11.5 6.39999 12.6 6.59999 13.7 6.99999C 14.8 7.39999 15.8 8.1 16.8 9.1C 17.8 10.1 18.5 11.1 18.9 12.1C 19.3 13.2 19.5 14.3 19.4 15.4C 19.3 16.5 19 17.6 18.4 18.8C 18.1 19.4 17.7 20 17.2 20.6L 22.3 25.7C 23.2 24.6 24 23.3 24.5 22C 25.3 20.1 25.7 18.2 25.7 16.2C 25.7 14.2 25.3 12.3 24.5 10.3C 23.7 8.4 22.4 6.5 20.8 4.9C 19.1 3.2 17.3 2.00001 15.4 1.20001C 13.5 0.400006 11.5 -6.10352e-06 9.49999 -6.10352e-06C 7.49999 -6.10352e-06 5.60001 0.400006 3.70001 1.20001C 2.40001 1.80001 1.19999 2.5 -6.10352e-06 3.4L 5.20001 8.70001Z"/>
<path id="path36_fill" d="M 5.00001 8.60001C 5.60001 8.20001 6.19999 7.8 6.79999 7.5C 7.99999 7 9.1 6.60001 10.2 6.60001C 11.3 6.50001 12.4 6.7 13.5 7.2C 14.6 7.6 15.6 8.3 16.5 9.2C 17 9.7 17.4 10.2 17.8 10.7C 18.1 11.2 18.4 11.6 18.5 12C 18.7 12.4 18.8 12.8 18.9 13.1C 19 13.4 19.1 13.8 19.1 14.1C 19.2 14.4 19.2 14.7 19.3 14.9C 19.4 15.1 19.5 15.3 19.7 15.5C 20 15.8 20.2 15.9 20.5 16C 20.8 16 21 16 21.3 16L 25.3 15.4C 25.3 14.6 25.2 13.7 25.1 12.8C 24.9 11.9 24.7 11.1 24.3 10.2C 23.9 9.3 23.5 8.50001 22.9 7.60001C 22.3 6.70001 21.6 5.90001 20.8 5.10001C 19.1 3.40001 17.3 2.2 15.4 1.3C 13.5 0.500003 11.5 0 9.6 0C 7.6 0 5.69999 0.399997 3.79999 1.2C 2.49999 1.8 1.20001 2.5 6.10352e-06 3.5L 5.00001 8.60001Z"/>
<path id="path37_fill" d="M 1.41521 3.20001C 0.515209 5.00001 0.1152 6.9 0.0152001 8.8C -0.0847999 10.7 0.3152 12.6 1.0152 14.4C 1.7152 16.3 2.91521 18 4.61521 19.6C 6.41521 21.4 8.21521 22.6 10.1152 23.4C 12.0152 24.1 13.9152 24.4 15.9152 24.1L 16.0152 20C 16.0152 19.8 16.0152 19.6 15.9152 19.4C 15.8152 19.2 15.7152 19.1 15.6152 19C 15.5152 18.9 15.3152 18.7 15.1152 18.7C 14.9152 18.6 14.7152 18.6 14.5152 18.6C 13.9152 18.6 13.4152 18.5 13.0152 18.4C 12.5152 18.3 12.1152 18.1 11.7152 17.9C 11.3152 17.7 10.8152 17.4 10.4152 17.1C 10.0152 16.8 9.51521 16.4 9.11521 15.9C 8.31521 15.1 7.7152 14.2 7.3152 13.2C 6.9152 12.2 6.8152 11.2 6.8152 9.99999C 6.9152 8.89999 7.21521 7.8 7.71521 6.6C 7.91521 6.1 8.2152 5.60001 8.5152 5.20001L 3.3152 -6.10352e-06C 2.6152 1.09999 1.91521 2.10001 1.41521 3.20001Z"/>
<path id="path38_fill" d="M 1.19999 3.2C 0.399994 5.1 -3.05176e-06 7 -3.05176e-06 9C -3.05176e-06 11 0.399994 12.9 1.19999 14.9C 1.99999 16.8 3.30001 18.7 4.90001 20.3C 6.60001 22 8.4 23.2 10.3 24C 12.2 24.8 14.2 25.2 16.2 25.2C 18.2 25.2 20.1 24.8 22 24C 23.1 23.5 24.2 22.9 25.2 22.1L 20.1 17C 19.7 17.3 19.2 17.6 18.8 17.8C 17.7 18.4 16.5 18.7 15.4 18.8C 14.3 18.9 13.2 18.7 12.1 18.3C 11 17.9 10 17.2 9.1 16.2C 8.1 15.2 7.4 14.2 7 13.1C 6.6 12 6.40001 10.9 6.40001 9.8C 6.50001 8.7 6.80001 7.59999 7.40001 6.39999C 7.60001 5.89999 7.89999 5.50001 8.19999 5.10001L 3.1 0C 2.3 1 1.59999 2 1.19999 3.2Z"/>
<path id="path39_fill" d="M 5.19999 8.69999C 5.79999 8.19999 6.40001 7.90001 7.00001 7.50001C 8.10001 6.90001 9.30001 6.60001 10.4 6.50001C 11.5 6.40001 12.6 6.60001 13.7 7.00001C 14.8 7.40001 15.8 8.10001 16.8 9.10001C 17.8 10.1 18.5 11.1 18.9 12.1C 19.3 13.2 19.5 14.3 19.4 15.4C 19.3 16.5 19 17.6 18.4 18.8C 18.1 19.4 17.7 20 17.2 20.6L 22.3 25.7C 23.2 24.6 24 23.3 24.5 22C 25.3 20.1 25.7 18.2 25.7 16.2C 25.7 14.2 25.3 12.3 24.5 10.3C 23.7 8.39999 22.4 6.5 20.8 4.9C 19.1 3.2 17.3 1.99999 15.4 1.19999C 13.5 0.399988 11.5 6.10352e-06 9.50001 6.10352e-06C 7.50001 6.10352e-06 5.59999 0.399988 3.69999 1.19999C 2.39999 1.79999 1.20001 2.5 1.2207e-05 3.4L 5.19999 8.69999Z"/>
<path id="path40_fill" d="M 5 8.59999C 5.6 8.19999 6.19999 7.79999 6.79999 7.49999C 7.99999 6.99999 9.10001 6.59999 10.2 6.59999C 11.3 6.49999 12.4 6.7 13.5 7.2C 14.6 7.6 15.6 8.3 16.5 9.2C 17 9.7 17.4 10.2 17.8 10.7C 18.1 11.2 18.4 11.6 18.5 12C 18.7 12.4 18.8 12.8 18.9 13.1C 19 13.4 19.1 13.8 19.1 14.1C 19.2 14.4 19.2 14.7 19.3 14.9C 19.4 15.1 19.5 15.3 19.7 15.5C 20 15.8 20.2 15.9 20.5 16C 20.8 16 21 16 21.3 16L 25.3 15.4C 25.3 14.6 25.2 13.7 25.1 12.8C 24.9 11.9 24.7 11.1 24.3 10.2C 23.9 9.3 23.5 8.49999 22.9 7.59999C 22.3 6.69999 21.6 5.89999 20.8 5.09999C 19.1 3.39999 17.3 2.20001 15.4 1.30001C 13.5 0.500006 11.5 -1.2207e-05 9.60001 -1.2207e-05C 7.60001 -1.2207e-05 5.69999 0.4 3.79999 1.2C 2.49999 1.8 1.2 2.49999 5.68434e-14 3.49999L 5 8.59999Z"/>
<path id="path41_fill" d="M 1.41521 3.19999C 0.515212 4.99999 0.115218 6.9 0.0152185 8.8C -0.0847815 10.7 0.315219 12.6 1.01522 14.4C 1.71522 16.3 2.91519 18 4.61519 19.6C 6.41519 21.4 8.21519 22.6 10.1152 23.4C 12.0152 24.1 13.9152 24.4 15.9152 24.1L 16.0152 20C 16.0152 19.8 16.0152 19.6 15.9152 19.4C 15.8152 19.2 15.7152 19.1 15.6152 19C 15.5152 18.9 15.3152 18.7 15.1152 18.7C 14.9152 18.6 14.7152 18.6 14.5152 18.6C 13.9152 18.6 13.4152 18.5 13.0152 18.4C 12.5152 18.3 12.1152 18.1 11.7152 17.9C 11.3152 17.7 10.8152 17.4 10.4152 17.1C 10.0152 16.8 9.51519 16.4 9.11519 15.9C 8.31519 15.1 7.71521 14.2 7.31521 13.2C 6.91521 12.2 6.81521 11.2 6.81521 10C 6.91521 8.90001 7.2152 7.79999 7.7152 6.59999C 7.9152 6.09999 8.21522 5.59999 8.51522 5.19999L 3.31521 1.2207e-05C 2.61521 1.00001 1.91521 2.09999 1.41521 3.19999Z"/>
<path id="path42_fill" d="M 1.20001 3.19999C 0.400012 5.09999 0 7.00001 0 9.00001C 0 11 0.400012 12.9 1.20001 14.9C 2.00001 16.8 3.29999 18.7 4.89999 20.3C 6.59999 22 8.39999 23.2 10.3 24C 12.2 24.8 14.2 25.2 16.2 25.2C 18.2 25.2 20.1 24.8 22 24C 23.1 23.5 24.2 22.9 25.2 22.1L 20.1 17C 19.7 17.3 19.2 17.6 18.8 17.8C 17.7 18.4 16.5 18.7 15.4 18.8C 14.3 18.9 13.2 18.7 12.1 18.3C 11 17.9 10 17.2 9.10001 16.2C 8.10001 15.2 7.4 14.2 7 13.1C 6.6 12 6.39999 10.9 6.39999 9.8C 6.49999 8.7 6.79999 7.60001 7.39999 6.40001C 7.59999 5.90001 7.90001 5.49999 8.20001 5.09999L 3.10001 1.2207e-05C 2.30001 1.00001 1.70001 2.09999 1.20001 3.19999Z"/>
<path id="path43_fill" d="M 5.20001 8.7C 5.80001 8.2 6.39999 7.89999 6.99999 7.49999C 8.09999 6.89999 9.29999 6.59999 10.4 6.49999C 11.5 6.39999 12.6 6.59999 13.7 6.99999C 14.8 7.39999 15.8 8.09999 16.8 9.09999C 17.8 10.1 18.5 11.1 18.9 12.1C 19.3 13.2 19.5 14.3 19.4 15.4C 19.3 16.5 19 17.6 18.4 18.8C 18.1 19.4 17.7 20 17.2 20.6L 22.3 25.7C 23.2 24.6 24 23.3 24.5 22C 25.3 20.1 25.7 18.2 25.7 16.2C 25.7 14.2 25.3 12.3 24.5 10.3C 23.7 8.40001 22.4 6.50001 20.8 4.90001C 19.1 3.20001 17.3 2 15.4 1.2C 13.5 0.4 11.5 -1.2207e-05 9.49999 -1.2207e-05C 7.49999 -1.2207e-05 5.60001 0.4 3.70001 1.2C 2.40001 1.8 1.19999 2.50001 -6.10352e-06 3.40001L 5.20001 8.7Z"/>
<path id="path44_fill" d="M 5.00001 8.60001C 5.60001 8.20001 6.2 7.8 6.8 7.5C 8 7 9.09999 6.60001 10.2 6.60001C 11.3 6.50001 12.4 6.70001 13.5 7.20001C 14.6 7.60001 15.6 8.30001 16.5 9.20001C 17 9.70001 17.4 10.2 17.8 10.7C 18.1 11.2 18.4 11.6 18.5 12C 18.7 12.4 18.8 12.8 18.9 13.1C 19 13.4 19.1 13.8 19.1 14.1C 19.2 14.4 19.2 14.7 19.3 14.9C 19.4 15.1 19.5 15.3 19.7 15.5C 20 15.8 20.2 15.9 20.5 16C 20.8 16 21 16 21.3 16L 25.3 15.4C 25.3 14.6 25.2 13.7 25.1 12.8C 24.9 11.9 24.7 11.1 24.3 10.2C 23.9 9.30001 23.5 8.50001 22.9 7.60001C 22.3 6.70001 21.6 5.90001 20.8 5.10001C 19.1 3.40001 17.3 2.19999 15.4 1.29999C 13.5 0.499988 11.5 0 9.59999 0C 7.59999 0 5.7 0.400012 3.8 1.20001C 2.5 1.80001 1.20001 2.5 1.2207e-05 3.5L 5.00001 8.60001Z"/>
<path id="path45_fill" d="M 1.41519 3.20001C 0.515194 5.00001 0.1152 6.90001 0.0152001 8.80001C -0.0847999 10.7 0.3152 12.6 1.0152 14.4C 1.7152 16.3 2.91521 18 4.61521 19.6C 6.41521 21.4 8.21521 22.6 10.1152 23.4C 12.0152 24.1 13.9152 24.4 15.9152 24.1L 16.0152 20C 16.0152 19.8 16.0152 19.6 15.9152 19.4C 15.8152 19.2 15.7152 19.1 15.6152 19C 15.5152 18.9 15.3152 18.7 15.1152 18.7C 14.9152 18.6 14.7152 18.6 14.5152 18.6C 13.9152 18.6 13.4152 18.5 13.0152 18.4C 12.5152 18.3 12.1152 18.1 11.7152 17.9C 11.3152 17.7 10.8152 17.4 10.4152 17.1C 10.0152 16.8 9.51521 16.4 9.11521 15.9C 8.31521 15.1 7.71522 14.2 7.31522 13.2C 6.91522 12.2 6.81522 11.2 6.81522 9.99999C 6.91522 8.89999 7.21521 7.8 7.71521 6.6C 7.91521 6.1 8.2152 5.60001 8.5152 5.20001L 3.31522 -6.10352e-06C 2.61522 0.999994 2.01519 2.10001 1.41519 3.20001Z"/>
<path id="path46_fill" d="M 1.19999 3.20001C 0.399994 5.10001 1.2207e-05 6.99999 1.2207e-05 8.99999C 1.2207e-05 11 0.399994 12.9 1.19999 14.9C 1.99999 16.8 3.30001 18.7 4.90001 20.3C 6.60001 22 8.4 23.2 10.3 24C 12.2 24.8 14.2 25.2 16.2 25.2C 18.2 25.2 20.1 24.8 22 24C 23.1 23.5 24.2 22.9 25.2 22.1L 20.1 17C 19.7 17.3 19.2 17.6 18.8 17.8C 17.7 18.4 16.5 18.7 15.4 18.8C 14.3 18.9 13.2 18.7 12.1 18.3C 11 17.9 9.99999 17.2 9.09999 16.2C 8.09999 15.2 7.40001 14.2 7.00001 13.1C 6.60001 12 6.40001 10.9 6.40001 9.80001C 6.50001 8.70001 6.80001 7.59999 7.40001 6.39999C 7.60001 5.89999 7.89999 5.5 8.19999 5.1L 3.09999 -6.10352e-06C 2.29999 0.999994 1.69999 2.10001 1.19999 3.20001Z"/>
<path id="path47_fill" d="M 5.19999 8.69999C 5.79999 8.19999 6.40001 7.90001 7.00001 7.50001C 8.10001 6.90001 9.30001 6.60001 10.4 6.50001C 11.5 6.40001 12.6 6.60001 13.7 7.00001C 14.8 7.40001 15.8 8.10001 16.8 9.10001C 17.8 10.1 18.5 11.1 18.9 12.1C 19.3 13.2 19.5 14.3 19.4 15.4C 19.3 16.5 19 17.6 18.4 18.8C 18.1 19.4 17.7 20 17.2 20.6L 22.3 25.7C 23.2 24.6 24 23.3 24.5 22C 25.3 20.1 25.7 18.2 25.7 16.2C 25.7 14.2 25.3 12.3 24.5 10.3C 23.7 8.39999 22.4 6.5 20.8 4.9C 19.1 3.2 17.3 2 15.4 1.2C 13.5 0.400003 11.5 6.10352e-06 9.50001 6.10352e-06C 7.50001 6.10352e-06 5.59999 0.400003 3.69999 1.2C 2.39999 1.8 1.20001 2.5 1.2207e-05 3.4L 5.19999 8.69999Z"/>
<path id="path48_fill" d="M 4.99999 8.6C 5.59999 8.2 6.2 7.8 6.8 7.5C 8 7 9.10001 6.6 10.2 6.6C 11.3 6.5 12.4 6.69999 13.5 7.19999C 14.6 7.59999 15.6 8.29999 16.5 9.19999C 17 9.69999 17.4 10.2 17.8 10.7C 18.1 11.2 18.4 11.6 18.5 12C 18.7 12.4 18.8 12.8 18.9 13.1C 19 13.4 19.1 13.8 19.1 14.1C 19.2 14.4 19.2 14.7 19.3 14.9C 19.4 15.1 19.5 15.3 19.7 15.5C 20 15.8 20.2 15.9 20.5 16C 20.8 16 21 16 21.3 16L 25.3 15.4C 25.3 14.6 25.2 13.7 25.1 12.8C 24.9 11.9 24.7 11.1 24.3 10.2C 23.9 9.29999 23.5 8.5 22.9 7.6C 22.3 6.7 21.6 5.9 20.8 5.1C 19.1 3.4 17.3 2.2 15.4 1.3C 13.5 0.5 11.5 -3.05176e-06 9.6 -3.05176e-06C 7.6 -3.05176e-06 5.7 0.399994 3.8 1.19999C 2.5 1.79999 1.19999 2.5 -6.10352e-06 3.5L 4.99999 8.6Z"/>
<path id="path49_fill" d="M 1.41521 3.2C 0.515212 5 0.115203 6.89999 0.0152032 8.79999C -0.0847968 10.7 0.315203 12.6 1.0152 14.4C 1.7152 16.3 2.91521 18 4.61521 19.6C 6.41521 21.4 8.21521 22.6 10.1152 23.4C 12.0152 24.1 13.9152 24.4 15.9152 24.1L 16.0152 20C 16.0152 19.8 16.0152 19.6 15.9152 19.4C 15.8152 19.2 15.7152 19.1 15.6152 19C 15.5152 18.9 15.3152 18.7 15.1152 18.7C 14.9152 18.6 14.7152 18.6 14.5152 18.6C 13.9152 18.6 13.4152 18.5 13.0152 18.4C 12.5152 18.3 12.1152 18.1 11.7152 17.9C 11.3152 17.7 10.8152 17.4 10.4152 17.1C 10.0152 16.8 9.51521 16.4 9.11521 15.9C 8.31521 15.1 7.71521 14.2 7.31521 13.2C 6.91521 12.2 6.81521 11.2 6.81521 10C 6.91521 8.90001 7.2152 7.8 7.7152 6.6C 7.9152 6.1 8.2152 5.6 8.5152 5.2L 3.31521 6.10352e-06C 2.51521 1.00001 1.91521 2.1 1.41521 3.2Z"/>
<path id="path50_fill" d="M 1.20001 3.19999C 0.400006 5.09999 -6.10352e-06 7.00001 -6.10352e-06 9.00001C -6.10352e-06 11 0.400006 12.9 1.20001 14.9C 2.00001 16.8 3.29999 18.7 4.89999 20.3C 6.59999 22 8.40001 23.2 10.3 24C 12.2 24.8 14.2 25.2 16.2 25.2C 18.2 25.2 20.1 24.8 22 24C 23.1 23.5 24.2 22.9 25.2 22.1L 20.1 17C 19.7 17.3 19.2 17.6 18.8 17.8C 17.7 18.4 16.5 18.7 15.4 18.8C 14.3 18.9 13.2 18.7 12.1 18.3C 11 17.9 10 17.2 9.1 16.2C 8.1 15.2 7.39999 14.2 6.99999 13.1C 6.59999 12 6.39999 10.9 6.39999 9.79999C 6.49999 8.69999 6.79999 7.6 7.39999 6.4C 7.59999 5.9 7.90001 5.50001 8.20001 5.10001L 3.1 6.10352e-06C 2.4 1.00001 1.70001 2.09999 1.20001 3.19999Z"/>
<path id="path51_fill" d="M 5.20001 8.7C 5.80001 8.2 6.39999 7.9 6.99999 7.5C 8.09999 6.9 9.3 6.6 10.4 6.5C 11.5 6.4 12.6 6.6 13.7 7C 14.8 7.4 15.8 8.09999 16.8 9.09999C 17.8 10.1 18.5 11.1 18.9 12.1C 19.3 13.2 19.5 14.3 19.4 15.4C 19.3 16.5 19 17.6 18.4 18.8C 18.1 19.4 17.7 20 17.2 20.6L 22.3 25.7C 23.2 24.6 24 23.3 24.5 22C 25.3 20.1 25.7 18.2 25.7 16.2C 25.7 14.2 25.3 12.3 24.5 10.3C 23.7 8.40001 22.4 6.5 20.8 4.9C 19.1 3.2 17.3 2 15.4 1.2C 13.5 0.4 11.5 3.05176e-06 9.49999 3.05176e-06C 7.49999 3.05176e-06 5.60001 0.4 3.70001 1.2C 2.40001 1.8 1.19999 2.5 -6.10352e-06 3.4L 5.20001 8.7Z"/>
<path id="path52_fill" d="M 5.00001 8.6C 5.60001 8.2 6.19999 7.79999 6.79999 7.49999C 7.99999 6.99999 9.1 6.6 10.2 6.6C 11.3 6.5 12.4 6.70001 13.5 7.20001C 14.6 7.60001 15.6 8.30001 16.5 9.20001C 17 9.70001 17.4 10.2 17.8 10.7C 18.1 11.2 18.4 11.6 18.5 12C 18.7 12.4 18.8 12.8 18.9 13.1C 19 13.4 19.1 13.8 19.1 14.1C 19.2 14.4 19.2 14.7 19.3 14.9C 19.4 15.1 19.5 15.3 19.7 15.5C 20 15.8 20.2 15.9 20.5 16C 20.8 16 21 16 21.3 16L 25.3 15.4C 25.3 14.6 25.2 13.7 25.1 12.8C 24.9 11.9 24.7 11.1 24.3 10.2C 23.9 9.30001 23.5 8.5 22.9 7.6C 22.3 6.7 21.6 5.9 20.8 5.1C 19.1 3.4 17.3 2.2 15.4 1.3C 13.5 0.499997 11.5 -6.10352e-06 9.6 -6.10352e-06C 7.6 -6.10352e-06 5.69999 0.400006 3.79999 1.20001C 2.49999 1.80001 1.20001 2.49999 6.10352e-06 3.49999L 5.00001 8.6Z"/>
<path id="path53_fill" d="M 1.41521 3.2C 0.515209 5 0.1152 6.90001 0.0152001 8.80001C -0.0847999 10.7 0.3152 12.6 1.0152 14.4C 1.7152 16.3 2.91521 18 4.61521 19.6C 6.41521 21.4 8.21521 22.6 10.1152 23.4C 12.0152 24.1 13.9152 24.4 15.9152 24.1L 16.0152 20C 16.0152 19.8 16.0152 19.6 15.9152 19.4C 15.8152 19.2 15.7152 19.1 15.6152 19C 15.5152 18.9 15.3152 18.7 15.1152 18.7C 14.9152 18.6 14.7152 18.6 14.5152 18.6C 13.9152 18.6 13.4152 18.5 13.0152 18.4C 12.5152 18.3 12.1152 18.1 11.7152 17.9C 11.3152 17.7 10.8152 17.4 10.4152 17.1C 10.0152 16.8 9.51521 16.4 9.11521 15.9C 8.31521 15.1 7.7152 14.2 7.3152 13.2C 6.9152 12.2 6.8152 11.2 6.8152 10C 6.9152 8.9 7.21521 7.79999 7.71521 6.59999C 7.91521 6.09999 8.2152 5.6 8.5152 5.2L 3.3152 3.05176e-06C 2.6152 1.1 1.91521 2.1 1.41521 3.2Z"/>
<path id="path54_fill" d="M 1.19999 3.2C 0.399994 5.1 -3.05176e-06 7 -3.05176e-06 9C -3.05176e-06 11 0.399994 12.9 1.19999 14.9C 1.99999 16.8 3.30001 18.7 4.90001 20.3C 6.60001 22 8.4 23.2 10.3 24C 12.2 24.8 14.2 25.2 16.2 25.2C 18.2 25.2 20.1 24.8 22 24C 23.1 23.5 24.2 22.9 25.2 22.1L 20.1 17C 19.7 17.3 19.2 17.6 18.8 17.8C 17.7 18.4 16.5 18.7 15.4 18.8C 14.3 18.9 13.2 18.7 12.1 18.3C 11 17.9 10 17.2 9.1 16.2C 8.1 15.2 7.4 14.2 7 13.1C 6.6 12 6.40001 10.9 6.40001 9.80001C 6.50001 8.70001 6.80001 7.6 7.40001 6.4C 7.60001 5.9 7.89999 5.49999 8.19999 5.09999L 3.1 3.05176e-06C 2.3 1 1.69999 2.1 1.19999 3.2Z"/>
<path id="path55_fill" d="M 5.19999 8.70001C 5.79999 8.20001 6.40001 7.9 7.00001 7.5C 8.10001 6.9 9.30001 6.6 10.4 6.5C 11.5 6.4 12.6 6.6 13.7 7C 14.8 7.4 15.8 8.10001 16.8 9.10001C 17.8 10.1 18.5 11.1 18.9 12.1C 19.3 13.2 19.5 14.3 19.4 15.4C 19.3 16.5 19 17.6 18.4 18.8C 18.1 19.4 17.7 20 17.2 20.6L 22.3 25.7C 23.2 24.6 24 23.3 24.5 22C 25.3 20.1 25.7 18.2 25.7 16.2C 25.7 14.2 25.3 12.3 24.5 10.3C 23.7 8.39999 22.4 6.49999 20.8 4.89999C 19.1 3.19999 17.3 2.00001 15.4 1.20001C 13.5 0.400012 11.5 -1.13687e-13 9.50001 -1.13687e-13C 7.50001 -1.13687e-13 5.59999 0.400012 3.69999 1.20001C 2.39999 1.80001 1.20001 2.49999 1.2207e-05 3.39999L 5.19999 8.70001Z"/>
<path id="path56_fill" d="M 5 8.60001C 5.6 8.20001 6.19999 7.80001 6.79999 7.50001C 7.99999 7.00001 9.10001 6.60001 10.2 6.60001C 11.3 6.50001 12.4 6.69999 13.5 7.19999C 14.6 7.59999 15.6 8.29999 16.5 9.19999C 17 9.69999 17.4 10.2 17.8 10.7C 18.1 11.2 18.4 11.6 18.5 12C 18.7 12.4 18.8 12.8 18.9 13.1C 19 13.4 19.1 13.8 19.1 14.1C 19.2 14.4 19.2 14.7 19.3 14.9C 19.4 15.1 19.5 15.3 19.7 15.5C 20 15.8 20.2 15.9 20.5 16C 20.8 16 21 16 21.3 16L 25.3 15.4C 25.3 14.6 25.2 13.7 25.1 12.8C 24.9 11.9 24.7 11.1 24.3 10.2C 23.9 9.29999 23.5 8.50001 22.9 7.60001C 22.3 6.70001 21.6 5.90001 20.8 5.10001C 19.1 3.40001 17.3 2.19999 15.4 1.29999C 13.5 0.499994 11.5 6.10352e-06 9.60001 6.10352e-06C 7.60001 6.10352e-06 5.69999 0.399988 3.79999 1.19999C 2.49999 1.79999 1.2 2.50001 5.68434e-14 3.50001L 5 8.60001Z"/>
<path id="path57_fill" d="M 1.41521 3.19999C 0.515212 4.99999 0.115218 6.89999 0.0152185 8.79999C -0.0847815 10.7 0.315219 12.6 1.01522 14.4C 1.71522 16.3 2.91519 18 4.61519 19.6C 6.41519 21.4 8.21519 22.6 10.1152 23.4C 12.0152 24.1 13.9152 24.4 15.9152 24.1L 16.0152 20C 16.0152 19.8 16.0152 19.6 15.9152 19.4C 15.8152 19.2 15.7152 19.1 15.6152 19C 15.5152 18.9 15.3152 18.7 15.1152 18.7C 14.9152 18.6 14.7152 18.6 14.5152 18.6C 13.9152 18.6 13.4152 18.5 13.0152 18.4C 12.5152 18.3 12.1152 18.1 11.7152 17.9C 11.3152 17.7 10.8152 17.4 10.4152 17.1C 10.0152 16.8 9.51519 16.4 9.11519 15.9C 8.31519 15.1 7.71521 14.2 7.31521 13.2C 6.91521 12.2 6.81521 11.2 6.81521 10C 6.91521 8.90001 7.2152 7.80001 7.7152 6.60001C 7.9152 6.10001 8.21522 5.59999 8.51522 5.19999L 3.31521 6.10352e-06C 2.61521 1.00001 1.91521 2.09999 1.41521 3.19999Z"/>
<path id="path58_fill" d="M 1.20001 3.19999C 0.400012 5.09999 0 7.00001 0 9.00001C 0 11 0.400012 12.9 1.20001 14.9C 2.00001 16.8 3.29999 18.7 4.89999 20.3C 6.59999 22 8.39999 23.2 10.3 24C 12.2 24.8 14.2 25.2 16.2 25.2C 18.2 25.2 20.1 24.8 22 24C 23.1 23.5 24.2 22.9 25.2 22.1L 20.1 17C 19.7 17.3 19.2 17.6 18.8 17.8C 17.7 18.4 16.5 18.7 15.4 18.8C 14.3 18.9 13.2 18.7 12.1 18.3C 11 17.9 10 17.2 9.10001 16.2C 8.10001 15.2 7.4 14.2 7 13.1C 6.6 12 6.39999 10.9 6.39999 9.79999C 6.49999 8.69999 6.79999 7.6 7.39999 6.4C 7.59999 5.9 7.90001 5.50001 8.20001 5.10001L 3.10001 6.10352e-06C 2.30001 1.00001 1.70001 1.99999 1.20001 3.19999Z"/>
<path id="path59_fill" d="M 5.20001 8.69999C 5.80001 8.19999 6.39999 7.90001 6.99999 7.50001C 8.09999 6.90001 9.29999 6.60001 10.4 6.50001C 11.5 6.40001 12.6 6.60001 13.7 7.00001C 14.8 7.40001 15.8 8.09999 16.8 9.09999C 17.8 10.1 18.5 11.1 18.9 12.1C 19.3 13.2 19.5 14.3 19.4 15.4C 19.3 16.5 19 17.6 18.4 18.8C 18.1 19.4 17.7 20 17.2 20.6L 22.3 25.7C 23.2 24.6 24 23.3 24.5 22C 25.3 20.1 25.7 18.2 25.7 16.2C 25.7 14.2 25.3 12.3 24.5 10.3C 23.7 8.4 22.4 6.50001 20.8 4.90001C 19.1 3.20001 17.3 1.99999 15.4 1.19999C 13.5 0.399994 11.5 1.2207e-05 9.49999 1.2207e-05C 7.49999 1.2207e-05 5.60001 0.399994 3.70001 1.19999C 2.40001 1.79999 1.19999 2.50001 -6.10352e-06 3.40001L 5.20001 8.69999Z"/>
<path id="path60_fill" d="M 5.00001 8.6C 5.60001 8.2 6.2 7.79999 6.8 7.49999C 8 6.99999 9.09999 6.6 10.2 6.6C 11.3 6.5 12.4 6.70001 13.5 7.20001C 14.6 7.60001 15.6 8.30001 16.5 9.20001C 17 9.70001 17.4 10.2 17.8 10.7C 18.1 11.2 18.4 11.6 18.5 12C 18.7 12.4 18.8 12.8 18.9 13.1C 19 13.4 19.1 13.8 19.1 14.1C 19.2 14.4 19.2 14.7 19.3 14.9C 19.4 15.1 19.5 15.3 19.7 15.5C 20 15.8 20.2 15.9 20.5 16C 20.8 16 21 16 21.3 16L 25.3 15.4C 25.3 14.6 25.2 13.7 25.1 12.8C 24.9 11.9 24.7 11.1 24.3 10.2C 23.9 9.30001 23.5 8.5 22.9 7.6C 22.3 6.7 21.6 5.9 20.8 5.1C 19.1 3.4 17.3 2.20001 15.4 1.30001C 13.5 0.500012 11.5 -6.10352e-06 9.59999 -6.10352e-06C 7.59999 -6.10352e-06 5.7 0.400006 3.8 1.20001C 2.5 1.80001 1.20001 2.49999 1.2207e-05 3.49999L 5.00001 8.6Z"/>
<path id="path61_fill" d="M 1.41519 3.2C 0.515194 5 0.1152 6.90001 0.0152001 8.80001C -0.0847999 10.7 0.3152 12.6 1.0152 14.4C 1.7152 16.3 2.91521 18 4.61521 19.6C 6.41521 21.4 8.21521 22.6 10.1152 23.4C 12.0152 24.1 13.9152 24.4 15.9152 24.1L 16.0152 20C 16.0152 19.8 16.0152 19.6 15.9152 19.4C 15.8152 19.2 15.7152 19.1 15.6152 19C 15.5152 18.9 15.3152 18.7 15.1152 18.7C 14.9152 18.6 14.7152 18.6 14.5152 18.6C 13.9152 18.6 13.4152 18.5 13.0152 18.4C 12.5152 18.3 12.1152 18.1 11.7152 17.9C 11.3152 17.7 10.8152 17.4 10.4152 17.1C 10.0152 16.8 9.51521 16.4 9.11521 15.9C 8.31521 15.1 7.71522 14.2 7.31522 13.2C 6.91522 12.2 6.81522 11.2 6.81522 9.99999C 6.91522 8.89999 7.21521 7.79999 7.71521 6.59999C 7.91521 6.09999 8.2152 5.6 8.5152 5.2L 3.31522 -1.2207e-05C 2.61522 0.999988 2.01519 2.1 1.41519 3.2Z"/>
<path id="path62_fill" d="M 1.19999 3.2C 0.399994 5.1 1.2207e-05 6.99999 1.2207e-05 8.99999C 1.2207e-05 11 0.399994 12.9 1.19999 14.9C 1.99999 16.8 3.30001 18.7 4.90001 20.3C 6.60001 22 8.4 23.2 10.3 24C 12.2 24.8 14.2 25.2 16.2 25.2C 18.2 25.2 20.1 24.8 22 24C 23.1 23.5 24.2 22.9 25.2 22.1L 20.1 17C 19.7 17.3 19.2 17.6 18.8 17.8C 17.7 18.4 16.5 18.7 15.4 18.8C 14.3 18.9 13.2 18.7 12.1 18.3C 11 17.9 9.99999 17.2 9.09999 16.2C 8.09999 15.2 7.40001 14.2 7.00001 13.1C 6.60001 12 6.40001 10.9 6.40001 9.80001C 6.50001 8.70001 6.80001 7.60001 7.40001 6.40001C 7.60001 5.90001 7.89999 5.49999 8.19999 5.09999L 3.09999 -1.2207e-05C 2.29999 0.999988 1.69999 2.1 1.19999 3.2Z"/>
<path id="path63_fill" d="M 5.19999 8.70001C 5.79999 8.20001 6.4 7.89999 7 7.49999C 8.1 6.89999 9.30001 6.59999 10.4 6.49999C 11.5 6.39999 12.6 6.59999 13.7 6.99999C 14.8 7.39999 15.8 8.1 16.8 9.1C 17.8 10.1 18.5 11.1 18.9 12.1C 19.3 13.2 19.5 14.3 19.4 15.4C 19.3 16.5 19 17.6 18.4 18.8C 18.1 19.4 17.7 20 17.2 20.6L 22.3 25.7C 23.2 24.6 24 23.3 24.5 22C 25.3 20.1 25.7 18.2 25.7 16.2C 25.7 14.2 25.3 12.3 24.5 10.3C 23.7 8.40001 22.4 6.49999 20.8 4.89999C 19.1 3.19999 17.3 2.00001 15.4 1.20001C 13.5 0.400006 11.5 -6.10352e-06 9.5 -6.10352e-06C 7.5 -6.10352e-06 5.59999 0.400006 3.69999 1.20001C 2.39999 1.80001 1.2 2.49999 -3.05176e-06 3.39999L 5.19999 8.70001Z"/>
<path id="path64_fill" d="M 4.99999 8.60001C 5.59999 8.20001 6.2 7.80001 6.8 7.50001C 8 7.00001 9.10001 6.60001 10.2 6.60001C 11.3 6.50001 12.4 6.69999 13.5 7.19999C 14.6 7.59999 15.6 8.29999 16.5 9.19999C 17 9.69999 17.4 10.2 17.8 10.7C 18.1 11.2 18.4 11.6 18.5 12C 18.7 12.4 18.8 12.8 18.9 13.1C 19 13.4 19.1 13.8 19.1 14.1C 19.2 14.4 19.2 14.7 19.3 14.9C 19.4 15.1 19.5 15.3 19.7 15.5C 20 15.8 20.2 15.9 20.5 16C 20.8 16 21 16 21.3 16L 25.3 15.4C 25.3 14.6 25.2 13.7 25.1 12.8C 24.9 11.9 24.7 11.1 24.3 10.2C 23.9 9.29999 23.5 8.50001 22.9 7.60001C 22.3 6.70001 21.6 5.9 20.8 5.1C 19.1 3.4 17.3 2.19999 15.4 1.29999C 13.5 0.499994 11.5 6.10352e-06 9.6 6.10352e-06C 7.6 6.10352e-06 5.7 0.400003 3.8 1.2C 2.5 1.8 1.19999 2.50001 -6.10352e-06 3.50001L 4.99999 8.60001Z"/>
<path id="path65_fill" d="M 1.41521 3.20001C 0.515212 5.00001 0.115203 6.89999 0.0152032 8.79999C -0.0847968 10.7 0.315203 12.6 1.0152 14.4C 1.7152 16.3 2.91521 18 4.61521 19.6C 6.41521 21.4 8.21521 22.6 10.1152 23.4C 12.0152 24.1 13.9152 24.4 15.9152 24.1L 16.0152 20C 16.0152 19.8 16.0152 19.6 15.9152 19.4C 15.8152 19.2 15.7152 19.1 15.6152 19C 15.5152 18.9 15.3152 18.7 15.1152 18.7C 14.9152 18.6 14.7152 18.6 14.5152 18.6C 13.9152 18.6 13.4152 18.5 13.0152 18.4C 12.5152 18.3 12.1152 18.1 11.7152 17.9C 11.3152 17.7 10.8152 17.4 10.4152 17.1C 10.0152 16.8 9.51521 16.4 9.11521 15.9C 8.31521 15.1 7.71521 14.2 7.31521 13.2C 6.91521 12.2 6.81521 11.2 6.81521 10C 6.91521 8.9 7.2152 7.80001 7.7152 6.60001C 7.9152 6.10001 8.2152 5.60001 8.5152 5.20001L 3.31521 -5.68434e-14C 2.51521 1 1.91521 2.10001 1.41521 3.20001Z"/>
<path id="path66_fill" d="M 1.2 3.20001C 0.399997 5.10001 0 7 0 9C 0 11 0.399997 12.9 1.2 14.9C 2 16.8 3.29999 18.7 4.89999 20.3C 6.59999 22 8.4 23.2 10.3 24C 12.2 24.8 14.2 25.2 16.2 25.2C 18.2 25.2 20.1 24.8 22 24C 23.1 23.5 24.2 22.9 25.2 22.1L 20.1 17C 19.7 17.3 19.2 17.6 18.8 17.8C 17.7 18.4 16.5 18.7 15.4 18.8C 14.3 18.9 13.2 18.7 12.1 18.3C 11 17.9 10 17.2 9.10001 16.2C 8.10001 15.2 7.4 14.2 7 13.1C 6.6 12 6.39999 10.9 6.39999 9.79999C 6.49999 8.69999 6.79999 7.59999 7.39999 6.39999C 7.59999 5.89999 7.9 5.50001 8.2 5.10001L 3.10001 1.13687e-13C 2.30001 1 1.6 2.10001 1.2 3.20001Z"/>
<path id="path67_fill" d="M 5.20001 8.69999C 5.80001 8.19999 6.39999 7.9 6.99999 7.5C 8.09999 6.9 9.3 6.6 10.4 6.5C 11.5 6.4 12.6 6.6 13.7 7C 14.8 7.4 15.8 8.1 16.8 9.1C 17.8 10.1 18.5 11.1 18.9 12.1C 19.3 13.2 19.5 14.3 19.4 15.4C 19.3 16.5 19 17.6 18.4 18.8C 18.1 19.4 17.7 20 17.2 20.6L 22.3 25.7C 23.2 24.6 24 23.3 24.5 22C 25.3 20.1 25.7 18.2 25.7 16.2C 25.7 14.2 25.3 12.3 24.5 10.3C 23.7 8.4 22.4 6.50001 20.8 4.90001C 19.1 3.20001 17.3 1.99999 15.4 1.19999C 13.5 0.399994 11.5 -3.05176e-06 9.49999 -3.05176e-06C 7.49999 -3.05176e-06 5.60001 0.399994 3.70001 1.19999C 2.40001 1.79999 1.19999 2.50001 -6.10352e-06 3.40001L 5.20001 8.69999Z"/>
<path id="path68_fill" d="M 5.00001 8.59999C 5.60001 8.19999 6.19999 7.8 6.79999 7.5C 7.99999 7 9.1 6.59999 10.2 6.59999C 11.3 6.49999 12.4 6.7 13.5 7.2C 14.6 7.6 15.6 8.3 16.5 9.2C 17 9.7 17.4 10.2 17.8 10.7C 18.1 11.2 18.4 11.6 18.5 12C 18.7 12.4 18.8 12.8 18.9 13.1C 19 13.4 19.1 13.8 19.1 14.1C 19.2 14.4 19.2 14.7 19.3 14.9C 19.4 15.1 19.5 15.3 19.7 15.5C 20 15.8 20.2 15.9 20.5 16C 20.8 16 21 16 21.3 16L 25.3 15.4C 25.3 14.6 25.2 13.7 25.1 12.8C 24.9 11.9 24.7 11.1 24.3 10.2C 23.9 9.3 23.5 8.49999 22.9 7.59999C 22.3 6.69999 21.6 5.89999 20.8 5.09999C 19.1 3.39999 17.3 2.20001 15.4 1.30001C 13.5 0.500006 11.5 3.05176e-06 9.6 3.05176e-06C 7.6 3.05176e-06 5.69999 0.4 3.79999 1.2C 2.49999 1.8 1.20001 2.5 6.10352e-06 3.5L 5.00001 8.59999Z"/>
<path id="path69_fill" d="M 1.41521 3.19999C 0.515209 4.99999 0.1152 6.9 0.0152001 8.8C -0.0847999 10.7 0.3152 12.6 1.0152 14.4C 1.7152 16.3 2.91521 18 4.61521 19.6C 6.41521 21.4 8.21521 22.6 10.1152 23.4C 12.0152 24.1 13.9152 24.4 15.9152 24.1L 16.0152 20C 16.0152 19.8 16.0152 19.6 15.9152 19.4C 15.8152 19.2 15.7152 19.1 15.6152 19C 15.5152 18.9 15.3152 18.7 15.1152 18.7C 14.9152 18.6 14.7152 18.6 14.5152 18.6C 13.9152 18.6 13.4152 18.5 13.0152 18.4C 12.5152 18.3 12.1152 18.1 11.7152 17.9C 11.3152 17.7 10.8152 17.4 10.4152 17.1C 10.0152 16.8 9.51521 16.4 9.11521 15.9C 8.31521 15.1 7.7152 14.2 7.3152 13.2C 6.9152 12.2 6.8152 11.2 6.8152 10C 6.9152 8.9 7.21521 7.8 7.71521 6.6C 7.91521 6.1 8.2152 5.59999 8.5152 5.19999L 3.3152 -3.05176e-06C 2.6152 1.1 1.91521 2.09999 1.41521 3.19999Z"/>
<path id="path70_fill" d="M 1.19999 3.19999C 0.399994 5.09999 -3.05176e-06 7 -3.05176e-06 9C -3.05176e-06 11 0.399994 12.9 1.19999 14.9C 1.99999 16.8 3.30001 18.7 4.90001 20.3C 6.60001 22 8.4 23.2 10.3 24C 12.2 24.8 14.2 25.2 16.2 25.2C 18.2 25.2 20.1 24.8 22 24C 23.1 23.5 24.2 22.9 25.2 22.1L 20.1 17C 19.7 17.3 19.2 17.6 18.8 17.8C 17.7 18.4 16.5 18.7 15.4 18.8C 14.3 18.9 13.2 18.7 12.1 18.3C 11 17.9 10 17.2 9.1 16.2C 8.1 15.2 7.4 14.2 7 13.1C 6.6 12 6.40001 10.9 6.40001 9.8C 6.50001 8.7 6.80001 7.60001 7.40001 6.40001C 7.60001 5.90001 7.89999 5.5 8.19999 5.1L 3.1 -3.05176e-06C 2.3 0.999997 1.69999 2.09999 1.19999 3.19999Z"/>
<path id="path71_fill" d="M 5 8.59999C 5.6 8.19999 6.2 7.79999 6.8 7.49999C 8 6.99999 9.09999 6.59999 10.2 6.59999C 11.3 6.49999 12.4 6.7 13.5 7.2C 14.6 7.6 15.6 8.3 16.5 9.2C 17 9.7 17.4 10.2 17.8 10.7C 18.1 11.2 18.4 11.6 18.5 12C 18.7 12.4 18.8 12.8 18.9 13.1C 19 13.4 19.1 13.8 19.1 14.1C 19.2 14.4 19.2 14.7 19.3 14.9C 19.4 15.1 19.5 15.3 19.7 15.5C 20 15.8 20.2 15.9 20.5 16C 20.8 16 21 16 21.3 16L 25.3 15.4C 25.3 14.6 25.2 13.7 25.1 12.8C 24.9 11.9 24.7 11.1 24.3 10.2C 23.9 9.3 23.5 8.49999 22.9 7.59999C 22.3 6.69999 21.6 5.89999 20.8 5.09999C 19.1 3.39999 17.3 2.20001 15.4 1.30001C 13.5 0.500006 11.5 -1.2207e-05 9.6 -1.2207e-05C 7.6 -1.2207e-05 5.7 0.4 3.8 1.2C 2.5 1.8 1.2 2.49999 -3.05176e-06 3.49999L 5 8.59999Z"/>
<path id="path72_fill" d="M 1.4152 3.19999C 0.5152 4.99999 0.115206 6.9 0.0152063 8.8C -0.0847937 10.7 0.315206 12.6 1.01521 14.4C 1.71521 16.3 2.91521 18 4.61521 19.6C 6.41521 21.4 8.21521 22.6 10.1152 23.4C 12.0152 24.1 13.9152 24.4 15.9152 24.1L 16.0152 20C 16.0152 19.8 16.0152 19.6 15.9152 19.4C 15.8152 19.2 15.7152 19.1 15.6152 19C 15.5152 18.9 15.3152 18.7 15.1152 18.7C 14.9152 18.6 14.7152 18.6 14.5152 18.6C 13.9152 18.6 13.4152 18.5 13.0152 18.4C 12.5152 18.3 12.1152 18.1 11.7152 17.9C 11.3152 17.7 10.8152 17.4 10.4152 17.1C 10.0152 16.8 9.51521 16.4 9.11521 15.9C 8.31521 15.1 7.71521 14.2 7.31521 13.2C 6.91521 12.2 6.81521 11.2 6.81521 10C 6.91521 8.90001 7.2152 7.79999 7.7152 6.59999C 7.9152 6.09999 8.21521 5.59999 8.51521 5.19999L 3.31521 1.2207e-05C 2.51521 1.00001 1.9152 2.09999 1.4152 3.19999Z"/>
<path id="path73_fill" d="M 1.19999 3.19999C 0.399994 5.09999 -3.05176e-06 7.00001 -3.05176e-06 9.00001C -3.05176e-06 11 0.399994 12.9 1.19999 14.9C 1.99999 16.8 3.30001 18.7 4.90001 20.3C 6.60001 22 8.4 23.2 10.3 24C 12.2 24.8 14.2 25.2 16.2 25.2C 18.2 25.2 20.1 24.8 22 24C 23.1 23.5 24.2 22.9 25.2 22.1L 20.1 17C 19.7 17.3 19.2 17.6 18.8 17.8C 17.7 18.4 16.5 18.7 15.4 18.8C 14.3 18.9 13.2 18.7 12.1 18.3C 11 17.9 9.99999 17.2 9.09999 16.2C 8.09999 15.2 7.40001 14.2 7.00001 13.1C 6.60001 12 6.40001 10.9 6.40001 9.8C 6.50001 8.7 6.80001 7.60001 7.40001 6.40001C 7.60001 5.90001 7.89999 5.49999 8.19999 5.09999L 3.09999 1.2207e-05C 2.29999 1.00001 1.69999 2.09999 1.19999 3.19999Z"/>
<path id="path74_fill" d="M 5.19999 8.7C 5.79999 8.2 6.4 7.89999 7 7.49999C 8.1 6.89999 9.30001 6.59999 10.4 6.49999C 11.5 6.39999 12.6 6.59999 13.7 6.99999C 14.8 7.39999 15.8 8.09999 16.8 9.09999C 17.8 10.1 18.5 11.1 18.9 12.1C 19.3 13.2 19.5 14.3 19.4 15.4C 19.3 16.5 19 17.6 18.4 18.8C 18.1 19.4 17.7 20 17.2 20.6L 22.3 25.7C 23.2 24.6 24 23.3 24.5 22C 25.3 20.1 25.7 18.2 25.7 16.2C 25.7 14.2 25.3 12.3 24.5 10.3C 23.7 8.40001 22.4 6.50001 20.8 4.90001C 19.1 3.20001 17.3 2 15.4 1.2C 13.5 0.4 11.5 -1.2207e-05 9.5 -1.2207e-05C 7.5 -1.2207e-05 5.59999 0.4 3.69999 1.2C 2.39999 1.8 1.2 2.50001 -3.05176e-06 3.40001L 5.19999 8.7Z"/>
<path id="path75_fill" d="M 4.99999 8.60001C 5.59999 8.20001 6.2 7.8 6.8 7.5C 8 7 9.10001 6.60001 10.2 6.60001C 11.3 6.50001 12.4 6.70001 13.5 7.20001C 14.6 7.60001 15.6 8.30001 16.5 9.20001C 17 9.70001 17.4 10.2 17.8 10.7C 18.1 11.2 18.4 11.6 18.5 12C 18.7 12.4 18.8 12.8 18.9 13.1C 19 13.4 19.1 13.8 19.1 14.1C 19.2 14.4 19.2 14.7 19.3 14.9C 19.4 15.1 19.5 15.3 19.7 15.5C 20 15.8 20.2 15.9 20.5 16C 20.8 16 21 16 21.3 16L 25.3 15.4C 25.3 14.6 25.2 13.7 25.1 12.8C 24.9 11.9 24.7 11.1 24.3 10.2C 23.9 9.30001 23.5 8.50001 22.9 7.60001C 22.3 6.70001 21.6 5.90001 20.8 5.10001C 19.1 3.40001 17.3 2.19999 15.4 1.29999C 13.5 0.499988 11.5 0 9.6 0C 7.6 0 5.7 0.400012 3.8 1.20001C 2.5 1.80001 1.19999 2.5 -6.10352e-06 3.5L 4.99999 8.60001Z"/>
<path id="path76_fill" d="M 1.41521 3.20001C 0.515212 5.00001 0.115203 6.90001 0.0152032 8.80001C -0.0847968 10.7 0.315203 12.6 1.0152 14.4C 1.7152 16.3 2.91521 18 4.61521 19.6C 6.41521 21.4 8.21521 22.6 10.1152 23.4C 12.0152 24.1 13.9152 24.4 15.9152 24.1L 16.0152 20C 16.0152 19.8 16.0152 19.6 15.9152 19.4C 15.8152 19.2 15.7152 19.1 15.6152 19C 15.5152 18.9 15.3152 18.7 15.1152 18.7C 14.9152 18.6 14.7152 18.6 14.5152 18.6C 13.9152 18.6 13.4152 18.5 13.0152 18.4C 12.5152 18.3 12.1152 18.1 11.7152 17.9C 11.3152 17.7 10.8152 17.4 10.4152 17.1C 10.0152 16.8 9.51521 16.4 9.11521 15.9C 8.31521 15.1 7.71521 14.2 7.31521 13.2C 6.91521 12.2 6.81521 11.2 6.81521 9.99999C 6.91521 8.89999 7.2152 7.8 7.7152 6.6C 7.9152 6.1 8.2152 5.60001 8.5152 5.20001L 3.31521 -6.10352e-06C 2.61521 0.999994 1.91521 2.10001 1.41521 3.20001Z"/>
<path id="path77_fill" d="M 1.2 3.20001C 0.399997 5.10001 0 6.99999 0 8.99999C 0 11 0.399997 12.9 1.2 14.9C 2 16.8 3.29999 18.7 4.89999 20.3C 6.59999 22 8.4 23.2 10.3 24C 12.2 24.8 14.2 25.2 16.2 25.2C 18.2 25.2 20.1 24.8 22 24C 23.1 23.5 24.2 22.9 25.2 22.1L 20.1 17C 19.7 17.3 19.2 17.6 18.8 17.8C 17.7 18.4 16.5 18.7 15.4 18.8C 14.3 18.9 13.2 18.7 12.1 18.3C 11 17.9 10 17.2 9.10001 16.2C 8.10001 15.2 7.4 14.2 7 13.1C 6.6 12 6.39999 10.9 6.39999 9.80001C 6.49999 8.70001 6.79999 7.59999 7.39999 6.39999C 7.59999 5.89999 7.9 5.5 8.2 5.1L 3.10001 -6.10352e-06C 2.30001 0.999994 1.6 2.10001 1.2 3.20001Z"/>
<path id="path78_fill" d="M 5.20001 8.7C 5.80001 8.2 6.39999 7.90001 6.99999 7.50001C 8.09999 6.90001 9.3 6.60001 10.4 6.50001C 11.5 6.40001 12.6 6.60001 13.7 7.00001C 14.8 7.40001 15.8 8.1 16.8 9.1C 17.8 10.1 18.5 11.1 18.9 12.1C 19.3 13.2 19.5 14.3 19.4 15.4C 19.3 16.5 19 17.6 18.4 18.8C 18.1 19.4 17.7 20 17.2 20.6L 22.3 25.7C 23.2 24.6 24 23.3 24.5 22C 25.3 20.1 25.7 18.2 25.7 16.2C 25.7 14.2 25.3 12.3 24.5 10.3C 23.7 8.39999 22.4 6.5 20.8 4.9C 19.1 3.2 17.3 2 15.4 1.2C 13.5 0.400003 11.5 6.10352e-06 9.49999 6.10352e-06C 7.49999 6.10352e-06 5.60001 0.400003 3.70001 1.2C 2.40001 1.8 1.19999 2.5 -6.10352e-06 3.4L 5.20001 8.7Z"/>
<path id="path79_fill" d="M 5.00001 8.6C 5.60001 8.2 6.19999 7.8 6.79999 7.5C 7.99999 7 9.1 6.6 10.2 6.6C 11.3 6.5 12.4 6.69999 13.5 7.19999C 14.6 7.59999 15.6 8.29999 16.5 9.19999C 17 9.69999 17.4 10.2 17.8 10.7C 18.1 11.2 18.4 11.6 18.5 12C 18.7 12.4 18.8 12.8 18.9 13.1C 19 13.4 19.1 13.8 19.1 14.1C 19.2 14.4 19.2 14.7 19.3 14.9C 19.4 15.1 19.5 15.3 19.7 15.5C 20 15.8 20.2 15.9 20.5 16C 20.8 16 21 16 21.3 16L 25.3 15.4C 25.3 14.6 25.2 13.7 25.1 12.8C 24.9 11.9 24.7 11.1 24.3 10.2C 23.9 9.29999 23.5 8.5 22.9 7.6C 22.3 6.7 21.6 5.9 20.8 5.1C 19.1 3.4 17.3 2.2 15.4 1.3C 13.5 0.5 11.5 -3.05176e-06 9.6 -3.05176e-06C 7.6 -3.05176e-06 5.69999 0.399994 3.79999 1.19999C 2.49999 1.79999 1.20001 2.5 6.10352e-06 3.5L 5.00001 8.6Z"/>
<path id="path80_fill" d="M 1.41521 3.2C 0.515209 5 0.1152 6.89999 0.0152001 8.79999C -0.0847999 10.7 0.3152 12.6 1.0152 14.4C 1.7152 16.3 2.91521 18 4.61521 19.6C 6.41521 21.4 8.21521 22.6 10.1152 23.4C 12.0152 24.1 13.9152 24.4 15.9152 24.1L 16.0152 20C 16.0152 19.8 16.0152 19.6 15.9152 19.4C 15.8152 19.2 15.7152 19.1 15.6152 19C 15.5152 18.9 15.3152 18.7 15.1152 18.7C 14.9152 18.6 14.7152 18.6 14.5152 18.6C 13.9152 18.6 13.4152 18.5 13.0152 18.4C 12.5152 18.3 12.1152 18.1 11.7152 17.9C 11.3152 17.7 10.8152 17.4 10.4152 17.1C 10.0152 16.8 9.51521 16.4 9.11521 15.9C 8.31521 15.1 7.7152 14.2 7.3152 13.2C 6.9152 12.2 6.8152 11.2 6.8152 10C 6.9152 8.90001 7.21521 7.8 7.71521 6.6C 7.91521 6.1 8.2152 5.6 8.5152 5.2L 3.3152 6.10352e-06C 2.6152 1.00001 1.91521 2.1 1.41521 3.2Z"/>
<path id="path81_fill" d="M 1.19999 3.19999C 0.399994 5.09999 -3.05176e-06 7.00001 -3.05176e-06 9.00001C -3.05176e-06 11 0.399994 12.9 1.19999 14.9C 1.99999 16.8 3.30001 18.7 4.90001 20.3C 6.60001 22 8.4 23.2 10.3 24C 12.2 24.8 14.2 25.2 16.2 25.2C 18.2 25.2 20.1 24.8 22 24C 23.1 23.5 24.2 22.9 25.2 22.1L 20.1 17C 19.7 17.3 19.2 17.6 18.8 17.8C 17.7 18.4 16.5 18.7 15.4 18.8C 14.3 18.9 13.2 18.7 12.1 18.3C 11 17.9 10 17.2 9.1 16.2C 8.1 15.2 7.4 14.2 7 13.1C 6.6 12 6.40001 10.9 6.40001 9.79999C 6.50001 8.69999 6.80001 7.6 7.40001 6.4C 7.60001 5.9 7.89999 5.50001 8.19999 5.10001L 3.1 6.10352e-06C 2.3 1.00001 1.69999 2.09999 1.19999 3.19999Z"/>
<path id="path82_fill" d="M 5.2 5.2L 7.62939e-07 0Z"/>
<path id="path83_fill" d="M 5.20001 8.70001C 5.80001 8.20001 6.39999 7.9 6.99999 7.5C 8.09999 6.9 9.3 6.6 10.4 6.5C 11.5 6.4 12.6 6.6 13.7 7C 14.8 7.4 15.8 8.10001 16.8 9.10001C 17.8 10.1 18.5 11.1 18.9 12.1C 19.3 13.2 19.5 14.3 19.4 15.4C 19.3 16.5 19 17.6 18.4 18.8C 18.1 19.4 17.7 20 17.2 20.6L 22.3 25.7C 23.2 24.6 24 23.3 24.5 22C 25.3 20.1 25.7 18.2 25.7 16.2C 25.7 14.2 25.3 12.3 24.5 10.3C 23.7 8.39999 22.4 6.49999 20.8 4.89999C 19.1 3.19999 17.3 2.00001 15.4 1.20001C 13.5 0.400012 11.5 -1.13687e-13 9.49999 -1.13687e-13C 7.49999 -1.13687e-13 5.60001 0.400012 3.70001 1.20001C 2.40001 1.80001 1.19999 2.49999 -6.10352e-06 3.39999L 5.20001 8.70001Z"/>
<path id="path84_fill" d="M 5 8.60001C 5.6 8.20001 6.2 7.80001 6.8 7.50001C 8 7.00001 9.09999 6.60001 10.2 6.60001C 11.3 6.50001 12.4 6.69999 13.5 7.19999C 14.6 7.59999 15.6 8.29999 16.5 9.19999C 17 9.69999 17.4 10.2 17.8 10.7C 18.1 11.2 18.4 11.6 18.5 12C 18.7 12.4 18.8 12.8 18.9 13.1C 19 13.4 19.1 13.8 19.1 14.1C 19.2 14.4 19.2 14.7 19.3 14.9C 19.4 15.1 19.5 15.3 19.7 15.5C 20 15.8 20.2 15.9 20.5 16C 20.8 16 21 16 21.3 16L 25.3 15.4C 25.3 14.6 25.2 13.7 25.1 12.8C 24.9 11.9 24.7 11.1 24.3 10.2C 23.9 9.29999 23.5 8.50001 22.9 7.60001C 22.3 6.70001 21.6 5.90001 20.8 5.10001C 19.1 3.40001 17.3 2.19999 15.4 1.29999C 13.5 0.499994 11.5 6.10352e-06 9.6 6.10352e-06C 7.6 6.10352e-06 5.7 0.399988 3.8 1.19999C 2.5 1.79999 1.2 2.50001 -3.05176e-06 3.50001L 5 8.60001Z"/>
<path id="path85_fill" d="M 1.4152 3.19999C 0.5152 4.99999 0.115206 6.89999 0.0152063 8.79999C -0.0847937 10.7 0.315206 12.6 1.01521 14.4C 1.71521 16.3 2.91521 18 4.61521 19.6C 6.41521 21.4 8.21521 22.6 10.1152 23.4C 12.0152 24.1 13.9152 24.4 15.9152 24.1L 16.0152 20C 16.0152 19.8 16.0152 19.6 15.9152 19.4C 15.8152 19.2 15.7152 19.1 15.6152 19C 15.5152 18.9 15.3152 18.7 15.1152 18.7C 14.9152 18.6 14.7152 18.6 14.5152 18.6C 13.9152 18.6 13.4152 18.5 13.0152 18.4C 12.5152 18.3 12.1152 18.1 11.7152 17.9C 11.3152 17.7 10.8152 17.4 10.4152 17.1C 10.0152 16.8 9.51521 16.4 9.11521 15.9C 8.31521 15.1 7.71521 14.2 7.31521 13.2C 6.91521 12.2 6.81521 11.2 6.81521 10C 6.91521 8.90001 7.2152 7.80001 7.7152 6.60001C 7.9152 6.10001 8.21521 5.59999 8.51521 5.19999L 3.31521 6.10352e-06C 2.51521 1.00001 1.9152 2.09999 1.4152 3.19999Z"/>
<path id="path86_fill" d="M 1.19999 3.19999C 0.399994 5.09999 -3.05176e-06 7.00001 -3.05176e-06 9.00001C -3.05176e-06 11 0.399994 12.9 1.19999 14.9C 1.99999 16.8 3.30001 18.7 4.90001 20.3C 6.60001 22 8.4 23.2 10.3 24C 12.2 24.8 14.2 25.2 16.2 25.2C 18.2 25.2 20.1 24.8 22 24C 23.1 23.5 24.2 22.9 25.2 22.1L 20.1 17C 19.7 17.3 19.2 17.6 18.8 17.8C 17.7 18.4 16.5 18.7 15.4 18.8C 14.3 18.9 13.2 18.7 12.1 18.3C 11 17.9 10 17.2 9.1 16.2C 8.1 15.2 7.4 14.2 7 13.1C 6.6 12 6.40001 10.9 6.40001 9.79999C 6.50001 8.69999 6.80001 7.6 7.40001 6.4C 7.60001 5.9 7.89999 5.50001 8.19999 5.10001L 3.1 6.10352e-06C 2.3 1.00001 1.69999 1.99999 1.19999 3.19999Z"/>
<path id="path87_fill" d="M 5.19999 8.69999C 5.79999 8.19999 6.4 7.90001 7 7.50001C 8.1 6.90001 9.30001 6.60001 10.4 6.50001C 11.5 6.40001 12.6 6.60001 13.7 7.00001C 14.8 7.40001 15.8 8.09999 16.8 9.09999C 17.8 10.1 18.5 11.1 18.9 12.1C 19.3 13.2 19.5 14.3 19.4 15.4C 19.3 16.5 19 17.6 18.4 18.8C 18.1 19.4 17.7 20 17.2 20.6L 22.3 25.7C 23.2 24.6 24 23.3 24.5 22C 25.3 20.1 25.7 18.2 25.7 16.2C 25.7 14.2 25.3 12.3 24.5 10.3C 23.7 8.4 22.4 6.50001 20.8 4.90001C 19.1 3.20001 17.3 1.99999 15.4 1.19999C 13.5 0.399994 11.5 1.2207e-05 9.5 1.2207e-05C 7.5 1.2207e-05 5.59999 0.399994 3.69999 1.19999C 2.39999 1.79999 1.2 2.50001 -3.05176e-06 3.40001L 5.19999 8.69999Z"/>
<path id="path88_fill" d="M 4.99999 8.6C 5.59999 8.2 6.2 7.79999 6.8 7.49999C 8 6.99999 9.10001 6.6 10.2 6.6C 11.3 6.5 12.4 6.70001 13.5 7.20001C 14.6 7.60001 15.6 8.30001 16.5 9.20001C 17 9.70001 17.4 10.2 17.8 10.7C 18.1 11.2 18.4 11.6 18.5 12C 18.7 12.4 18.8 12.8 18.9 13.1C 19 13.4 19.1 13.8 19.1 14.1C 19.2 14.4 19.2 14.7 19.3 14.9C 19.4 15.1 19.5 15.3 19.7 15.5C 20 15.8 20.2 15.9 20.5 16C 20.8 16 21 16 21.3 16L 25.3 15.4C 25.3 14.6 25.2 13.7 25.1 12.8C 24.9 11.9 24.7 11.1 24.3 10.2C 23.9 9.30001 23.5 8.5 22.9 7.6C 22.3 6.7 21.6 5.9 20.8 5.1C 19.1 3.4 17.3 2.20001 15.4 1.30001C 13.5 0.500012 11.5 -6.10352e-06 9.6 -6.10352e-06C 7.6 -6.10352e-06 5.7 0.400006 3.8 1.20001C 2.5 1.80001 1.19999 2.49999 -6.10352e-06 3.49999L 4.99999 8.6Z"/>
<path id="path89_fill" d="M 1.41521 3.2C 0.515212 5 0.115203 6.90001 0.0152032 8.80001C -0.0847968 10.7 0.315203 12.6 1.0152 14.4C 1.7152 16.3 2.91521 18 4.61521 19.6C 6.41521 21.4 8.21521 22.6 10.1152 23.4C 12.0152 24.1 13.9152 24.4 15.9152 24.1L 16.0152 20C 16.0152 19.8 16.0152 19.6 15.9152 19.4C 15.8152 19.2 15.7152 19.1 15.6152 19C 15.5152 18.9 15.3152 18.7 15.1152 18.7C 14.9152 18.6 14.7152 18.6 14.5152 18.6C 13.9152 18.6 13.4152 18.5 13.0152 18.4C 12.5152 18.3 12.1152 18.1 11.7152 17.9C 11.3152 17.7 10.8152 17.4 10.4152 17.1C 10.0152 16.8 9.51521 16.4 9.11521 15.9C 8.31521 15.1 7.71521 14.2 7.31521 13.2C 6.91521 12.2 6.81521 11.2 6.81521 9.99999C 6.91521 8.89999 7.2152 7.79999 7.7152 6.59999C 7.9152 6.09999 8.2152 5.6 8.5152 5.2L 3.31521 -1.2207e-05C 2.61521 0.999988 1.91521 2.1 1.41521 3.2Z"/>
<path id="path90_fill" d="M 1.2 3.2C 0.399997 5.1 0 6.99999 0 8.99999C 0 11 0.399997 12.9 1.2 14.9C 2 16.8 3.29999 18.7 4.89999 20.3C 6.59999 22 8.4 23.2 10.3 24C 12.2 24.8 14.2 25.2 16.2 25.2C 18.2 25.2 20.1 24.8 22 24C 23.1 23.5 24.2 22.9 25.2 22.1L 20.1 17C 19.7 17.3 19.2 17.6 18.8 17.8C 17.7 18.4 16.5 18.7 15.4 18.8C 14.3 18.9 13.2 18.7 12.1 18.3C 11 17.9 10 17.2 9.10001 16.2C 8.10001 15.2 7.4 14.2 7 13.1C 6.6 12 6.39999 10.9 6.39999 9.80001C 6.49999 8.70001 6.79999 7.60001 7.39999 6.40001C 7.59999 5.90001 7.9 5.49999 8.2 5.09999L 3.10001 -1.2207e-05C 2.30001 0.999988 1.6 2.1 1.2 3.2Z"/>
<path id="path91_fill" d="M 5.20001 8.70001C 5.80001 8.20001 6.39999 7.89999 6.99999 7.49999C 8.09999 6.89999 9.3 6.59999 10.4 6.49999C 11.5 6.39999 12.6 6.59999 13.7 6.99999C 14.8 7.39999 15.8 8.1 16.8 9.1C 17.8 10.1 18.5 11.1 18.9 12.1C 19.3 13.2 19.5 14.3 19.4 15.4C 19.3 16.5 19 17.6 18.4 18.8C 18.1 19.4 17.7 20 17.2 20.6L 22.3 25.7C 23.2 24.6 24 23.3 24.5 22C 25.3 20.1 25.7 18.2 25.7 16.2C 25.7 14.2 25.3 12.3 24.5 10.3C 23.7 8.40001 22.4 6.49999 20.8 4.89999C 19.1 3.19999 17.3 2.00001 15.4 1.20001C 13.5 0.400006 11.5 -6.10352e-06 9.49999 -6.10352e-06C 7.49999 -6.10352e-06 5.60001 0.400006 3.70001 1.20001C 2.40001 1.80001 1.19999 2.49999 -6.10352e-06 3.39999L 5.20001 8.70001Z"/>
<path id="path92_fill" d="M 5 8.6C 5.6 8.2 6.2 7.80001 6.8 7.50001C 8 7.00001 9.1 6.6 10.2 6.6C 11.3 6.5 12.4 6.7 13.5 7.2C 14.6 7.6 15.6 8.3 16.5 9.2C 17 9.7 17.4 10.2 17.8 10.7C 18.1 11.2 18.4 11.6 18.5 12C 18.7 12.4 18.8 12.8 18.9 13.1C 19 13.4 19.1 13.8 19.1 14.1C 19.2 14.4 19.2 14.7 19.3 14.9C 19.4 15.1 19.5 15.3 19.7 15.5C 20 15.8 20.2 15.9 20.5 16C 20.8 16 21 16 21.3 16L 25.3 15.4C 25.3 14.6 25.2 13.7 25.1 12.8C 24.9 11.9 24.7 11.1 24.3 10.2C 23.9 9.3 23.5 8.5 22.9 7.6C 22.3 6.7 21.6 5.9 20.8 5.1C 19.1 3.4 17.3 2.19999 15.4 1.29999C 13.5 0.499994 11.5 6.10352e-06 9.6 6.10352e-06C 7.7 6.10352e-06 5.7 0.400003 3.8 1.2C 2.5 1.8 1.2 2.50001 -1.52588e-06 3.50001L 5 8.6Z"/>
<path id="path93_fill" d="M 1.41521 3.20001C 0.515209 5.00001 0.115208 6.89999 0.0152078 8.79999C -0.0847922 10.7 0.315208 12.6 1.01521 14.4C 1.71521 16.3 2.91521 18 4.61521 19.6C 6.41521 21.4 8.21521 22.6 10.1152 23.4C 12.0152 24.1 13.9152 24.4 15.9152 24.1L 16.0152 20C 16.0152 19.8 16.0152 19.6 15.9152 19.4C 15.8152 19.2 15.7152 19.1 15.6152 19C 15.5152 18.9 15.3152 18.7 15.1152 18.7C 14.9152 18.6 14.7152 18.6 14.5152 18.6C 13.9152 18.6 13.4152 18.5 13.0152 18.4C 12.5152 18.3 12.1152 18.1 11.7152 17.9C 11.3152 17.7 10.8152 17.4 10.4152 17.1C 10.0152 16.8 9.51521 16.4 9.11521 15.9C 8.31521 15.1 7.7152 14.2 7.3152 13.2C 6.9152 12.2 6.8152 11.2 6.8152 10C 6.9152 8.9 7.2152 7.80001 7.7152 6.60001C 7.9152 6.10001 8.21521 5.60001 8.51521 5.20001L 3.3152 -5.68434e-14C 2.6152 1 1.91521 2.10001 1.41521 3.20001Z"/>
<path id="path94_fill" d="M 1.19999 3.20001C 0.399994 5.10001 -3.05176e-06 7 -3.05176e-06 9C -3.05176e-06 11 0.399994 12.9 1.19999 14.9C 1.99999 16.8 3.30001 18.7 4.90001 20.3C 6.60001 22 8.4 23.2 10.3 24C 12.2 24.8 14.2 25.2 16.2 25.2C 18.2 25.2 20.1 24.8 22 24C 23.1 23.5 24.2 22.9 25.2 22.1L 20.1 17C 19.7 17.3 19.2 17.6 18.8 17.8C 17.7 18.4 16.5 18.7 15.4 18.8C 14.3 18.9 13.2 18.7 12.1 18.3C 11 17.9 10 17.2 9.1 16.2C 8.1 15.2 7.4 14.2 7 13.1C 6.6 12 6.40001 10.9 6.40001 9.79999C 6.50001 8.69999 6.80001 7.59999 7.40001 6.39999C 7.60001 5.89999 7.89999 5.50001 8.19999 5.10001L 3.1 1.13687e-13C 2.3 1 1.69999 2.10001 1.19999 3.20001Z"/>
<path id="path95_fill" d="M 5.19999 8.69999C 5.79999 8.19999 6.4 7.90001 7 7.50001C 8.1 6.90001 9.30001 6.60001 10.4 6.50001C 11.5 6.40001 12.6 6.60001 13.7 7.00001C 14.8 7.40001 15.8 8.10001 16.8 9.10001C 17.8 10.1 18.5 11.1 18.9 12.1C 19.3 13.2 19.5 14.3 19.4 15.4C 19.3 16.5 19 17.6 18.4 18.8C 18.1 19.4 17.7 20 17.2 20.6L 22.3 25.7C 23.2 24.6 24 23.3 24.5 22C 25.3 20.1 25.7 18.2 25.7 16.2C 25.7 14.2 25.3 12.3 24.5 10.3C 23.7 8.39999 22.4 6.5 20.8 4.9C 19.1 3.2 17.3 1.99999 15.4 1.19999C 13.5 0.399988 11.5 6.10352e-06 9.5 6.10352e-06C 7.5 6.10352e-06 5.59999 0.399988 3.69999 1.19999C 2.39999 1.79999 1.2 2.5 -3.05176e-06 3.4L 5.19999 8.69999Z"/>
<path id="path96_fill" d="M 4.99999 8.59999C 5.59999 8.19999 6.2 7.79999 6.8 7.49999C 8 6.99999 9.10001 6.59999 10.2 6.59999C 11.3 6.49999 12.4 6.7 13.5 7.2C 14.6 7.6 15.6 8.3 16.5 9.2C 17 9.7 17.4 10.2 17.8 10.7C 18.1 11.2 18.4 11.6 18.5 12C 18.7 12.4 18.8 12.8 18.9 13.1C 19 13.4 19.1 13.8 19.1 14.1C 19.2 14.4 19.2 14.7 19.3 14.9C 19.4 15.1 19.5 15.3 19.7 15.5C 20 15.8 20.2 15.9 20.5 16C 20.8 16 21 16 21.3 16L 25.3 15.4C 25.3 14.6 25.2 13.7 25.1 12.8C 24.9 11.9 24.7 11.1 24.3 10.2C 23.9 9.3 23.5 8.49999 22.9 7.59999C 22.3 6.69999 21.6 5.89999 20.8 5.09999C 19.1 3.39999 17.3 2.20001 15.4 1.30001C 13.5 0.500006 11.5 -1.2207e-05 9.6 -1.2207e-05C 7.6 -1.2207e-05 5.7 0.4 3.8 1.2C 2.5 1.8 1.19999 2.49999 -6.10352e-06 3.49999L 4.99999 8.59999Z"/>
<path id="path97_fill" d="M 1.41521 3.19999C 0.515212 4.99999 0.115203 6.9 0.0152032 8.8C -0.0847968 10.7 0.315203 12.6 1.0152 14.4C 1.7152 16.3 2.91521 18 4.61521 19.6C 6.41521 21.4 8.21521 22.6 10.1152 23.4C 12.0152 24.1 13.9152 24.4 15.9152 24.1L 16.0152 20C 16.0152 19.8 16.0152 19.6 15.9152 19.4C 15.8152 19.2 15.7152 19.1 15.6152 19C 15.5152 18.9 15.3152 18.7 15.1152 18.7C 14.9152 18.6 14.7152 18.6 14.5152 18.6C 13.9152 18.6 13.4152 18.5 13.0152 18.4C 12.5152 18.3 12.1152 18.1 11.7152 17.9C 11.3152 17.7 10.8152 17.4 10.4152 17.1C 10.0152 16.8 9.51521 16.4 9.11521 15.9C 8.31521 15.1 7.71521 14.2 7.31521 13.2C 6.91521 12.2 6.81521 11.2 6.81521 10C 6.91521 8.90001 7.2152 7.79999 7.7152 6.59999C 7.9152 6.09999 8.2152 5.59999 8.5152 5.19999L 3.31521 1.2207e-05C 2.61521 1.00001 1.91521 2.09999 1.41521 3.19999Z"/>
<path id="path98_fill" d="M 1.2 3.19999C 0.399997 5.09999 0 7.00001 0 9.00001C 0 11 0.399997 12.9 1.2 14.9C 2 16.8 3.29999 18.7 4.89999 20.3C 6.59999 22 8.4 23.2 10.3 24C 12.2 24.8 14.2 25.2 16.2 25.2C 18.2 25.2 20.1 24.8 22 24C 23.1 23.5 24.2 22.9 25.2 22.1L 20.1 17C 19.7 17.3 19.2 17.6 18.8 17.8C 17.7 18.4 16.5 18.7 15.4 18.8C 14.3 18.9 13.2 18.7 12.1 18.3C 11 17.9 10 17.2 9.10001 16.2C 8.10001 15.2 7.4 14.2 7 13.1C 6.6 12 6.39999 10.9 6.39999 9.8C 6.49999 8.7 6.79999 7.60001 7.39999 6.40001C 7.59999 5.90001 7.9 5.49999 8.2 5.09999L 3.10001 1.2207e-05C 2.30001 1.00001 1.6 2.09999 1.2 3.19999Z"/>
<path id="path99_fill" d="M 5.2 8.7C 5.8 8.2 6.4 7.89999 7 7.49999C 8.1 6.89999 9.3 6.59999 10.4 6.49999C 11.5 6.39999 12.6 6.59999 13.7 6.99999C 14.8 7.39999 15.8 8.09999 16.8 9.09999C 17.8 10.1 18.5 11.1 18.9 12.1C 19.3 13.2 19.5 14.3 19.4 15.4C 19.3 16.5 19 17.6 18.4 18.8C 18.1 19.4 17.7 20 17.2 20.6L 22.3 25.7C 23.2 24.6 24 23.3 24.5 22C 25.3 20.1 25.7 18.2 25.7 16.2C 25.7 14.2 25.3 12.3 24.5 10.3C 23.7 8.40001 22.4 6.50001 20.8 4.90001C 19.1 3.20001 17.3 2 15.4 1.2C 13.5 0.4 11.5 -1.2207e-05 9.5 -1.2207e-05C 7.5 -1.2207e-05 5.6 0.4 3.7 1.2C 2.4 1.8 1.2 2.50001 1.52588e-06 3.40001L 5.2 8.7Z"/>
<path id="path100_fill" d="M 5 8.60001C 5.6 8.20001 6.2 7.8 6.8 7.5C 8 7 9.1 6.60001 10.2 6.60001C 11.3 6.50001 12.4 6.70001 13.5 7.20001C 14.6 7.60001 15.6 8.30001 16.5 9.20001C 17 9.70001 17.4 10.2 17.8 10.7C 18.1 11.2 18.4 11.6 18.5 12C 18.7 12.4 18.8 12.8 18.9 13.1C 19 13.4 19.1 13.8 19.1 14.1C 19.2 14.4 19.2 14.7 19.3 14.9C 19.4 15.1 19.5 15.3 19.7 15.5C 20 15.8 20.2 15.9 20.5 16C 20.8 16 21 16 21.3 16L 25.3 15.4C 25.3 14.6 25.2 13.7 25.1 12.8C 24.9 11.9 24.7 11.1 24.3 10.2C 23.9 9.30001 23.5 8.50001 22.9 7.60001C 22.3 6.70001 21.6 5.90001 20.8 5.10001C 19.1 3.40001 17.3 2.19999 15.4 1.29999C 13.5 0.499988 11.5 0 9.6 0C 7.6 0 5.7 0.400012 3.8 1.20001C 2.5 1.80001 1.2 2.5 -1.52588e-06 3.5L 5 8.60001Z"/>
<path id="path101_fill" d="M 1.41521 3.20001C 0.515209 5.00001 0.115208 6.90001 0.0152078 8.80001C -0.0847922 10.7 0.315208 12.6 1.01521 14.4C 1.71521 16.3 2.91521 18 4.61521 19.6C 6.41521 21.4 8.21521 22.6 10.1152 23.4C 12.0152 24.1 13.9152 24.4 15.9152 24.1L 16.0152 20C 16.0152 19.8 16.0152 19.6 15.9152 19.4C 15.8152 19.2 15.7152 19.1 15.6152 19C 15.5152 18.9 15.3152 18.7 15.1152 18.7C 14.9152 18.6 14.7152 18.6 14.5152 18.6C 13.9152 18.6 13.4152 18.5 13.0152 18.4C 12.5152 18.3 12.1152 18.1 11.7152 17.9C 11.3152 17.7 10.8152 17.4 10.4152 17.1C 10.0152 16.8 9.51521 16.4 9.11521 15.9C 8.31521 15.1 7.7152 14.2 7.3152 13.2C 6.9152 12.2 6.8152 11.2 6.8152 9.99999C 6.9152 8.89999 7.2152 7.8 7.7152 6.6C 7.9152 6.1 8.21521 5.60001 8.51521 5.20001L 3.3152 -6.10352e-06C 2.6152 0.999994 1.91521 2.10001 1.41521 3.20001Z"/>
<path id="path102_fill" d="M 1.2 3.20001C 0.400001 5.10001 -3.05176e-06 6.99999 -3.05176e-06 8.99999C -3.05176e-06 11 0.400001 12.9 1.2 14.9C 2 16.8 3.3 18.7 4.9 20.3C 6.6 22 8.4 23.2 10.3 24C 12.2 24.8 14.2 25.2 16.2 25.2C 18.2 25.2 20.1 24.8 22 24C 23.1 23.5 24.2 22.9 25.2 22.1L 20.1 17C 19.7 17.3 19.2 17.6 18.8 17.8C 17.7 18.4 16.5 18.7 15.4 18.8C 14.3 18.9 13.2 18.7 12.1 18.3C 11 17.9 10 17.2 9.1 16.2C 8.1 15.2 7.4 14.2 7 13.1C 6.6 12 6.4 10.9 6.4 9.80001C 6.5 8.70001 6.8 7.59999 7.4 6.39999C 7.6 5.89999 7.9 5.5 8.2 5.1L 3.1 -6.10352e-06C 2.3 0.999994 1.7 2.10001 1.2 3.20001Z"/>
<path id="path103_fill" d="M 5.2 8.70001C 5.8 8.20001 6.4 7.9 7 7.5C 8.1 6.9 9.30001 6.6 10.4 6.5C 11.5 6.4 12.6 6.6 13.7 7C 14.8 7.4 15.8 8.10001 16.8 9.10001C 17.8 10.1 18.5 11.1 18.9 12.1C 19.3 13.2 19.5 14.3 19.4 15.4C 19.3 16.5 19 17.6 18.4 18.8C 18.1 19.4 17.7 20 17.2 20.6L 22.3 25.7C 23.2 24.6 24 23.3 24.5 22C 25.3 20.1 25.7 18.2 25.7 16.2C 25.7 14.2 25.3 12.3 24.5 10.3C 23.7 8.39999 22.4 6.49999 20.8 4.89999C 19.1 3.19999 17.3 2.00001 15.4 1.20001C 13.5 0.400012 11.5 -1.13687e-13 9.5 -1.13687e-13C 7.5 -1.13687e-13 5.6 0.400012 3.7 1.20001C 2.4 1.80001 1.2 2.49999 -3.05176e-06 3.39999L 5.2 8.70001Z"/>
<path id="path104_fill" d="M 5 8.60001C 5.6 8.20001 6.2 7.80001 6.8 7.50001C 8 7.00001 9.1 6.60001 10.2 6.60001C 11.3 6.50001 12.4 6.69999 13.5 7.19999C 14.6 7.59999 15.6 8.29999 16.5 9.19999C 17 9.69999 17.4 10.2 17.8 10.7C 18.1 11.2 18.4 11.6 18.5 12C 18.7 12.4 18.8 12.8 18.9 13.1C 19 13.4 19.1 13.8 19.1 14.1C 19.2 14.4 19.2 14.7 19.3 14.9C 19.4 15.1 19.5 15.3 19.7 15.5C 20 15.8 20.2 15.9 20.5 16C 20.8 16 21 16 21.3 16L 25.3 15.4C 25.3 14.6 25.2 13.7 25.1 12.8C 24.9 11.9 24.7 11.1 24.3 10.2C 23.9 9.29999 23.5 8.50001 22.9 7.60001C 22.3 6.70001 21.6 5.90001 20.8 5.10001C 19.1 3.40001 17.3 2.19999 15.4 1.29999C 13.5 0.499994 11.5 6.10352e-06 9.6 6.10352e-06C 7.6 6.10352e-06 5.7 0.399988 3.8 1.19999C 2.5 1.79999 1.2 2.50001 1.52588e-06 3.50001L 5 8.60001Z"/>
<path id="path105_fill" d="M 1.4152 3.19999C 0.515205 4.99999 0.115203 6.89999 0.0152032 8.79999C -0.0847968 10.7 0.315203 12.6 1.0152 14.4C 1.7152 16.3 2.91521 18 4.61521 19.6C 6.41521 21.4 8.21521 22.6 10.1152 23.4C 12.0152 24.1 13.9152 24.4 15.9152 24.1L 16.0152 20C 16.0152 19.8 16.0152 19.6 15.9152 19.4C 15.8152 19.2 15.7152 19.1 15.6152 19C 15.5152 18.9 15.3152 18.7 15.1152 18.7C 14.9152 18.6 14.7152 18.6 14.5152 18.6C 13.9152 18.6 13.4152 18.5 13.0152 18.4C 12.5152 18.3 12.1152 18.1 11.7152 17.9C 11.3152 17.7 10.8152 17.4 10.4152 17.1C 10.0152 16.8 9.51521 16.4 9.11521 15.9C 8.31521 15.1 7.71521 14.2 7.31521 13.2C 6.91521 12.2 6.81521 11.2 6.81521 10C 6.91521 8.90001 7.21521 7.80001 7.71521 6.60001C 7.91521 6.10001 8.2152 5.59999 8.5152 5.19999L 3.31521 6.10352e-06C 2.61521 1.00001 1.9152 2.09999 1.4152 3.19999Z"/>
<path id="path106_fill" d="M 1.2 3.19999C 0.399997 5.09999 0 7.00001 0 9.00001C 0 11 0.399997 12.9 1.2 14.9C 2 16.8 3.29999 18.7 4.89999 20.3C 6.59999 22 8.4 23.2 10.3 24C 12.2 24.8 14.2 25.2 16.2 25.2C 18.2 25.2 20.1 24.8 22 24C 23.1 23.5 24.2 22.9 25.2 22.1L 20.1 17C 19.7 17.3 19.2 17.6 18.8 17.8C 17.7 18.4 16.5 18.7 15.4 18.8C 14.3 18.9 13.2 18.7 12.1 18.3C 11 17.9 10 17.2 9.10001 16.2C 8.10001 15.2 7.4 14.2 7 13.1C 6.6 12 6.39999 10.9 6.39999 9.79999C 6.49999 8.69999 6.79999 7.6 7.39999 6.4C 7.59999 5.9 7.9 5.50001 8.2 5.10001L 3.1 6.10352e-06C 2.3 1.00001 1.7 1.99999 1.2 3.19999Z"/>
<path id="path107_fill" d="M 5.2 8.69999C 5.8 8.19999 6.4 7.90001 7 7.50001C 8.1 6.90001 9.3 6.60001 10.4 6.50001C 11.5 6.40001 12.6 6.60001 13.7 7.00001C 14.8 7.40001 15.8 8.09999 16.8 9.09999C 17.8 10.1 18.5 11.1 18.9 12.1C 19.3 13.2 19.5 14.3 19.4 15.4C 19.3 16.5 19 17.6 18.4 18.8C 18.1 19.4 17.7 20 17.2 20.6L 22.3 25.7C 23.2 24.6 24 23.3 24.5 22C 25.3 20.1 25.7 18.2 25.7 16.2C 25.7 14.2 25.3 12.3 24.5 10.3C 23.7 8.4 22.4 6.50001 20.8 4.90001C 19.1 3.20001 17.3 1.99999 15.4 1.19999C 13.5 0.399994 11.5 1.2207e-05 9.5 1.2207e-05C 7.5 1.2207e-05 5.6 0.399994 3.7 1.19999C 2.4 1.79999 1.2 2.50001 1.52588e-06 3.40001L 5.2 8.69999Z"/>
<path id="path108_fill" d="M 5 8.6C 5.6 8.2 6.2 7.79999 6.8 7.49999C 8 6.99999 9.1 6.6 10.2 6.6C 11.3 6.5 12.4 6.70001 13.5 7.20001C 14.6 7.60001 15.6 8.30001 16.5 9.20001C 17 9.70001 17.4 10.2 17.8 10.7C 18.1 11.2 18.4 11.6 18.5 12C 18.7 12.4 18.8 12.8 18.9 13.1C 19 13.4 19.1 13.8 19.1 14.1C 19.2 14.4 19.2 14.7 19.3 14.9C 19.4 15.1 19.5 15.3 19.7 15.5C 20 15.8 20.2 15.9 20.5 16C 20.8 16 21 16 21.3 16L 25.3 15.4C 25.3 14.6 25.2 13.7 25.1 12.8C 24.9 11.9 24.7 11.1 24.3 10.2C 23.9 9.30001 23.5 8.5 22.9 7.6C 22.3 6.7 21.6 5.9 20.8 5.1C 19.1 3.4 17.3 2.20001 15.4 1.30001C 13.5 0.500012 11.5 -6.10352e-06 9.6 -6.10352e-06C 7.6 -6.10352e-06 5.7 0.400006 3.8 1.20001C 2.5 1.80001 1.2 2.49999 -1.52588e-06 3.49999L 5 8.6Z"/>
<path id="path109_fill" d="M 1.41521 3.2C 0.515206 5 0.115208 6.90001 0.0152078 8.80001C -0.0847922 10.7 0.315208 12.6 1.01521 14.4C 1.71521 16.3 2.91521 18 4.61521 19.6C 6.41521 21.4 8.21521 22.6 10.1152 23.4C 12.0152 24.1 13.9152 24.4 15.9152 24.1L 16.0152 20C 16.0152 19.8 16.0152 19.6 15.9152 19.4C 15.8152 19.2 15.7152 19.1 15.6152 19C 15.5152 18.9 15.3152 18.7 15.1152 18.7C 14.9152 18.6 14.7152 18.6 14.5152 18.6C 13.9152 18.6 13.4152 18.5 13.0152 18.4C 12.5152 18.3 12.1152 18.1 11.7152 17.9C 11.3152 17.7 10.8152 17.4 10.4152 17.1C 10.0152 16.8 9.51521 16.4 9.11521 15.9C 8.31521 15.1 7.7152 14.2 7.3152 13.2C 6.9152 12.2 6.8152 11.2 6.8152 9.99999C 6.9152 8.89999 7.2152 7.79999 7.7152 6.59999C 7.9152 6.09999 8.21521 5.6 8.51521 5.2L 3.31521 -1.2207e-05C 2.61521 0.999988 1.91521 2.1 1.41521 3.2Z"/>
<path id="path110_fill" d="M 1.2 3.2C 0.400001 5.1 -3.05176e-06 6.99999 -3.05176e-06 8.99999C -3.05176e-06 11 0.400001 12.9 1.2 14.9C 2 16.8 3.3 18.7 4.9 20.3C 6.6 22 8.4 23.2 10.3 24C 12.2 24.8 14.2 25.2 16.2 25.2C 18.2 25.2 20.1 24.8 22 24C 23.1 23.5 24.2 22.9 25.2 22.1L 20.1 17C 19.7 17.3 19.2 17.6 18.8 17.8C 17.7 18.4 16.5 18.7 15.4 18.8C 14.3 18.9 13.2 18.7 12.1 18.3C 11 17.9 10 17.2 9.1 16.2C 8.1 15.2 7.4 14.2 7 13.1C 6.6 12 6.4 10.9 6.4 9.80001C 6.5 8.70001 6.8 7.60001 7.4 6.40001C 7.6 5.90001 7.9 5.49999 8.2 5.09999L 3.1 -1.2207e-05C 2.3 0.999988 1.7 2.1 1.2 3.2Z"/>
<path id="path111_fill" d="M 5.2 8.69999C 5.8 8.19999 6.4 7.90001 7 7.50001C 8.1 6.90001 9.3 6.60001 10.4 6.50001C 11.5 6.40001 12.6 6.60001 13.7 7.00001C 14.8 7.40001 15.8 8.10001 16.8 9.10001C 17.8 10.1 18.5 11.1 18.9 12.1C 19.3 13.2 19.5 14.3 19.4 15.4C 19.3 16.5 19 17.6 18.4 18.8C 18.1 19.4 17.7 20 17.2 20.6L 22.3 25.7C 23.2 24.6 24 23.3 24.5 22C 25.3 20.1 25.7 18.2 25.7 16.2C 25.7 14.2 25.3 12.3 24.5 10.3C 23.7 8.39999 22.4 6.5 20.8 4.9C 19.1 3.2 17.3 1.99999 15.4 1.19999C 13.5 0.399988 11.5 6.10352e-06 9.5 6.10352e-06C 7.5 6.10352e-06 5.6 0.399988 3.7 1.19999C 2.4 1.79999 1.2 2.5 1.52588e-06 3.4L 5.2 8.69999Z"/>
<path id="path112_fill" d="M 5 8.59999C 5.6 8.19999 6.2 7.79999 6.8 7.49999C 8 6.99999 9.1 6.59999 10.2 6.59999C 11.3 6.49999 12.4 6.7 13.5 7.2C 14.6 7.6 15.6 8.3 16.5 9.2C 17 9.7 17.4 10.2 17.8 10.7C 18.1 11.2 18.4 11.6 18.5 12C 18.7 12.4 18.8 12.8 18.9 13.1C 19 13.4 19.1 13.8 19.1 14.1C 19.2 14.4 19.2 14.7 19.3 14.9C 19.4 15.1 19.5 15.3 19.7 15.5C 20 15.8 20.2 15.9 20.5 16C 20.8 16 21 16 21.3 16L 25.3 15.4C 25.3 14.6 25.2 13.7 25.1 12.8C 24.9 11.9 24.7 11.1 24.3 10.2C 23.9 9.3 23.5 8.49999 22.9 7.59999C 22.3 6.69999 21.6 5.89999 20.8 5.09999C 19.1 3.39999 17.3 2.20001 15.4 1.30001C 13.5 0.500006 11.5 -1.2207e-05 9.6 -1.2207e-05C 7.6 -1.2207e-05 5.7 0.4 3.8 1.2C 2.5 1.8 1.2 2.49999 3.8147e-07 3.49999L 5 8.59999Z"/>
<path id="path113_fill" d="M 1.41521 3.19999C 0.515206 4.99999 0.115206 6.9 0.0152059 8.8C -0.0847941 10.7 0.315206 12.6 1.01521 14.4C 1.71521 16.3 2.91521 18 4.61521 19.6C 6.41521 21.4 8.21521 22.6 10.1152 23.4C 12.0152 24.1 13.9152 24.4 15.9152 24.1L 16.0152 20C 16.0152 19.8 16.0152 19.6 15.9152 19.4C 15.8152 19.2 15.7152 19.1 15.6152 19C 15.5152 18.9 15.3152 18.7 15.1152 18.7C 14.9152 18.6 14.7152 18.6 14.5152 18.6C 13.9152 18.6 13.4152 18.5 13.0152 18.4C 12.5152 18.3 12.1152 18.1 11.7152 17.9C 11.3152 17.7 10.8152 17.4 10.4152 17.1C 10.0152 16.8 9.51521 16.4 9.11521 15.9C 8.31521 15.1 7.71521 14.2 7.31521 13.2C 6.91521 12.2 6.81521 11.2 6.81521 10C 6.91521 8.90001 7.2152 7.79999 7.7152 6.59999C 7.9152 6.09999 8.21521 5.59999 8.51521 5.19999L 3.31521 1.2207e-05C 2.61521 1.00001 1.91521 2.09999 1.41521 3.19999Z"/>
<path id="path114_fill" d="M 1.2 3.19999C 0.400001 5.09999 7.62939e-07 7.00001 7.62939e-07 9.00001C 7.62939e-07 11 0.400001 12.9 1.2 14.9C 2 16.8 3.3 18.7 4.9 20.3C 6.6 22 8.4 23.2 10.3 24C 12.2 24.8 14.2 25.2 16.2 25.2C 18.2 25.2 20.1 24.8 22 24C 23.1 23.5 24.2 22.9 25.2 22.1L 20.1 17C 19.7 17.3 19.2 17.6 18.8 17.8C 17.7 18.4 16.5 18.7 15.4 18.8C 14.3 18.9 13.2 18.7 12.1 18.3C 11 17.9 10 17.2 9.1 16.2C 8.1 15.2 7.4 14.2 7 13.1C 6.6 12 6.4 10.9 6.4 9.8C 6.5 8.7 6.8 7.60001 7.4 6.40001C 7.6 5.90001 7.9 5.49999 8.2 5.09999L 3.1 1.2207e-05C 2.3 1.00001 1.7 2.09999 1.2 3.19999Z"/>
<path id="path115_fill" d="M 5.2 8.70001C 5.8 8.20001 6.4 7.9 7 7.5C 8.1 6.9 9.3 6.6 10.4 6.5C 11.5 6.4 12.6 6.6 13.7 7C 14.8 7.4 15.8 8.10001 16.8 9.10001C 17.8 10.1 18.5 11.1 18.9 12.1C 19.3 13.2 19.5 14.3 19.4 15.4C 19.3 16.5 19 17.6 18.4 18.8C 18.1 19.4 17.7 20 17.2 20.6L 22.3 25.7C 23.2 24.6 24 23.3 24.5 22C 25.3 20.1 25.7 18.2 25.7 16.2C 25.7 14.2 25.3 12.3 24.5 10.3C 23.7 8.39999 22.4 6.49999 20.8 4.89999C 19.1 3.19999 17.3 2.00001 15.4 1.20001C 13.5 0.400012 11.5 -1.13687e-13 9.5 -1.13687e-13C 7.5 -1.13687e-13 5.6 0.400012 3.7 1.20001C 2.4 1.80001 1.2 2.49999 -3.8147e-07 3.39999L 5.2 8.70001Z"/>
<path id="path116_fill" d="M 5 8.59999C 5.6 8.19999 6.2 7.80001 6.8 7.50001C 8 7.00001 9.1 6.59999 10.2 6.59999C 11.3 6.49999 12.4 6.69999 13.5 7.19999C 14.6 7.59999 15.6 8.29999 16.5 9.19999C 17 9.69999 17.4 10.2 17.8 10.7C 18.1 11.2 18.4 11.6 18.5 12C 18.7 12.4 18.8 12.8 18.9 13.1C 19 13.4 19.1 13.8 19.1 14.1C 19.2 14.4 19.2 14.7 19.3 14.9C 19.4 15.1 19.5 15.3 19.7 15.5C 20 15.8 20.2 15.9 20.5 16C 20.8 16 21 16 21.3 16L 25.3 15.4C 25.3 14.6 25.2 13.7 25.1 12.8C 24.9 11.9 24.7 11.1 24.3 10.2C 23.9 9.29999 23.5 8.49999 22.9 7.59999C 22.3 6.69999 21.6 5.89999 20.8 5.09999C 19.1 3.39999 17.3 2.2 15.4 1.3C 13.5 0.5 11.5 1.2207e-05 9.6 1.2207e-05C 7.7 1.2207e-05 5.7 0.399994 3.8 1.19999C 2.5 1.79999 1.2 2.50001 1.49012e-09 3.50001L 5 8.59999Z"/>
<path id="path117_fill" d="M 1.41521 3.19999C 0.515206 4.99999 0.115206 6.89999 0.0152062 8.79999C -0.0847938 10.7 0.315206 12.6 1.01521 14.4C 1.71521 16.3 2.91521 18 4.61521 19.6C 6.41521 21.4 8.21521 22.6 10.1152 23.4C 12.0152 24.1 13.9152 24.4 15.9152 24.1L 16.0152 20C 16.0152 19.8 16.0152 19.6 15.9152 19.4C 15.8152 19.2 15.7152 19.1 15.6152 19C 15.5152 18.9 15.3152 18.7 15.1152 18.7C 14.9152 18.6 14.7152 18.6 14.5152 18.6C 13.9152 18.6 13.4152 18.5 13.0152 18.4C 12.5152 18.3 12.1152 18.1 11.7152 17.9C 11.3152 17.7 10.8152 17.4 10.4152 17.1C 10.0152 16.8 9.51521 16.4 9.11521 15.9C 8.31521 15.1 7.71521 14.2 7.31521 13.2C 6.91521 12.2 6.81521 11.2 6.81521 10C 6.91521 8.90001 7.21521 7.80001 7.71521 6.60001C 7.91521 6.10001 8.21521 5.59999 8.51521 5.19999L 3.31521 6.10352e-06C 2.61521 1.00001 1.91521 2.09999 1.41521 3.19999Z"/>
<path id="path118_fill" d="M 1.2 3.19999C 0.4 5.09999 7.62939e-07 7.00001 7.62939e-07 9.00001C 7.62939e-07 11 0.4 12.9 1.2 14.9C 2 16.8 3.3 18.7 4.9 20.3C 6.6 22 8.4 23.2 10.3 24C 12.2 24.8 14.2 25.2 16.2 25.2C 18.2 25.2 20.1 24.8 22 24C 23.1 23.5 24.2 22.9 25.2 22.1L 20.1 17C 19.7 17.3 19.2 17.6 18.8 17.8C 17.7 18.4 16.5 18.7 15.4 18.8C 14.3 18.9 13.2 18.7 12.1 18.3C 11 17.9 10 17.2 9.1 16.2C 8.1 15.2 7.4 14.2 7 13.1C 6.6 12 6.4 10.9 6.4 9.79999C 6.5 8.69999 6.8 7.6 7.4 6.4C 7.6 5.9 7.9 5.50001 8.2 5.10001L 3.1 6.10352e-06C 2.3 1.00001 1.7 1.99999 1.2 3.19999Z"/>
</defs>
</svg>
