<svg width="1366" height="600" viewBox="0 0 1366 600" version="1.1" xmlns="http://www.w3.org/2000/svg" xmlns:xlink="http://www.w3.org/1999/xlink">
<title>expertise-item_header</title>
<desc>Created using Figma</desc>
<g id="Canvas" transform="translate(-2932 -3456)">
<g id="expertise-item_header">
<mask id="mask0_alpha" mask-type="alpha">
<g id="Rectangle">
<use xlink:href="#path0_fill" transform="translate(2932 3456)" fill="#E0E0E0"/>
</g>
</mask>
<g id="figures" mask="url(#mask0_alpha)">
<g id="Vector">
<use xlink:href="#path1_fill" transform="translate(2932 3456)" fill="url(#paint1_linear)"/>
</g>
<g id="figure">
<g id="Vector">
<use xlink:href="#path2_fill" transform="translate(3910 3718)" fill="url(#paint2_linear)"/>
</g>
<g id="Vector">
<use xlink:href="#path3_fill" transform="translate(2843 3699)" fill="url(#paint3_linear)"/>
</g>
<g id="pattern">
<g id="Vector">
<use xlink:href="#path4_fill" transform="translate(4280.5 3665.9)" fill="#394EE5"/>
</g>
<g id="Vector">
<use xlink:href="#path5_fill" transform="translate(4296.4 3673.9)" fill="#394EE5"/>
</g>
<g id="Vector">
<use xlink:href="#path6_fill" transform="translate(4254.5 3691.5)" fill="#394EE5"/>
</g>
<g id="Vector">
<use xlink:href="#path7_fill" transform="translate(4234.7 3711.7)" fill="#394EE5"/>
</g>
<g id="Vector">
<use xlink:href="#path8_fill" transform="translate(4250.6 3719.7)" fill="#394EE5"/>
</g>
<g id="Vector">
<use xlink:href="#path9_fill" transform="translate(4270.6 3690.2)" fill="#394EE5"/>
</g>
<g id="Vector">
<use xlink:href="#path10_fill" transform="translate(4208.8 3737.3)" fill="#394EE5"/>
</g>
<g id="Vector">
<use xlink:href="#path11_fill" transform="translate(4188.9 3757.5)" fill="#394EE5"/>
</g>
<g id="Vector">
<use xlink:href="#path12_fill" transform="translate(4204.8 3765.5)" fill="#394EE5"/>
</g>
<g id="Vector">
<use xlink:href="#path13_fill" transform="translate(4224.8 3736)" fill="#394EE5"/>
</g>
<g id="Vector">
<use xlink:href="#path14_fill" transform="translate(4163 3783.1)" fill="#394EE5"/>
</g>
<g id="Vector">
<use xlink:href="#path15_fill" transform="translate(4143.1 3803.2)" fill="#394EE5"/>
</g>
<g id="Vector">
<use xlink:href="#path16_fill" transform="translate(4159 3811.3)" fill="#394EE5"/>
</g>
<g id="Vector">
<use xlink:href="#path17_fill" transform="translate(4179.1 3781.8)" fill="#394EE5"/>
</g>
<g id="Vector">
<use xlink:href="#path18_fill" transform="translate(4117.2 3828.9)" fill="#394EE5"/>
</g>
<g id="Vector">
<use xlink:href="#path19_fill" transform="translate(4097.4 3849)" fill="#394EE5"/>
</g>
<g id="Vector">
<use xlink:href="#path20_fill" transform="translate(4113.3 3857.1)" fill="#394EE5"/>
</g>
<g id="Vector">
<use xlink:href="#path21_fill" transform="translate(4133.3 3827.6)" fill="#394EE5"/>
</g>
<g id="Vector">
<use xlink:href="#path22_fill" transform="translate(4071.4 3874.6)" fill="#394EE5"/>
</g>
<g id="Vector">
<use xlink:href="#path23_fill" transform="translate(4051.6 3894.8)" fill="#394EE5"/>
</g>
<g id="Vector">
<use xlink:href="#path24_fill" transform="translate(4067.5 3902.8)" fill="#394EE5"/>
</g>
<g id="Vector">
<use xlink:href="#path25_fill" transform="translate(4087.5 3873.4)" fill="#394EE5"/>
</g>
<g id="Vector">
<use xlink:href="#path26_fill" transform="translate(4025.7 3920.4)" fill="#394EE5"/>
</g>
<g id="Vector">
<use xlink:href="#path27_fill" transform="translate(4005.8 3940.6)" fill="#394EE5"/>
</g>
<g id="Vector">
<use xlink:href="#path28_fill" transform="translate(4021.7 3948.6)" fill="#394EE5"/>
</g>
<g id="Vector">
<use xlink:href="#path29_fill" transform="translate(4041.7 3919.1)" fill="#394EE5"/>
</g>
<g id="Vector">
<use xlink:href="#path30_fill" transform="translate(4274.4 3719.5)" fill="#394EE5"/>
</g>
<g id="Vector">
<use xlink:href="#path15_fill" transform="translate(4254.6 3739.7)" fill="#394EE5"/>
</g>
<g id="Vector">
<use xlink:href="#path31_fill" transform="translate(4270.5 3747.7)" fill="#394EE5"/>
</g>
<g id="Vector">
<use xlink:href="#path32_fill" transform="translate(4290.5 3718.2)" fill="#394EE5"/>
</g>
<g id="Vector">
<use xlink:href="#path33_fill" transform="translate(4228.7 3765.3)" fill="#394EE5"/>
</g>
<g id="Vector">
<use xlink:href="#path34_fill" transform="translate(4208.8 3785.5)" fill="#394EE5"/>
</g>
<g id="Vector">
<use xlink:href="#path35_fill" transform="translate(4224.7 3793.5)" fill="#394EE5"/>
</g>
<g id="Vector">
<use xlink:href="#path36_fill" transform="translate(4244.7 3764)" fill="#394EE5"/>
</g>
<g id="Vector">
<use xlink:href="#path37_fill" transform="translate(4182.9 3811.1)" fill="#394EE5"/>
</g>
<g id="Vector">
<use xlink:href="#path38_fill" transform="translate(4163 3831.2)" fill="#394EE5"/>
</g>
<g id="Vector">
<use xlink:href="#path39_fill" transform="translate(4178.9 3839.3)" fill="#394EE5"/>
</g>
<g id="Vector">
<use xlink:href="#path40_fill" transform="translate(4198.9 3809.8)" fill="#394EE5"/>
</g>
<g id="Vector">
<use xlink:href="#path41_fill" transform="translate(4137.1 3856.9)" fill="#394EE5"/>
</g>
<g id="Vector">
<use xlink:href="#path42_fill" transform="translate(4117.2 3877)" fill="#394EE5"/>
</g>
<g id="Vector">
<use xlink:href="#path43_fill" transform="translate(4133.2 3885.1)" fill="#394EE5"/>
</g>
<g id="Vector">
<use xlink:href="#path44_fill" transform="translate(4153.2 3855.6)" fill="#394EE5"/>
</g>
<g id="Vector">
<use xlink:href="#path45_fill" transform="translate(4091.3 3902.6)" fill="#394EE5"/>
</g>
<g id="Vector">
<use xlink:href="#path46_fill" transform="translate(4071.5 3922.8)" fill="#394EE5"/>
</g>
<g id="Vector">
<use xlink:href="#path47_fill" transform="translate(4087.4 3930.8)" fill="#394EE5"/>
</g>
<g id="Vector">
<use xlink:href="#path48_fill" transform="translate(4107.4 3901.3)" fill="#394EE5"/>
</g>
<g id="Vector">
<use xlink:href="#path49_fill" transform="translate(4045.5 3948.4)" fill="#394EE5"/>
</g>
<g id="Vector">
<use xlink:href="#path50_fill" transform="translate(4061.6 3947.1)" fill="#394EE5"/>
</g>
<g id="Vector">
<use xlink:href="#path51_fill" transform="translate(4294.3 3747.5)" fill="#394EE5"/>
</g>
<g id="Vector">
<use xlink:href="#path52_fill" transform="translate(4274.5 3767.7)" fill="#394EE5"/>
</g>
<g id="Vector">
<use xlink:href="#path53_fill" transform="translate(4290.4 3775.7)" fill="#394EE5"/>
</g>
<g id="Vector">
<use xlink:href="#path54_fill" transform="translate(4248.5 3793.3)" fill="#394EE5"/>
</g>
<g id="Vector">
<use xlink:href="#path55_fill" transform="translate(4228.7 3813.5)" fill="#394EE5"/>
</g>
<g id="Vector">
<use xlink:href="#path56_fill" transform="translate(4244.6 3821.5)" fill="#394EE5"/>
</g>
<g id="Vector">
<use xlink:href="#path57_fill" transform="translate(4264.6 3792)" fill="#394EE5"/>
</g>
<g id="Vector">
<use xlink:href="#path45_fill" transform="translate(4202.8 3839.1)" fill="#394EE5"/>
</g>
<g id="Vector">
<use xlink:href="#path58_fill" transform="translate(4182.9 3859.2)" fill="#394EE5"/>
</g>
<g id="Vector">
<use xlink:href="#path59_fill" transform="translate(4198.8 3867.3)" fill="#394EE5"/>
</g>
<g id="Vector">
<use xlink:href="#path60_fill" transform="translate(4218.8 3837.8)" fill="#394EE5"/>
</g>
<g id="Vector">
<use xlink:href="#path49_fill" transform="translate(4157 3884.9)" fill="#394EE5"/>
</g>
<g id="Vector">
<use xlink:href="#path61_fill" transform="translate(4137.1 3905)" fill="#394EE5"/>
</g>
<g id="Vector">
<use xlink:href="#path62_fill" transform="translate(4153 3913.1)" fill="#394EE5"/>
</g>
<g id="Vector">
<use xlink:href="#path63_fill" transform="translate(4173.1 3883.6)" fill="#394EE5"/>
</g>
<g id="Vector">
<use xlink:href="#path64_fill" transform="translate(4294.4 3795.7)" fill="#394EE5"/>
</g>
<g id="Vector">
<use xlink:href="#path65_fill" transform="translate(4268.4 3821.3)" fill="#394EE5"/>
</g>
<g id="Vector">
<use xlink:href="#path61_fill" transform="translate(4248.6 3841.5)" fill="#394EE5"/>
</g>
<g id="Vector">
<use xlink:href="#path66_fill" transform="translate(4264.5 3849.5)" fill="#394EE5"/>
</g>
<g id="Vector">
<use xlink:href="#path67_fill" transform="translate(4284.5 3820)" fill="#394EE5"/>
</g>
<g id="Vector">
<use xlink:href="#path68_fill" transform="translate(4222.7 3867.1)" fill="#394EE5"/>
</g>
<g id="Vector">
<use xlink:href="#path69_fill" transform="translate(4202.8 3887.2)" fill="#394EE5"/>
</g>
<g id="Vector">
<use xlink:href="#path70_fill" transform="translate(4218.7 3895.3)" fill="#394EE5"/>
</g>
<g id="Vector">
<use xlink:href="#path71_fill" transform="translate(4238.7 3865.8)" fill="#394EE5"/>
</g>
<g id="Vector">
<use xlink:href="#path72_fill" transform="translate(4176.9 3912.9)" fill="#394EE5"/>
</g>
<g id="Vector">
<use xlink:href="#path73_fill" transform="translate(4192.9 3911.6)" fill="#394EE5"/>
</g>
<g id="Vector">
<use xlink:href="#path74_fill" transform="translate(4288.3 3849.3)" fill="#394EE5"/>
</g>
<g id="Vector">
<use xlink:href="#path75_fill" transform="translate(4268.5 3869.5)" fill="#394EE5"/>
</g>
<g id="Vector">
<use xlink:href="#path76_fill" transform="translate(4284.4 3877.5)" fill="#394EE5"/>
</g>
</g>
</g>
<g id="pattern">
<g id="Vector">
<use xlink:href="#path77_fill" transform="translate(3352.5 3996.2)" fill="url(#paint81_linear)"/>
</g>
<g id="Vector">
<use xlink:href="#path78_fill" transform="translate(3323.9 3996.3)" fill="url(#paint82_linear)"/>
</g>
<g id="Vector">
<use xlink:href="#path79_fill" transform="translate(3336.3 4015.1)" fill="url(#paint83_linear)"/>
</g>
<g id="Vector">
<use xlink:href="#path80_fill" transform="translate(3364.4 4015.2)" fill="url(#paint84_linear)"/>
</g>
<g id="Vector">
<use xlink:href="#path81_fill" transform="translate(3282.1 4030)" fill="url(#paint85_linear)"/>
</g>
<g id="Vector">
<use xlink:href="#path82_fill" transform="translate(3253.5 4030.1)" fill="url(#paint86_linear)"/>
</g>
<g id="Vector">
<use xlink:href="#path83_fill" transform="translate(3265.8 4049)" fill="url(#paint87_linear)"/>
</g>
<g id="Vector">
<use xlink:href="#path84_fill" transform="translate(3294 4049)" fill="url(#paint88_linear)"/>
</g>
</g>
</g>
</g>
</g>
<defs>
<linearGradient id="paint1_linear" x1="0" y1="0" x2="1" y2="0" gradientUnits="userSpaceOnUse" gradientTransform="matrix(-722.646 -129.89 129.89 -722.646 767.953 688.246)">
<stop offset="0" stop-color="#394EE5"/>
<stop offset="0.0487613" stop-color="#4150E2"/>
<stop offset="0.9949" stop-color="#DB71B0"/>
</linearGradient>
<linearGradient id="paint2_linear" x1="0" y1="0" x2="1" y2="0" gradientUnits="userSpaceOnUse" gradientTransform="matrix(302.642 -302.642 302.642 302.642 -88.6416 213.98)">
<stop offset="0" stop-color="#2F0D56"/>
<stop offset="0.9949" stop-color="#DB71B0"/>
</linearGradient>
<linearGradient id="paint3_linear" x1="0" y1="0" x2="1" y2="0" gradientUnits="userSpaceOnUse" gradientTransform="matrix(198.697 -198.697 198.697 198.697 -58.1969 140.48)">
<stop offset="0" stop-color="#2F0D56"/>
<stop offset="0.9949" stop-color="#DB71B0"/>
</linearGradient>
<linearGradient id="paint81_linear" x1="0" y1="0" x2="1" y2="0" gradientUnits="userSpaceOnUse" gradientTransform="matrix(-31.4961 -0 -0 -31.4961 31.2761 22.5014)">
<stop offset="0" stop-color="#FFFFFF"/>
<stop offset="0.9949" stop-color="#DB71B0"/>
</linearGradient>
<linearGradient id="paint82_linear" x1="0" y1="0" x2="1" y2="0" gradientUnits="userSpaceOnUse" gradientTransform="matrix(-26.3286 -0 -0 -26.3286 26.4719 19.8176)">
<stop offset="0" stop-color="#FFFFFF"/>
<stop offset="0.9949" stop-color="#DB71B0"/>
</linearGradient>
<linearGradient id="paint83_linear" x1="0" y1="0" x2="1" y2="0" gradientUnits="userSpaceOnUse" gradientTransform="matrix(-25.8932 -0 -0 -25.8932 25.8393 19.5661)">
<stop offset="0" stop-color="#FFFFFF"/>
<stop offset="0.9949" stop-color="#DB71B0"/>
</linearGradient>
<linearGradient id="paint84_linear" x1="0" y1="0" x2="1" y2="0" gradientUnits="userSpaceOnUse" gradientTransform="matrix(-31.3439 -0 -0 -31.3439 31.445 22.1915)">
<stop offset="0" stop-color="#FFFFFF"/>
<stop offset="0.9949" stop-color="#DB71B0"/>
</linearGradient>
<linearGradient id="paint85_linear" x1="0" y1="0" x2="1" y2="0" gradientUnits="userSpaceOnUse" gradientTransform="matrix(-31.4961 -0 -0 -31.4961 31.2045 22.5617)">
<stop offset="0" stop-color="#FFFFFF"/>
<stop offset="0.9949" stop-color="#DB71B0"/>
</linearGradient>
<linearGradient id="paint86_linear" x1="0" y1="0" x2="1" y2="0" gradientUnits="userSpaceOnUse" gradientTransform="matrix(-26.3286 -0 -0 -26.3286 26.4003 19.878)">
<stop offset="0" stop-color="#FFFFFF"/>
<stop offset="0.9949" stop-color="#DB71B0"/>
</linearGradient>
<linearGradient id="paint87_linear" x1="0" y1="0" x2="1" y2="0" gradientUnits="userSpaceOnUse" gradientTransform="matrix(-25.8932 -0 -0 -25.8932 25.8677 19.5265)">
<stop offset="0" stop-color="#FFFFFF"/>
<stop offset="0.9949" stop-color="#DB71B0"/>
</linearGradient>
<linearGradient id="paint88_linear" x1="0" y1="0" x2="1" y2="0" gradientUnits="userSpaceOnUse" gradientTransform="matrix(-31.3439 -0 -0 -31.3439 31.3734 22.2519)">
<stop offset="0" stop-color="#FFFFFF"/>
<stop offset="0.9949" stop-color="#DB71B0"/>
</linearGradient>
<path id="path0_fill" d="M 0 0L 1366 0L 1366 600L 0 600L 0 0Z"/>
<path id="path1_fill" d="M 1366 0L 0 0L 0 600L 1366 600L 1366 0Z"/>
<path id="path2_fill" d="M 214 428C 332.189 428 428 332.189 428 214C 428 95.8111 332.189 0 214 0C 95.8111 0 0 95.8111 0 214C 0 332.189 95.8111 428 214 428Z"/>
<path id="path3_fill" d="M 140.5 281C 218.096 281 281 218.096 281 140.5C 281 62.904 218.096 0 140.5 0C 62.904 0 0 62.904 0 140.5C 0 218.096 62.904 281 140.5 281Z"/>
<path id="path4_fill" d="M 8.59998 20.3C 8.19998 19.7 7.8 19.1 7.5 18.5C 7 17.3 6.59998 16.2 6.59998 15.1C 6.49998 14 6.69995 12.9 7.19995 11.8C 7.59995 10.7 8.29995 9.70001 9.19995 8.80001C 9.69995 8.30001 10.2 7.89999 10.7 7.49999C 11.2 7.19999 11.6 6.90001 12 6.80001C 12.4 6.60001 12.8 6.49999 13.1 6.39999C 13.4 6.29999 13.8 6.20001 14.1 6.20001C 14.4 6.10001 14.7 6.09999 14.9 5.99999C 15.1 5.89999 15.3 5.8 15.5 5.6C 15.8 5.3 15.9 5.10001 16 4.80001C 16 4.50001 16 4.29999 16 3.99999L 15.4 -6.10352e-06C 14.6 -6.10352e-06 13.7 0.100006 12.8 0.200006C 11.9 0.400006 11.1 0.599994 10.2 0.999994C 9.29995 1.39999 8.49998 1.79999 7.59998 2.39999C 6.69998 2.99999 5.89998 3.69999 5.09998 4.49999C 3.39998 6.19999 2.20005 7.99999 1.30005 9.89999C 0.500049 11.8 0 13.8 0 15.7C 0 17.7 0.399951 19.6 1.19995 21.5C 1.79995 22.8 2.5 24.1 3.5 25.3L 8.59998 20.3Z"/>
<path id="path5_fill" d="M 3.19998 14.6C 4.99998 15.5 6.89995 15.9 8.79995 16C 10.7 16.1 12.6 15.7 14.4 15C 16.3 14.3 18 13.1 19.6 11.4C 21.4 9.59999 22.6 7.79999 23.4 5.89999C 24.1 3.99999 24.4 2.1 24.1 0.1L 20 -6.10352e-06C 19.8 -6.10352e-06 19.6 0 19.4 0.1C 19.2 0.2 19.1 0.299988 19 0.399988C 18.9 0.499988 18.7 0.699988 18.7 0.899988C 18.6 1.09999 18.6 1.29999 18.6 1.49999C 18.6 2.09999 18.5 2.59999 18.4 2.99999C 18.3 3.49999 18.1 3.90001 17.9 4.30001C 17.7 4.70001 17.4 5.2 17.1 5.6C 16.8 6 16.4 6.49999 15.9 6.89999C 15.1 7.69999 14.2 8.30001 13.2 8.70001C 12.2 9.10001 11.2 9.20001 10 9.20001C 8.90002 9.10001 7.8 8.80001 6.6 8.30001C 6.1 8.10001 5.59998 7.79999 5.19998 7.49999L 2.44141e-05 12.7C 1.00002 13.5 2.09998 14.1 3.19998 14.6Z"/>
<path id="path6_fill" d="M 8.69995 20.5C 8.19995 19.9 7.9 19.3 7.5 18.7C 6.9 17.6 6.6 16.4 6.5 15.3C 6.4 14.2 6.6 13.1 7 12C 7.4 10.9 8.09998 9.89999 9.09998 8.89999C 10.1 7.89999 11.1 7.19999 12.1 6.79999C 13.2 6.39999 14.3 6.19999 15.4 6.29999C 16.5 6.39999 17.6 6.69999 18.8 7.29999C 19.4 7.59999 20 8 20.6 8.5L 25.7 3.39999C 24.6 2.49999 23.3 1.70001 22 1.20001C 20.1 0.400012 18.2 5.68434e-14 16.2 5.68434e-14C 14.2 5.68434e-14 12.3 0.400012 10.3 1.20001C 8.40005 2.00001 6.50002 3.29999 4.90002 4.89999C 3.20002 6.59999 1.99995 8.39999 1.19995 10.3C 0.399951 12.2 4.54747e-13 14.2 4.54747e-13 16.2C 4.54747e-13 18.2 0.399951 20.1 1.19995 22C 1.79995 23.3 2.50002 24.5 3.40002 25.7L 8.69995 20.5Z"/>
<path id="path7_fill" d="M 8.60005 20.3C 8.20005 19.7 7.79995 19.1 7.49995 18.5C 6.99995 17.3 6.60005 16.2 6.60005 15.1C 6.50005 14 6.70002 12.9 7.20002 11.8C 7.60002 10.7 8.30002 9.7 9.20002 8.8C 9.70002 8.3 10.2 7.90001 10.7 7.50001C 11.2 7.20001 11.6 6.9 12 6.8C 12.4 6.6 12.8 6.50001 13.1 6.40001C 13.4 6.30001 13.8 6.19999 14.1 6.19999C 14.4 6.09999 14.7 6.10001 14.9 6.00001C 15.1 5.90001 15.3 5.79999 15.5 5.59999C 15.8 5.29999 15.9 5.1 16 4.8C 16 4.5 16 4.30001 16 4.00001L 15.4 1.2207e-05C 14.6 1.2207e-05 13.7 0.0999939 12.8 0.199994C 11.9 0.399994 11.1 0.600012 10.2 1.00001C 9.30002 1.40001 8.50005 1.80001 7.60005 2.40001C 6.70005 3.00001 5.90005 3.70001 5.10005 4.50001C 3.40005 6.20001 2.2 8.00001 1.3 9.90001C 0.5 11.8 -4.88281e-05 13.8 -4.88281e-05 15.7C -4.88281e-05 17.7 0.400024 19.6 1.20002 21.5C 1.80002 22.8 2.49995 24.1 3.49995 25.3L 8.60005 20.3Z"/>
<path id="path8_fill" d="M 3.20005 14.6C 5.00005 15.5 6.90002 15.9 8.80002 16C 10.7 16.1 12.6 15.7 14.4 15C 16.3 14.3 18 13.1 19.6 11.4C 21.4 9.60001 22.6 7.80001 23.4 5.90001C 24.1 4.00001 24.4 2.09999 24.1 0.0999878L 20 1.2207e-05C 19.8 1.2207e-05 19.6 -1.22115e-05 19.4 0.0999878C 19.2 0.199988 19.1 0.300006 19 0.400006C 18.9 0.500006 18.7 0.700006 18.7 0.900006C 18.6 1.10001 18.6 1.30001 18.6 1.50001C 18.6 2.10001 18.5 2.60001 18.4 3.00001C 18.3 3.50001 18.1 3.9 17.9 4.3C 17.7 4.7 17.4 5.19999 17.1 5.59999C 16.8 5.99999 16.4 6.50001 15.9 6.90001C 15.1 7.70001 14.2 8.29999 13.2 8.69999C 12.2 9.09999 11.2 9.19999 9.99998 9.19999C 8.89997 9.09999 7.79995 8.8 6.59995 8.3C 6.09995 8.1 5.60005 7.80001 5.20005 7.50001L -2.44141e-05 12.7C 0.999976 13.4 2.10005 14.1 3.20005 14.6Z"/>
<path id="path9_fill" d="M 3.20005 24C 5.10005 24.8 6.99998 25.2 8.99998 25.2C 11 25.2 12.9 24.8 14.9 24C 16.8 23.2 18.7 21.9 20.3 20.3C 22 18.6 23.2 16.8 24 14.9C 24.8 13 25.2 11 25.2 9.00001C 25.2 7.00001 24.8 5.09999 24 3.19999C 23.5 2.09999 22.9 1.00001 22.1 1.2207e-05L 17 5.09999C 17.3 5.49999 17.6 6.00001 17.8 6.40001C 18.4 7.50001 18.7 8.7 18.8 9.8C 18.9 10.9 18.7 12 18.3 13.1C 17.9 14.2 17.2 15.2 16.2 16.1C 15.2 17.1 14.2 17.8 13.1 18.2C 12 18.6 10.9 18.8 9.80002 18.8C 8.70002 18.7 7.6 18.4 6.4 17.8C 5.9 17.6 5.49995 17.3 5.09995 17L -2.44141e-05 22.1C 0.999976 22.9 2.10005 23.6 3.20005 24Z"/>
<path id="path10_fill" d="M 8.7 20.5C 8.2 19.9 7.90005 19.3 7.50005 18.7C 6.90005 17.6 6.60005 16.4 6.50005 15.3C 6.40005 14.2 6.60005 13.1 7.00005 12C 7.40005 10.9 8.10002 9.90001 9.10002 8.90001C 10.1 7.90001 11.1 7.20001 12.1 6.80001C 13.2 6.40001 14.3 6.20001 15.4 6.30001C 16.5 6.40001 17.6 6.70001 18.8 7.30001C 19.4 7.60001 20 7.99999 20.6 8.49999L 25.7 3.40001C 24.6 2.50001 23.3 1.7 22 1.2C 20.1 0.4 18.2 -1.2207e-05 16.2 -1.2207e-05C 14.2 -1.2207e-05 12.3 0.4 10.3 1.2C 8.39998 2 6.49995 3.30001 4.89995 4.90001C 3.19995 6.60001 2 8.40001 1.2 10.3C 0.4 12.2 4.88281e-05 14.2 4.88281e-05 16.2C 4.88281e-05 18.2 0.4 20.1 1.2 22C 1.8 23.3 2.49995 24.5 3.39995 25.7L 8.7 20.5Z"/>
<path id="path11_fill" d="M 8.6 20.3C 8.2 19.7 7.80002 19.1 7.50002 18.5C 7.00002 17.3 6.6 16.2 6.6 15.1C 6.5 14 6.69998 12.9 7.19998 11.8C 7.59998 10.7 8.29998 9.69999 9.19998 8.79999C 9.69998 8.29999 10.2 7.9 10.7 7.5C 11.2 7.2 11.6 6.89999 12 6.79999C 12.4 6.59999 12.8 6.49999 13.1 6.39999C 13.4 6.29999 13.8 6.20001 14.1 6.20001C 14.4 6.10001 14.7 6.1 14.9 6C 15.1 5.9 15.3 5.80001 15.5 5.60001C 15.8 5.30001 15.9 5.09999 16 4.79999C 16 4.49999 16 4.3 16 4L 15.4 -5.68434e-14C 14.6 -5.68434e-14 13.7 0.100012 12.8 0.200012C 11.9 0.400012 11.1 0.6 10.2 1C 9.29998 1.4 8.5 1.79999 7.6 2.39999C 6.7 2.99999 5.9 3.7 5.1 4.5C 3.4 6.2 2.19995 7.99999 1.29995 9.89999C 0.499951 11.8 2.44141e-05 13.8 2.44141e-05 15.7C 2.44141e-05 17.7 0.399976 19.6 1.19998 21.5C 1.79998 22.8 2.50002 24.1 3.50002 25.3L 8.6 20.3Z"/>
<path id="path12_fill" d="M 3.2 14.6C 5 15.5 6.89998 15.9 8.79998 16C 10.7 16.1 12.6 15.7 14.4 15C 16.3 14.3 18 13.1 19.6 11.4C 21.4 9.59999 22.6 7.79999 23.4 5.89999C 24.1 3.99999 24.4 2.10001 24.1 0.100006L 20 5.68434e-14C 19.8 5.68434e-14 19.6 6.10203e-06 19.4 0.100006C 19.2 0.200006 19.1 0.299994 19 0.399994C 18.9 0.499994 18.7 0.699994 18.7 0.899994C 18.6 1.09999 18.6 1.3 18.6 1.5C 18.6 2.1 18.5 2.6 18.4 3C 18.3 3.5 18.1 3.89999 17.9 4.29999C 17.7 4.69999 17.4 5.20001 17.1 5.60001C 16.8 6.00001 16.4 6.49999 15.9 6.89999C 15.1 7.69999 14.2 8.30001 13.2 8.70001C 12.2 9.10001 11.2 9.20001 10 9.20001C 8.90005 9.10001 7.80002 8.79999 6.60002 8.29999C 6.10002 8.09999 5.6 7.8 5.2 7.5L 4.88281e-05 12.7C 1.10005 13.4 2.1 14.1 3.2 14.6Z"/>
<path id="path13_fill" d="M 3.2 24C 5.1 24.8 7.00005 25.2 9.00005 25.2C 11 25.2 12.9 24.8 14.9 24C 16.8 23.2 18.7 21.9 20.3 20.3C 22 18.6 23.2001 16.8 24 14.9C 24.8 13 25.2 11 25.2 9C 25.2 7 24.8 5.10001 24 3.20001C 23.5 2.10001 22.9 1 22.1 -5.68434e-14L 17 5.10001C 17.3 5.50001 17.6 5.99999 17.8 6.39999C 18.4 7.49999 18.7 8.69999 18.8 9.79999C 18.9 10.9 18.7 12 18.3 13.1C 17.9 14.2 17.2 15.2 16.2 16.1C 15.2 17.1 14.2 17.8 13.1 18.2C 12 18.6 10.9 18.8 9.79998 18.8C 8.69998 18.7 7.59995 18.4 6.39995 17.8C 5.89995 17.6 5.50002 17.3 5.10002 17L 4.88281e-05 22.1C 1.00005 22.9 2.1 23.5 3.2 24Z"/>
<path id="path14_fill" d="M 8.69995 20.5C 8.19995 19.9 7.9 19.3 7.5 18.7C 6.9 17.6 6.6 16.4 6.5 15.3C 6.4 14.2 6.6 13.1 7 12C 7.4 10.9 8.09998 9.9 9.09998 8.9C 10.1 7.9 11.1 7.19999 12.1 6.79999C 13.2 6.39999 14.3 6.19999 15.4 6.29999C 16.5 6.39999 17.6 6.69999 18.8 7.29999C 19.4 7.59999 20 8.00001 20.6 8.50001L 25.7 3.4C 24.6 2.5 23.3 1.69999 22 1.19999C 20.1 0.399988 18.2 6.10352e-06 16.2 6.10352e-06C 14.2 6.10352e-06 12.3 0.399988 10.3 1.19999C 8.40005 1.99999 6.50002 3.3 4.90002 4.9C 3.20002 6.6 1.99995 8.39999 1.19995 10.3C 0.399951 12.2 4.54747e-13 14.2 4.54747e-13 16.2C 4.54747e-13 18.2 0.399951 20.1 1.19995 22C 1.79995 23.3 2.50002 24.5 3.40002 25.7L 8.69995 20.5Z"/>
<path id="path15_fill" d="M 8.59995 20.3C 8.19995 19.7 7.79998 19.1 7.49998 18.5C 6.99998 17.3 6.59995 16.2 6.59995 15.1C 6.49995 14 6.70005 12.9 7.20005 11.8C 7.60005 10.7 8.30005 9.7 9.20005 8.8C 9.70005 8.3 10.2 7.90001 10.7 7.50001C 11.2 7.20001 11.6 6.9 12 6.8C 12.4 6.6 12.8 6.50001 13.1 6.40001C 13.4 6.30001 13.8 6.19999 14.1 6.19999C 14.4 6.09999 14.7 6.10001 14.9 6.00001C 15.1 5.90001 15.3 5.79999 15.5 5.59999C 15.8 5.29999 15.9 5.1 16 4.8C 16 4.5 16 4.30001 16 4.00001L 15.4 1.2207e-05C 14.6 1.2207e-05 13.7 0.0999939 12.8 0.199994C 11.9 0.399994 11.1 0.600012 10.2 1.00001C 9.30005 1.40001 8.49995 1.80001 7.59995 2.40001C 6.69995 3.00001 5.89995 3.70001 5.09995 4.50001C 3.39995 6.20001 2.20002 8.00001 1.30002 9.90001C 0.500024 11.8 -2.44141e-05 13.8 -2.44141e-05 15.7C -2.44141e-05 17.7 0.400049 19.6 1.20005 21.5C 1.80005 22.8 2.49998 24.1 3.49998 25.3L 8.59995 20.3Z"/>
<path id="path16_fill" d="M 3.19995 14.6C 4.99995 15.5 6.90005 15.9 8.80005 16C 10.7 16.1 12.6 15.7 14.4 15C 16.3 14.3 18 13.1 19.6 11.4C 21.4 9.60001 22.6 7.80001 23.4 5.90001C 24.1 4.00001 24.4 2.09999 24.1 0.0999939L 20 -1.2207e-05C 19.8 -1.2207e-05 19.6 -6.10203e-06 19.4 0.0999939C 19.2 0.199994 19.1 0.300012 19 0.400012C 18.9 0.500012 18.7 0.700012 18.7 0.900012C 18.6 1.10001 18.6 1.29999 18.6 1.49999C 18.6 2.09999 18.5 2.59999 18.4 2.99999C 18.3 3.49999 18.1 3.90001 17.9 4.30001C 17.7 4.70001 17.4 5.19999 17.1 5.59999C 16.8 5.99999 16.4 6.50001 15.9 6.90001C 15.1 7.70001 14.2 8.3 13.2 8.7C 12.2 9.1 11.2 9.2 10 9.2C 8.9 9.1 7.79998 8.80001 6.59998 8.30001C 6.09998 8.10001 5.59995 7.79999 5.19995 7.49999L 2.27374e-13 12.7C 1.1 13.4 2.09995 14.1 3.19995 14.6Z"/>
<path id="path17_fill" d="M 3.20005 24C 5.10005 24.8 6.99998 25.2 8.99998 25.2C 11 25.2 12.9 24.8 14.9 24C 16.8 23.2 18.7 21.9 20.3 20.3C 22 18.6 23.2 16.8 24 14.9C 24.8 13 25.2 11 25.2 8.99999C 25.2 6.99999 24.8 5.1 24 3.2C 23.5 2.1 22.9 0.999988 22.1 -1.2207e-05L 17 5.09999C 17.3 5.49999 17.6 6.00001 17.8 6.40001C 18.4 7.50001 18.7 8.70001 18.8 9.80001C 18.9 10.9 18.7 12 18.3 13.1C 17.9 14.2 17.2 15.2 16.2 16.1C 15.2 17.1 14.2 17.8 13.1 18.2C 12 18.6 10.9 18.8 9.80002 18.8C 8.70002 18.7 7.6 18.4 6.4 17.8C 5.9 17.6 5.49995 17.3 5.09995 17L -2.44141e-05 22.1C 0.999976 22.9 2.00005 23.5 3.20005 24Z"/>
<path id="path18_fill" d="M 8.70002 20.5C 8.20002 19.9 7.89995 19.3 7.49995 18.7C 6.89995 17.6 6.59995 16.4 6.49995 15.3C 6.39995 14.2 6.59995 13.1 6.99995 12C 7.39995 10.9 8.10005 9.89999 9.10005 8.89999C 10.1 7.89999 11.1 7.20001 12.1 6.80001C 13.2 6.40001 14.3 6.20001 15.4 6.30001C 16.5 6.40001 17.6 6.70001 18.8 7.30001C 19.4 7.60001 20 8.00002 20.6 8.50002L 25.7 3.39999C 24.6 2.49999 23.2999 1.70001 22 1.20001C 20.1 0.400006 18.2 -6.10352e-06 16.2 -6.10352e-06C 14.2 -6.10352e-06 12.3 0.400006 10.3 1.20001C 8.4 2.00001 6.49998 3.29999 4.89998 4.89999C 3.19998 6.59999 2.00002 8.40001 1.20002 10.3C 0.400024 12.2 -4.88281e-05 14.2 -4.88281e-05 16.2C -4.88281e-05 18.2 0.400024 20.1 1.20002 22C 1.80002 23.3 2.49998 24.5 3.39998 25.7L 8.70002 20.5Z"/>
<path id="path19_fill" d="M 8.6 20.3C 8.2 19.7 7.80002 19.1 7.50002 18.5C 7.00002 17.3 6.6 16.2 6.6 15.1C 6.5 14 6.69998 12.9 7.19998 11.8C 7.59998 10.7 8.29998 9.69999 9.19998 8.79999C 9.69998 8.29999 10.2 7.9 10.7 7.5C 11.2 7.2 11.6 6.89999 12 6.79999C 12.4 6.59999 12.8 6.50002 13.1 6.40002C 13.4 6.30002 13.8 6.20001 14.1 6.20001C 14.4 6.10001 14.7 6.1 14.9 6C 15.1 5.9 15.3 5.79998 15.5 5.59998C 15.8 5.29998 15.9 5.09999 16 4.79999C 16 4.49999 16 4.3 16 4L 15.4 -1.13687e-13C 14.6 -1.13687e-13 13.7 0.100012 12.8 0.200012C 11.9 0.400012 11.1 0.6 10.2 1C 9.29998 1.4 8.5 1.80002 7.6 2.40002C 6.7 3.00002 5.9 3.7 5.1 4.5C 3.4 6.2 2.19995 8.00002 1.29995 9.90002C 0.499951 11.8 2.44141e-05 13.8 2.44141e-05 15.7C 2.44141e-05 17.7 0.399976 19.6 1.19998 21.5C 1.79998 22.8 2.50002 24.1 3.50002 25.3L 8.6 20.3Z"/>
<path id="path20_fill" d="M 3.2 14.6C 5 15.5 6.89998 15.9 8.79998 16C 10.7 16.1 12.6 15.7 14.4 15C 16.3 14.3 18 13.1 19.6 11.4C 21.4 9.6 22.6 7.8 23.4 5.9C 24.1 4 24.4 2.10001 24.1 0.100012L 20 -2.44141e-05C 19.8 -2.44141e-05 19.6 1.22041e-05 19.4 0.100012C 19.2 0.200012 19.1 0.3 19 0.4C 18.9 0.5 18.7 0.7 18.7 0.9C 18.6 1.1 18.6 1.29998 18.6 1.49998C 18.6 2.09998 18.5 2.59998 18.4 2.99998C 18.3 3.49998 18.1 3.90002 17.9 4.30002C 17.7 4.70002 17.4 5.20001 17.1 5.60001C 16.8 6.00001 16.4 6.5 15.9 6.9C 15.1 7.7 14.2 8.29999 13.2 8.69999C 12.2 9.09999 11.2 9.19999 10 9.19999C 8.90005 9.09999 7.80002 8.80002 6.60002 8.30002C 6.10002 8.10002 5.6 7.79998 5.2 7.49998L 4.88281e-05 12.7C 1.00005 13.4 2.1 14 3.2 14.6Z"/>
<path id="path21_fill" d="M 3.2 24C 5.1 24.8 7.00005 25.2 9.00005 25.2C 11 25.2 12.9 24.8 14.9 24C 16.8 23.2 18.7 21.9 20.3 20.3C 22 18.6 23.2001 16.8 24 14.9C 24.8 13 25.2 11 25.2 8.99998C 25.2 6.99998 24.8 5.09999 24 3.19999C 23.5 2.09999 22.9 1.00001 22.1 6.10352e-06L 17 5.10001C 17.3 5.50001 17.6 6 17.8 6.4C 18.4 7.5 18.7 8.70002 18.8 9.80002C 18.9 10.9 18.7 12 18.3 13.1C 17.9 14.2 17.2 15.2 16.2 16.1C 15.2 17.1 14.2 17.8 13.1 18.2C 12 18.6 10.9 18.8 9.79998 18.8C 8.69998 18.7 7.59995 18.4 6.39995 17.8C 5.89995 17.6 5.50002 17.3 5.10002 17L 4.88281e-05 22.1C 1.00005 22.9 2 23.5 3.2 24Z"/>
<path id="path22_fill" d="M 8.69998 20.5C 8.19998 19.9 7.90002 19.3 7.50002 18.7C 6.90002 17.6 6.60002 16.4 6.50002 15.3C 6.40002 14.2 6.60002 13.1 7.00002 12C 7.40002 10.9 8.1 9.9 9.1 8.9C 10.1 7.9 11.1 7.20002 12.1 6.80002C 13.2 6.40002 14.3 6.20002 15.4 6.30002C 16.5 6.40002 17.6 6.70002 18.8 7.30002C 19.4 7.60002 20 7.99998 20.6 8.49998L 25.7 3.4C 24.6 2.5 23.3 1.69999 22 1.19999C 20.1 0.399988 18.2 -2.44141e-05 16.2 -2.44141e-05C 14.2 -2.44141e-05 12.3 0.399988 10.3 1.19999C 8.39995 1.99999 6.50005 3.3 4.90005 4.9C 3.20005 6.6 1.99998 8.40002 1.19998 10.3C 0.399976 12.2 2.44141e-05 14.2 2.44141e-05 16.2C 2.44141e-05 18.2 0.399976 20.1 1.19998 22C 1.79998 23.3 2.50005 24.5 3.40005 25.7L 8.69998 20.5Z"/>
<path id="path23_fill" d="M 8.59995 20.3C 8.19995 19.7 7.79998 19.1 7.49998 18.5C 6.99998 17.3 6.59995 16.2 6.59995 15.1C 6.49995 14 6.70005 12.9 7.20005 11.8C 7.60005 10.7 8.30005 9.69998 9.20005 8.79998C 9.70005 8.29998 10.2 7.89999 10.7 7.49999C 11.2 7.19999 11.6 6.89998 12 6.79998C 12.4 6.59998 12.8 6.50001 13.1 6.40001C 13.4 6.30001 13.8 6.2 14.1 6.2C 14.4 6.1 14.7 6.09999 14.9 5.99999C 15.1 5.89999 15.3 5.80002 15.5 5.60002C 15.8 5.30002 15.9 5.09998 16 4.79998C 16 4.49998 16 4.29999 16 3.99999L 15.4 -1.2207e-05C 14.6 -1.2207e-05 13.7 0.1 12.8 0.2C 11.9 0.4 11.1 0.599988 10.2 0.999988C 9.30005 1.39999 8.49995 1.80001 7.59995 2.40001C 6.69995 3.00001 5.89995 3.69999 5.09995 4.49999C 3.39995 6.19999 2.20002 8.00001 1.30002 9.90001C 0.500024 11.8 -2.44141e-05 13.8 -2.44141e-05 15.7C -2.44141e-05 17.7 0.400049 19.6 1.20005 21.5C 1.80005 22.8 2.49998 24.1 3.49998 25.3L 8.59995 20.3Z"/>
<path id="path24_fill" d="M 3.19995 14.6C 4.99995 15.5 6.90005 15.9 8.80005 16C 10.7 16.1 12.6 15.7 14.4 15C 16.3 14.3 18 13.1 19.6 11.4C 21.4 9.60001 22.6 7.80001 23.4 5.90001C 24.1 4.00001 24.4 2.10002 24.1 0.100024L 20 -1.2207e-05C 19.8 -1.2207e-05 19.6 2.44156e-05 19.4 0.100024C 19.2 0.200024 19.1 0.300012 19 0.400012C 18.9 0.500012 18.7 0.700012 18.7 0.900012C 18.6 1.10001 18.6 1.29999 18.6 1.49999C 18.6 2.09999 18.5 2.59999 18.4 2.99999C 18.3 3.49999 18.1 3.89998 17.9 4.29998C 17.7 4.69998 17.4 5.20002 17.1 5.60002C 16.8 6.00002 16.4 6.50001 15.9 6.90001C 15.1 7.70001 14.2 8.3 13.2 8.7C 12.2 9.1 11.2 9.2 10 9.2C 8.9 9.1 7.79998 8.79998 6.59998 8.29998C 6.09998 8.09998 5.59995 7.79999 5.19995 7.49999L 2.27374e-13 12.7C 1 13.5 2.09995 14.1 3.19995 14.6Z"/>
<path id="path25_fill" d="M 3.19995 24C 5.09995 24.8 7 25.2 9 25.2C 11 25.2 12.9 24.8 14.9 24C 16.8 23.2 18.7 21.9 20.3 20.3C 22 18.6 23.2 16.8 24 14.9C 24.8 13 25.2 11 25.2 9.00002C 25.2 7.00002 24.8 5.09998 24 3.19998C 23.5 2.09998 22.9 1.00002 22.1 2.44141e-05L 17 5.1C 17.3 5.5 17.6 5.99999 17.8 6.39999C 18.4 7.49999 18.7 8.70001 18.8 9.80001C 18.9 10.9 18.7 12 18.3 13.1C 17.9 14.2 17.2 15.2 16.2 16.1C 15.2 17.1 14.2 17.8 13.1 18.2C 12 18.6 10.9 18.8 9.80005 18.8C 8.70005 18.7 7.60002 18.4 6.40002 17.8C 5.90002 17.6 5.49998 17.3 5.09998 17L -4.54747e-13 22.1C 1 22.9 2.09995 23.5 3.19995 24Z"/>
<path id="path26_fill" d="M 8.70002 20.5C 8.20002 19.9 7.89995 19.3 7.49995 18.7C 6.89995 17.6 6.59995 16.4 6.49995 15.3C 6.39995 14.2 6.59995 13.1 6.99995 12C 7.39995 10.9 8.10005 9.89999 9.10005 8.89999C 10.1 7.89999 11.1 7.20001 12.1 6.80001C 13.2 6.40001 14.3 6.20001 15.4 6.30001C 16.5 6.40001 17.6 6.70001 18.8 7.30001C 19.4 7.60001 20 8.00002 20.6 8.50002L 25.7 3.39999C 24.6 2.49999 23.2999 1.69998 22 1.19998C 20.1 0.399976 18.2 2.44141e-05 16.2 2.44141e-05C 14.2 2.44141e-05 12.3 0.399976 10.3 1.19998C 8.4 1.99998 6.49998 3.29999 4.89998 4.89999C 3.19998 6.59999 2.00002 8.40001 1.20002 10.3C 0.400024 12.2 -4.88281e-05 14.2 -4.88281e-05 16.2C -4.88281e-05 18.2 0.400024 20.1 1.20002 22C 1.80002 23.3 2.49998 24.5 3.39998 25.7L 8.70002 20.5Z"/>
<path id="path27_fill" d="M 8.60002 20.3C 8.20002 19.7 7.80005 19.1 7.50005 18.5C 7.00005 17.3 6.60002 16.2 6.60002 15.1C 6.50002 14 6.7 12.9 7.2 11.8C 7.6 10.7 8.3 9.70002 9.2 8.80002C 9.7 8.30002 10.2 7.89998 10.7 7.49998C 11.2 7.19998 11.6 6.90002 12 6.80002C 12.4 6.60002 12.8 6.5 13.1 6.4C 13.4 6.3 13.8 6.19999 14.1 6.19999C 14.4 6.09999 14.7 6.09998 14.9 5.99998C 15.1 5.89998 15.3 5.80001 15.5 5.60001C 15.8 5.30001 15.9 5.10002 16 4.80002C 16 4.50002 16 4.29998 16 3.99998L 15.4 -2.44141e-05C 14.6 -2.44141e-05 13.7 0.0999878 12.8 0.199988C 11.9 0.399988 11.1 0.599976 10.2 0.999976C 9.3 1.39998 8.50002 1.8 7.60002 2.4C 6.70002 3 5.90002 3.69998 5.10002 4.49998C 3.40002 6.19998 2.19998 8 1.29998 9.9C 0.499976 11.8 4.88281e-05 13.8 4.88281e-05 15.7C 4.88281e-05 17.7 0.4 19.6 1.2 21.5C 1.8 22.8 2.50005 24.1 3.50005 25.3L 8.60002 20.3Z"/>
<path id="path28_fill" d="M 3.20002 14.6C 5.00002 15.5 6.9 15.9 8.8 16C 10.7 16.1 12.6 15.7 14.4 15C 16.3 14.3 18 13.1 19.6 11.4C 21.4 9.6 22.6 7.8 23.4 5.9C 24.1 4 24.4 2.10001 24.1 0.100012L 20 -2.44141e-05C 19.7999 -2.44141e-05 19.6 1.22041e-05 19.4 0.100012C 19.2 0.200012 19.1 0.3 19 0.4C 18.9 0.5 18.7 0.7 18.7 0.9C 18.6 1.1 18.6 1.29998 18.6 1.49998C 18.6 2.09998 18.5 2.59998 18.4 2.99998C 18.3 3.49998 18.1 3.90002 17.9 4.30002C 17.7 4.70002 17.4 5.20001 17.1 5.60001C 16.8 6.00001 16.4 6.5 15.9 6.9C 15.1 7.7 14.2 8.29999 13.2 8.69999C 12.2 9.09999 11.2 9.19999 9.99995 9.19999C 8.89995 9.09999 7.80005 8.80002 6.60005 8.30002C 6.10005 8.10002 5.60002 7.79998 5.20002 7.49998L -4.88281e-05 12.7C 0.999951 13.4 2.10002 14.1 3.20002 14.6Z"/>
<path id="path29_fill" d="M 3.20002 24C 5.10002 24.8 6.99995 25.2 8.99995 25.2C 11 25.2 12.9 24.8 14.9 24C 16.8 23.2 18.7 21.9 20.3 20.3C 22 18.6 23.2 16.8 24 14.9C 24.7999 13 25.2 11 25.2 8.99998C 25.2 6.99998 24.7999 5.09999 24 3.19999C 23.5 2.09999 22.9 0.999976 22.1 -2.44141e-05L 17 5.10001C 17.2999 5.50001 17.6 6 17.8 6.4C 18.4 7.5 18.7 8.70002 18.8 9.80002C 18.9 10.9 18.7 12 18.3 13.1C 17.9 14.2 17.2 15.2 16.2 16.1C 15.2 17.1 14.2 17.8 13.1 18.2C 12 18.6 10.9 18.8 9.8 18.8C 8.7 18.7 7.59998 18.4 6.39998 17.8C 5.89998 17.6 5.50005 17.3 5.10005 17L -4.88281e-05 22.1C 0.999951 22.9 2.10002 23.5 3.20002 24Z"/>
<path id="path30_fill" d="M 8.69998 20.5C 8.19998 19.9 7.90002 19.3 7.50002 18.7C 6.90002 17.6 6.60002 16.4 6.50002 15.3C 6.40002 14.2 6.60002 13.1 7.00002 12C 7.40002 10.9 8.1 9.89999 9.1 8.89999C 10.1 7.89999 11.1 7.19999 12.1 6.79999C 13.2 6.39999 14.3 6.19999 15.4 6.29999C 16.5 6.39999 17.6 6.69999 18.8 7.29999C 19.4 7.59999 20 8 20.6 8.5L 25.7 3.39999C 24.6 2.49999 23.3 1.70001 22 1.20001C 20.1 0.400012 18.2 5.68434e-14 16.2 5.68434e-14C 14.2 5.68434e-14 12.3 0.400012 10.3 1.20001C 8.39995 2.00001 6.50005 3.29999 4.90005 4.89999C 3.20005 6.59999 1.99998 8.39999 1.19998 10.3C 0.399976 12.2 2.44141e-05 14.2 2.44141e-05 16.2C 2.44141e-05 18.2 0.399976 20.1 1.19998 22C 1.79998 23.3 2.50005 24.5 3.40005 25.7L 8.69998 20.5Z"/>
<path id="path31_fill" d="M 3.19995 14.6C 4.99995 15.5 6.90005 15.9 8.80005 16C 10.7 16.1 12.6 15.7 14.4 15C 16.3 14.3 18 13.1 19.6 11.4C 21.4 9.60001 22.6 7.80001 23.4 5.90001C 24.1 4.00001 24.4 2.09999 24.1 0.0999878L 20 1.2207e-05C 19.8 1.2207e-05 19.6 -1.22115e-05 19.4 0.0999878C 19.2 0.199988 19.1 0.300006 19 0.400006C 18.9 0.500006 18.7 0.700006 18.7 0.900006C 18.6 1.10001 18.6 1.30001 18.6 1.50001C 18.6 2.10001 18.5 2.60001 18.4 3.00001C 18.3 3.50001 18.1 3.9 17.9 4.3C 17.7 4.7 17.4 5.19999 17.1 5.59999C 16.8 5.99999 16.4 6.50001 15.9 6.90001C 15.1 7.70001 14.2 8.29999 13.2 8.69999C 12.2 9.09999 11.2 9.19999 10 9.19999C 8.9 9.09999 7.79998 8.8 6.59998 8.3C 6.09998 8.1 5.59995 7.80001 5.19995 7.50001L 2.27374e-13 12.7C 1 13.4 2.09995 14.1 3.19995 14.6Z"/>
<path id="path32_fill" d="M 3.19995 24C 5.09995 24.8 7 25.2 9 25.2C 11 25.2 12.9 24.8 14.9 24C 16.8 23.2 18.7 21.9 20.3 20.3C 22 18.6 23.2 16.8 24 14.9C 24.8 13 25.2 11 25.2 9.00001C 25.2 7.00001 24.8 5.09999 24 3.19999C 23.5 2.09999 22.9 1.00001 22.1 1.2207e-05L 17 5.09999C 17.3 5.49999 17.6 6.00001 17.8 6.40001C 18.4 7.50001 18.7 8.7 18.8 9.8C 18.9 10.9 18.7 12 18.3 13.1C 17.9 14.2 17.2 15.2 16.2 16.1C 15.2 17.1 14.2 17.8 13.1 18.2C 12 18.6 10.9 18.8 9.80005 18.8C 8.70005 18.7 7.60002 18.4 6.40002 17.8C 5.90002 17.6 5.49998 17.3 5.09998 17L -4.54747e-13 22.1C 1 22.9 2.09995 23.6 3.19995 24Z"/>
<path id="path33_fill" d="M 8.70002 20.5C 8.20002 19.9 7.89995 19.3 7.49995 18.7C 6.89995 17.6 6.59995 16.4 6.49995 15.3C 6.39995 14.2 6.59995 13.1 6.99995 12C 7.39995 10.9 8.10005 9.90001 9.10005 8.90001C 10.1 7.90001 11.1 7.20001 12.1 6.80001C 13.2 6.40001 14.3 6.20001 15.4 6.30001C 16.5 6.40001 17.6 6.70001 18.8 7.30001C 19.4 7.60001 20 7.99999 20.6 8.49999L 25.7 3.40001C 24.6 2.50001 23.2999 1.7 22 1.2C 20.1 0.4 18.2 -1.2207e-05 16.2 -1.2207e-05C 14.2 -1.2207e-05 12.3 0.4 10.3 1.2C 8.4 2 6.49998 3.30001 4.89998 4.90001C 3.19998 6.60001 2.00002 8.40001 1.20002 10.3C 0.400024 12.2 -4.88281e-05 14.2 -4.88281e-05 16.2C -4.88281e-05 18.2 0.400024 20.1 1.20002 22C 1.80002 23.3 2.49998 24.5 3.39998 25.7L 8.70002 20.5Z"/>
<path id="path34_fill" d="M 8.60002 20.3C 8.20002 19.7 7.80005 19.1 7.50005 18.5C 7.00005 17.3 6.60002 16.2 6.60002 15.1C 6.50002 14 6.7 12.9 7.2 11.8C 7.6 10.7 8.3 9.69999 9.2 8.79999C 9.7 8.29999 10.2 7.9 10.7 7.5C 11.2 7.2 11.6 6.89999 12 6.79999C 12.4 6.59999 12.8 6.49999 13.1 6.39999C 13.4 6.29999 13.8 6.20001 14.1 6.20001C 14.4 6.10001 14.7 6.1 14.9 6C 15.1 5.9 15.3 5.80001 15.5 5.60001C 15.8 5.30001 15.9 5.09999 16 4.79999C 16 4.49999 16 4.3 16 4L 15.4 -5.68434e-14C 14.6 -5.68434e-14 13.7 0.100012 12.8 0.200012C 11.9 0.400012 11.1 0.6 10.2 1C 9.3 1.4 8.50002 1.79999 7.60002 2.39999C 6.70002 2.99999 5.90002 3.7 5.10002 4.5C 3.40002 6.2 2.19998 7.99999 1.29998 9.89999C 0.499976 11.8 4.88281e-05 13.8 4.88281e-05 15.7C 4.88281e-05 17.7 0.4 19.6 1.2 21.5C 1.8 22.8 2.50005 24.1 3.50005 25.3L 8.60002 20.3Z"/>
<path id="path35_fill" d="M 3.20002 14.6C 5.00002 15.5 6.9 15.9 8.8 16C 10.7 16.1 12.6 15.7 14.4 15C 16.3 14.3 18 13.1 19.6 11.4C 21.4 9.59999 22.6 7.79999 23.4 5.89999C 24.1 3.99999 24.4 2.10001 24.1 0.100006L 20 5.68434e-14C 19.7999 5.68434e-14 19.6 6.10203e-06 19.4 0.100006C 19.2 0.200006 19.1 0.299994 19 0.399994C 18.9 0.499994 18.7 0.699994 18.7 0.899994C 18.6 1.09999 18.6 1.3 18.6 1.5C 18.6 2.1 18.5 2.6 18.4 3C 18.3 3.5 18.1 3.89999 17.9 4.29999C 17.7 4.69999 17.4 5.20001 17.1 5.60001C 16.8 6.00001 16.4 6.49999 15.9 6.89999C 15.1 7.69999 14.2 8.30001 13.2 8.70001C 12.2 9.10001 11.2 9.20001 9.99995 9.20001C 8.89995 9.10001 7.80005 8.79999 6.60005 8.29999C 6.10005 8.09999 5.60002 7.8 5.20002 7.5L -4.88281e-05 12.7C 0.999951 13.4 2.10002 14.1 3.20002 14.6Z"/>
<path id="path36_fill" d="M 3.20002 24C 5.10002 24.8 6.99995 25.2 8.99995 25.2C 11 25.2 12.9 24.8 14.9 24C 16.8 23.2 18.7 21.9 20.3 20.3C 22 18.6 23.2 16.8 24 14.9C 24.7999 13 25.2 11 25.2 9C 25.2 7 24.7999 5.10001 24 3.20001C 23.5 2.10001 22.9 1 22.1 -5.68434e-14L 17 5.10001C 17.2999 5.50001 17.6 5.99999 17.8 6.39999C 18.4 7.49999 18.7 8.69999 18.8 9.79999C 18.9 10.9 18.7 12 18.3 13.1C 17.9 14.2 17.2 15.2 16.2 16.1C 15.2 17.1 14.2 17.8 13.1 18.2C 12 18.6 10.9 18.8 9.8 18.8C 8.7 18.7 7.59998 18.4 6.39998 17.8C 5.89998 17.6 5.50005 17.3 5.10005 17L -4.88281e-05 22.1C 0.999951 22.9 2.10002 23.5 3.20002 24Z"/>
<path id="path37_fill" d="M 8.69998 20.5C 8.19998 19.9 7.90002 19.3 7.50002 18.7C 6.90002 17.6 6.60002 16.4 6.50002 15.3C 6.40002 14.2 6.60002 13.1 7.00002 12C 7.40002 10.9 8.1 9.9 9.1 8.9C 10.1 7.9 11.1 7.19999 12.1 6.79999C 13.2 6.39999 14.3 6.19999 15.4 6.29999C 16.5 6.39999 17.6 6.69999 18.8 7.29999C 19.4 7.59999 20 8.00001 20.6 8.50001L 25.7 3.4C 24.6 2.5 23.3 1.69999 22 1.19999C 20.1 0.399988 18.2 6.10352e-06 16.2 6.10352e-06C 14.2 6.10352e-06 12.3 0.399988 10.3 1.19999C 8.39995 1.99999 6.50005 3.3 4.90005 4.9C 3.20005 6.6 1.99998 8.39999 1.19998 10.3C 0.399976 12.2 2.44141e-05 14.2 2.44141e-05 16.2C 2.44141e-05 18.2 0.399976 20.1 1.19998 22C 1.79998 23.3 2.50005 24.5 3.40005 25.7L 8.69998 20.5Z"/>
<path id="path38_fill" d="M 8.59998 20.3C 8.19998 19.7 7.8 19.1 7.5 18.5C 7 17.3 6.59998 16.2 6.59998 15.1C 6.49998 14 6.69995 12.9 7.19995 11.8C 7.59995 10.7 8.29995 9.7 9.19995 8.8C 9.69995 8.3 10.2 7.90001 10.7 7.50001C 11.2 7.20001 11.6 6.9 12 6.8C 12.4 6.6 12.8 6.49998 13.1 6.39998C 13.4 6.29998 13.8 6.20002 14.1 6.20002C 14.4 6.10002 14.7 6.10001 14.9 6.00001C 15.1 5.90001 15.3 5.79999 15.5 5.59999C 15.8 5.29999 15.9 5.1 16 4.8C 16 4.5 16 4.30001 16 4.00001L 15.4 1.2207e-05C 14.6 1.2207e-05 13.7 0.0999939 12.8 0.199994C 11.9 0.399994 11.1 0.600012 10.2 1.00001C 9.29995 1.40001 8.49998 1.80001 7.59998 2.40001C 6.69998 3.00001 5.89998 3.70001 5.09998 4.50001C 3.39998 6.20001 2.20005 7.99998 1.30005 9.89998C 0.500049 11.8 0 13.8 0 15.7C 0 17.7 0.399951 19.6 1.19995 21.5C 1.79995 22.8 2.5 24.1 3.5 25.3L 8.59998 20.3Z"/>
<path id="path39_fill" d="M 3.19998 14.6C 4.99998 15.5 6.89995 15.9 8.79995 16C 10.7 16.1 12.6 15.7 14.4 15C 16.3 14.3 18 13.1 19.6 11.4C 21.4 9.60001 22.6 7.80001 23.4 5.90001C 24.1 4.00001 24.4 2.10002 24.1 0.100024L 20 -1.2207e-05C 19.8 -1.2207e-05 19.6 2.44156e-05 19.4 0.100024C 19.2 0.200024 19.1 0.300012 19 0.400012C 18.9 0.500012 18.7 0.700012 18.7 0.900012C 18.6 1.10001 18.6 1.29999 18.6 1.49999C 18.6 2.09999 18.5 2.59999 18.4 2.99999C 18.3 3.49999 18.1 3.89998 17.9 4.29998C 17.7 4.69998 17.4 5.20002 17.1 5.60002C 16.8 6.00002 16.4 6.50001 15.9 6.90001C 15.1 7.70001 14.2 8.3 13.2 8.7C 12.2 9.1 11.2 9.2 10 9.2C 8.90002 9.1 7.8 8.79998 6.6 8.29998C 6.1 8.09998 5.59998 7.79999 5.19998 7.49999L 2.44141e-05 12.7C 1.10002 13.4 2.09998 14.1 3.19998 14.6Z"/>
<path id="path40_fill" d="M 3.19998 24C 5.09998 24.8 7.00002 25.2 9.00002 25.2C 11 25.2 12.9 24.8 14.9 24C 16.8 23.2 18.7 21.9 20.3 20.3C 22 18.6 23.2 16.8 24 14.9C 24.8 13 25.2 11 25.2 8.99999C 25.2 6.99999 24.8 5.1 24 3.2C 23.5 2.1 22.9 0.999988 22.1 -1.2207e-05L 17 5.09999C 17.3 5.49999 17.6 6.00001 17.8 6.40001C 18.4 7.50001 18.7 8.70001 18.8 9.80001C 18.9 10.9 18.7 12 18.3 13.1C 17.9 14.2 17.2 15.2 16.2 16.1C 15.2 17.1 14.2 17.8 13.1 18.2C 12 18.6 10.9 18.8 9.79995 18.8C 8.69995 18.7 7.60005 18.4 6.40005 17.8C 5.90005 17.6 5.5 17.3 5.1 17L 2.44141e-05 22.1C 1.00002 22.9 2.09998 23.5 3.19998 24Z"/>
<path id="path41_fill" d="M 8.70005 20.5C 8.20005 19.9 7.89998 19.3 7.49998 18.7C 6.89998 17.6 6.59998 16.4 6.49998 15.3C 6.39998 14.2 6.59998 13.1 6.99998 12C 7.39998 10.9 8.09995 9.89999 9.09995 8.89999C 10.1 7.89999 11.1 7.20001 12.1 6.80001C 13.2 6.40001 14.3 6.20001 15.4 6.30001C 16.5 6.40001 17.6 6.70001 18.8 7.30001C 19.4 7.60001 20 8.00002 20.6 8.50002L 25.7 3.39999C 24.6 2.49999 23.3 1.69998 22 1.19998C 20.1 0.399976 18.2 2.44141e-05 16.2 2.44141e-05C 14.2 2.44141e-05 12.3 0.399976 10.3 1.19998C 8.40002 1.99998 6.5 3.29999 4.9 4.89999C 3.2 6.59999 2.00005 8.40001 1.20005 10.3C 0.400049 12.2 -2.44141e-05 14.2 -2.44141e-05 16.2C -2.44141e-05 18.2 0.400049 20.1 1.20005 22C 1.80005 23.3 2.5 24.5 3.4 25.7L 8.70005 20.5Z"/>
<path id="path42_fill" d="M 8.60005 20.3C 8.20005 19.7 7.79995 19.1 7.49995 18.5C 6.99995 17.3 6.60005 16.2 6.60005 15.1C 6.50005 14 6.70002 12.9 7.20002 11.8C 7.60002 10.7 8.30002 9.69999 9.20002 8.79999C 9.70002 8.29999 10.2 7.9 10.7 7.5C 11.2 7.2 11.6 6.89999 12 6.79999C 12.4 6.59999 12.8 6.50002 13.1 6.40002C 13.4 6.30002 13.8 6.20001 14.1 6.20001C 14.4 6.10001 14.7 6.1 14.9 6C 15.1 5.9 15.3 5.79998 15.5 5.59998C 15.8 5.29998 15.9 5.09999 16 4.79999C 16 4.49999 16 4.3 16 4L 15.4 -1.13687e-13C 14.6 -1.13687e-13 13.7 0.100012 12.8 0.200012C 11.9 0.400012 11.1 0.6 10.2 1C 9.30002 1.4 8.50005 1.80002 7.60005 2.40002C 6.70005 3.00002 5.90005 3.7 5.10005 4.5C 3.40005 6.2 2.2 8.00002 1.3 9.90002C 0.5 11.8 -4.88281e-05 13.8 -4.88281e-05 15.7C -4.88281e-05 17.7 0.400024 19.6 1.20002 21.5C 1.80002 22.8 2.49995 24.1 3.49995 25.3L 8.60005 20.3Z"/>
<path id="path43_fill" d="M 3.20002 14.6C 5.00002 15.5 6.9 15.9 8.8 16C 10.7 16.1 12.6 15.7 14.4 15C 16.3 14.3 18 13.1 19.6 11.4C 21.4 9.6 22.6 7.8 23.4 5.9C 24.1 4 24.4 2.10001 24.1 0.100012L 20 -2.44141e-05C 19.7999 -2.44141e-05 19.6 1.22041e-05 19.4 0.100012C 19.2 0.200012 19.1 0.3 19 0.4C 18.9 0.5 18.7 0.7 18.7 0.9C 18.6 1.1 18.6 1.29998 18.6 1.49998C 18.6 2.09998 18.5 2.59998 18.4 2.99998C 18.3 3.49998 18.1 3.90002 17.9 4.30002C 17.7 4.70002 17.4 5.20001 17.1 5.60001C 16.8 6.00001 16.4 6.5 15.9 6.9C 15.1 7.7 14.2 8.29999 13.2 8.69999C 12.2 9.09999 11.2 9.19999 9.99995 9.19999C 8.89995 9.09999 7.80005 8.80002 6.60005 8.30002C 6.10005 8.10002 5.60002 7.79998 5.20002 7.49998L -4.88281e-05 12.7C 0.999951 13.4 2.00002 14 3.20002 14.6Z"/>
<path id="path44_fill" d="M 3.20002 24C 5.10002 24.8 6.99995 25.2 8.99995 25.2C 11 25.2 12.9 24.8 14.9 24C 16.8 23.2 18.7 21.9 20.3 20.3C 22 18.6 23.2 16.8 24 14.9C 24.7999 13 25.2 11 25.2 8.99998C 25.2 6.99998 24.7999 5.09999 24 3.19999C 23.5 2.09999 22.9 0.999976 22.1 -2.44141e-05L 17 5.10001C 17.2999 5.50001 17.6 6 17.8 6.4C 18.4 7.5 18.7 8.70002 18.8 9.80002C 18.9 10.9 18.7 12 18.3 13.1C 17.9 14.2 17.2 15.2 16.2 16.1C 15.2 17.1 14.2 17.8 13.1 18.2C 12 18.6 10.9 18.8 9.8 18.8C 8.7 18.7 7.59998 18.4 6.39998 17.8C 5.89998 17.6 5.50005 17.3 5.10005 17L -4.88281e-05 22.1C 0.999951 22.9 2.00002 23.5 3.20002 24Z"/>
<path id="path45_fill" d="M 8.7 20.5C 8.2 19.9 7.90005 19.3 7.50005 18.7C 6.90005 17.6 6.60005 16.4 6.50005 15.3C 6.40005 14.2 6.60005 13.1 7.00005 12C 7.40005 10.9 8.10002 9.9 9.10002 8.9C 10.1 7.9 11.1 7.20002 12.1 6.80002C 13.2 6.40002 14.3 6.20002 15.4 6.30002C 16.5 6.40002 17.6 6.70002 18.8 7.30002C 19.4 7.60002 20 7.99998 20.6 8.49998L 25.7 3.4C 24.6 2.5 23.3 1.69999 22 1.19999C 20.1 0.399988 18.2 -2.44141e-05 16.2 -2.44141e-05C 14.2 -2.44141e-05 12.3 0.399988 10.3 1.19999C 8.39998 1.99999 6.49995 3.3 4.89995 4.9C 3.19995 6.6 2 8.40002 1.2 10.3C 0.4 12.2 4.88281e-05 14.2 4.88281e-05 16.2C 4.88281e-05 18.2 0.4 20.1 1.2 22C 1.8 23.3 2.49995 24.5 3.39995 25.7L 8.7 20.5Z"/>
<path id="path46_fill" d="M 8.59998 20.3C 8.19998 19.7 7.8 19.1 7.5 18.5C 7 17.3 6.59998 16.2 6.59998 15.1C 6.49998 14 6.69995 12.9 7.19995 11.8C 7.59995 10.7 8.29995 9.69998 9.19995 8.79998C 9.69995 8.29998 10.2 7.89999 10.7 7.49999C 11.2 7.19999 11.6 6.89998 12 6.79998C 12.4 6.59998 12.8 6.50001 13.1 6.40001C 13.4 6.30001 13.8 6.2 14.1 6.2C 14.4 6.1 14.7 6.09999 14.9 5.99999C 15.1 5.89999 15.3 5.80002 15.5 5.60002C 15.8 5.30002 15.9 5.09998 16 4.79998C 16 4.49998 16 4.29999 16 3.99999L 15.4 -1.2207e-05C 14.6 -1.2207e-05 13.7 0.1 12.8 0.2C 11.9 0.4 11.1 0.599988 10.2 0.999988C 9.29995 1.39999 8.49998 1.80001 7.59998 2.40001C 6.69998 3.00001 5.89998 3.69999 5.09998 4.49999C 3.39998 6.19999 2.20005 8.00001 1.30005 9.90001C 0.500049 11.8 0 13.8 0 15.7C 0 17.7 0.399951 19.6 1.19995 21.5C 1.79995 22.8 2.5 24.1 3.5 25.3L 8.59998 20.3Z"/>
<path id="path47_fill" d="M 3.19998 14.6C 4.99998 15.5 6.89995 15.9 8.79995 16C 10.7 16.1 12.6 15.7 14.4 15C 16.3 14.3 18 13.1 19.6 11.4C 21.4 9.60001 22.6 7.80001 23.4 5.90001C 24.1 4.00001 24.4 2.10002 24.1 0.100024L 20 -1.2207e-05C 19.8 -1.2207e-05 19.6 2.44156e-05 19.4 0.100024C 19.2 0.200024 19.1 0.300012 19 0.400012C 18.9 0.500012 18.7 0.700012 18.7 0.900012C 18.6 1.10001 18.6 1.29999 18.6 1.49999C 18.6 2.09999 18.5 2.59999 18.4 2.99999C 18.3 3.49999 18.1 3.89998 17.9 4.29998C 17.7 4.69998 17.4 5.20002 17.1 5.60002C 16.8 6.00002 16.4 6.50001 15.9 6.90001C 15.1 7.70001 14.2 8.3 13.2 8.7C 12.2 9.1 11.2 9.2 10 9.2C 8.90002 9.1 7.8 8.79998 6.6 8.29998C 6.1 8.09998 5.59998 7.79999 5.19998 7.49999L 2.44141e-05 12.7C 1.00002 13.5 2.09998 14.1 3.19998 14.6Z"/>
<path id="path48_fill" d="M 3.19998 24C 5.09998 24.8 7.00002 25.2 9.00002 25.2C 11 25.2 12.9 24.8 14.9 24C 16.8 23.2 18.7 21.9 20.3 20.3C 22 18.6 23.2 16.8 24 14.9C 24.8 13 25.2 11 25.2 8.99999C 25.2 6.99999 24.8 5.1 24 3.2C 23.5 2.1 22.9 0.999988 22.1 -1.2207e-05L 17 5.10002C 17.3 5.50002 17.6 6.00001 17.8 6.40001C 18.4 7.50001 18.7 8.69998 18.8 9.79998C 18.9 10.9 18.7 12 18.3 13.1C 17.9 14.2 17.2 15.2 16.2 16.1C 15.2 17.1 14.2 17.8 13.1 18.2C 12 18.6 10.9 18.8 9.79995 18.8C 8.69995 18.7 7.60005 18.4 6.40005 17.8C 5.90005 17.6 5.5 17.3 5.1 17L 2.44141e-05 22.1C 1.00002 22.9 2.09998 23.6 3.19998 24Z"/>
<path id="path49_fill" d="M 8.69995 20.5C 8.19995 19.9 7.9 19.3 7.5 18.7C 6.9 17.6 6.6 16.4 6.5 15.3C 6.4 14.2 6.6 13.1 7 12C 7.4 10.9 8.09998 9.89999 9.09998 8.89999C 10.1 7.89999 11.1 7.20001 12.1 6.80001C 13.2 6.40001 14.3 6.20001 15.4 6.30001C 16.5 6.40001 17.6 6.70001 18.8 7.30001C 19.4 7.60001 20 8.00002 20.6 8.50002L 25.7 3.39999C 24.6 2.49999 23.3 1.69998 22 1.19998C 20.1 0.399976 18.2 2.44141e-05 16.2 2.44141e-05C 14.2 2.44141e-05 12.3 0.399976 10.3 1.19998C 8.40005 1.99998 6.50002 3.29999 4.90002 4.89999C 3.20002 6.59999 1.99995 8.40001 1.19995 10.3C 0.399951 12.2 4.54747e-13 14.2 4.54747e-13 16.2C 4.54747e-13 18.2 0.399951 20.1 1.19995 22C 1.79995 23.3 2.50002 24.5 3.40002 25.7L 8.69995 20.5Z"/>
<path id="path50_fill" d="M 3.20005 24C 5.10005 24.8 6.99998 25.2 8.99998 25.2C 11 25.2 12.9 24.8 14.9 24C 16.8 23.2 18.7 21.9 20.3 20.3C 22 18.6 23.2 16.8 24 14.9C 24.8 13 25.2 11 25.2 8.99998C 25.2 6.99998 24.8 5.09999 24 3.19999C 23.5 2.09999 22.9 0.999976 22.1 -2.44141e-05L 17 5.10001C 17.3 5.50001 17.6 6 17.8 6.4C 18.4 7.5 18.7 8.70002 18.8 9.80002C 18.9 10.9 18.7 12 18.3 13.1C 17.9 14.2 17.2 15.2 16.2 16.1C 15.2 17.1 14.2 17.8 13.1 18.2C 12 18.6 10.9 18.8 9.80002 18.8C 8.70002 18.7 7.6 18.4 6.4 17.8C 5.9 17.6 5.49995 17.3 5.09995 17L -2.44141e-05 22.1C 0.999976 22.9 2.10005 23.5 3.20005 24Z"/>
<path id="path51_fill" d="M 8.7 20.5C 8.2 19.9 7.90005 19.3 7.50005 18.7C 6.90005 17.6 6.60005 16.4 6.50005 15.3C 6.40005 14.2 6.60005 13.1 7.00005 12C 7.40005 10.9 8.10002 9.89999 9.10002 8.89999C 10.1 7.89999 11.1 7.19999 12.1 6.79999C 13.2 6.39999 14.3 6.19999 15.4 6.29999C 16.5 6.39999 17.6 6.69999 18.8 7.29999C 19.4 7.59999 20 8 20.6 8.5L 25.7 3.39999C 24.6 2.49999 23.3 1.70001 22 1.20001C 20.1 0.400012 18.2 5.68434e-14 16.2 5.68434e-14C 14.2 5.68434e-14 12.3 0.400012 10.3 1.20001C 8.39998 2.00001 6.49995 3.29999 4.89995 4.89999C 3.19995 6.59999 2 8.39999 1.2 10.3C 0.4 12.2 4.88281e-05 14.2 4.88281e-05 16.2C 4.88281e-05 18.2 0.4 20.1 1.2 22C 1.8 23.3 2.49995 24.5 3.39995 25.7L 8.7 20.5Z"/>
<path id="path52_fill" d="M 8.59998 20.3C 8.19998 19.7 7.8 19.1 7.5 18.5C 7 17.3 6.59998 16.2 6.59998 15.1C 6.49998 14 6.69995 12.9 7.19995 11.8C 7.59995 10.7 8.29995 9.7 9.19995 8.8C 9.69995 8.3 10.2 7.90001 10.7 7.50001C 11.2 7.20001 11.6 6.9 12 6.8C 12.4 6.6 12.8 6.50001 13.1 6.40001C 13.4 6.30001 13.8 6.19999 14.1 6.19999C 14.4 6.09999 14.7 6.10001 14.9 6.00001C 15.1 5.90001 15.3 5.79999 15.5 5.59999C 15.8 5.29999 15.9 5.1 16 4.8C 16 4.5 16 4.30001 16 4.00001L 15.4 1.2207e-05C 14.6 1.2207e-05 13.7 0.0999939 12.8 0.199994C 11.9 0.399994 11.1 0.600012 10.2 1.00001C 9.29995 1.40001 8.49998 1.80001 7.59998 2.40001C 6.69998 3.00001 5.89998 3.70001 5.09998 4.50001C 3.39998 6.20001 2.20005 8.00001 1.30005 9.90001C 0.500049 11.8 0 13.8 0 15.7C 0 17.7 0.399951 19.6 1.19995 21.5C 1.79995 22.8 2.5 24.1 3.5 25.3L 8.59998 20.3Z"/>
<path id="path53_fill" d="M 3.19998 14.6C 4.99998 15.5 6.89995 15.9 8.79995 16C 10.7 16.1 12.6 15.7 14.4 15C 16.3 14.3 18 13.1 19.6 11.4C 21.4 9.60001 22.6 7.80001 23.4 5.90001C 24.1 4.00001 24.4 2.09999 24.1 0.0999878L 20 1.2207e-05C 19.8 1.2207e-05 19.6 -1.22115e-05 19.4 0.0999878C 19.2 0.199988 19.1 0.300006 19 0.400006C 18.9 0.500006 18.7 0.700006 18.7 0.900006C 18.6 1.10001 18.6 1.30001 18.6 1.50001C 18.6 2.10001 18.5 2.60001 18.4 3.00001C 18.3 3.50001 18.1 3.9 17.9 4.3C 17.7 4.7 17.4 5.19999 17.1 5.59999C 16.8 5.99999 16.4 6.50001 15.9 6.90001C 15.1 7.70001 14.2 8.29999 13.2 8.69999C 12.2 9.09999 11.2 9.19999 10 9.19999C 8.90002 9.09999 7.8 8.8 6.6 8.3C 6.1 8.1 5.59998 7.80001 5.19998 7.50001L 2.44141e-05 12.7C 1.00002 13.4 2.09998 14.1 3.19998 14.6Z"/>
<path id="path54_fill" d="M 8.69995 20.5C 8.19995 19.9 7.9 19.3 7.5 18.7C 6.9 17.6 6.6 16.4 6.5 15.3C 6.4 14.2 6.6 13.1 7 12C 7.4 10.9 8.09998 9.90001 9.09998 8.90001C 10.1 7.90001 11.1 7.20001 12.1 6.80001C 13.2 6.40001 14.3 6.20001 15.4 6.30001C 16.5 6.40001 17.6 6.70001 18.8 7.30001C 19.4 7.60001 20 7.99999 20.6 8.49999L 25.7 3.40001C 24.6 2.50001 23.3 1.7 22 1.2C 20.1 0.4 18.2 -1.2207e-05 16.2 -1.2207e-05C 14.2 -1.2207e-05 12.3 0.4 10.3 1.2C 8.40005 2 6.50002 3.30001 4.90002 4.90001C 3.20002 6.60001 1.99995 8.40001 1.19995 10.3C 0.399951 12.2 4.54747e-13 14.2 4.54747e-13 16.2C 4.54747e-13 18.2 0.399951 20.1 1.19995 22C 1.79995 23.3 2.50002 24.5 3.40002 25.7L 8.69995 20.5Z"/>
<path id="path55_fill" d="M 8.60005 20.3C 8.20005 19.7 7.79995 19.1 7.49995 18.5C 6.99995 17.3 6.60005 16.2 6.60005 15.1C 6.50005 14 6.70002 12.9 7.20002 11.8C 7.60002 10.7 8.30002 9.69999 9.20002 8.79999C 9.70002 8.29999 10.2 7.9 10.7 7.5C 11.2 7.2 11.6 6.89999 12 6.79999C 12.4 6.59999 12.8 6.49999 13.1 6.39999C 13.4 6.29999 13.8 6.20001 14.1 6.20001C 14.4 6.10001 14.7 6.1 14.9 6C 15.1 5.9 15.3 5.80001 15.5 5.60001C 15.8 5.30001 15.9 5.09999 16 4.79999C 16 4.49999 16 4.3 16 4L 15.4 -5.68434e-14C 14.6 -5.68434e-14 13.7 0.100012 12.8 0.200012C 11.9 0.400012 11.1 0.6 10.2 1C 9.30002 1.4 8.50005 1.79999 7.60005 2.39999C 6.70005 2.99999 5.90005 3.7 5.10005 4.5C 3.40005 6.2 2.2 7.99999 1.3 9.89999C 0.5 11.8 -4.88281e-05 13.8 -4.88281e-05 15.7C -4.88281e-05 17.7 0.400024 19.6 1.20002 21.5C 1.80002 22.8 2.49995 24.1 3.49995 25.3L 8.60005 20.3Z"/>
<path id="path56_fill" d="M 3.20005 14.6C 5.00005 15.5 6.90002 15.9 8.80002 16C 10.7 16.1 12.6 15.7 14.4 15C 16.3 14.3 18 13.1 19.6 11.4C 21.4 9.59999 22.6 7.79999 23.4 5.89999C 24.1 3.99999 24.4 2.10001 24.1 0.100006L 20 5.68434e-14C 19.8 5.68434e-14 19.6 6.10203e-06 19.4 0.100006C 19.2 0.200006 19.1 0.299994 19 0.399994C 18.9 0.499994 18.7 0.699994 18.7 0.899994C 18.6 1.09999 18.6 1.3 18.6 1.5C 18.6 2.1 18.5 2.6 18.4 3C 18.3 3.5 18.1 3.89999 17.9 4.29999C 17.7 4.69999 17.4 5.20001 17.1 5.60001C 16.8 6.00001 16.4 6.49999 15.9 6.89999C 15.1 7.69999 14.2 8.30001 13.2 8.70001C 12.2 9.10001 11.2 9.20001 9.99998 9.20001C 8.89997 9.10001 7.79995 8.79999 6.59995 8.29999C 6.09995 8.09999 5.60005 7.8 5.20005 7.5L -2.44141e-05 12.7C 0.999976 13.4 2.10005 14.1 3.20005 14.6Z"/>
<path id="path57_fill" d="M 3.20005 24C 5.10005 24.8 6.99998 25.2 8.99998 25.2C 11 25.2 12.9 24.8 14.9 24C 16.8 23.2 18.7 21.9 20.3 20.3C 22 18.6 23.2 16.8 24 14.9C 24.8 13 25.2 11 25.2 9C 25.2 7 24.8 5.10001 24 3.20001C 23.5 2.10001 22.9 1 22.1 -5.68434e-14L 17 5.10001C 17.3 5.50001 17.6 5.99999 17.8 6.39999C 18.4 7.49999 18.7 8.69999 18.8 9.79999C 18.9 10.9 18.7 12 18.3 13.1C 17.9 14.2 17.2 15.2 16.2 16.1C 15.2 17.1 14.2 17.8 13.1 18.2C 12 18.6 10.9 18.8 9.80002 18.8C 8.70002 18.7 7.6 18.4 6.4 17.8C 5.9 17.6 5.49995 17.3 5.09995 17L -2.44141e-05 22.1C 0.999976 22.9 2.10005 23.5 3.20005 24Z"/>
<path id="path58_fill" d="M 8.6 20.3C 8.2 19.7 7.80002 19.1 7.50002 18.5C 7.00002 17.3 6.6 16.2 6.6 15.1C 6.5 14 6.69998 12.9 7.19998 11.8C 7.59998 10.7 8.29998 9.7 9.19998 8.8C 9.69998 8.3 10.2 7.90001 10.7 7.50001C 11.2 7.20001 11.6 6.9 12 6.8C 12.4 6.6 12.8 6.49998 13.1 6.39998C 13.4 6.29998 13.8 6.20002 14.1 6.20002C 14.4 6.10002 14.7 6.10001 14.9 6.00001C 15.1 5.90001 15.3 5.79999 15.5 5.59999C 15.8 5.29999 15.9 5.1 16 4.8C 16 4.5 16 4.30001 16 4.00001L 15.4 1.2207e-05C 14.6 1.2207e-05 13.7 0.100024 12.8 0.200024C 11.9 0.400024 11.1 0.600012 10.2 1.00001C 9.29998 1.40001 8.5 1.79998 7.6 2.39998C 6.7 2.99998 5.9 3.70001 5.1 4.50001C 3.4 6.20001 2.19995 7.99998 1.29995 9.89998C 0.499951 11.8 2.44141e-05 13.8 2.44141e-05 15.7C 2.44141e-05 17.7 0.399976 19.6 1.19998 21.5C 1.79998 22.8 2.50002 24.1 3.50002 25.3L 8.6 20.3Z"/>
<path id="path59_fill" d="M 3.2 14.6C 5 15.5 6.89998 15.9 8.79998 16C 10.7 16.1 12.6 15.7 14.4 15C 16.3 14.3 18 13.1 19.6 11.4C 21.4 9.60001 22.6 7.80001 23.4 5.90001C 24.1 4.00001 24.4 2.10002 24.1 0.100024L 20 -1.2207e-05C 19.8 -1.2207e-05 19.6 2.44156e-05 19.4 0.100024C 19.2 0.200024 19.1 0.300012 19 0.400012C 18.9 0.500012 18.7 0.700012 18.7 0.900012C 18.6 1.10001 18.6 1.29999 18.6 1.49999C 18.6 2.09999 18.5 2.59999 18.4 2.99999C 18.3 3.49999 18.1 3.89998 17.9 4.29998C 17.7 4.69998 17.4 5.20002 17.1 5.60002C 16.8 6.00002 16.4 6.50001 15.9 6.90001C 15.1 7.70001 14.2 8.3 13.2 8.7C 12.2 9.1 11.2 9.2 10 9.2C 8.90005 9.1 7.80002 8.79998 6.60002 8.29998C 6.10002 8.09998 5.6 7.79999 5.2 7.49999L 4.88281e-05 12.7C 1.10005 13.4 2.1 14.1 3.2 14.6Z"/>
<path id="path60_fill" d="M 3.2 24C 5.1 24.8 7.00005 25.2 9.00005 25.2C 11 25.2 12.9 24.8 14.9 24C 16.8 23.2 18.7 21.9 20.3 20.3C 22 18.6 23.2001 16.8 24 14.9C 24.8 13 25.2 11 25.2 8.99999C 25.2 6.99999 24.8 5.1 24 3.2C 23.5 2.1 22.9 0.999988 22.1 -1.2207e-05L 17 5.10002C 17.3 5.50002 17.6 6.00001 17.8 6.40001C 18.4 7.50001 18.7 8.69998 18.8 9.79998C 18.9 10.9 18.7 12 18.3 13.1C 17.9 14.2 17.2 15.2 16.2 16.1C 15.2 17.1 14.2 17.8 13.1 18.2C 12 18.6 10.9 18.8 9.79998 18.8C 8.69998 18.7 7.59995 18.4 6.39995 17.8C 5.89995 17.6 5.50002 17.3 5.10002 17L 4.88281e-05 22.1C 1.00005 22.9 2.1 23.5 3.2 24Z"/>
<path id="path61_fill" d="M 8.59995 20.3C 8.19995 19.7 7.79998 19.1 7.49998 18.5C 6.99998 17.3 6.59995 16.2 6.59995 15.1C 6.49995 14 6.70005 12.9 7.20005 11.8C 7.60005 10.7 8.30005 9.69999 9.20005 8.79999C 9.70005 8.29999 10.2 7.9 10.7 7.5C 11.2 7.2 11.6 6.89999 12 6.79999C 12.4 6.59999 12.8 6.50002 13.1 6.40002C 13.4 6.30002 13.8 6.20001 14.1 6.20001C 14.4 6.10001 14.7 6.1 14.9 6C 15.1 5.9 15.3 5.79998 15.5 5.59998C 15.8 5.29998 15.9 5.09999 16 4.79999C 16 4.49999 16 4.3 16 4L 15.4 -1.13687e-13C 14.6 -1.13687e-13 13.7 0.100012 12.8 0.200012C 11.9 0.400012 11.1 0.6 10.2 1C 9.30005 1.4 8.49995 1.80002 7.59995 2.40002C 6.69995 3.00002 5.89995 3.7 5.09995 4.5C 3.39995 6.2 2.20002 8.00002 1.30002 9.90002C 0.500024 11.8 -2.44141e-05 13.8 -2.44141e-05 15.7C -2.44141e-05 17.7 0.400049 19.6 1.20005 21.5C 1.80005 22.8 2.49998 24.1 3.49998 25.3L 8.59995 20.3Z"/>
<path id="path62_fill" d="M 3.19995 14.6C 4.99995 15.5 6.90005 15.9 8.80005 16C 10.7 16.1 12.6 15.7 14.4 15C 16.3 14.3 18 13.1 19.6 11.4C 21.4 9.6 22.6 7.8 23.4 5.9C 24.1 4 24.4 2.10001 24.1 0.100012L 20 -2.44141e-05C 19.8 -2.44141e-05 19.6 1.22041e-05 19.4 0.100012C 19.2 0.200012 19.1 0.3 19 0.4C 18.9 0.5 18.7 0.7 18.7 0.9C 18.6 1.1 18.6 1.29998 18.6 1.49998C 18.6 2.09998 18.5 2.59998 18.4 2.99998C 18.3 3.49998 18.1 3.90002 17.9 4.30002C 17.7 4.70002 17.4 5.20001 17.1 5.60001C 16.8 6.00001 16.4 6.5 15.9 6.9C 15.1 7.7 14.2 8.29999 13.2 8.69999C 12.2 9.09999 11.2 9.19999 10 9.19999C 8.9 9.09999 7.79998 8.80002 6.59998 8.30002C 6.09998 8.10002 5.59995 7.79998 5.19995 7.49998L 2.27374e-13 12.7C 1.1 13.4 2.09995 14 3.19995 14.6Z"/>
<path id="path63_fill" d="M 3.20005 24C 5.10005 24.8 6.99998 25.2 8.99998 25.2C 11 25.2 12.9 24.8 14.9 24C 16.8 23.2 18.7 21.9 20.3 20.3C 22 18.6 23.2 16.8 24 14.9C 24.8 13 25.2 11 25.2 8.99998C 25.2 6.99998 24.8 5.09999 24 3.19999C 23.5 2.09999 22.9 0.999976 22.1 -2.44141e-05L 17 5.10001C 17.3 5.50001 17.6 6 17.8 6.4C 18.4 7.5 18.7 8.70002 18.8 9.80002C 18.9 10.9 18.7 12 18.3 13.1C 17.9 14.2 17.2 15.2 16.2 16.1C 15.2 17.1 14.2 17.8 13.1 18.2C 12 18.6 10.9 18.8 9.80002 18.8C 8.70002 18.7 7.6 18.4 6.4 17.8C 5.9 17.6 5.49995 17.3 5.09995 17L -2.44141e-05 22.1C 0.999976 22.9 2.00005 23.5 3.20005 24Z"/>
<path id="path64_fill" d="M 8.6 20.3C 8.2 19.7 7.80002 19.1 7.50002 18.5C 7.00002 17.3 6.6 16.2 6.6 15.1C 6.5 14 6.69998 12.9 7.19998 11.8C 7.59998 10.7 8.29998 9.7 9.19998 8.8C 9.69998 8.3 10.2 7.90001 10.7 7.50001C 11.2 7.20001 11.6 6.9 12 6.8C 12.4 6.6 12.8 6.50001 13.1 6.40001C 13.4 6.30001 13.8 6.19999 14.1 6.19999C 14.4 6.09999 14.7 6.10001 14.9 6.00001C 15.1 5.90001 15.3 5.79999 15.5 5.59999C 15.8 5.29999 15.9 5.1 16 4.8C 16 4.5 16 4.30001 16 4.00001L 15.4 1.2207e-05C 14.6 1.2207e-05 13.7 0.0999939 12.8 0.199994C 11.9 0.399994 11.1 0.600012 10.2 1.00001C 9.29998 1.40001 8.5 1.80001 7.6 2.40001C 6.7 3.00001 5.9 3.70001 5.1 4.50001C 3.4 6.20001 2.19995 8.00001 1.29995 9.90001C 0.499951 11.8 2.44141e-05 13.8 2.44141e-05 15.7C 2.44141e-05 17.7 0.399976 19.6 1.19998 21.5C 1.79998 22.8 2.50002 24.1 3.50002 25.3L 8.6 20.3Z"/>
<path id="path65_fill" d="M 8.69998 20.5C 8.19998 19.9 7.90002 19.3 7.50002 18.7C 6.90002 17.6 6.60002 16.4 6.50002 15.3C 6.40002 14.2 6.60002 13.1 7.00002 12C 7.40002 10.9 8.1 9.90001 9.1 8.90001C 10.1 7.90001 11.1 7.20001 12.1 6.80001C 13.2 6.40001 14.3 6.20001 15.4 6.30001C 16.5 6.40001 17.6 6.70001 18.8 7.30001C 19.4 7.60001 20 7.99999 20.6 8.49999L 25.7 3.40001C 24.6 2.50001 23.3 1.7 22 1.2C 20.1 0.4 18.2 -1.2207e-05 16.2 -1.2207e-05C 14.2 -1.2207e-05 12.3 0.4 10.3 1.2C 8.39995 2 6.50005 3.30001 4.90005 4.90001C 3.20005 6.60001 1.99998 8.40001 1.19998 10.3C 0.399976 12.2 2.44141e-05 14.2 2.44141e-05 16.2C 2.44141e-05 18.2 0.399976 20.1 1.19998 22C 1.79998 23.3 2.50005 24.5 3.40005 25.7L 8.69998 20.5Z"/>
<path id="path66_fill" d="M 3.19995 14.6C 4.99995 15.5 6.90005 15.9 8.80005 16C 10.7 16.1 12.6 15.7 14.4 15C 16.3 14.3 18 13.1 19.6 11.4C 21.4 9.60002 22.6 7.80002 23.4 5.90002C 24.1 4.00002 24.4 2.09998 24.1 0.0999756L 20 0C 19.8 0 19.6 -2.44156e-05 19.4 0.0999756C 19.2 0.199976 19.1 0.300024 19 0.400024C 18.9 0.500024 18.7 0.700024 18.7 0.900024C 18.6 1.10002 18.6 1.3 18.6 1.5C 18.6 2.1 18.5 2.6 18.4 3C 18.3 3.5 18.1 3.89999 17.9 4.29999C 17.7 4.69999 17.4 5.19998 17.1 5.59998C 16.8 5.99998 16.4 6.50002 15.9 6.90002C 15.1 7.70002 14.2 8.30001 13.2 8.70001C 12.2 9.10001 11.2 9.20001 10 9.20001C 8.9 9.10001 7.79998 8.79999 6.59998 8.29999C 6.09998 8.09999 5.59995 7.8 5.19995 7.5L 2.27374e-13 12.7C 1 13.4 2.09995 14.1 3.19995 14.6Z"/>
<path id="path67_fill" d="M 3.19995 24C 5.09995 24.8 7 25.2 9 25.2C 11 25.2 12.9 24.8 14.9 24C 16.8 23.2 18.7 21.9 20.3 20.3C 22 18.6 23.2 16.8 24 14.9C 24.8 13 25.2 11 25.2 9C 25.2 7 24.8 5.10001 24 3.20001C 23.5 2.10001 22.9 1 22.1 0L 17 5.10001C 17.3 5.50001 17.6 5.99999 17.8 6.39999C 18.4 7.49999 18.7 8.69999 18.8 9.79999C 18.9 10.9 18.7 12 18.3 13.1C 17.9 14.2 17.2 15.2 16.2 16.1C 15.2 17.1 14.2 17.8 13.1 18.2C 12 18.6 10.9 18.8 9.80005 18.8C 8.70005 18.7 7.60002 18.4 6.40002 17.8C 5.90002 17.6 5.49998 17.3 5.09998 17L -4.54747e-13 22.1C 1 22.9 2.09995 23.5 3.19995 24Z"/>
<path id="path68_fill" d="M 8.70002 20.5C 8.20002 19.9 7.89995 19.3 7.49995 18.7C 6.89995 17.6 6.59995 16.4 6.49995 15.3C 6.39995 14.2 6.59995 13.1 6.99995 12C 7.39995 10.9 8.10005 9.9 9.10005 8.9C 10.1 7.9 11.1 7.20002 12.1 6.80002C 13.2 6.40002 14.3 6.20002 15.4 6.30002C 16.5 6.40002 17.6 6.70002 18.8 7.30002C 19.4 7.60002 20 7.99998 20.6 8.49998L 25.7 3.4C 24.6 2.5 23.2999 1.69999 22 1.19999C 20.1 0.399988 18.2 -2.44141e-05 16.2 -2.44141e-05C 14.2 -2.44141e-05 12.3 0.399988 10.3 1.19999C 8.4 1.99999 6.49998 3.3 4.89998 4.9C 3.19998 6.6 2.00002 8.40002 1.20002 10.3C 0.400024 12.2 -4.88281e-05 14.2 -4.88281e-05 16.2C -4.88281e-05 18.2 0.400024 20.1 1.20002 22C 1.80002 23.3 2.49998 24.5 3.39998 25.7L 8.70002 20.5Z"/>
<path id="path69_fill" d="M 8.60002 20.3C 8.20002 19.7 7.80005 19.1 7.50005 18.5C 7.00005 17.3 6.60002 16.2 6.60002 15.1C 6.50002 14 6.7 12.9 7.2 11.8C 7.6 10.7 8.3 9.7 9.2 8.8C 9.7 8.3 10.2 7.90001 10.7 7.50001C 11.2 7.20001 11.6 6.9 12 6.8C 12.4 6.6 12.8 6.49998 13.1 6.39998C 13.4 6.29998 13.8 6.20002 14.1 6.20002C 14.4 6.10002 14.7 6.10001 14.9 6.00001C 15.1 5.90001 15.3 5.79999 15.5 5.59999C 15.8 5.29999 15.9 5.1 16 4.8C 16 4.5 16 4.30001 16 4.00001L 15.4 1.2207e-05C 14.6 1.2207e-05 13.7 0.100024 12.8 0.200024C 11.9 0.400024 11.1 0.600012 10.2 1.00001C 9.3 1.40001 8.50002 1.79998 7.60002 2.39998C 6.70002 2.99998 5.90002 3.70001 5.10002 4.50001C 3.40002 6.20001 2.19998 7.99998 1.29998 9.89998C 0.499976 11.8 4.88281e-05 13.8 4.88281e-05 15.7C 4.88281e-05 17.7 0.4 19.6 1.2 21.5C 1.8 22.8 2.50005 24.1 3.50005 25.3L 8.60002 20.3Z"/>
<path id="path70_fill" d="M 3.20002 14.6C 5.00002 15.5 6.9 15.9 8.8 16C 10.7 16.1 12.6 15.7 14.4 15C 16.3 14.3 18 13.1 19.6 11.4C 21.4 9.60001 22.6 7.80001 23.4 5.90001C 24.1 4.00001 24.4 2.10002 24.1 0.100024L 20 -1.2207e-05C 19.7999 -1.2207e-05 19.6 2.44156e-05 19.4 0.100024C 19.2 0.200024 19.1 0.300012 19 0.400012C 18.9 0.500012 18.7 0.700012 18.7 0.900012C 18.6 1.10001 18.6 1.29999 18.6 1.49999C 18.6 2.09999 18.5 2.59999 18.4 2.99999C 18.3 3.49999 18.1 3.89998 17.9 4.29998C 17.7 4.69998 17.4 5.20002 17.1 5.60002C 16.8 6.00002 16.4 6.50001 15.9 6.90001C 15.1 7.70001 14.2 8.3 13.2 8.7C 12.2 9.1 11.2 9.2 9.99995 9.2C 8.89995 9.1 7.80005 8.79998 6.60005 8.29998C 6.10005 8.09998 5.60002 7.79999 5.20002 7.49999L -4.88281e-05 12.7C 0.999951 13.4 2.10002 14 3.20002 14.6Z"/>
<path id="path71_fill" d="M 3.20002 24C 5.10002 24.8 6.99995 25.2 8.99995 25.2C 11 25.2 12.9 24.8 14.9 24C 16.8 23.2 18.7 21.9 20.3 20.3C 22 18.6 23.2 16.8 24 14.9C 24.7999 13 25.2 11 25.2 8.99999C 25.2 6.99999 24.7999 5.1 24 3.2C 23.5 2.1 22.9 0.999988 22.1 -1.2207e-05L 17 5.10002C 17.2999 5.50002 17.6 6.00001 17.8 6.40001C 18.4 7.50001 18.7 8.69998 18.8 9.79998C 18.9 10.9 18.7 12 18.3 13.1C 17.9 14.2 17.2 15.2 16.2 16.1C 15.2 17.1 14.2 17.8 13.1 18.2C 12 18.6 10.9 18.8 9.8 18.8C 8.7 18.7 7.59998 18.4 6.39998 17.8C 5.89998 17.6 5.50005 17.3 5.10005 17L -4.88281e-05 22.1C 0.999951 22.9 2.10002 23.5 3.20002 24Z"/>
<path id="path72_fill" d="M 8.69998 20.5C 8.19998 19.9 7.90002 19.3 7.50002 18.7C 6.90002 17.6 6.60002 16.4 6.50002 15.3C 6.40002 14.2 6.60002 13.1 7.00002 12C 7.40002 10.9 8.1 9.89999 9.1 8.89999C 10.1 7.89999 11.1 7.20001 12.1 6.80001C 13.2 6.40001 14.3 6.20001 15.4 6.30001C 16.5 6.40001 17.6 6.70001 18.8 7.30001C 19.4 7.60001 20 8.00002 20.6 8.50002L 25.7 3.39999C 24.6 2.49999 23.3 1.69998 22 1.19998C 20.1 0.399976 18.2 2.44141e-05 16.2 2.44141e-05C 14.2 2.44141e-05 12.3 0.399976 10.3 1.19998C 8.39995 1.99998 6.50005 3.29999 4.90005 4.89999C 3.20005 6.59999 1.99998 8.40001 1.19998 10.3C 0.399976 12.2 2.44141e-05 14.2 2.44141e-05 16.2C 2.44141e-05 18.2 0.399976 20.1 1.19998 22C 1.79998 23.3 2.50005 24.5 3.40005 25.7L 8.69998 20.5Z"/>
<path id="path73_fill" d="M 3.19998 24C 5.09998 24.8 7.00002 25.2 9.00002 25.2C 11 25.2 12.9 24.8 14.9 24C 16.8 23.2 18.7 21.9 20.3 20.3C 22 18.6 23.2 16.8 24 14.9C 24.8 13 25.2 11 25.2 8.99998C 25.2 6.99998 24.8 5.09999 24 3.19999C 23.5 2.09999 22.9 0.999976 22.1 -2.44141e-05L 17 5.10001C 17.3 5.50001 17.6 6 17.8 6.4C 18.4 7.5 18.7 8.70002 18.8 9.80002C 18.9 10.9 18.7 12 18.3 13.1C 17.9 14.2 17.2 15.2 16.2 16.1C 15.2 17.1 14.2 17.8 13.1 18.2C 12 18.6 10.9 18.8 9.79995 18.8C 8.69995 18.7 7.60005 18.4 6.40005 17.8C 5.90005 17.6 5.5 17.3 5.1 17L 2.44141e-05 22.1C 1.00002 22.9 2.09998 23.5 3.19998 24Z"/>
<path id="path74_fill" d="M 8.7 20.5C 8.2 19.9 7.90005 19.3 7.50005 18.7C 6.90005 17.6 6.60005 16.4 6.50005 15.3C 6.40005 14.2 6.60005 13.1 7.00005 12C 7.40005 10.9 8.10002 9.90001 9.10002 8.90001C 10.1 7.90001 11.1 7.19998 12.1 6.79998C 13.2 6.39998 14.3 6.19998 15.4 6.29998C 16.5 6.39998 17.6 6.69998 18.8 7.29998C 19.4 7.59998 20 7.99999 20.6 8.49999L 25.7 3.40001C 24.6 2.50001 23.3 1.7 22 1.2C 20.1 0.4 18.2 -1.2207e-05 16.2 -1.2207e-05C 14.2 -1.2207e-05 12.3 0.4 10.3 1.2C 8.39998 2 6.49995 3.30001 4.89995 4.90001C 3.19995 6.60001 2 8.39998 1.2 10.3C 0.4 12.2 4.88281e-05 14.2 4.88281e-05 16.2C 4.88281e-05 18.2 0.4 20.1 1.2 22C 1.8 23.3 2.49995 24.5 3.39995 25.7L 8.7 20.5Z"/>
<path id="path75_fill" d="M 8.59998 20.3C 8.19998 19.7 7.8 19.1 7.5 18.5C 7 17.3 6.59998 16.2 6.59998 15.1C 6.49998 14 6.69995 12.9 7.19995 11.8C 7.59995 10.7 8.29995 9.69999 9.19995 8.79999C 9.69995 8.29999 10.2 7.9 10.7 7.5C 11.2 7.2 11.6 6.89999 12 6.79999C 12.4 6.59999 12.8 6.50002 13.1 6.40002C 13.4 6.30002 13.8 6.20001 14.1 6.20001C 14.4 6.10001 14.7 6.1 14.9 6C 15.1 5.9 15.3 5.79998 15.5 5.59998C 15.8 5.29998 15.9 5.09999 16 4.79999C 16 4.49999 16 4.3 16 4L 15.4 -1.13687e-13C 14.6 -1.13687e-13 13.7 0.100012 12.8 0.200012C 11.9 0.400012 11.1 0.6 10.2 1C 9.29995 1.4 8.49998 1.80002 7.59998 2.40002C 6.69998 3.00002 5.89998 3.7 5.09998 4.5C 3.39998 6.2 2.20005 8.00002 1.30005 9.90002C 0.500049 11.8 0 13.8 0 15.7C 0 17.7 0.399951 19.6 1.19995 21.5C 1.79995 22.8 2.5 24.1 3.5 25.3L 8.59998 20.3Z"/>
<path id="path76_fill" d="M 3.19998 14.6C 4.99998 15.5 6.89995 15.9 8.79995 16C 10.7 16.1 12.6 15.7 14.4 15C 16.3 14.3 18 13.1 19.6 11.4C 21.4 9.60002 22.6 7.80002 23.4 5.90002C 24.1 4.00002 24.4 2.09998 24.1 0.0999756L 20 0C 19.8 0 19.6 -2.44156e-05 19.4 0.0999756C 19.2 0.199976 19.1 0.300024 19 0.400024C 18.9 0.500024 18.7 0.700024 18.7 0.900024C 18.6 1.10002 18.6 1.3 18.6 1.5C 18.6 2.1 18.5 2.6 18.4 3C 18.3 3.5 18.1 3.89999 17.9 4.29999C 17.7 4.69999 17.4 5.19998 17.1 5.59998C 16.8 5.99998 16.4 6.50002 15.9 6.90002C 15.1 7.70002 14.2 8.30001 13.2 8.70001C 12.2 9.10001 11.2 9.20001 10 9.20001C 8.90002 9.10001 7.8 8.79999 6.6 8.29999C 6.1 8.09999 5.59998 7.8 5.19998 7.5L 2.44141e-05 12.7C 1.00002 13.4 2.09998 14.1 3.19998 14.6Z"/>
<path id="path77_fill" d="M 7 13.6C 7.1 12.9 7.2 12.2 7.5 11.5C 7.9 10.3 8.50001 9.29998 9.20001 8.39998C 9.90001 7.59998 10.8 6.90001 11.9 6.50001C 13 6.10001 14.2 5.8 15.6 5.8C 17 5.8 18.2 6.00001 19.2 6.50001C 20.3 6.90001 21.2 7.59998 21.9 8.39998C 22.6 9.19998 23.2 10.3 23.6 11.5C 23.8 12.2 24 12.9 24.1 13.6L 31.4 13.6C 31.2 12.1 30.9 10.8 30.4 9.39998C 29.6 7.49998 28.6 5.90001 27.2 4.50001C 25.8 3.10001 24.2 2.00002 22.2 1.20002C 20.3 0.400024 18.1 1.2207e-05 15.7 1.2207e-05C 13.3 1.2207e-05 11.2 0.400024 9.20001 1.20002C 7.20001 2.00002 5.60001 3.10001 4.20001 4.50001C 2.80001 5.90001 1.7 7.49998 1 9.39998C 0.5 10.7 0.1 12.1 -1.7053e-13 13.6L 7 13.6Z"/>
<path id="path78_fill" d="M 7.39999 13.5C 7.49999 12.8 7.69999 12.1 7.89999 11.4C 8.29999 10.2 8.90001 9.19998 9.70001 8.29998C 10.5 7.49998 11.4 6.80001 12.4 6.40001C 13.5 5.90001 14.6 5.7 15.9 5.7C 16.6 5.7 17.3 5.80001 17.8 5.90001C 18.4 6.00001 18.8 6.09998 19.2 6.29998C 19.6 6.49998 20 6.59998 20.3 6.79998C 20.6 6.99998 20.9 7.19998 21.1 7.29998C 21.4 7.49998 21.6 7.6 21.8 7.7C 22 7.8 22.3 7.90001 22.5 7.90001C 22.9 7.90001 23.2 7.8 23.4 7.7C 23.6 7.5 23.8 7.4 23.9 7.2L 26.3 3.99999C 25.7 3.39999 25.1 2.90001 24.3 2.40001C 23.6 1.90001 22.8 1.50002 21.9 1.10002C 21 0.700024 20.1 0.499976 19.1 0.299976C 18.1 0.0999756 17 -1.2207e-05 15.9 -1.2207e-05C 13.5 -1.2207e-05 11.4 0.4 9.39999 1.2C 7.39999 2 5.79999 3.00001 4.39999 4.40001C 2.99999 5.80001 1.9 7.39998 1.1 9.29998C 0.6 10.6 0.199994 12.1 -6.10352e-06 13.6L 7.39999 13.6L 7.39999 13.5Z"/>
<path id="path79_fill" d="M 0.800006 3.69999C 1.50001 5.59999 2.5 7.30001 3.7 8.60001C 5 10 6.50001 11.1 8.40001 11.9C 10.2 12.7 12.3 13.1 14.6 13.1C 17.1 13.1 19.3 12.7 21.2 11.9C 23 11.1 24.6 9.90002 25.8 8.30002L 23 5.30002C 22.8 5.10002 22.7 4.99998 22.5 4.99998C 22.3 4.89998 22.2 4.9 22 4.9C 21.8 4.9 21.6 4.89998 21.4 4.99998C 21.2 5.09998 21 5.20002 20.9 5.30002C 20.5 5.70002 20.1 5.99999 19.7 6.19999C 19.3 6.39999 18.9 6.60002 18.4 6.80002C 17.9 7.00002 17.5 7.10001 16.9 7.10001C 16.4 7.20001 15.8 7.19999 15.1 7.19999C 14 7.19999 12.9 7.00001 12 6.60001C 11 6.20001 10.2 5.49999 9.40001 4.69999C 8.70001 3.89999 8.1 2.80001 7.7 1.60001C 7.5 1.10001 7.40001 0.599976 7.30001 -2.44141e-05L -1.2207e-05 -2.44141e-05C 0.0999878 1.39998 0.400006 2.59999 0.800006 3.69999Z"/>
<path id="path80_fill" d="M 1.1 3.59999C 1.9 5.49999 2.90001 7.19999 4.30001 8.59999C 5.70001 9.99999 7.40001 11.1 9.30001 11.9C 11.3 12.7 13.4 13.1 15.8 13.1C 18.2 13.1 20.3 12.7 22.3 11.9C 24.2 11.1 25.9 9.99999 27.3 8.59999C 28.7 7.19999 29.8 5.49999 30.5 3.59999C 31 2.49999 31.3 1.30001 31.5 1.2207e-05L 24.2 1.2207e-05C 24.1 0.500012 24 1.00001 23.8 1.50001C 23.4 2.70001 22.8 3.69999 22.1 4.59999C 21.4 5.39999 20.5 6.10001 19.4 6.50001C 18.3 6.90001 17.1 7.20002 15.8 7.20002C 14.4 7.20002 13.2 7.00001 12.1 6.50001C 11 6.10001 10.1 5.39999 9.39999 4.59999C 8.69999 3.79999 8.09998 2.70001 7.69998 1.50001C 7.49998 1.00001 7.40001 0.500012 7.30001 1.2207e-05L 2.44141e-05 1.2207e-05C 0.300024 1.30001 0.6 2.39999 1.1 3.59999Z"/>
<path id="path81_fill" d="M 7.00001 13.6C 7.10001 12.9 7.20001 12.2 7.50001 11.5C 7.90001 10.3 8.49999 9.30002 9.19999 8.40002C 9.89999 7.60002 10.8 6.9 11.9 6.5C 13 6.1 14.2 5.79999 15.6 5.79999C 17 5.79999 18.2 6 19.2 6.5C 20.3 6.9 21.2 7.60002 21.9 8.40002C 22.6 9.20002 23.2 10.3 23.6 11.5C 23.8 12.2 24 12.9 24.1 13.6L 31.4 13.6C 31.2 12.1 30.9 10.8 30.4 9.40002C 29.6 7.50002 28.6 5.9 27.2 4.5C 25.8 3.1 24.2 2.00001 22.2 1.20001C 20.3 0.400012 18.1 0 15.7 0C 13.3 0 11.2 0.400012 9.19999 1.20001C 7.19999 2.00001 5.59999 3.1 4.19999 4.5C 2.79999 5.9 1.70001 7.50002 1.00001 9.40002C 0.500006 10.7 0.100006 12.1 6.10352e-06 13.6L 7.00001 13.6Z"/>
<path id="path82_fill" d="M 7.39999 13.5C 7.49999 12.8 7.69999 12.1 7.89999 11.4C 8.29999 10.2 8.90001 9.20002 9.70001 8.30002C 10.5 7.50002 11.4 6.8 12.4 6.4C 13.5 5.9 14.6 5.69999 15.9 5.69999C 16.6 5.69999 17.3 5.8 17.8 5.9C 18.4 6 18.8 6.10002 19.2 6.30002C 19.6 6.50002 20 6.60002 20.3 6.80002C 20.6 7.00002 20.9 7.20002 21.1 7.30002C 21.4 7.50002 21.6 7.59999 21.8 7.69999C 22 7.79999 22.3 7.9 22.5 7.9C 22.9 7.9 23.2 7.79999 23.4 7.69999C 23.6 7.49999 23.8 7.39999 23.9 7.19999L 26.3 3.99998C 25.7 3.39998 25.1 2.9 24.3 2.4C 23.6 1.9 22.8 1.50001 21.9 1.10001C 21 0.700012 20.1 0.500024 19.1 0.300024C 18.1 0.100024 17 -2.44141e-05 15.9 -2.44141e-05C 13.5 -2.44141e-05 11.4 0.399988 9.39999 1.19999C 7.39999 1.99999 5.79999 3 4.39999 4.4C 2.99999 5.8 1.90001 7.40002 1.10001 9.30002C 0.600006 10.6 0.2 12.1 1.13687e-13 13.6L 7.39999 13.6L 7.39999 13.5Z"/>
<path id="path83_fill" d="M 0.800006 3.70001C 1.50001 5.60001 2.5 7.29998 3.7 8.59998C 5 9.99998 6.50001 11.1 8.40001 11.9C 10.2 12.7 12.3 13.1 14.6 13.1C 17.1 13.1 19.3 12.7 21.2 11.9C 23.1 11.1 24.6 9.89999 25.8 8.29999L 23 5.29999C 22.8 5.09999 22.7 5 22.5 5C 22.3 4.9 22.2 4.90002 22 4.90002C 21.8 4.90002 21.6 4.9 21.4 5C 21.2 5.1 21 5.19999 20.9 5.29999C 20.5 5.69999 20.1 6.00001 19.7 6.20001C 19.3 6.40001 18.9 6.59999 18.4 6.79999C 17.9 6.99999 17.5 7.09998 16.9 7.09998C 16.4 7.19998 15.8 7.20001 15.1 7.20001C 14 7.20001 12.9 6.99998 12 6.59998C 11 6.19998 10.2 5.50001 9.40001 4.70001C 8.70001 3.90001 8.1 2.79998 7.7 1.59998C 7.5 1.09998 7.40001 0.6 7.30001 1.13687e-13L -1.2207e-05 1.13687e-13C 0.0999878 1.3 0.400006 2.50001 0.800006 3.70001Z"/>
<path id="path84_fill" d="M 1 3.59998C 1.8 5.49998 2.80001 7.19998 4.20001 8.59998C 5.60001 9.99998 7.30001 11.1 9.20001 11.9C 11.2 12.7 13.3 13.1 15.7 13.1C 18.1 13.1 20.2 12.7 22.2 11.9C 24.1 11.1 25.8 9.99998 27.2 8.59998C 28.6 7.19998 29.7 5.49998 30.4 3.59998C 30.9 2.49998 31.2 1.3 31.4 0L 24.1 0C 24 0.5 23.9 1 23.7 1.5C 23.3 2.7 22.7 3.69998 22 4.59998C 21.3 5.39998 20.4 6.1 19.3 6.5C 18.2 6.9 17 7.20001 15.7 7.20001C 14.3 7.20001 13.1 7 12 6.5C 10.9 6.1 9.99999 5.39998 9.29999 4.59998C 8.59999 3.79998 8.00001 2.7 7.60001 1.5C 7.40001 1 7.30001 0.5 7.20001 0L 0 0C 0.2 1.3 0.5 2.49998 1 3.59998Z"/>
</defs>
</svg>
