<svg width="1366" height="270" viewBox="0 0 1366 270" version="1.1" xmlns="http://www.w3.org/2000/svg" xmlns:xlink="http://www.w3.org/1999/xlink">
<title>form_1_background</title>
<desc>Created using Figma</desc>
<g id="Canvas" transform="translate(0 -2730)">
<g id="form_1_background">
<mask id="mask0_alpha" mask-type="alpha">
<g id="Rectangle 2">
<use xlink:href="#path0_fill" transform="translate(0 2730)" fill="#BDBDBD"/>
</g>
</mask>
<g id="background" mask="url(#mask0_alpha)">
<g id="background">
<use xlink:href="#path1_fill" transform="translate(11.5 2730)" fill="url(#paint1_linear)"/>
</g>
<g id="graphics">
<g id="Vector">
<use xlink:href="#path2_fill" transform="translate(-361 2653.1)" fill="url(#paint2_linear)"/>
</g>
<g id="pattern">
<g id="Vector">
<use xlink:href="#path3_fill" transform="translate(1267.2 2713.7)" fill="url(#paint3_linear)"/>
</g>
<g id="Vector">
<use xlink:href="#path4_fill" transform="translate(1283.1 2721.7)" fill="url(#paint4_linear)"/>
</g>
<g id="Vector">
<use xlink:href="#path5_fill" transform="translate(1241.2 2739.3)" fill="url(#paint5_linear)"/>
</g>
<g id="Vector">
<use xlink:href="#path6_fill" transform="translate(1221.4 2759.5)" fill="url(#paint6_linear)"/>
</g>
<g id="Vector">
<use xlink:href="#path7_fill" transform="translate(1237.3 2767.5)" fill="url(#paint7_linear)"/>
</g>
<g id="Vector">
<use xlink:href="#path8_fill" transform="translate(1257.3 2738)" fill="url(#paint8_linear)"/>
</g>
<g id="Vector">
<use xlink:href="#path9_fill" transform="translate(1195.5 2785.1)" fill="url(#paint9_linear)"/>
</g>
<g id="Vector">
<use xlink:href="#path10_fill" transform="translate(1175.6 2805.2)" fill="url(#paint10_linear)"/>
</g>
<g id="Vector">
<use xlink:href="#path11_fill" transform="translate(1191.5 2813.3)" fill="url(#paint11_linear)"/>
</g>
<g id="Vector">
<use xlink:href="#path12_fill" transform="translate(1211.5 2783.8)" fill="url(#paint12_linear)"/>
</g>
<g id="Vector">
<use xlink:href="#path13_fill" transform="translate(1149.7 2830.9)" fill="url(#paint13_linear)"/>
</g>
<g id="Vector">
<use xlink:href="#path14_fill" transform="translate(1129.8 2851)" fill="url(#paint14_linear)"/>
</g>
<g id="Vector">
<use xlink:href="#path15_fill" transform="translate(1145.7 2859.1)" fill="url(#paint15_linear)"/>
</g>
<g id="Vector">
<use xlink:href="#path16_fill" transform="translate(1165.8 2829.6)" fill="url(#paint16_linear)"/>
</g>
<g id="Vector">
<use xlink:href="#path17_fill" transform="translate(1103.9 2876.6)" fill="url(#paint17_linear)"/>
</g>
<g id="Vector">
<use xlink:href="#path18_fill" transform="translate(1084 2896.8)" fill="url(#paint18_linear)"/>
</g>
<g id="Vector">
<use xlink:href="#path19_fill" transform="translate(1100 2904.8)" fill="url(#paint19_linear)"/>
</g>
<g id="Vector">
<use xlink:href="#path20_fill" transform="translate(1120 2875.4)" fill="url(#paint20_linear)"/>
</g>
<g id="Vector">
<use xlink:href="#path21_fill" transform="translate(1058.1 2922.4)" fill="url(#paint21_linear)"/>
</g>
<g id="Vector">
<use xlink:href="#path22_fill" transform="translate(1038.3 2942.6)" fill="url(#paint22_linear)"/>
</g>
<g id="Vector">
<use xlink:href="#path23_fill" transform="translate(1054.2 2950.6)" fill="url(#paint23_linear)"/>
</g>
<g id="Vector">
<use xlink:href="#path24_fill" transform="translate(1074.2 2921.1)" fill="url(#paint24_linear)"/>
</g>
<g id="Vector">
<use xlink:href="#path25_fill" transform="translate(1306.9 2721.5)" fill="url(#paint25_linear)"/>
</g>
<g id="Vector">
<use xlink:href="#path26_fill" transform="translate(1287 2741.7)" fill="url(#paint26_linear)"/>
</g>
<g id="Vector">
<use xlink:href="#path27_fill" transform="translate(1303 2749.7)" fill="url(#paint27_linear)"/>
</g>
<g id="Vector">
<use xlink:href="#path28_fill" transform="translate(1323 2720.2)" fill="url(#paint28_linear)"/>
</g>
<g id="Vector">
<use xlink:href="#path29_fill" transform="translate(1261.1 2767.3)" fill="url(#paint29_linear)"/>
</g>
<g id="Vector">
<use xlink:href="#path30_fill" transform="translate(1241.3 2787.5)" fill="url(#paint30_linear)"/>
</g>
<g id="Vector">
<use xlink:href="#path31_fill" transform="translate(1257.2 2795.5)" fill="url(#paint31_linear)"/>
</g>
<g id="Vector">
<use xlink:href="#path32_fill" transform="translate(1277.2 2766)" fill="url(#paint32_linear)"/>
</g>
<g id="Vector">
<use xlink:href="#path33_fill" transform="translate(1215.3 2813.1)" fill="url(#paint33_linear)"/>
</g>
<g id="Vector">
<use xlink:href="#path34_fill" transform="translate(1195.5 2833.2)" fill="url(#paint34_linear)"/>
</g>
<g id="Vector">
<use xlink:href="#path35_fill" transform="translate(1211.4 2841.3)" fill="url(#paint35_linear)"/>
</g>
<g id="Vector">
<use xlink:href="#path36_fill" transform="translate(1231.4 2811.8)" fill="url(#paint36_linear)"/>
</g>
<g id="Vector">
<use xlink:href="#path21_fill" transform="translate(1169.6 2858.9)" fill="url(#paint37_linear)"/>
</g>
<g id="Vector">
<use xlink:href="#path37_fill" transform="translate(1149.7 2879)" fill="url(#paint38_linear)"/>
</g>
<g id="Vector">
<use xlink:href="#path38_fill" transform="translate(1165.6 2887.1)" fill="url(#paint39_linear)"/>
</g>
<g id="Vector">
<use xlink:href="#path39_fill" transform="translate(1185.6 2857.6)" fill="url(#paint40_linear)"/>
</g>
<g id="Vector">
<use xlink:href="#path40_fill" transform="translate(1123.8 2904.6)" fill="url(#paint41_linear)"/>
</g>
<g id="Vector">
<use xlink:href="#path41_fill" transform="translate(1103.9 2924.8)" fill="url(#paint42_linear)"/>
</g>
<g id="Vector">
<use xlink:href="#path42_fill" transform="translate(1119.9 2932.8)" fill="url(#paint43_linear)"/>
</g>
<g id="Vector">
<use xlink:href="#path43_fill" transform="translate(1139.9 2903.3)" fill="url(#paint44_linear)"/>
</g>
<g id="Vector">
<use xlink:href="#path44_fill" transform="translate(1078 2950.4)" fill="url(#paint45_linear)"/>
</g>
<g id="Vector">
<use xlink:href="#path39_fill" transform="translate(1094.1 2949.1)" fill="url(#paint46_linear)"/>
</g>
<g id="Vector">
<use xlink:href="#path45_fill" transform="translate(1352.7 2723.9)" fill="url(#paint47_linear)"/>
</g>
<g id="Vector">
<use xlink:href="#path46_fill" transform="translate(1326.8 2749.5)" fill="url(#paint48_linear)"/>
</g>
<g id="Vector">
<use xlink:href="#path47_fill" transform="translate(1306.9 2769.7)" fill="url(#paint49_linear)"/>
</g>
<g id="Vector">
<use xlink:href="#path48_fill" transform="translate(1322.9 2777.7)" fill="url(#paint50_linear)"/>
</g>
<g id="Vector">
<use xlink:href="#path49_fill" transform="translate(1342.9 2748.2)" fill="url(#paint51_linear)"/>
</g>
<g id="Vector">
<use xlink:href="#path50_fill" transform="translate(1281 2795.3)" fill="url(#paint52_linear)"/>
</g>
<g id="Vector">
<use xlink:href="#path51_fill" transform="translate(1261.2 2815.5)" fill="url(#paint53_linear)"/>
</g>
<g id="Vector">
<use xlink:href="#path52_fill" transform="translate(1277.1 2823.5)" fill="url(#paint54_linear)"/>
</g>
<g id="Vector">
<use xlink:href="#path53_fill" transform="translate(1297.1 2794)" fill="url(#paint55_linear)"/>
</g>
<g id="Vector">
<use xlink:href="#path54_fill" transform="translate(1235.2 2841.1)" fill="url(#paint56_linear)"/>
</g>
<g id="Vector">
<use xlink:href="#path55_fill" transform="translate(1215.4 2861.2)" fill="url(#paint57_linear)"/>
</g>
<g id="Vector">
<use xlink:href="#path56_fill" transform="translate(1231.3 2869.3)" fill="url(#paint58_linear)"/>
</g>
<g id="Vector">
<use xlink:href="#path57_fill" transform="translate(1251.3 2839.8)" fill="url(#paint59_linear)"/>
</g>
<g id="Vector">
<use xlink:href="#path44_fill" transform="translate(1189.5 2886.9)" fill="url(#paint60_linear)"/>
</g>
<g id="Vector">
<use xlink:href="#path58_fill" transform="translate(1169.6 2907)" fill="url(#paint61_linear)"/>
</g>
<g id="Vector">
<use xlink:href="#path59_fill" transform="translate(1185.5 2915.1)" fill="url(#paint62_linear)"/>
</g>
<g id="Vector">
<use xlink:href="#path60_fill" transform="translate(1205.5 2885.6)" fill="url(#paint63_linear)"/>
</g>
<g id="Vector">
<use xlink:href="#path61_fill" transform="translate(1346.7 2777.5)" fill="url(#paint64_linear)"/>
</g>
<g id="Vector">
<use xlink:href="#path62_fill" transform="translate(1326.8 2797.7)" fill="url(#paint65_linear)"/>
</g>
<g id="Vector">
<use xlink:href="#path63_fill" transform="translate(1342.7 2805.7)" fill="url(#paint66_linear)"/>
</g>
<g id="Vector">
<use xlink:href="#path64_fill" transform="translate(1362.8 2776.2)" fill="url(#paint67_linear)"/>
</g>
<g id="Vector">
<use xlink:href="#path65_fill" transform="translate(1300.9 2823.3)" fill="url(#paint68_linear)"/>
</g>
<g id="Vector">
<use xlink:href="#path66_fill" transform="translate(1281.1 2843.5)" fill="url(#paint69_linear)"/>
</g>
<g id="Vector">
<use xlink:href="#path67_fill" transform="translate(1297 2851.5)" fill="url(#paint70_linear)"/>
</g>
<g id="Vector">
<use xlink:href="#path68_fill" transform="translate(1317 2822)" fill="url(#paint71_linear)"/>
</g>
<g id="Vector">
<use xlink:href="#path69_fill" transform="translate(1255.1 2869.1)" fill="url(#paint72_linear)"/>
</g>
<g id="Vector">
<use xlink:href="#path70_fill" transform="translate(1235.3 2889.2)" fill="url(#paint73_linear)"/>
</g>
<g id="Vector">
<use xlink:href="#path71_fill" transform="translate(1251.2 2897.3)" fill="url(#paint74_linear)"/>
</g>
<g id="Vector">
<use xlink:href="#path72_fill" transform="translate(1271.2 2867.8)" fill="url(#paint75_linear)"/>
</g>
<g id="Vector">
<use xlink:href="#path73_fill" transform="translate(1209.4 2914.9)" fill="url(#paint76_linear)"/>
</g>
<g id="Vector">
<use xlink:href="#path74_fill" transform="translate(1225.4 2913.6)" fill="url(#paint77_linear)"/>
</g>
<g id="Vector">
<use xlink:href="#path75_fill" transform="translate(1346.7 2825.7)" fill="url(#paint78_linear)"/>
</g>
<g id="Vector">
<use xlink:href="#path76_fill" transform="translate(1362.6 2833.7)" fill="url(#paint79_linear)"/>
</g>
<g id="Vector">
<use xlink:href="#path77_fill" transform="translate(1320.8 2851.3)" fill="url(#paint80_linear)"/>
</g>
<g id="Vector">
<use xlink:href="#path78_fill" transform="translate(1300.9 2871.5)" fill="url(#paint81_linear)"/>
</g>
<g id="Vector">
<use xlink:href="#path79_fill" transform="translate(1316.9 2879.5)" fill="url(#paint82_linear)"/>
</g>
<g id="Vector">
<use xlink:href="#path80_fill" transform="translate(1336.9 2850)" fill="url(#paint83_linear)"/>
</g>
<g id="Vector">
<use xlink:href="#path81_fill" transform="translate(1340.7 2879.3)" fill="url(#paint84_linear)"/>
</g>
<g id="Vector">
<use xlink:href="#path82_fill" transform="translate(1356.8 2878)" fill="url(#paint85_linear)"/>
</g>
</g>
</g>
</g>
</g>
</g>
<defs>
<linearGradient id="paint1_linear" x1="0" y1="0" x2="1" y2="0" gradientUnits="userSpaceOnUse" gradientTransform="matrix(1619.06 0 0 1619.06 -452.024 -674.551)">
<stop offset="0" stop-color="#394EE5"/>
<stop offset="0.9949" stop-color="#DB71B0"/>
</linearGradient>
<linearGradient id="paint2_linear" x1="0" y1="0" x2="1" y2="0" gradientUnits="userSpaceOnUse" gradientTransform="matrix(-345.382 238.775 -238.775 -345.382 502.614 266.664)">
<stop offset="0" stop-color="#394EE5"/>
<stop offset="1" stop-color="#2F0D56"/>
</linearGradient>
<linearGradient id="paint3_linear" x1="0" y1="0" x2="1" y2="0" gradientUnits="userSpaceOnUse" gradientTransform="matrix(-18.6171 18.6171 -18.6171 -18.6171 26.5267 11.3222)">
<stop offset="0" stop-color="#394EE5"/>
<stop offset="0.9949" stop-color="#DB71B0"/>
</linearGradient>
<linearGradient id="paint4_linear" x1="0" y1="0" x2="1" y2="0" gradientUnits="userSpaceOnUse" gradientTransform="matrix(-18.3092 18.3092 -18.3092 -18.3092 32.0634 8.1172)">
<stop offset="0" stop-color="#394EE5"/>
<stop offset="0.9949" stop-color="#DB71B0"/>
</linearGradient>
<linearGradient id="paint5_linear" x1="0" y1="0" x2="1" y2="0" gradientUnits="userSpaceOnUse" gradientTransform="matrix(-22.2712 22.2711 -22.2711 -22.2712 32.1965 9.7066)">
<stop offset="0" stop-color="#394EE5"/>
<stop offset="0.9949" stop-color="#DB71B0"/>
</linearGradient>
<linearGradient id="paint6_linear" x1="0" y1="0" x2="1" y2="0" gradientUnits="userSpaceOnUse" gradientTransform="matrix(-18.6171 18.6171 -18.6171 -18.6171 26.549 11.2999)">
<stop offset="0" stop-color="#394EE5"/>
<stop offset="0.9949" stop-color="#DB71B0"/>
</linearGradient>
<linearGradient id="paint7_linear" x1="0" y1="0" x2="1" y2="0" gradientUnits="userSpaceOnUse" gradientTransform="matrix(-18.3092 18.3092 -18.3092 -18.3092 32.0857 8.0949)">
<stop offset="0" stop-color="#394EE5"/>
<stop offset="0.9949" stop-color="#DB71B0"/>
</linearGradient>
<linearGradient id="paint8_linear" x1="0" y1="0" x2="1" y2="0" gradientUnits="userSpaceOnUse" gradientTransform="matrix(-22.1636 22.1635 -22.1635 -22.1636 37.8465 15.6885)">
<stop offset="0" stop-color="#394EE5"/>
<stop offset="0.9949" stop-color="#DB71B0"/>
</linearGradient>
<linearGradient id="paint9_linear" x1="0" y1="0" x2="1" y2="0" gradientUnits="userSpaceOnUse" gradientTransform="matrix(-22.2712 22.2711 -22.2711 -22.2712 32.1188 9.6843)">
<stop offset="0" stop-color="#394EE5"/>
<stop offset="0.9949" stop-color="#DB71B0"/>
</linearGradient>
<linearGradient id="paint10_linear" x1="0" y1="0" x2="1" y2="0" gradientUnits="userSpaceOnUse" gradientTransform="matrix(-18.6171 18.6171 -18.6171 -18.6171 26.5714 11.3777)">
<stop offset="0" stop-color="#394EE5"/>
<stop offset="0.9949" stop-color="#DB71B0"/>
</linearGradient>
<linearGradient id="paint11_linear" x1="0" y1="0" x2="1" y2="0" gradientUnits="userSpaceOnUse" gradientTransform="matrix(-18.3092 18.3093 -18.3093 -18.3092 32.108 8.0726)">
<stop offset="0" stop-color="#394EE5"/>
<stop offset="0.9949" stop-color="#DB71B0"/>
</linearGradient>
<linearGradient id="paint12_linear" x1="0" y1="0" x2="1" y2="0" gradientUnits="userSpaceOnUse" gradientTransform="matrix(-22.1636 22.1635 -22.1635 -22.1636 37.8688 15.6662)">
<stop offset="0" stop-color="#394EE5"/>
<stop offset="0.9949" stop-color="#DB71B0"/>
</linearGradient>
<linearGradient id="paint13_linear" x1="0" y1="0" x2="1" y2="0" gradientUnits="userSpaceOnUse" gradientTransform="matrix(-22.2711 22.2712 -22.2712 -22.2711 32.141 9.66195)">
<stop offset="0" stop-color="#394EE5"/>
<stop offset="0.9949" stop-color="#DB71B0"/>
</linearGradient>
<linearGradient id="paint14_linear" x1="0" y1="0" x2="1" y2="0" gradientUnits="userSpaceOnUse" gradientTransform="matrix(-18.6171 18.6171 -18.6171 -18.6171 26.5937 11.3554)">
<stop offset="0" stop-color="#394EE5"/>
<stop offset="0.9949" stop-color="#DB71B0"/>
</linearGradient>
<linearGradient id="paint15_linear" x1="0" y1="0" x2="1" y2="0" gradientUnits="userSpaceOnUse" gradientTransform="matrix(-18.3092 18.3092 -18.3092 -18.3092 32.1303 8.0503)">
<stop offset="0" stop-color="#394EE5"/>
<stop offset="0.9949" stop-color="#DB71B0"/>
</linearGradient>
<linearGradient id="paint16_linear" x1="0" y1="0" x2="1" y2="0" gradientUnits="userSpaceOnUse" gradientTransform="matrix(-22.1636 22.1635 -22.1635 -22.1636 37.7911 15.6439)">
<stop offset="0" stop-color="#394EE5"/>
<stop offset="0.9949" stop-color="#DB71B0"/>
</linearGradient>
<linearGradient id="paint17_linear" x1="0" y1="0" x2="1" y2="0" gradientUnits="userSpaceOnUse" gradientTransform="matrix(-22.2711 22.2711 -22.2711 -22.2711 32.1633 9.73975)">
<stop offset="0" stop-color="#394EE5"/>
<stop offset="0.9949" stop-color="#DB71B0"/>
</linearGradient>
<linearGradient id="paint18_linear" x1="0" y1="0" x2="1" y2="0" gradientUnits="userSpaceOnUse" gradientTransform="matrix(-18.6171 18.6172 -18.6172 -18.6171 26.616 11.333)">
<stop offset="0" stop-color="#394EE5"/>
<stop offset="0.9949" stop-color="#DB71B0"/>
</linearGradient>
<linearGradient id="paint19_linear" x1="0" y1="0" x2="1" y2="0" gradientUnits="userSpaceOnUse" gradientTransform="matrix(-18.3092 18.3092 -18.3092 -18.3092 32.0525 8.128)">
<stop offset="0" stop-color="#394EE5"/>
<stop offset="0.9949" stop-color="#DB71B0"/>
</linearGradient>
<linearGradient id="paint20_linear" x1="0" y1="0" x2="1" y2="0" gradientUnits="userSpaceOnUse" gradientTransform="matrix(-22.1636 22.1635 -22.1635 -22.1636 37.8134 15.6216)">
<stop offset="0" stop-color="#394EE5"/>
<stop offset="0.9949" stop-color="#DB71B0"/>
</linearGradient>
<linearGradient id="paint21_linear" x1="0" y1="0" x2="1" y2="0" gradientUnits="userSpaceOnUse" gradientTransform="matrix(-22.2711 22.2711 -22.2711 -22.2711 32.1856 9.71745)">
<stop offset="0" stop-color="#394EE5"/>
<stop offset="0.9949" stop-color="#DB71B0"/>
</linearGradient>
<linearGradient id="paint22_linear" x1="0" y1="0" x2="1" y2="0" gradientUnits="userSpaceOnUse" gradientTransform="matrix(-18.6171 18.6172 -18.6172 -18.6171 26.5383 11.3107)">
<stop offset="0" stop-color="#394EE5"/>
<stop offset="0.9949" stop-color="#DB71B0"/>
</linearGradient>
<linearGradient id="paint23_linear" x1="0" y1="0" x2="1" y2="0" gradientUnits="userSpaceOnUse" gradientTransform="matrix(-18.3092 18.3093 -18.3093 -18.3092 32.0748 8.1057)">
<stop offset="0" stop-color="#394EE5"/>
<stop offset="0.9949" stop-color="#DB71B0"/>
</linearGradient>
<linearGradient id="paint24_linear" x1="0" y1="0" x2="1" y2="0" gradientUnits="userSpaceOnUse" gradientTransform="matrix(-22.1636 22.1635 -22.1635 -22.1636 37.8357 15.6993)">
<stop offset="0" stop-color="#394EE5"/>
<stop offset="0.9949" stop-color="#DB71B0"/>
</linearGradient>
<linearGradient id="paint25_linear" x1="0" y1="0" x2="1" y2="0" gradientUnits="userSpaceOnUse" gradientTransform="matrix(-22.2711 22.2711 -22.2711 -22.2711 32.1638 9.72495)">
<stop offset="0" stop-color="#394EE5"/>
<stop offset="0.9949" stop-color="#DB71B0"/>
</linearGradient>
<linearGradient id="paint26_linear" x1="0" y1="0" x2="1" y2="0" gradientUnits="userSpaceOnUse" gradientTransform="matrix(-18.6171 18.6171 -18.6171 -18.6171 26.6164 11.3183)">
<stop offset="0" stop-color="#394EE5"/>
<stop offset="0.9949" stop-color="#DB71B0"/>
</linearGradient>
<linearGradient id="paint27_linear" x1="0" y1="0" x2="1" y2="0" gradientUnits="userSpaceOnUse" gradientTransform="matrix(-18.3092 18.3093 -18.3093 -18.3092 32.0531 8.1133)">
<stop offset="0" stop-color="#394EE5"/>
<stop offset="0.9949" stop-color="#DB71B0"/>
</linearGradient>
<linearGradient id="paint28_linear" x1="0" y1="0" x2="1" y2="0" gradientUnits="userSpaceOnUse" gradientTransform="matrix(-22.1636 22.1635 -22.1635 -22.1636 37.8139 15.7069)">
<stop offset="0" stop-color="#394EE5"/>
<stop offset="0.9949" stop-color="#DB71B0"/>
</linearGradient>
<linearGradient id="paint29_linear" x1="0" y1="0" x2="1" y2="0" gradientUnits="userSpaceOnUse" gradientTransform="matrix(-22.2711 22.2711 -22.2711 -22.2711 32.1861 9.70265)">
<stop offset="0" stop-color="#394EE5"/>
<stop offset="0.9949" stop-color="#DB71B0"/>
</linearGradient>
<linearGradient id="paint30_linear" x1="0" y1="0" x2="1" y2="0" gradientUnits="userSpaceOnUse" gradientTransform="matrix(-18.6171 18.6171 -18.6171 -18.6171 26.5387 11.296)">
<stop offset="0" stop-color="#394EE5"/>
<stop offset="0.9949" stop-color="#DB71B0"/>
</linearGradient>
<linearGradient id="paint31_linear" x1="0" y1="0" x2="1" y2="0" gradientUnits="userSpaceOnUse" gradientTransform="matrix(-18.3092 18.3093 -18.3093 -18.3092 32.0754 8.091)">
<stop offset="0" stop-color="#394EE5"/>
<stop offset="0.9949" stop-color="#DB71B0"/>
</linearGradient>
<linearGradient id="paint32_linear" x1="0" y1="0" x2="1" y2="0" gradientUnits="userSpaceOnUse" gradientTransform="matrix(-22.1635 22.1636 -22.1636 -22.1635 37.8361 15.6845)">
<stop offset="0" stop-color="#394EE5"/>
<stop offset="0.9949" stop-color="#DB71B0"/>
</linearGradient>
<linearGradient id="paint33_linear" x1="0" y1="0" x2="1" y2="0" gradientUnits="userSpaceOnUse" gradientTransform="matrix(-22.2711 22.2712 -22.2712 -22.2711 32.2084 9.68035)">
<stop offset="0" stop-color="#394EE5"/>
<stop offset="0.9949" stop-color="#DB71B0"/>
</linearGradient>
<linearGradient id="paint34_linear" x1="0" y1="0" x2="1" y2="0" gradientUnits="userSpaceOnUse" gradientTransform="matrix(-18.617 18.6171 -18.6171 -18.617 26.561 11.3737)">
<stop offset="0" stop-color="#394EE5"/>
<stop offset="0.9949" stop-color="#DB71B0"/>
</linearGradient>
<linearGradient id="paint35_linear" x1="0" y1="0" x2="1" y2="0" gradientUnits="userSpaceOnUse" gradientTransform="matrix(-18.3092 18.3093 -18.3093 -18.3092 32.0977 8.0687)">
<stop offset="0" stop-color="#394EE5"/>
<stop offset="0.9949" stop-color="#DB71B0"/>
</linearGradient>
<linearGradient id="paint36_linear" x1="0" y1="0" x2="1" y2="0" gradientUnits="userSpaceOnUse" gradientTransform="matrix(-22.1635 22.1635 -22.1635 -22.1635 37.8584 15.6623)">
<stop offset="0" stop-color="#394EE5"/>
<stop offset="0.9949" stop-color="#DB71B0"/>
</linearGradient>
<linearGradient id="paint37_linear" x1="0" y1="0" x2="1" y2="0" gradientUnits="userSpaceOnUse" gradientTransform="matrix(-22.2711 22.2712 -22.2712 -22.2711 32.1307 9.65805)">
<stop offset="0" stop-color="#394EE5"/>
<stop offset="0.9949" stop-color="#DB71B0"/>
</linearGradient>
<linearGradient id="paint38_linear" x1="0" y1="0" x2="1" y2="0" gradientUnits="userSpaceOnUse" gradientTransform="matrix(-18.617 18.6171 -18.6171 -18.617 26.5833 11.3514)">
<stop offset="0" stop-color="#394EE5"/>
<stop offset="0.9949" stop-color="#DB71B0"/>
</linearGradient>
<linearGradient id="paint39_linear" x1="0" y1="0" x2="1" y2="0" gradientUnits="userSpaceOnUse" gradientTransform="matrix(-18.3092 18.3093 -18.3093 -18.3092 32.12 8.0464)">
<stop offset="0" stop-color="#394EE5"/>
<stop offset="0.9949" stop-color="#DB71B0"/>
</linearGradient>
<linearGradient id="paint40_linear" x1="0" y1="0" x2="1" y2="0" gradientUnits="userSpaceOnUse" gradientTransform="matrix(-22.1635 22.1635 -22.1635 -22.1635 37.8807 15.6401)">
<stop offset="0" stop-color="#394EE5"/>
<stop offset="0.9949" stop-color="#DB71B0"/>
</linearGradient>
<linearGradient id="paint41_linear" x1="0" y1="0" x2="1" y2="0" gradientUnits="userSpaceOnUse" gradientTransform="matrix(-22.2711 22.2711 -22.2711 -22.2711 32.1529 9.73585)">
<stop offset="0" stop-color="#394EE5"/>
<stop offset="0.9949" stop-color="#DB71B0"/>
</linearGradient>
<linearGradient id="paint42_linear" x1="0" y1="0" x2="1" y2="0" gradientUnits="userSpaceOnUse" gradientTransform="matrix(-18.617 18.6171 -18.6171 -18.617 26.6056 11.3291)">
<stop offset="0" stop-color="#394EE5"/>
<stop offset="0.9949" stop-color="#DB71B0"/>
</linearGradient>
<linearGradient id="paint43_linear" x1="0" y1="0" x2="1" y2="0" gradientUnits="userSpaceOnUse" gradientTransform="matrix(-18.3092 18.3093 -18.3093 -18.3092 32.0422 8.1241)">
<stop offset="0" stop-color="#394EE5"/>
<stop offset="0.9949" stop-color="#DB71B0"/>
</linearGradient>
<linearGradient id="paint44_linear" x1="0" y1="0" x2="1" y2="0" gradientUnits="userSpaceOnUse" gradientTransform="matrix(-22.1636 22.1635 -22.1635 -22.1636 37.803 15.7178)">
<stop offset="0" stop-color="#394EE5"/>
<stop offset="0.9949" stop-color="#DB71B0"/>
</linearGradient>
<linearGradient id="paint45_linear" x1="0" y1="0" x2="1" y2="0" gradientUnits="userSpaceOnUse" gradientTransform="matrix(-22.2711 22.2711 -22.2711 -22.2711 32.1752 9.71355)">
<stop offset="0" stop-color="#394EE5"/>
<stop offset="0.9949" stop-color="#DB71B0"/>
</linearGradient>
<linearGradient id="paint46_linear" x1="0" y1="0" x2="1" y2="0" gradientUnits="userSpaceOnUse" gradientTransform="matrix(-22.1636 22.1635 -22.1635 -22.1636 37.8253 15.6955)">
<stop offset="0" stop-color="#394EE5"/>
<stop offset="0.9949" stop-color="#DB71B0"/>
</linearGradient>
<linearGradient id="paint47_linear" x1="0" y1="0" x2="1" y2="0" gradientUnits="userSpaceOnUse" gradientTransform="matrix(-18.6171 18.6171 -18.6171 -18.6171 26.5838 11.3367)">
<stop offset="0" stop-color="#394EE5"/>
<stop offset="0.9949" stop-color="#DB71B0"/>
</linearGradient>
<linearGradient id="paint48_linear" x1="0" y1="0" x2="1" y2="0" gradientUnits="userSpaceOnUse" gradientTransform="matrix(-22.2711 22.2712 -22.2712 -22.2711 32.1535 9.72105)">
<stop offset="0" stop-color="#394EE5"/>
<stop offset="0.9949" stop-color="#DB71B0"/>
</linearGradient>
<linearGradient id="paint49_linear" x1="0" y1="0" x2="1" y2="0" gradientUnits="userSpaceOnUse" gradientTransform="matrix(-18.6172 18.6172 -18.6172 -18.6172 26.6062 11.3145)">
<stop offset="0" stop-color="#394EE5"/>
<stop offset="0.9949" stop-color="#DB71B0"/>
</linearGradient>
<linearGradient id="paint50_linear" x1="0" y1="0" x2="1" y2="0" gradientUnits="userSpaceOnUse" gradientTransform="matrix(-18.3092 18.3093 -18.3093 -18.3092 32.0427 8.1094)">
<stop offset="0" stop-color="#394EE5"/>
<stop offset="0.9949" stop-color="#DB71B0"/>
</linearGradient>
<linearGradient id="paint51_linear" x1="0" y1="0" x2="1" y2="0" gradientUnits="userSpaceOnUse" gradientTransform="matrix(-22.1636 22.1635 -22.1635 -22.1636 37.8035 15.7031)">
<stop offset="0" stop-color="#394EE5"/>
<stop offset="0.9949" stop-color="#DB71B0"/>
</linearGradient>
<linearGradient id="paint52_linear" x1="0" y1="0" x2="1" y2="0" gradientUnits="userSpaceOnUse" gradientTransform="matrix(-22.2712 22.2711 -22.2711 -22.2712 32.1758 9.6989)">
<stop offset="0" stop-color="#394EE5"/>
<stop offset="0.9949" stop-color="#DB71B0"/>
</linearGradient>
<linearGradient id="paint53_linear" x1="0" y1="0" x2="1" y2="0" gradientUnits="userSpaceOnUse" gradientTransform="matrix(-18.6172 18.6172 -18.6172 -18.6172 26.5285 11.2922)">
<stop offset="0" stop-color="#394EE5"/>
<stop offset="0.9949" stop-color="#DB71B0"/>
</linearGradient>
<linearGradient id="paint54_linear" x1="0" y1="0" x2="1" y2="0" gradientUnits="userSpaceOnUse" gradientTransform="matrix(-18.3092 18.3093 -18.3093 -18.3092 32.065 8.0871)">
<stop offset="0" stop-color="#394EE5"/>
<stop offset="0.9949" stop-color="#DB71B0"/>
</linearGradient>
<linearGradient id="paint55_linear" x1="0" y1="0" x2="1" y2="0" gradientUnits="userSpaceOnUse" gradientTransform="matrix(-22.1636 22.1635 -22.1635 -22.1636 37.8258 15.6808)">
<stop offset="0" stop-color="#394EE5"/>
<stop offset="0.9949" stop-color="#DB71B0"/>
</linearGradient>
<linearGradient id="paint56_linear" x1="0" y1="0" x2="1" y2="0" gradientUnits="userSpaceOnUse" gradientTransform="matrix(-22.2712 22.2711 -22.2711 -22.2712 32.1981 9.6766)">
<stop offset="0" stop-color="#394EE5"/>
<stop offset="0.9949" stop-color="#DB71B0"/>
</linearGradient>
<linearGradient id="paint57_linear" x1="0" y1="0" x2="1" y2="0" gradientUnits="userSpaceOnUse" gradientTransform="matrix(-18.6172 18.6171 -18.6171 -18.6172 26.5508 11.37)">
<stop offset="0" stop-color="#394EE5"/>
<stop offset="0.9949" stop-color="#DB71B0"/>
</linearGradient>
<linearGradient id="paint58_linear" x1="0" y1="0" x2="1" y2="0" gradientUnits="userSpaceOnUse" gradientTransform="matrix(-18.3092 18.3093 -18.3093 -18.3092 32.0873 8.0648)">
<stop offset="0" stop-color="#394EE5"/>
<stop offset="0.9949" stop-color="#DB71B0"/>
</linearGradient>
<linearGradient id="paint59_linear" x1="0" y1="0" x2="1" y2="0" gradientUnits="userSpaceOnUse" gradientTransform="matrix(-22.1636 22.1636 -22.1636 -22.1636 37.8481 15.6584)">
<stop offset="0" stop-color="#394EE5"/>
<stop offset="0.9949" stop-color="#DB71B0"/>
</linearGradient>
<linearGradient id="paint60_linear" x1="0" y1="0" x2="1" y2="0" gradientUnits="userSpaceOnUse" gradientTransform="matrix(-22.2711 22.2711 -22.2711 -22.2711 32.1202 9.65425)">
<stop offset="0" stop-color="#394EE5"/>
<stop offset="0.9949" stop-color="#DB71B0"/>
</linearGradient>
<linearGradient id="paint61_linear" x1="0" y1="0" x2="1" y2="0" gradientUnits="userSpaceOnUse" gradientTransform="matrix(-18.6172 18.6171 -18.6171 -18.6172 26.5731 11.3477)">
<stop offset="0" stop-color="#394EE5"/>
<stop offset="0.9949" stop-color="#DB71B0"/>
</linearGradient>
<linearGradient id="paint62_linear" x1="0" y1="0" x2="1" y2="0" gradientUnits="userSpaceOnUse" gradientTransform="matrix(-18.3092 18.3093 -18.3093 -18.3092 32.1096 8.0425)">
<stop offset="0" stop-color="#394EE5"/>
<stop offset="0.9949" stop-color="#DB71B0"/>
</linearGradient>
<linearGradient id="paint63_linear" x1="0" y1="0" x2="1" y2="0" gradientUnits="userSpaceOnUse" gradientTransform="matrix(-22.1636 22.1635 -22.1635 -22.1636 37.8704 15.6362)">
<stop offset="0" stop-color="#394EE5"/>
<stop offset="0.9949" stop-color="#DB71B0"/>
</linearGradient>
<linearGradient id="paint64_linear" x1="0" y1="0" x2="1" y2="0" gradientUnits="userSpaceOnUse" gradientTransform="matrix(-22.2711 22.2711 -22.2711 -22.2711 32.143 9.71725)">
<stop offset="0" stop-color="#394EE5"/>
<stop offset="0.9949" stop-color="#DB71B0"/>
</linearGradient>
<linearGradient id="paint65_linear" x1="0" y1="0" x2="1" y2="0" gradientUnits="userSpaceOnUse" gradientTransform="matrix(-18.6172 18.6172 -18.6172 -18.6172 26.5959 11.3106)">
<stop offset="0" stop-color="#394EE5"/>
<stop offset="0.9949" stop-color="#DB71B0"/>
</linearGradient>
<linearGradient id="paint66_linear" x1="0" y1="0" x2="1" y2="0" gradientUnits="userSpaceOnUse" gradientTransform="matrix(-18.3092 18.3093 -18.3093 -18.3092 32.1323 8.1055)">
<stop offset="0" stop-color="#394EE5"/>
<stop offset="0.9949" stop-color="#DB71B0"/>
</linearGradient>
<linearGradient id="paint67_linear" x1="0" y1="0" x2="1" y2="0" gradientUnits="userSpaceOnUse" gradientTransform="matrix(-22.1636 22.1635 -22.1635 -22.1636 37.7932 15.6992)">
<stop offset="0" stop-color="#394EE5"/>
<stop offset="0.9949" stop-color="#DB71B0"/>
</linearGradient>
<linearGradient id="paint68_linear" x1="0" y1="0" x2="1" y2="0" gradientUnits="userSpaceOnUse" gradientTransform="matrix(-22.2711 22.2711 -22.2711 -22.2711 32.1653 9.69495)">
<stop offset="0" stop-color="#394EE5"/>
<stop offset="0.9949" stop-color="#DB71B0"/>
</linearGradient>
<linearGradient id="paint69_linear" x1="0" y1="0" x2="1" y2="0" gradientUnits="userSpaceOnUse" gradientTransform="matrix(-18.6172 18.6172 -18.6172 -18.6172 26.5182 11.2883)">
<stop offset="0" stop-color="#394EE5"/>
<stop offset="0.9949" stop-color="#DB71B0"/>
</linearGradient>
<linearGradient id="paint70_linear" x1="0" y1="0" x2="1" y2="0" gradientUnits="userSpaceOnUse" gradientTransform="matrix(-18.3092 18.3093 -18.3093 -18.3092 32.0546 8.0832)">
<stop offset="0" stop-color="#394EE5"/>
<stop offset="0.9949" stop-color="#DB71B0"/>
</linearGradient>
<linearGradient id="paint71_linear" x1="0" y1="0" x2="1" y2="0" gradientUnits="userSpaceOnUse" gradientTransform="matrix(-22.1635 22.1635 -22.1635 -22.1635 37.8154 15.6769)">
<stop offset="0" stop-color="#394EE5"/>
<stop offset="0.9949" stop-color="#DB71B0"/>
</linearGradient>
<linearGradient id="paint72_linear" x1="0" y1="0" x2="1" y2="0" gradientUnits="userSpaceOnUse" gradientTransform="matrix(-22.2711 22.2711 -22.2711 -22.2711 32.1876 9.67265)">
<stop offset="0" stop-color="#394EE5"/>
<stop offset="0.9949" stop-color="#DB71B0"/>
</linearGradient>
<linearGradient id="paint73_linear" x1="0" y1="0" x2="1" y2="0" gradientUnits="userSpaceOnUse" gradientTransform="matrix(-18.6172 18.6172 -18.6172 -18.6172 26.5405 11.366)">
<stop offset="0" stop-color="#394EE5"/>
<stop offset="0.9949" stop-color="#DB71B0"/>
</linearGradient>
<linearGradient id="paint74_linear" x1="0" y1="0" x2="1" y2="0" gradientUnits="userSpaceOnUse" gradientTransform="matrix(-18.3092 18.3092 -18.3092 -18.3092 32.0769 8.061)">
<stop offset="0" stop-color="#394EE5"/>
<stop offset="0.9949" stop-color="#DB71B0"/>
</linearGradient>
<linearGradient id="paint75_linear" x1="0" y1="0" x2="1" y2="0" gradientUnits="userSpaceOnUse" gradientTransform="matrix(-22.1635 22.1635 -22.1635 -22.1635 37.8377 15.6546)">
<stop offset="0" stop-color="#394EE5"/>
<stop offset="0.9949" stop-color="#DB71B0"/>
</linearGradient>
<linearGradient id="paint76_linear" x1="0" y1="0" x2="1" y2="0" gradientUnits="userSpaceOnUse" gradientTransform="matrix(-22.2711 22.2711 -22.2711 -22.2711 32.11 9.65035)">
<stop offset="0" stop-color="#394EE5"/>
<stop offset="0.9949" stop-color="#DB71B0"/>
</linearGradient>
<linearGradient id="paint77_linear" x1="0" y1="0" x2="1" y2="0" gradientUnits="userSpaceOnUse" gradientTransform="matrix(-22.1636 22.1635 -22.1635 -22.1636 37.86 15.6323)">
<stop offset="0" stop-color="#394EE5"/>
<stop offset="0.9949" stop-color="#DB71B0"/>
</linearGradient>
<linearGradient id="paint78_linear" x1="0" y1="0" x2="1" y2="0" gradientUnits="userSpaceOnUse" gradientTransform="matrix(-18.6172 18.6171 -18.6171 -18.6172 26.5855 11.3068)">
<stop offset="0" stop-color="#394EE5"/>
<stop offset="0.9949" stop-color="#DB71B0"/>
</linearGradient>
<linearGradient id="paint79_linear" x1="0" y1="0" x2="1" y2="0" gradientUnits="userSpaceOnUse" gradientTransform="matrix(-18.3092 18.3092 -18.3092 -18.3092 32.122 8.1017)">
<stop offset="0" stop-color="#394EE5"/>
<stop offset="0.9949" stop-color="#DB71B0"/>
</linearGradient>
<linearGradient id="paint80_linear" x1="0" y1="0" x2="1" y2="0" gradientUnits="userSpaceOnUse" gradientTransform="matrix(-22.2711 22.2711 -22.2711 -22.2711 32.1552 9.69105)">
<stop offset="0" stop-color="#394EE5"/>
<stop offset="0.9949" stop-color="#DB71B0"/>
</linearGradient>
<linearGradient id="paint81_linear" x1="0" y1="0" x2="1" y2="0" gradientUnits="userSpaceOnUse" gradientTransform="matrix(-18.6172 18.6171 -18.6171 -18.6172 26.6078 11.2845)">
<stop offset="0" stop-color="#394EE5"/>
<stop offset="0.9949" stop-color="#DB71B0"/>
</linearGradient>
<linearGradient id="paint82_linear" x1="0" y1="0" x2="1" y2="0" gradientUnits="userSpaceOnUse" gradientTransform="matrix(-18.3092 18.3093 -18.3093 -18.3092 32.0443 8.0793)">
<stop offset="0" stop-color="#394EE5"/>
<stop offset="0.9949" stop-color="#DB71B0"/>
</linearGradient>
<linearGradient id="paint83_linear" x1="0" y1="0" x2="1" y2="0" gradientUnits="userSpaceOnUse" gradientTransform="matrix(-22.1636 22.1635 -22.1635 -22.1636 37.8051 15.673)">
<stop offset="0" stop-color="#394EE5"/>
<stop offset="0.9949" stop-color="#DB71B0"/>
</linearGradient>
<linearGradient id="paint84_linear" x1="0" y1="0" x2="1" y2="0" gradientUnits="userSpaceOnUse" gradientTransform="matrix(-22.2711 22.2711 -22.2711 -22.2711 32.1447 9.68715)">
<stop offset="0" stop-color="#394EE5"/>
<stop offset="0.9949" stop-color="#DB71B0"/>
</linearGradient>
<linearGradient id="paint85_linear" x1="0" y1="0" x2="1" y2="0" gradientUnits="userSpaceOnUse" gradientTransform="matrix(-22.1635 22.1636 -22.1636 -22.1635 37.7947 15.6691)">
<stop offset="0" stop-color="#394EE5"/>
<stop offset="0.9949" stop-color="#DB71B0"/>
</linearGradient>
<path id="path0_fill" d="M 0 0L 1366 0L 1366 270L 0 270L 0 0Z"/>
<path id="path1_fill" d="M 0 0L 1364 0L 1364 270L 0 270L 0 0Z"/>
<path id="path2_fill" d="M 212.2 424.4C 329.395 424.4 424.4 329.395 424.4 212.2C 424.4 95.0052 329.395 6.10352e-06 212.2 6.10352e-06C 95.0052 6.10352e-06 0 95.0052 0 212.2C 0 329.395 95.0052 424.4 212.2 424.4Z"/>
<path id="path3_fill" d="M 8.60005 20.3C 8.20005 19.7 7.79995 19.1 7.49995 18.5C 6.99995 17.3 6.60005 16.2 6.60005 15.1C 6.50005 14 6.70002 12.9 7.20002 11.8C 7.60002 10.7 8.30002 9.7 9.20002 8.8C 9.70002 8.3 10.2 7.90001 10.7 7.50001C 11.2 7.20001 11.6 6.9 12 6.8C 12.4 6.6 12.8 6.50001 13.1 6.40001C 13.4 6.30001 13.8 6.19999 14.1 6.19999C 14.4 6.09999 14.7 6.10001 14.9 6.00001C 15.1 5.90001 15.3 5.79999 15.5 5.59999C 15.8 5.29999 15.9 5.1 16 4.8C 16 4.5 16 4.30001 16 4.00001L 15.4 1.2207e-05C 14.6 1.2207e-05 13.7 0.0999939 12.8 0.199994C 11.9 0.399994 11.1 0.600012 10.2 1.00001C 9.30002 1.40001 8.50005 1.80001 7.60005 2.40001C 6.70005 3.00001 5.90005 3.70001 5.10005 4.50001C 3.40005 6.20001 2.2 8.00001 1.3 9.90001C 0.5 11.8 -4.88281e-05 13.8 -4.88281e-05 15.7C -4.88281e-05 17.6 0.400024 19.6 1.20002 21.5C 1.80002 22.8 2.49995 24.1 3.49995 25.3L 8.60005 20.3Z"/>
<path id="path4_fill" d="M 3.20005 14.6C 5.00005 15.5 6.90002 15.9 8.80002 16C 10.7 16.1 12.6 15.7 14.4 15C 16.3 14.3 18 13.1 19.6 11.4C 21.4 9.60001 22.6 7.80001 23.4 5.90001C 24.1 4.00001 24.4 2.09999 24.1 0.0999878L 20 1.2207e-05C 19.8 1.2207e-05 19.6 -1.22115e-05 19.4 0.0999878C 19.2 0.199988 19.1 0.300006 19 0.400006C 18.9 0.500006 18.7 0.700006 18.7 0.900006C 18.6 1.10001 18.6 1.30001 18.6 1.50001C 18.6 2.10001 18.5 2.60001 18.4 3.00001C 18.3 3.50001 18.1 3.9 17.9 4.3C 17.7 4.7 17.4 5.19999 17.1 5.59999C 16.8 5.99999 16.4 6.50001 15.9 6.90001C 15.1 7.70001 14.2 8.29999 13.2 8.69999C 12.2 9.09999 11.2 9.19999 9.99998 9.19999C 8.89997 9.09999 7.79995 8.8 6.59995 8.3C 6.09995 8.1 5.60005 7.80001 5.20005 7.50001L -2.44141e-05 12.7C 0.999976 13.4 2.10005 14.1 3.20005 14.6Z"/>
<path id="path5_fill" d="M 8.70002 20.5C 8.20002 19.9 7.89995 19.3 7.49995 18.7C 6.89995 17.6 6.59995 16.4 6.49995 15.3C 6.39995 14.2 6.59995 13.1 6.99995 12C 7.39995 10.9 8.10005 9.90001 9.10005 8.90001C 10.1 7.90001 11.1 7.20001 12.1 6.80001C 13.2 6.40001 14.3 6.20001 15.4 6.30001C 16.5 6.40001 17.6 6.70001 18.8 7.30001C 19.4 7.60001 20 7.99999 20.6 8.49999L 25.7 3.40001C 24.6 2.50001 23.2999 1.7 22 1.2C 20.1 0.4 18.2 -1.2207e-05 16.2 -1.2207e-05C 14.2 -1.2207e-05 12.3 0.4 10.3 1.2C 8.4 2 6.49998 3.30001 4.89998 4.90001C 3.19998 6.60001 2.00002 8.40001 1.20002 10.3C 0.400024 12.2 -4.88281e-05 14.2 -4.88281e-05 16.2C -4.88281e-05 18.2 0.400024 20.1 1.20002 22C 1.80002 23.3 2.49998 24.5 3.39998 25.7L 8.70002 20.5Z"/>
<path id="path6_fill" d="M 8.6 20.3C 8.2 19.7 7.80002 19.1 7.50002 18.5C 7.00002 17.3 6.6 16.2 6.6 15.1C 6.5 14 6.69998 12.9 7.19998 11.8C 7.59998 10.7 8.29998 9.69999 9.19998 8.79999C 9.69998 8.29999 10.2 7.9 10.7 7.5C 11.2 7.2 11.6 6.89999 12 6.79999C 12.4 6.59999 12.8 6.49999 13.1 6.39999C 13.4 6.29999 13.8 6.20001 14.1 6.20001C 14.4 6.10001 14.7 6.1 14.9 6C 15.1 5.9 15.3 5.80001 15.5 5.60001C 15.8 5.30001 15.9 5.09999 16 4.79999C 16 4.49999 16 4.3 16 4L 15.4 -5.68434e-14C 14.6 -5.68434e-14 13.7 0.100012 12.8 0.200012C 11.9 0.400012 11.1 0.6 10.2 1C 9.29998 1.4 8.5 1.79999 7.6 2.39999C 6.7 2.99999 5.9 3.7 5.1 4.5C 3.4 6.2 2.19995 7.99999 1.29995 9.89999C 0.499951 11.8 2.44141e-05 13.8 2.44141e-05 15.7C 2.44141e-05 17.6 0.399976 19.6 1.19998 21.5C 1.79998 22.8 2.50002 24.1 3.50002 25.3L 8.6 20.3Z"/>
<path id="path7_fill" d="M 3.2 14.6C 5 15.5 6.89998 15.9 8.79998 16C 10.7 16.1 12.6 15.7 14.4 15C 16.3 14.3 18 13.1 19.6 11.4C 21.4 9.59999 22.6 7.79999 23.4 5.89999C 24.1 3.99999 24.4 2.10001 24.1 0.100006L 20 5.68434e-14C 19.8 5.68434e-14 19.6 6.10203e-06 19.4 0.100006C 19.2 0.200006 19.1 0.299994 19 0.399994C 18.9 0.499994 18.7 0.699994 18.7 0.899994C 18.6 1.09999 18.6 1.3 18.6 1.5C 18.6 2.1 18.5 2.6 18.4 3C 18.3 3.5 18.1 3.89999 17.9 4.29999C 17.7 4.69999 17.4 5.20001 17.1 5.60001C 16.8 6.00001 16.4 6.49999 15.9 6.89999C 15.1 7.69999 14.2 8.30001 13.2 8.70001C 12.2 9.10001 11.2 9.20001 10 9.20001C 8.90005 9.10001 7.80002 8.79999 6.60002 8.29999C 6.10002 8.09999 5.6 7.8 5.2 7.5L 4.88281e-05 12.7C 1.00005 13.4 2.1 14.1 3.2 14.6Z"/>
<path id="path8_fill" d="M 3.2 24C 5.1 24.8 7.00005 25.2 9.00005 25.2C 11 25.2 12.9 24.8 14.9 24C 16.8 23.2 18.7 21.9 20.3 20.3C 22 18.6 23.2001 16.8 24 14.9C 24.8 13 25.2 11 25.2 9C 25.2 7 24.8 5.10001 24 3.20001C 23.5 2.10001 22.9 1 22.1 -5.68434e-14L 17 5.10001C 17.3 5.50001 17.6 5.99999 17.8 6.39999C 18.4 7.49999 18.7 8.69999 18.8 9.79999C 18.9 10.9 18.7 12 18.3 13.1C 17.9 14.2 17.2 15.2 16.2 16.1C 15.2 17.1 14.2 17.8 13.1 18.2C 12 18.6 10.9 18.8 9.79998 18.8C 8.69998 18.7 7.59995 18.4 6.39995 17.8C 5.89995 17.6 5.50002 17.3 5.10002 17L 4.88281e-05 22.1C 1.00005 22.9 2.1 23.5 3.2 24Z"/>
<path id="path9_fill" d="M 8.69995 20.5C 8.19995 19.9 7.9 19.3 7.5 18.7C 6.9 17.6 6.6 16.4 6.5 15.3C 6.4 14.2 6.6 13.1 7 12C 7.4 10.9 8.09998 9.9 9.09998 8.9C 10.1 7.9 11.1 7.19999 12.1 6.79999C 13.2 6.39999 14.3 6.19999 15.4 6.29999C 16.5 6.39999 17.6 6.69999 18.8 7.29999C 19.4 7.59999 20 8.00001 20.6 8.50001L 25.7 3.4C 24.6 2.5 23.3 1.69999 22 1.19999C 20.1 0.399988 18.2 6.10352e-06 16.2 6.10352e-06C 14.2 6.10352e-06 12.3 0.399988 10.3 1.19999C 8.40005 1.99999 6.50002 3.3 4.90002 4.9C 3.20002 6.6 1.99995 8.39999 1.19995 10.3C 0.399951 12.2 4.54747e-13 14.2 4.54747e-13 16.2C 4.54747e-13 18.2 0.399951 20.1 1.19995 22C 1.79995 23.3 2.50002 24.5 3.40002 25.7L 8.69995 20.5Z"/>
<path id="path10_fill" d="M 8.59995 20.3C 8.19995 19.7 7.79998 19.1 7.49998 18.5C 6.99998 17.3 6.59995 16.2 6.59995 15.1C 6.49995 14 6.70005 12.9 7.20005 11.8C 7.60005 10.7 8.30005 9.7 9.20005 8.8C 9.70005 8.3 10.2 7.90001 10.7 7.50001C 11.2 7.20001 11.6 6.9 12 6.8C 12.4 6.6 12.8 6.50001 13.1 6.40001C 13.4 6.30001 13.8 6.19999 14.1 6.19999C 14.4 6.09999 14.7 6.10001 14.9 6.00001C 15.1 5.90001 15.3 5.79999 15.5 5.59999C 15.8 5.29999 15.9 5.1 16 4.8C 16 4.5 16 4.30001 16 4.00001L 15.4 1.2207e-05C 14.6 1.2207e-05 13.7 0.0999939 12.8 0.199994C 11.9 0.399994 11.1 0.600012 10.2 1.00001C 9.30005 1.40001 8.49995 1.80001 7.59995 2.40001C 6.69995 3.00001 5.89995 3.70001 5.09995 4.50001C 3.39995 6.20001 2.20002 8.00001 1.30002 9.90001C 0.500024 11.8 -2.44141e-05 13.8 -2.44141e-05 15.7C -2.44141e-05 17.6 0.400049 19.6 1.20005 21.5C 1.80005 22.8 2.49998 24.1 3.49998 25.3L 8.59995 20.3Z"/>
<path id="path11_fill" d="M 3.19995 14.6C 4.99995 15.5 6.90005 15.9 8.80005 16C 10.7 16.1 12.6 15.7 14.4 15C 16.3 14.3 18 13.1 19.6 11.4C 21.4 9.60001 22.6 7.80001 23.4 5.90001C 24.1 4.00001 24.4 2.09999 24.1 0.0999939L 20 -1.2207e-05C 19.8 -1.2207e-05 19.6 -6.10203e-06 19.4 0.0999939C 19.2 0.199994 19.1 0.300012 19 0.400012C 18.9 0.500012 18.7 0.700012 18.7 0.900012C 18.6 1.10001 18.6 1.29999 18.6 1.49999C 18.6 2.09999 18.5 2.59999 18.4 2.99999C 18.3 3.49999 18.1 3.90001 17.9 4.30001C 17.7 4.70001 17.4 5.19999 17.1 5.59999C 16.8 5.99999 16.4 6.50001 15.9 6.90001C 15.1 7.70001 14.2 8.3 13.2 8.7C 12.2 9.1 11.2 9.2 10 9.2C 8.9 9.1 7.79998 8.80001 6.59998 8.30001C 6.09998 8.10001 5.59995 7.79999 5.19995 7.49999L 2.27374e-13 12.7C 1.1 13.4 2.09995 14.1 3.19995 14.6Z"/>
<path id="path12_fill" d="M 3.19995 24C 5.09995 24.8 7 25.2 9 25.2C 11 25.2 12.9 24.8 14.9 24C 16.8 23.2 18.7 21.9 20.3 20.3C 22 18.6 23.2 16.8 24 14.9C 24.8 13 25.2 11 25.2 8.99999C 25.2 6.99999 24.8 5.1 24 3.2C 23.5 2.1 22.9 0.999988 22.1 -1.2207e-05L 17 5.09999C 17.3 5.49999 17.6 6.00001 17.8 6.40001C 18.4 7.50001 18.7 8.70001 18.8 9.80001C 18.9 10.9 18.7 12 18.3 13.1C 17.9 14.2 17.2 15.2 16.2 16.1C 15.2 17.1 14.2 17.8 13.1 18.2C 12 18.6 10.9 18.8 9.80005 18.8C 8.70005 18.7 7.60002 18.4 6.40002 17.8C 5.90002 17.6 5.49998 17.3 5.09998 17L -4.54747e-13 22.1C 1 22.9 2.09995 23.5 3.19995 24Z"/>
<path id="path13_fill" d="M 8.70002 20.5C 8.20002 19.9 7.89995 19.3 7.49995 18.7C 6.89995 17.6 6.59995 16.4 6.49995 15.3C 6.39995 14.2 6.59995 13.1 6.99995 12C 7.39995 10.9 8.10005 9.89999 9.10005 8.89999C 10.1 7.89999 11.1 7.20001 12.1 6.80001C 13.2 6.40001 14.3 6.20001 15.4 6.30001C 16.5 6.40001 17.6 6.70001 18.8 7.30001C 19.4 7.60001 20 8.00002 20.6 8.50002L 25.7 3.39999C 24.6 2.49999 23.2999 1.70001 22 1.20001C 20.1 0.400006 18.2 -6.10352e-06 16.2 -6.10352e-06C 14.2 -6.10352e-06 12.3 0.400006 10.3 1.20001C 8.4 2.00001 6.49998 3.29999 4.89998 4.89999C 3.19998 6.59999 2.00002 8.40001 1.20002 10.3C 0.400024 12.2 -4.88281e-05 14.2 -4.88281e-05 16.2C -4.88281e-05 18.2 0.400024 20.1 1.20002 22C 1.80002 23.3 2.49998 24.5 3.39998 25.7L 8.70002 20.5Z"/>
<path id="path14_fill" d="M 8.60002 20.3C 8.20002 19.7 7.80005 19.1 7.50005 18.5C 7.00005 17.3 6.60002 16.2 6.60002 15.1C 6.50002 14 6.7 12.9 7.2 11.8C 7.6 10.7 8.3 9.69999 9.2 8.79999C 9.7 8.29999 10.2 7.9 10.7 7.5C 11.2 7.2 11.6 6.89999 12 6.79999C 12.4 6.59999 12.8 6.50002 13.1 6.40002C 13.4 6.30002 13.8 6.20001 14.1 6.20001C 14.4 6.10001 14.7 6.1 14.9 6C 15.1 5.9 15.3 5.79998 15.5 5.59998C 15.8 5.29998 15.9 5.09999 16 4.79999C 16 4.49999 16 4.3 16 4L 15.4 -1.13687e-13C 14.6 -1.13687e-13 13.7 0.100012 12.8 0.200012C 11.9 0.400012 11.1 0.6 10.2 1C 9.3 1.4 8.50002 1.80002 7.60002 2.40002C 6.70002 3.00002 5.90002 3.7 5.10002 4.5C 3.40002 6.2 2.19998 8.00002 1.29998 9.90002C 0.499976 11.8 4.88281e-05 13.8 4.88281e-05 15.7C 4.88281e-05 17.7 0.4 19.6 1.2 21.5C 1.8 22.8 2.50005 24.1 3.50005 25.3L 8.60002 20.3Z"/>
<path id="path15_fill" d="M 3.20002 14.6C 5.00002 15.5 6.9 15.9 8.8 16C 10.7 16.1 12.6 15.7 14.4 15C 16.3 14.3 18 13.1 19.6 11.4C 21.4 9.6 22.6 7.8 23.4 5.9C 24.1 4 24.4 2.10001 24.1 0.100012L 20 -2.44141e-05C 19.7999 -2.44141e-05 19.6 1.22041e-05 19.4 0.100012C 19.2 0.200012 19.1 0.3 19 0.4C 18.9 0.5 18.7 0.7 18.7 0.9C 18.6 1.1 18.6 1.29998 18.6 1.49998C 18.6 2.09998 18.5 2.59998 18.4 2.99998C 18.3 3.49998 18.1 3.90002 17.9 4.30002C 17.7 4.70002 17.4 5.20001 17.1 5.60001C 16.8 6.00001 16.4 6.5 15.9 6.9C 15.1 7.7 14.2 8.29999 13.2 8.69999C 12.2 9.09999 11.2 9.19999 9.99995 9.19999C 8.89995 9.09999 7.80005 8.80002 6.60005 8.30002C 6.10005 8.10002 5.60002 7.79998 5.20002 7.49998L -4.88281e-05 12.7C 1.09995 13.4 2.10002 14 3.20002 14.6Z"/>
<path id="path16_fill" d="M 3.2 24C 5.1 24.8 7.00005 25.2 9.00005 25.2C 11 25.2 12.9 24.8 14.9 24C 16.8 23.2 18.7 21.9 20.3 20.3C 22 18.6 23.2001 16.8 24 14.9C 24.8 13 25.2 11 25.2 8.99998C 25.2 6.99998 24.8 5.09999 24 3.19999C 23.5 2.09999 22.9 1.00001 22.1 6.10352e-06L 17 5.10001C 17.3 5.50001 17.6 6 17.8 6.4C 18.4 7.5 18.7 8.70002 18.8 9.80002C 18.9 10.9 18.7 12 18.3 13.1C 17.9 14.2 17.2 15.2 16.2 16.1C 15.2 17.1 14.2 17.8 13.1 18.2C 12 18.6 10.9 18.8 9.79998 18.8C 8.69998 18.7 7.59995 18.4 6.39995 17.8C 5.89995 17.6 5.50002 17.3 5.10002 17L 4.88281e-05 22.1C 1.00005 22.9 2 23.5 3.2 24Z"/>
<path id="path17_fill" d="M 8.69998 20.5C 8.19998 19.9 7.90002 19.3 7.50002 18.7C 6.90002 17.6 6.60002 16.4 6.50002 15.3C 6.40002 14.2 6.60002 13.1 7.00002 12C 7.40002 10.9 8.1 9.9 9.1 8.9C 10.1 7.9 11.1 7.20002 12.1 6.80002C 13.2 6.40002 14.3 6.20002 15.4 6.30002C 16.5 6.40002 17.6 6.70002 18.8 7.30002C 19.4 7.60002 20 7.99998 20.6 8.49998L 25.7 3.4C 24.6 2.5 23.3 1.69999 22 1.19999C 20.1 0.399988 18.2 -2.44141e-05 16.2 -2.44141e-05C 14.2 -2.44141e-05 12.3 0.399988 10.3 1.19999C 8.39995 1.99999 6.50005 3.3 4.90005 4.9C 3.20005 6.6 1.99998 8.40002 1.19998 10.3C 0.399976 12.2 2.44141e-05 14.2 2.44141e-05 16.2C 2.44141e-05 18.2 0.399976 20.1 1.19998 22C 1.79998 23.3 2.50005 24.5 3.40005 25.7L 8.69998 20.5Z"/>
<path id="path18_fill" d="M 8.59998 20.3C 8.19998 19.7 7.8 19.1 7.5 18.5C 7 17.3 6.59998 16.2 6.59998 15.1C 6.49998 14 6.69995 12.9 7.19995 11.8C 7.59995 10.7 8.29995 9.69998 9.19995 8.79998C 9.69995 8.29998 10.2 7.89999 10.7 7.49999C 11.2 7.19999 11.6 6.89998 12 6.79998C 12.4 6.59998 12.8 6.50001 13.1 6.40001C 13.4 6.30001 13.8 6.2 14.1 6.2C 14.4 6.1 14.7 6.09999 14.9 5.99999C 15.1 5.89999 15.3 5.80002 15.5 5.60002C 15.8 5.30002 15.9 5.09998 16 4.79998C 16 4.49998 16 4.29999 16 3.99999L 15.4 -1.2207e-05C 14.6 -1.2207e-05 13.7 0.1 12.8 0.2C 11.9 0.4 11.1 0.599988 10.2 0.999988C 9.29995 1.39999 8.49998 1.80001 7.59998 2.40001C 6.69998 3.00001 5.89998 3.69999 5.09998 4.49999C 3.39998 6.19999 2.20005 8.00001 1.30005 9.90001C 0.500049 11.8 0 13.8 0 15.7C 0 17.7 0.399951 19.6 1.19995 21.5C 1.79995 22.8 2.5 24.1 3.5 25.3L 8.59998 20.3Z"/>
<path id="path19_fill" d="M 3.19995 14.6C 4.99995 15.5 6.90005 15.9 8.80005 16C 10.7 16.1 12.6 15.7 14.4 15C 16.3 14.3 18 13.1 19.6 11.4C 21.4 9.60001 22.6 7.80001 23.4 5.90001C 24.1 4.00001 24.4 2.10002 24.1 0.100024L 20 -1.2207e-05C 19.8 -1.2207e-05 19.6 2.44156e-05 19.4 0.100024C 19.2 0.200024 19.1 0.300012 19 0.400012C 18.9 0.500012 18.7 0.700012 18.7 0.900012C 18.6 1.10001 18.6 1.29999 18.6 1.49999C 18.6 2.09999 18.5 2.59999 18.4 2.99999C 18.3 3.49999 18.1 3.89998 17.9 4.29998C 17.7 4.69998 17.4 5.20002 17.1 5.60002C 16.8 6.00002 16.4 6.50001 15.9 6.90001C 15.1 7.70001 14.2 8.3 13.2 8.7C 12.2 9.1 11.2 9.2 10 9.2C 8.9 9.1 7.79998 8.79998 6.59998 8.29998C 6.09998 8.09998 5.59995 7.79999 5.19995 7.49999L 2.27374e-13 12.7C 1 13.5 2.09995 14.1 3.19995 14.6Z"/>
<path id="path20_fill" d="M 3.19995 24C 5.09995 24.8 7 25.2 9 25.2C 11 25.2 12.9 24.8 14.9 24C 16.8 23.2 18.7 21.9 20.3 20.3C 22 18.6 23.2 16.8 24 14.9C 24.8 13 25.2 11 25.2 9.00002C 25.2 7.00002 24.8 5.09998 24 3.19998C 23.5 2.09998 22.9 1.00002 22.1 2.44141e-05L 17 5.1C 17.3 5.5 17.6 5.99999 17.8 6.39999C 18.4 7.49999 18.7 8.70001 18.8 9.80001C 18.9 10.9 18.7 12 18.3 13.1C 17.9 14.2 17.2 15.2 16.2 16.1C 15.2 17.1 14.2 17.8 13.1 18.2C 12 18.6 10.9 18.8 9.80005 18.8C 8.70005 18.7 7.60002 18.4 6.40002 17.8C 5.90002 17.6 5.49998 17.3 5.09998 17L -4.54747e-13 22.1C 1 22.9 1.99995 23.5 3.19995 24Z"/>
<path id="path21_fill" d="M 8.70005 20.5C 8.20005 19.9 7.89998 19.3 7.49998 18.7C 6.89998 17.6 6.59998 16.4 6.49998 15.3C 6.39998 14.2 6.59998 13.1 6.99998 12C 7.39998 10.9 8.09995 9.89999 9.09995 8.89999C 10.1 7.89999 11.1 7.20001 12.1 6.80001C 13.2 6.40001 14.3 6.20001 15.4 6.30001C 16.5 6.40001 17.6 6.70001 18.8 7.30001C 19.4 7.60001 20 8.00002 20.6 8.50002L 25.7 3.39999C 24.6 2.49999 23.3 1.69998 22 1.19998C 20.1 0.399976 18.2 2.44141e-05 16.2 2.44141e-05C 14.2 2.44141e-05 12.3 0.399976 10.3 1.19998C 8.40002 1.99998 6.5 3.29999 4.9 4.89999C 3.2 6.59999 2.00005 8.40001 1.20005 10.3C 0.400049 12.2 -2.44141e-05 14.2 -2.44141e-05 16.2C -2.44141e-05 18.2 0.400049 20.1 1.20005 22C 1.80005 23.3 2.5 24.5 3.4 25.7L 8.70005 20.5Z"/>
<path id="path22_fill" d="M 8.60002 20.3C 8.20002 19.7 7.80005 19.1 7.50005 18.5C 7.00005 17.3 6.60002 16.2 6.60002 15.1C 6.50002 14 6.7 12.9 7.2 11.8C 7.6 10.7 8.3 9.70002 9.2 8.80002C 9.7 8.30002 10.2 7.89998 10.7 7.49998C 11.2 7.19998 11.6 6.90002 12 6.80002C 12.4 6.60002 12.8 6.5 13.1 6.4C 13.4 6.3 13.8 6.19999 14.1 6.19999C 14.4 6.09999 14.7 6.09998 14.9 5.99998C 15.1 5.89998 15.3 5.80001 15.5 5.60001C 15.8 5.30001 15.9 5.10002 16 4.80002C 16 4.50002 16 4.29998 16 3.99998L 15.4 -2.44141e-05C 14.6 -2.44141e-05 13.7 0.0999878 12.8 0.199988C 11.9 0.399988 11.1 0.599976 10.2 0.999976C 9.3 1.39998 8.50002 1.8 7.60002 2.4C 6.70002 3 5.90002 3.69998 5.10002 4.49998C 3.40002 6.19998 2.19998 8 1.29998 9.9C 0.499976 11.8 4.88281e-05 13.8 4.88281e-05 15.7C 4.88281e-05 17.7 0.4 19.6 1.2 21.5C 1.8 22.8 2.50005 24.1 3.50005 25.3L 8.60002 20.3Z"/>
<path id="path23_fill" d="M 3.20002 14.6C 5.00002 15.5 6.9 15.9 8.8 16C 10.7 16.1 12.6 15.7 14.4 15C 16.3 14.3 18 13.1 19.6 11.4C 21.4 9.6 22.6 7.8 23.4 5.9C 24.1 4 24.4 2.10001 24.1 0.100012L 20 -2.44141e-05C 19.7999 -2.44141e-05 19.6 1.22041e-05 19.4 0.100012C 19.2 0.200012 19.1 0.3 19 0.4C 18.9 0.5 18.7 0.7 18.7 0.9C 18.6 1.1 18.6 1.29998 18.6 1.49998C 18.6 2.09998 18.5 2.59998 18.4 2.99998C 18.3 3.49998 18.1 3.90002 17.9 4.30002C 17.7 4.70002 17.4 5.20001 17.1 5.60001C 16.8 6.00001 16.4 6.5 15.9 6.9C 15.1 7.7 14.2 8.29999 13.2 8.69999C 12.2 9.09999 11.2 9.19999 9.99995 9.19999C 8.89995 9.09999 7.80005 8.80002 6.60005 8.30002C 6.10005 8.10002 5.60002 7.79998 5.20002 7.49998L -4.88281e-05 12.7C 0.999951 13.4 2.10002 14.1 3.20002 14.6Z"/>
<path id="path24_fill" d="M 3.20002 24C 5.10002 24.8 6.99995 25.2 8.99995 25.2C 11 25.2 12.9 24.8 14.9 24C 16.8 23.2 18.7 21.9 20.3 20.3C 22 18.6 23.2 16.8 24 14.9C 24.7999 13 25.2 11 25.2 8.99998C 25.2 6.99998 24.7999 5.09999 24 3.19999C 23.5 2.09999 22.9 0.999976 22.1 -2.44141e-05L 17 5.10001C 17.2999 5.50001 17.6 6 17.8 6.4C 18.4 7.5 18.7 8.70002 18.8 9.80002C 18.9 10.9 18.7 12 18.3 13.1C 17.9 14.2 17.2 15.2 16.2 16.1C 15.2 17.1 14.2 17.8 13.1 18.2C 12 18.6 10.9 18.8 9.8 18.8C 8.7 18.7 7.59998 18.4 6.39998 17.8C 5.89998 17.6 5.50005 17.3 5.10005 17L -4.88281e-05 22.1C 0.999951 22.9 2.10002 23.5 3.20002 24Z"/>
<path id="path25_fill" d="M 8.69998 20.5C 8.19998 19.9 7.90002 19.3 7.50002 18.7C 6.90002 17.6 6.60002 16.4 6.50002 15.3C 6.40002 14.2 6.60002 13.1 7.00002 12C 7.40002 10.9 8.1 9.89999 9.1 8.89999C 10.1 7.89999 11.1 7.19999 12.1 6.79999C 13.2 6.39999 14.3 6.19999 15.4 6.29999C 16.5 6.39999 17.6 6.69999 18.8 7.29999C 19.4 7.59999 20 8 20.6 8.5L 25.7 3.39999C 24.6 2.49999 23.3 1.70001 22 1.20001C 20.1 0.400012 18.2 5.68434e-14 16.2 5.68434e-14C 14.2 5.68434e-14 12.3 0.400012 10.3 1.20001C 8.39995 2.00001 6.50005 3.29999 4.90005 4.89999C 3.20005 6.59999 1.99998 8.39999 1.19998 10.3C 0.399976 12.2 2.44141e-05 14.2 2.44141e-05 16.2C 2.44141e-05 18.2 0.399976 20.1 1.19998 22C 1.79998 23.3 2.50005 24.5 3.40005 25.7L 8.69998 20.5Z"/>
<path id="path26_fill" d="M 8.59998 20.3C 8.19998 19.7 7.8 19.1 7.5 18.5C 7 17.3 6.59998 16.2 6.59998 15.1C 6.49998 14 6.69995 12.9 7.19995 11.8C 7.59995 10.7 8.29995 9.7 9.19995 8.8C 9.69995 8.3 10.2 7.90001 10.7 7.50001C 11.2 7.20001 11.6 6.9 12 6.8C 12.4 6.6 12.8 6.50001 13.1 6.40001C 13.4 6.30001 13.8 6.19999 14.1 6.19999C 14.4 6.09999 14.7 6.10001 14.9 6.00001C 15.1 5.90001 15.3 5.79999 15.5 5.59999C 15.8 5.29999 15.9 5.1 16 4.8C 16 4.5 16 4.30001 16 4.00001L 15.4 1.2207e-05C 14.6 1.2207e-05 13.7 0.0999939 12.8 0.199994C 11.9 0.399994 11.1 0.600012 10.2 1.00001C 9.29995 1.40001 8.49998 1.80001 7.59998 2.40001C 6.69998 3.00001 5.89998 3.70001 5.09998 4.50001C 3.39998 6.20001 2.20005 8.00001 1.30005 9.90001C 0.500049 11.8 0 13.8 0 15.7C 0 17.6 0.399951 19.6 1.19995 21.5C 1.79995 22.8 2.5 24.1 3.5 25.3L 8.59998 20.3Z"/>
<path id="path27_fill" d="M 3.19995 14.6C 4.99995 15.5 6.90005 15.9 8.80005 16C 10.7 16.1 12.6 15.7 14.4 15C 16.3 14.3 18 13.1 19.6 11.4C 21.4 9.60001 22.6 7.80001 23.4 5.90001C 24.1 4.00001 24.4 2.09999 24.1 0.0999878L 20 1.2207e-05C 19.8 1.2207e-05 19.6 -1.22115e-05 19.4 0.0999878C 19.2 0.199988 19.1 0.300006 19 0.400006C 18.9 0.500006 18.7 0.700006 18.7 0.900006C 18.6 1.10001 18.6 1.30001 18.6 1.50001C 18.6 2.10001 18.5 2.60001 18.4 3.00001C 18.3 3.50001 18.1 3.9 17.9 4.3C 17.7 4.7 17.4 5.19999 17.1 5.59999C 16.8 5.99999 16.4 6.50001 15.9 6.90001C 15.1 7.70001 14.2 8.29999 13.2 8.69999C 12.2 9.09999 11.2 9.19999 10 9.19999C 8.9 9.09999 7.79998 8.8 6.59998 8.3C 6.09998 8.1 5.59995 7.80001 5.19995 7.50001L 2.27374e-13 12.7C 1 13.4 2.09995 14.1 3.19995 14.6Z"/>
<path id="path28_fill" d="M 3.19995 24C 5.09995 24.8 7 25.2 9 25.2C 11 25.2 12.9 24.8 14.9 24C 16.8 23.2 18.7 21.9 20.3 20.3C 22 18.6 23.2 16.8 24 14.9C 24.8 13 25.2 11 25.2 9.00001C 25.2 7.00001 24.8 5.09999 24 3.19999C 23.5 2.09999 22.9 1.00001 22.1 1.2207e-05L 17 5.09999C 17.3 5.49999 17.6 6.00001 17.8 6.40001C 18.4 7.50001 18.7 8.7 18.8 9.8C 18.9 10.9 18.7 12 18.3 13.1C 17.9 14.2 17.2 15.2 16.2 16.1C 15.2 17.1 14.2 17.8 13.1 18.2C 12 18.6 10.9 18.8 9.80005 18.8C 8.70005 18.7 7.60002 18.4 6.40002 17.8C 5.90002 17.6 5.49998 17.3 5.09998 17L -4.54747e-13 22.1C 1 22.9 1.99995 23.6 3.19995 24Z"/>
<path id="path29_fill" d="M 8.70005 20.5C 8.20005 19.9 7.89998 19.3 7.49998 18.7C 6.89998 17.6 6.59998 16.4 6.49998 15.3C 6.39998 14.2 6.59998 13.1 6.99998 12C 7.39998 10.9 8.09995 9.90001 9.09995 8.90001C 10.1 7.90001 11.1 7.20001 12.1 6.80001C 13.2 6.40001 14.3 6.20001 15.4 6.30001C 16.5 6.40001 17.6 6.70001 18.8 7.30001C 19.4 7.60001 20 7.99999 20.6 8.49999L 25.7 3.40001C 24.6 2.50001 23.3 1.7 22 1.2C 20.1 0.4 18.2 -1.2207e-05 16.2 -1.2207e-05C 14.2 -1.2207e-05 12.3 0.4 10.3 1.2C 8.40002 2 6.5 3.30001 4.9 4.90001C 3.2 6.60001 2.00005 8.40001 1.20005 10.3C 0.400049 12.2 -2.44141e-05 14.2 -2.44141e-05 16.2C -2.44141e-05 18.2 0.400049 20.1 1.20005 22C 1.80005 23.3 2.5 24.5 3.4 25.7L 8.70005 20.5Z"/>
<path id="path30_fill" d="M 8.60002 20.3C 8.20002 19.7 7.80005 19.1 7.50005 18.5C 7.00005 17.3 6.60002 16.2 6.60002 15.1C 6.50002 14 6.7 12.9 7.2 11.8C 7.6 10.7 8.3 9.69999 9.2 8.79999C 9.7 8.29999 10.2 7.9 10.7 7.5C 11.2 7.2 11.6 6.89999 12 6.79999C 12.4 6.59999 12.8 6.49999 13.1 6.39999C 13.4 6.29999 13.8 6.20001 14.1 6.20001C 14.4 6.10001 14.7 6.1 14.9 6C 15.1 5.9 15.3 5.80001 15.5 5.60001C 15.8 5.30001 15.9 5.09999 16 4.79999C 16 4.49999 16 4.3 16 4L 15.4 -5.68434e-14C 14.6 -5.68434e-14 13.7 0.100012 12.8 0.200012C 11.9 0.400012 11.1 0.6 10.2 1C 9.3 1.4 8.50002 1.79999 7.60002 2.39999C 6.70002 2.99999 5.90002 3.7 5.10002 4.5C 3.40002 6.2 2.19998 7.99999 1.29998 9.89999C 0.499976 11.8 4.88281e-05 13.8 4.88281e-05 15.7C 4.88281e-05 17.6 0.4 19.6 1.2 21.5C 1.8 22.8 2.50005 24.1 3.50005 25.3L 8.60002 20.3Z"/>
<path id="path31_fill" d="M 3.20002 14.6C 5.00002 15.5 6.9 15.9 8.8 16C 10.7 16.1 12.6 15.7 14.4 15C 16.3 14.3 18 13.1 19.6 11.4C 21.4 9.59999 22.6 7.79999 23.4 5.89999C 24.1 3.99999 24.4 2.10001 24.1 0.100006L 20 5.68434e-14C 19.7999 5.68434e-14 19.6 6.10203e-06 19.4 0.100006C 19.2 0.200006 19.1 0.299994 19 0.399994C 18.9 0.499994 18.7 0.699994 18.7 0.899994C 18.6 1.09999 18.6 1.3 18.6 1.5C 18.6 2.1 18.5 2.6 18.4 3C 18.3 3.5 18.1 3.89999 17.9 4.29999C 17.7 4.69999 17.4 5.20001 17.1 5.60001C 16.8 6.00001 16.4 6.49999 15.9 6.89999C 15.1 7.69999 14.2 8.30001 13.2 8.70001C 12.2 9.10001 11.2 9.20001 9.99995 9.20001C 8.89995 9.10001 7.80005 8.79999 6.60005 8.29999C 6.10005 8.09999 5.60002 7.8 5.20002 7.5L -4.88281e-05 12.7C 0.999951 13.4 2.10002 14.1 3.20002 14.6Z"/>
<path id="path32_fill" d="M 3.20002 24C 5.10002 24.8 6.99995 25.2 8.99995 25.2C 11 25.2 12.9 24.8 14.9 24C 16.8 23.2 18.7 21.9 20.3 20.3C 22 18.6 23.2 16.8 24 14.9C 24.7999 13 25.2 11 25.2 9C 25.2 7 24.7999 5.10001 24 3.20001C 23.5 2.10001 22.9 1 22.1 -5.68434e-14L 17 5.10001C 17.2999 5.50001 17.6 5.99999 17.8 6.39999C 18.4 7.49999 18.7 8.69999 18.8 9.79999C 18.9 10.9 18.7 12 18.3 13.1C 17.9 14.2 17.2 15.2 16.2 16.1C 15.2 17.1 14.2 17.8 13.1 18.2C 12 18.6 10.9 18.8 9.8 18.8C 8.7 18.7 7.59998 18.4 6.39998 17.8C 5.89998 17.6 5.50005 17.3 5.10005 17L -4.88281e-05 22.1C 0.999951 22.9 2.10002 23.5 3.20002 24Z"/>
<path id="path33_fill" d="M 8.7 20.5C 8.2 19.9 7.90005 19.3 7.50005 18.7C 6.90005 17.6 6.60005 16.4 6.50005 15.3C 6.40005 14.2 6.60005 13.1 7.00005 12C 7.40005 10.9 8.10002 9.9 9.10002 8.9C 10.1 7.9 11.1 7.19999 12.1 6.79999C 13.2 6.39999 14.3 6.19999 15.4 6.29999C 16.5 6.39999 17.6 6.69999 18.8 7.29999C 19.4 7.59999 20 8.00001 20.6 8.50001L 25.7 3.4C 24.6 2.5 23.3 1.69999 22 1.19999C 20.1 0.399988 18.2 6.10352e-06 16.2 6.10352e-06C 14.2 6.10352e-06 12.3 0.399988 10.3 1.19999C 8.39998 1.99999 6.49995 3.3 4.89995 4.9C 3.19995 6.6 2 8.39999 1.2 10.3C 0.4 12.2 4.88281e-05 14.2 4.88281e-05 16.2C 4.88281e-05 18.2 0.4 20.1 1.2 22C 1.8 23.3 2.49995 24.5 3.39995 25.7L 8.7 20.5Z"/>
<path id="path34_fill" d="M 8.59998 20.3C 8.19998 19.7 7.8 19.1 7.5 18.5C 7 17.3 6.59998 16.2 6.59998 15.1C 6.49998 14 6.69995 12.9 7.19995 11.8C 7.59995 10.7 8.29995 9.7 9.19995 8.8C 9.69995 8.3 10.2 7.90001 10.7 7.50001C 11.2 7.20001 11.6 6.9 12 6.8C 12.4 6.6 12.8 6.49998 13.1 6.39998C 13.4 6.29998 13.8 6.20002 14.1 6.20002C 14.4 6.10002 14.7 6.10001 14.9 6.00001C 15.1 5.90001 15.3 5.79999 15.5 5.59999C 15.8 5.29999 15.9 5.1 16 4.8C 16 4.5 16 4.30001 16 4.00001L 15.4 1.2207e-05C 14.6 1.2207e-05 13.7 0.0999939 12.8 0.199994C 11.9 0.399994 11.1 0.600012 10.2 1.00001C 9.29995 1.40001 8.49998 1.80001 7.59998 2.40001C 6.69998 3.00001 5.89998 3.70001 5.09998 4.50001C 3.39998 6.20001 2.20005 7.99998 1.30005 9.89998C 0.500049 11.8 0 13.8 0 15.7C 0 17.6 0.399951 19.6 1.19995 21.5C 1.79995 22.8 2.5 24.1 3.5 25.3L 8.59998 20.3Z"/>
<path id="path35_fill" d="M 3.19998 14.6C 4.99998 15.5 6.89995 15.9 8.79995 16C 10.7 16.1 12.6 15.7 14.4 15C 16.3 14.3 18 13.1 19.6 11.4C 21.4 9.60001 22.6 7.80001 23.4 5.90001C 24.1 4.00001 24.4 2.10002 24.1 0.100024L 20 -1.2207e-05C 19.8 -1.2207e-05 19.6 2.44156e-05 19.4 0.100024C 19.2 0.200024 19.1 0.300012 19 0.400012C 18.9 0.500012 18.7 0.700012 18.7 0.900012C 18.6 1.10001 18.6 1.29999 18.6 1.49999C 18.6 2.09999 18.5 2.59999 18.4 2.99999C 18.3 3.49999 18.1 3.89998 17.9 4.29998C 17.7 4.69998 17.4 5.20002 17.1 5.60002C 16.8 6.00002 16.4 6.50001 15.9 6.90001C 15.1 7.70001 14.2 8.3 13.2 8.7C 12.2 9.1 11.2 9.2 10 9.2C 8.90002 9.1 7.8 8.79998 6.6 8.29998C 6.1 8.09998 5.59998 7.79999 5.19998 7.49999L 2.44141e-05 12.7C 1.00002 13.4 2.09998 14.1 3.19998 14.6Z"/>
<path id="path36_fill" d="M 3.19998 24C 5.09998 24.8 7.00002 25.2 9.00002 25.2C 11 25.2 12.9 24.8 14.9 24C 16.8 23.2 18.7 21.9 20.3 20.3C 22 18.6 23.2 16.8 24 14.9C 24.8 13 25.2 11 25.2 8.99999C 25.2 6.99999 24.8 5.1 24 3.2C 23.5 2.1 22.9 0.999988 22.1 -1.2207e-05L 17 5.09999C 17.3 5.49999 17.6 6.00001 17.8 6.40001C 18.4 7.50001 18.7 8.70001 18.8 9.80001C 18.9 10.9 18.7 12 18.3 13.1C 17.9 14.2 17.2 15.2 16.2 16.1C 15.2 17.1 14.2 17.8 13.1 18.2C 12 18.6 10.9 18.8 9.79995 18.8C 8.69995 18.7 7.60005 18.4 6.40005 17.8C 5.90005 17.6 5.5 17.3 5.1 17L 2.44141e-05 22.1C 1.00002 22.9 2.09998 23.5 3.19998 24Z"/>
<path id="path37_fill" d="M 8.60005 20.3C 8.20005 19.7 7.79995 19.1 7.49995 18.5C 6.99995 17.3 6.60005 16.2 6.60005 15.1C 6.50005 14 6.70002 12.9 7.20002 11.8C 7.60002 10.7 8.30002 9.69999 9.20002 8.79999C 9.70002 8.29999 10.2 7.9 10.7 7.5C 11.2 7.2 11.6 6.89999 12 6.79999C 12.4 6.59999 12.8 6.50002 13.1 6.40002C 13.4 6.30002 13.8 6.20001 14.1 6.20001C 14.4 6.10001 14.7 6.1 14.9 6C 15.1 5.9 15.3 5.79998 15.5 5.59998C 15.8 5.29998 15.9 5.09999 16 4.79999C 16 4.49999 16 4.3 16 4L 15.4 -1.13687e-13C 14.6 -1.13687e-13 13.7 0.100012 12.8 0.200012C 11.9 0.400012 11.1 0.6 10.2 1C 9.30002 1.4 8.50005 1.80002 7.60005 2.40002C 6.70005 3.00002 5.90005 3.7 5.10005 4.5C 3.40005 6.2 2.2 8.00002 1.3 9.90002C 0.5 11.8 -4.88281e-05 13.8 -4.88281e-05 15.7C -4.88281e-05 17.6 0.400024 19.6 1.20002 21.5C 1.80002 22.8 2.49995 24.1 3.49995 25.3L 8.60005 20.3Z"/>
<path id="path38_fill" d="M 3.20005 14.6C 5.00005 15.5 6.90002 15.9 8.80002 16C 10.7 16.1 12.6 15.7 14.4 15C 16.3 14.3 18 13.1 19.6 11.4C 21.4 9.6 22.6 7.8 23.4 5.9C 24.1 4 24.4 2.10001 24.1 0.100012L 20 -2.44141e-05C 19.8 -2.44141e-05 19.6 1.22041e-05 19.4 0.100012C 19.2 0.200012 19.1 0.3 19 0.4C 18.9 0.5 18.7 0.7 18.7 0.9C 18.6 1.1 18.6 1.29998 18.6 1.49998C 18.6 2.09998 18.5 2.59998 18.4 2.99998C 18.3 3.49998 18.1 3.90002 17.9 4.30002C 17.7 4.70002 17.4 5.20001 17.1 5.60001C 16.8 6.00001 16.4 6.5 15.9 6.9C 15.1 7.7 14.2 8.29999 13.2 8.69999C 12.2 9.09999 11.2 9.19999 9.99998 9.19999C 8.89997 9.09999 7.79995 8.80002 6.59995 8.30002C 6.09995 8.10002 5.60005 7.79998 5.20005 7.49998L -2.44141e-05 12.7C 1.09998 13.4 2.10005 14 3.20005 14.6Z"/>
<path id="path39_fill" d="M 3.20005 24C 5.10005 24.8 6.99998 25.2 8.99998 25.2C 11 25.2 12.9 24.8 14.9 24C 16.8 23.2 18.7 21.9 20.3 20.3C 22 18.6 23.2 16.8 24 14.9C 24.8 13 25.2 11 25.2 8.99998C 25.2 6.99998 24.8 5.09999 24 3.19999C 23.5 2.09999 22.9 0.999976 22.1 -2.44141e-05L 17 5.10001C 17.3 5.50001 17.6 6 17.8 6.4C 18.4 7.5 18.7 8.70002 18.8 9.80002C 18.9 10.9 18.7 12 18.3 13.1C 17.9 14.2 17.2 15.2 16.2 16.1C 15.2 17.1 14.2 17.8 13.1 18.2C 12 18.6 10.9 18.8 9.80002 18.8C 8.70002 18.7 7.6 18.4 6.4 17.8C 5.9 17.6 5.49995 17.3 5.09995 17L -2.44141e-05 22.1C 0.999976 22.9 2.10005 23.5 3.20005 24Z"/>
<path id="path40_fill" d="M 8.7 20.5C 8.2 19.9 7.90005 19.3 7.50005 18.7C 6.90005 17.6 6.60005 16.4 6.50005 15.3C 6.40005 14.2 6.60005 13.1 7.00005 12C 7.40005 10.9 8.10002 9.9 9.10002 8.9C 10.1 7.9 11.1 7.20002 12.1 6.80002C 13.2 6.40002 14.3 6.20002 15.4 6.30002C 16.5 6.40002 17.6 6.70002 18.8 7.30002C 19.4 7.60002 20 7.99998 20.6 8.49998L 25.7 3.4C 24.6 2.5 23.3 1.69999 22 1.19999C 20.1 0.399988 18.2 -2.44141e-05 16.2 -2.44141e-05C 14.2 -2.44141e-05 12.3 0.399988 10.3 1.19999C 8.39998 1.99999 6.49995 3.3 4.89995 4.9C 3.19995 6.6 2 8.40002 1.2 10.3C 0.4 12.2 4.88281e-05 14.2 4.88281e-05 16.2C 4.88281e-05 18.2 0.4 20.1 1.2 22C 1.8 23.3 2.49995 24.5 3.39995 25.7L 8.7 20.5Z"/>
<path id="path41_fill" d="M 8.6 20.3C 8.2 19.7 7.80002 19.1 7.50002 18.5C 7.00002 17.3 6.6 16.2 6.6 15.1C 6.5 14 6.69998 12.9 7.19998 11.8C 7.59998 10.7 8.29998 9.69998 9.19998 8.79998C 9.69998 8.29998 10.2 7.89999 10.7 7.49999C 11.2 7.19999 11.6 6.89998 12 6.79998C 12.4 6.59998 12.8 6.50001 13.1 6.40001C 13.4 6.30001 13.8 6.2 14.1 6.2C 14.4 6.1 14.7 6.09999 14.9 5.99999C 15.1 5.89999 15.3 5.80002 15.5 5.60002C 15.8 5.30002 15.9 5.09998 16 4.79998C 16 4.49998 16 4.29999 16 3.99999L 15.4 -1.2207e-05C 14.6 -1.2207e-05 13.7 0.1 12.8 0.2C 11.9 0.4 11.1 0.599988 10.2 0.999988C 9.29998 1.39999 8.5 1.80001 7.6 2.40001C 6.7 3.00001 5.9 3.69999 5.1 4.49999C 3.4 6.19999 2.19995 8.00001 1.29995 9.90001C 0.499951 11.8 2.44141e-05 13.8 2.44141e-05 15.7C 2.44141e-05 17.6 0.399976 19.6 1.19998 21.5C 1.79998 22.8 2.50002 24.1 3.50002 25.3L 8.6 20.3Z"/>
<path id="path42_fill" d="M 3.19998 14.6C 4.99998 15.5 6.89995 15.9 8.79995 16C 10.7 16.1 12.6 15.7 14.4 15C 16.3 14.3 18 13.1 19.6 11.4C 21.4 9.60001 22.6 7.80001 23.4 5.90001C 24.1 4.00001 24.4 2.10002 24.1 0.100024L 20 -1.2207e-05C 19.8 -1.2207e-05 19.6 2.44156e-05 19.4 0.100024C 19.2 0.200024 19.1 0.300012 19 0.400012C 18.9 0.500012 18.7 0.700012 18.7 0.900012C 18.6 1.10001 18.6 1.29999 18.6 1.49999C 18.6 2.09999 18.5 2.59999 18.4 2.99999C 18.3 3.49999 18.1 3.89998 17.9 4.29998C 17.7 4.69998 17.4 5.20002 17.1 5.60002C 16.8 6.00002 16.4 6.50001 15.9 6.90001C 15.1 7.70001 14.2 8.3 13.2 8.7C 12.2 9.1 11.2 9.2 10 9.2C 8.90002 9.1 7.8 8.79998 6.6 8.29998C 6.1 8.09998 5.59998 7.79999 5.19998 7.49999L 2.44141e-05 12.7C 1.00002 13.5 1.99998 14.1 3.19998 14.6Z"/>
<path id="path43_fill" d="M 3.19998 24C 5.09998 24.8 7.00002 25.2 9.00002 25.2C 11 25.2 12.9 24.8 14.9 24C 16.8 23.2 18.7 21.9 20.3 20.3C 22 18.6 23.2 16.8 24 14.9C 24.8 13 25.2 11 25.2 8.99999C 25.2 6.99999 24.8 5.1 24 3.2C 23.5 2.1 22.9 0.999988 22.1 -1.2207e-05L 17 5.10002C 17.3 5.50002 17.6 6.00001 17.8 6.40001C 18.4 7.50001 18.7 8.69998 18.8 9.79998C 18.9 10.9 18.7 12 18.3 13.1C 17.9 14.2 17.2 15.2 16.2 16.1C 15.2 17.1 14.2 17.8 13.1 18.2C 12 18.6 10.9 18.8 9.79995 18.8C 8.69995 18.7 7.60005 18.4 6.40005 17.8C 5.90005 17.6 5.5 17.3 5.1 17L 2.44141e-05 22.1C 1.00002 22.9 1.99998 23.6 3.19998 24Z"/>
<path id="path44_fill" d="M 8.69995 20.5C 8.19995 19.9 7.9 19.3 7.5 18.7C 6.9 17.6 6.6 16.4 6.5 15.3C 6.4 14.2 6.6 13.1 7 12C 7.4 10.9 8.09998 9.89999 9.09998 8.89999C 10.1 7.89999 11.1 7.20001 12.1 6.80001C 13.2 6.40001 14.3 6.20001 15.4 6.30001C 16.5 6.40001 17.6 6.70001 18.8 7.30001C 19.4 7.60001 20 8.00002 20.6 8.50002L 25.7 3.39999C 24.6 2.49999 23.3 1.69998 22 1.19998C 20.1 0.399976 18.2 2.44141e-05 16.2 2.44141e-05C 14.2 2.44141e-05 12.3 0.399976 10.3 1.19998C 8.40005 1.99998 6.50002 3.29999 4.90002 4.89999C 3.20002 6.59999 1.99995 8.40001 1.19995 10.3C 0.399951 12.2 4.54747e-13 14.2 4.54747e-13 16.2C 4.54747e-13 18.2 0.399951 20.1 1.19995 22C 1.79995 23.3 2.50002 24.5 3.40002 25.7L 8.69995 20.5Z"/>
<path id="path45_fill" d="M 8.60005 20.3C 8.20005 19.7 7.79995 19.1 7.49995 18.5C 6.99995 17.3 6.60005 16.2 6.60005 15.1C 6.50005 14 6.70002 12.9 7.20002 11.8C 7.60002 10.7 8.30002 9.70001 9.20002 8.80001C 9.70002 8.30001 10.2 7.89999 10.7 7.49999C 11.2 7.19999 11.6 6.90001 12 6.80001C 12.4 6.60001 12.8 6.49999 13.1 6.39999C 13.4 6.29999 13.8 6.20001 14.1 6.20001C 14.4 6.10001 14.7 6.09999 14.9 5.99999C 15.1 5.89999 15.3 5.8 15.5 5.6C 15.8 5.3 15.9 5.10001 16 4.80001C 16 4.50001 16 4.29999 16 3.99999L 15.4 -6.10352e-06C 14.6 -6.10352e-06 13.7 0.100006 12.8 0.200006C 11.9 0.400006 11.1 0.599994 10.2 0.999994C 9.30002 1.39999 8.50005 1.79999 7.60005 2.39999C 6.70005 2.99999 5.90005 3.69999 5.10005 4.49999C 3.40005 6.19999 2.2 7.99999 1.3 9.89999C 0.5 11.8 -4.88281e-05 13.8 -4.88281e-05 15.7C -4.88281e-05 17.6 0.400024 19.6 1.20002 21.5C 1.80002 22.8 2.49995 24.1 3.49995 25.3L 8.60005 20.3Z"/>
<path id="path46_fill" d="M 8.7 20.5C 8.2 19.9 7.90005 19.3 7.50005 18.7C 6.90005 17.6 6.60005 16.4 6.50005 15.3C 6.40005 14.2 6.60005 13.1 7.00005 12C 7.40005 10.9 8.10002 9.89999 9.10002 8.89999C 10.1 7.89999 11.1 7.19999 12.1 6.79999C 13.2 6.39999 14.3 6.19999 15.4 6.29999C 16.5 6.39999 17.6 6.69999 18.8 7.29999C 19.4 7.59999 20 8 20.6 8.5L 25.7 3.39999C 24.6 2.49999 23.3 1.70001 22 1.20001C 20.1 0.400012 18.2 5.68434e-14 16.2 5.68434e-14C 14.2 5.68434e-14 12.3 0.400012 10.3 1.20001C 8.39998 2.00001 6.49995 3.29999 4.89995 4.89999C 3.19995 6.59999 2 8.39999 1.2 10.3C 0.4 12.2 4.88281e-05 14.2 4.88281e-05 16.2C 4.88281e-05 18.2 0.4 20.1 1.2 22C 1.8 23.3 2.49995 24.5 3.39995 25.7L 8.7 20.5Z"/>
<path id="path47_fill" d="M 8.6 20.3C 8.2 19.7 7.80002 19.1 7.50002 18.5C 7.00002 17.3 6.6 16.2 6.6 15.1C 6.5 14 6.69998 12.9 7.19998 11.8C 7.59998 10.7 8.29998 9.7 9.19998 8.8C 9.69998 8.3 10.2 7.90001 10.7 7.50001C 11.2 7.20001 11.6 6.9 12 6.8C 12.4 6.6 12.8 6.50001 13.1 6.40001C 13.4 6.30001 13.8 6.19999 14.1 6.19999C 14.4 6.09999 14.7 6.10001 14.9 6.00001C 15.1 5.90001 15.3 5.79999 15.5 5.59999C 15.8 5.29999 15.9 5.1 16 4.8C 16 4.5 16 4.30001 16 4.00001L 15.4 1.2207e-05C 14.6 1.2207e-05 13.7 0.0999939 12.8 0.199994C 11.9 0.399994 11.1 0.600012 10.2 1.00001C 9.29998 1.40001 8.5 1.80001 7.6 2.40001C 6.7 3.00001 5.9 3.70001 5.1 4.50001C 3.4 6.20001 2.19995 8.00001 1.29995 9.90001C 0.499951 11.8 2.44141e-05 13.8 2.44141e-05 15.7C 2.44141e-05 17.6 0.399976 19.6 1.19998 21.5C 1.79998 22.8 2.50002 24.1 3.50002 25.3L 8.6 20.3Z"/>
<path id="path48_fill" d="M 3.19998 14.6C 4.99998 15.5 6.89995 15.9 8.79995 16C 10.7 16.1 12.6 15.7 14.4 15C 16.3 14.3 18 13.1 19.6 11.4C 21.4 9.60001 22.6 7.80001 23.4 5.90001C 24.1 4.00001 24.4 2.09999 24.1 0.0999878L 20 1.2207e-05C 19.8 1.2207e-05 19.6 -1.22115e-05 19.4 0.0999878C 19.2 0.199988 19.1 0.300006 19 0.400006C 18.9 0.500006 18.7 0.700006 18.7 0.900006C 18.6 1.10001 18.6 1.30001 18.6 1.50001C 18.6 2.10001 18.5 2.60001 18.4 3.00001C 18.3 3.50001 18.1 3.9 17.9 4.3C 17.7 4.7 17.4 5.19999 17.1 5.59999C 16.8 5.99999 16.4 6.50001 15.9 6.90001C 15.1 7.70001 14.2 8.29999 13.2 8.69999C 12.2 9.09999 11.2 9.19999 10 9.19999C 8.90002 9.09999 7.8 8.8 6.6 8.3C 6.1 8.1 5.59998 7.80001 5.19998 7.50001L 2.44141e-05 12.7C 1.00002 13.4 1.99998 14.1 3.19998 14.6Z"/>
<path id="path49_fill" d="M 3.19998 24C 5.09998 24.8 7.00002 25.2 9.00002 25.2C 11 25.2 12.9 24.8 14.9 24C 16.8 23.2 18.7 21.9 20.3 20.3C 22 18.6 23.2 16.8 24 14.9C 24.8 13 25.2 11 25.2 9.00001C 25.2 7.00001 24.8 5.09999 24 3.19999C 23.5 2.09999 22.9 1.00001 22.1 1.2207e-05L 17 5.09999C 17.3 5.49999 17.6 6.00001 17.8 6.40001C 18.4 7.50001 18.7 8.7 18.8 9.8C 18.9 10.9 18.7 12 18.3 13.1C 17.9 14.2 17.2 15.2 16.2 16.1C 15.2 17.1 14.2 17.8 13.1 18.2C 12 18.6 10.9 18.8 9.79995 18.8C 8.69995 18.7 7.60005 18.4 6.40005 17.8C 5.90005 17.6 5.5 17.3 5.1 17L 2.44141e-05 22.1C 1.00002 22.9 1.99998 23.6 3.19998 24Z"/>
<path id="path50_fill" d="M 8.69995 20.5C 8.19995 19.9 7.9 19.3 7.5 18.7C 6.9 17.6 6.6 16.4 6.5 15.3C 6.4 14.2 6.6 13.1 7 12C 7.4 10.9 8.09998 9.90001 9.09998 8.90001C 10.1 7.90001 11.1 7.20001 12.1 6.80001C 13.2 6.40001 14.3 6.20001 15.4 6.30001C 16.5 6.40001 17.6 6.70001 18.8 7.30001C 19.4 7.60001 20 7.99999 20.6 8.49999L 25.7 3.40001C 24.6 2.50001 23.3 1.7 22 1.2C 20.1 0.4 18.2 -1.2207e-05 16.2 -1.2207e-05C 14.2 -1.2207e-05 12.3 0.4 10.3 1.2C 8.40005 2 6.50002 3.30001 4.90002 4.90001C 3.20002 6.60001 1.99995 8.40001 1.19995 10.3C 0.399951 12.2 4.54747e-13 14.2 4.54747e-13 16.2C 4.54747e-13 18.2 0.399951 20.1 1.19995 22C 1.79995 23.3 2.50002 24.5 3.40002 25.7L 8.69995 20.5Z"/>
<path id="path51_fill" d="M 8.60005 20.3C 8.20005 19.7 7.79995 19.1 7.49995 18.5C 6.99995 17.3 6.60005 16.2 6.60005 15.1C 6.50005 14 6.70002 12.9 7.20002 11.8C 7.60002 10.7 8.30002 9.69999 9.20002 8.79999C 9.70002 8.29999 10.2 7.9 10.7 7.5C 11.2 7.2 11.6 6.89999 12 6.79999C 12.4 6.59999 12.8 6.49999 13.1 6.39999C 13.4 6.29999 13.8 6.20001 14.1 6.20001C 14.4 6.10001 14.7 6.1 14.9 6C 15.1 5.9 15.3 5.80001 15.5 5.60001C 15.8 5.30001 15.9 5.09999 16 4.79999C 16 4.49999 16 4.3 16 4L 15.4 -5.68434e-14C 14.6 -5.68434e-14 13.7 0.100012 12.8 0.200012C 11.9 0.400012 11.1 0.6 10.2 1C 9.30002 1.4 8.50005 1.79999 7.60005 2.39999C 6.70005 2.99999 5.90005 3.7 5.10005 4.5C 3.40005 6.2 2.2 7.99999 1.3 9.89999C 0.5 11.8 -4.88281e-05 13.8 -4.88281e-05 15.7C -4.88281e-05 17.6 0.400024 19.6 1.20002 21.5C 1.80002 22.8 2.49995 24.1 3.49995 25.3L 8.60005 20.3Z"/>
<path id="path52_fill" d="M 3.20005 14.6C 5.00005 15.5 6.90002 15.9 8.80002 16C 10.7 16.1 12.6 15.7 14.4 15C 16.3 14.3 18 13.1 19.6 11.4C 21.4 9.59999 22.6 7.79999 23.4 5.89999C 24.1 3.99999 24.4 2.10001 24.1 0.100006L 20 5.68434e-14C 19.8 5.68434e-14 19.6 6.10203e-06 19.4 0.100006C 19.2 0.200006 19.1 0.299994 19 0.399994C 18.9 0.499994 18.7 0.699994 18.7 0.899994C 18.6 1.09999 18.6 1.3 18.6 1.5C 18.6 2.1 18.5 2.6 18.4 3C 18.3 3.5 18.1 3.89999 17.9 4.29999C 17.7 4.69999 17.4 5.20001 17.1 5.60001C 16.8 6.00001 16.4 6.49999 15.9 6.89999C 15.1 7.69999 14.2 8.30001 13.2 8.70001C 12.2 9.10001 11.2 9.20001 9.99998 9.20001C 8.89997 9.10001 7.79995 8.79999 6.59995 8.29999C 6.09995 8.09999 5.60005 7.8 5.20005 7.5L -2.44141e-05 12.7C 0.999976 13.4 2.10005 14.1 3.20005 14.6Z"/>
<path id="path53_fill" d="M 3.20005 24C 5.10005 24.8 6.99998 25.2 8.99998 25.2C 11 25.2 12.9 24.8 14.9 24C 16.8 23.2 18.7 21.9 20.3 20.3C 22 18.6 23.2 16.8 24 14.9C 24.8 13 25.2 11 25.2 9C 25.2 7 24.8 5.10001 24 3.20001C 23.5 2.10001 22.9 1 22.1 -5.68434e-14L 17 5.10001C 17.3 5.50001 17.6 5.99999 17.8 6.39999C 18.4 7.49999 18.7 8.69999 18.8 9.79999C 18.9 10.9 18.7 12 18.3 13.1C 17.9 14.2 17.2 15.2 16.2 16.1C 15.2 17.1 14.2 17.8 13.1 18.2C 12 18.6 10.9 18.8 9.80002 18.8C 8.70002 18.7 7.6 18.4 6.4 17.8C 5.9 17.6 5.49995 17.3 5.09995 17L -2.44141e-05 22.1C 0.999976 22.9 2.10005 23.5 3.20005 24Z"/>
<path id="path54_fill" d="M 8.70002 20.5C 8.20002 19.9 7.89995 19.3 7.49995 18.7C 6.89995 17.6 6.59995 16.4 6.49995 15.3C 6.39995 14.2 6.59995 13.1 6.99995 12C 7.39995 10.9 8.10005 9.9 9.10005 8.9C 10.1 7.9 11.1 7.20002 12.1 6.80002C 13.2 6.40002 14.3 6.20002 15.4 6.30002C 16.5 6.40002 17.6 6.70002 18.8 7.30002C 19.4 7.60002 20 7.99998 20.6 8.49998L 25.7 3.4C 24.6 2.5 23.2999 1.69999 22 1.19999C 20.1 0.399988 18.2 -2.44141e-05 16.2 -2.44141e-05C 14.2 -2.44141e-05 12.3 0.399988 10.3 1.19999C 8.4 1.99999 6.49998 3.3 4.89998 4.9C 3.19998 6.6 2.00002 8.40002 1.20002 10.3C 0.400024 12.2 -4.88281e-05 14.2 -4.88281e-05 16.2C -4.88281e-05 18.2 0.400024 20.1 1.20002 22C 1.80002 23.3 2.49998 24.5 3.39998 25.7L 8.70002 20.5Z"/>
<path id="path55_fill" d="M 8.6 20.3C 8.2 19.7 7.80002 19.1 7.50002 18.5C 7.00002 17.3 6.6 16.2 6.6 15.1C 6.5 14 6.69998 12.9 7.19998 11.8C 7.59998 10.7 8.29998 9.7 9.19998 8.8C 9.69998 8.3 10.2 7.90001 10.7 7.50001C 11.2 7.20001 11.6 6.9 12 6.8C 12.4 6.6 12.8 6.49998 13.1 6.39998C 13.4 6.29998 13.8 6.20002 14.1 6.20002C 14.4 6.10002 14.7 6.10001 14.9 6.00001C 15.1 5.90001 15.3 5.79999 15.5 5.59999C 15.8 5.29999 15.9 5.1 16 4.8C 16 4.5 16 4.30001 16 4.00001L 15.4 1.2207e-05C 14.6 1.2207e-05 13.7 0.100024 12.8 0.200024C 11.9 0.400024 11.1 0.600012 10.2 1.00001C 9.29998 1.40001 8.5 1.79998 7.6 2.39998C 6.7 2.99998 5.9 3.70001 5.1 4.50001C 3.4 6.20001 2.19995 7.99998 1.29995 9.89998C 0.499951 11.8 2.44141e-05 13.8 2.44141e-05 15.7C 2.44141e-05 17.7 0.399976 19.6 1.19998 21.5C 1.79998 22.8 2.50002 24.1 3.50002 25.3L 8.6 20.3Z"/>
<path id="path56_fill" d="M 3.2 14.6C 5 15.5 6.89998 15.9 8.79998 16C 10.7 16.1 12.6 15.7 14.4 15C 16.3 14.3 18 13.1 19.6 11.4C 21.4 9.60001 22.6 7.80001 23.4 5.90001C 24.1 4.00001 24.4 2.10002 24.1 0.100024L 20 -1.2207e-05C 19.8 -1.2207e-05 19.6 2.44156e-05 19.4 0.100024C 19.2 0.200024 19.1 0.300012 19 0.400012C 18.9 0.500012 18.7 0.700012 18.7 0.900012C 18.6 1.10001 18.6 1.29999 18.6 1.49999C 18.6 2.09999 18.5 2.59999 18.4 2.99999C 18.3 3.49999 18.1 3.89998 17.9 4.29998C 17.7 4.69998 17.4 5.20002 17.1 5.60002C 16.8 6.00002 16.4 6.50001 15.9 6.90001C 15.1 7.70001 14.2 8.3 13.2 8.7C 12.2 9.1 11.2 9.2 10 9.2C 8.90005 9.1 7.80002 8.79998 6.60002 8.29998C 6.10002 8.09998 5.6 7.79999 5.2 7.49999L 4.88281e-05 12.7C 1.00005 13.4 2.1 14.1 3.2 14.6Z"/>
<path id="path57_fill" d="M 3.2 24C 5.1 24.8 7.00005 25.2 9.00005 25.2C 11 25.2 12.9 24.8 14.9 24C 16.8 23.2 18.7 21.9 20.3 20.3C 22 18.6 23.2001 16.8 24 14.9C 24.8 13 25.2 11 25.2 8.99999C 25.2 6.99999 24.8 5.1 24 3.2C 23.5 2.1 22.9 0.999988 22.1 -1.2207e-05L 17 5.10002C 17.3 5.50002 17.6 6.00001 17.8 6.40001C 18.4 7.50001 18.7 8.69998 18.8 9.79998C 18.9 10.9 18.7 12 18.3 13.1C 17.9 14.2 17.2 15.2 16.2 16.1C 15.2 17.1 14.2 17.8 13.1 18.2C 12 18.6 10.9 18.8 9.79998 18.8C 8.69998 18.7 7.59995 18.4 6.39995 17.8C 5.89995 17.6 5.50002 17.3 5.10002 17L 4.88281e-05 22.1C 1.00005 22.9 2.1 23.5 3.2 24Z"/>
<path id="path58_fill" d="M 8.59995 20.3C 8.19995 19.7 7.79998 19.1 7.49998 18.5C 6.99998 17.3 6.59995 16.2 6.59995 15.1C 6.49995 14 6.70005 12.9 7.20005 11.8C 7.60005 10.7 8.30005 9.69999 9.20005 8.79999C 9.70005 8.29999 10.2 7.9 10.7 7.5C 11.2 7.2 11.6 6.89999 12 6.79999C 12.4 6.59999 12.8 6.50002 13.1 6.40002C 13.4 6.30002 13.8 6.20001 14.1 6.20001C 14.4 6.10001 14.7 6.1 14.9 6C 15.1 5.9 15.3 5.79998 15.5 5.59998C 15.8 5.29998 15.9 5.09999 16 4.79999C 16 4.49999 16 4.3 16 4L 15.4 -1.13687e-13C 14.6 -1.13687e-13 13.7 0.100012 12.8 0.200012C 11.9 0.400012 11.1 0.6 10.2 1C 9.30005 1.4 8.49995 1.80002 7.59995 2.40002C 6.69995 3.00002 5.89995 3.7 5.09995 4.5C 3.39995 6.2 2.20002 8.00002 1.30002 9.90002C 0.500024 11.8 -2.44141e-05 13.8 -2.44141e-05 15.7C -2.44141e-05 17.7 0.400049 19.6 1.20005 21.5C 1.80005 22.8 2.49998 24.1 3.49998 25.3L 8.59995 20.3Z"/>
<path id="path59_fill" d="M 3.19995 14.6C 4.99995 15.5 6.90005 15.9 8.80005 16C 10.7 16.1 12.6 15.7 14.4 15C 16.3 14.3 18 13.1 19.6 11.4C 21.4 9.6 22.6 7.8 23.4 5.9C 24.1 4 24.4 2.10001 24.1 0.100012L 20 -2.44141e-05C 19.8 -2.44141e-05 19.6 1.22041e-05 19.4 0.100012C 19.2 0.200012 19.1 0.3 19 0.4C 18.9 0.5 18.7 0.7 18.7 0.9C 18.6 1.1 18.6 1.29998 18.6 1.49998C 18.6 2.09998 18.5 2.59998 18.4 2.99998C 18.3 3.49998 18.1 3.90002 17.9 4.30002C 17.7 4.70002 17.4 5.20001 17.1 5.60001C 16.8 6.00001 16.4 6.5 15.9 6.9C 15.1 7.7 14.2 8.29999 13.2 8.69999C 12.2 9.09999 11.2 9.19999 10 9.19999C 8.9 9.09999 7.79998 8.80002 6.59998 8.30002C 6.09998 8.10002 5.59995 7.79998 5.19995 7.49998L 2.27374e-13 12.7C 1.1 13.4 2.09995 14 3.19995 14.6Z"/>
<path id="path60_fill" d="M 3.19995 24C 5.09995 24.8 7 25.2 9 25.2C 11 25.2 12.9 24.8 14.9 24C 16.8 23.2 18.7 21.9 20.3 20.3C 22 18.6 23.2 16.8 24 14.9C 24.8 13 25.2 11 25.2 8.99998C 25.2 6.99998 24.8 5.09999 24 3.19999C 23.5 2.09999 22.9 0.999976 22.1 -2.44141e-05L 17 5.10001C 17.3 5.50001 17.6 6 17.8 6.4C 18.4 7.5 18.7 8.70002 18.8 9.80002C 18.9 10.9 18.7 12 18.3 13.1C 17.9 14.2 17.2 15.2 16.2 16.1C 15.2 17.1 14.2 17.8 13.1 18.2C 12 18.6 10.9 18.8 9.80005 18.8C 8.70005 18.7 7.60002 18.4 6.40002 17.8C 5.90002 17.6 5.49998 17.3 5.09998 17L -4.54747e-13 22.1C 1 22.9 2.09995 23.5 3.19995 24Z"/>
<path id="path61_fill" d="M 8.70002 20.5C 8.20002 19.9 7.89995 19.3 7.49995 18.7C 6.89995 17.6 6.59995 16.4 6.49995 15.3C 6.39995 14.2 6.59995 13.1 6.99995 12C 7.39995 10.9 8.10005 9.89999 9.10005 8.89999C 10.1 7.89999 11.1 7.19999 12.1 6.79999C 13.2 6.39999 14.3 6.19999 15.4 6.29999C 16.5 6.39999 17.6 6.69999 18.8 7.29999C 19.4 7.59999 20 8 20.6 8.5L 25.7 3.39999C 24.6 2.49999 23.2999 1.70001 22 1.20001C 20.1 0.400012 18.2 5.68434e-14 16.2 5.68434e-14C 14.2 5.68434e-14 12.3 0.400012 10.3 1.20001C 8.4 2.00001 6.49998 3.29999 4.89998 4.89999C 3.19998 6.59999 2.00002 8.39999 1.20002 10.3C 0.400024 12.2 -4.88281e-05 14.2 -4.88281e-05 16.2C -4.88281e-05 18.2 0.400024 20.1 1.20002 22C 1.80002 23.3 2.49998 24.5 3.39998 25.7L 8.70002 20.5Z"/>
<path id="path62_fill" d="M 8.60002 20.3C 8.20002 19.7 7.80005 19.1 7.50005 18.5C 7.00005 17.3 6.60002 16.2 6.60002 15.1C 6.50002 14 6.7 12.9 7.2 11.8C 7.6 10.7 8.3 9.7 9.2 8.8C 9.7 8.3 10.2 7.90001 10.7 7.50001C 11.2 7.20001 11.6 6.9 12 6.8C 12.4 6.6 12.8 6.50001 13.1 6.40001C 13.4 6.30001 13.8 6.19999 14.1 6.19999C 14.4 6.09999 14.7 6.10001 14.9 6.00001C 15.1 5.90001 15.3 5.79999 15.5 5.59999C 15.8 5.29999 15.9 5.1 16 4.8C 16 4.5 16 4.30001 16 4.00001L 15.4 1.2207e-05C 14.6 1.2207e-05 13.7 0.0999939 12.8 0.199994C 11.9 0.399994 11.1 0.600012 10.2 1.00001C 9.3 1.40001 8.50002 1.80001 7.60002 2.40001C 6.70002 3.00001 5.90002 3.70001 5.10002 4.50001C 3.40002 6.20001 2.19998 8.00001 1.29998 9.90001C 0.499976 11.8 4.88281e-05 13.8 4.88281e-05 15.7C 4.88281e-05 17.6 0.4 19.6 1.2 21.5C 1.8 22.8 2.50005 24.1 3.50005 25.3L 8.60002 20.3Z"/>
<path id="path63_fill" d="M 3.20002 14.6C 5.00002 15.5 6.9 15.9 8.8 16C 10.7 16.1 12.6 15.7 14.4 15C 16.3 14.3 18 13.1 19.6 11.4C 21.4 9.60001 22.6 7.80001 23.4 5.90001C 24.1 4.00001 24.4 2.09999 24.1 0.0999878L 20 1.2207e-05C 19.7999 1.2207e-05 19.6 -1.22115e-05 19.4 0.0999878C 19.2 0.199988 19.1 0.300006 19 0.400006C 18.9 0.500006 18.7 0.700006 18.7 0.900006C 18.6 1.10001 18.6 1.30001 18.6 1.50001C 18.6 2.10001 18.5 2.60001 18.4 3.00001C 18.3 3.50001 18.1 3.9 17.9 4.3C 17.7 4.7 17.4 5.19999 17.1 5.59999C 16.8 5.99999 16.4 6.50001 15.9 6.90001C 15.1 7.70001 14.2 8.29999 13.2 8.69999C 12.2 9.09999 11.2 9.19999 9.99995 9.19999C 8.89995 9.09999 7.80005 8.8 6.60005 8.3C 6.10005 8.1 5.60002 7.80001 5.20002 7.50001L -4.88281e-05 12.7C 1.09995 13.4 2.10002 14.1 3.20002 14.6Z"/>
<path id="path64_fill" d="M 3.2 24C 5.1 24.8 7.00005 25.2 9.00005 25.2C 11 25.2 12.9 24.8 14.9 24C 16.8 23.2 18.7 21.9 20.3 20.3C 22 18.6 23.2001 16.8 24 14.9C 24.8 13 25.2 11 25.2 9.00001C 25.2 7.00001 24.8 5.09999 24 3.19999C 23.5 2.09999 22.9 1.00001 22.1 1.2207e-05L 17 5.09999C 17.3 5.49999 17.6 6.00001 17.8 6.40001C 18.4 7.50001 18.7 8.7 18.8 9.8C 18.9 10.9 18.7 12 18.3 13.1C 17.9 14.2 17.2 15.2 16.2 16.1C 15.2 17.1 14.2 17.8 13.1 18.2C 12 18.6 10.9 18.8 9.79998 18.8C 8.69998 18.7 7.59995 18.4 6.39995 17.8C 5.89995 17.6 5.50002 17.3 5.10002 17L 4.88281e-05 22.1C 1.00005 22.9 2 23.5 3.2 24Z"/>
<path id="path65_fill" d="M 8.69998 20.5C 8.19998 19.9 7.90002 19.3 7.50002 18.7C 6.90002 17.6 6.60002 16.4 6.50002 15.3C 6.40002 14.2 6.60002 13.1 7.00002 12C 7.40002 10.9 8.1 9.90001 9.1 8.90001C 10.1 7.90001 11.1 7.20001 12.1 6.80001C 13.2 6.40001 14.3 6.20001 15.4 6.30001C 16.5 6.40001 17.6 6.70001 18.8 7.30001C 19.4 7.60001 20 7.99999 20.6 8.49999L 25.7 3.40001C 24.6 2.50001 23.3 1.7 22 1.2C 20.1 0.4 18.2 -1.2207e-05 16.2 -1.2207e-05C 14.2 -1.2207e-05 12.3 0.4 10.3 1.2C 8.39995 2 6.50005 3.30001 4.90005 4.90001C 3.20005 6.60001 1.99998 8.40001 1.19998 10.3C 0.399976 12.2 2.44141e-05 14.2 2.44141e-05 16.2C 2.44141e-05 18.2 0.399976 20.1 1.19998 22C 1.79998 23.3 2.50005 24.5 3.40005 25.7L 8.69998 20.5Z"/>
<path id="path66_fill" d="M 8.59995 20.3C 8.19995 19.7 7.79998 19.1 7.49998 18.5C 6.99998 17.3 6.59995 16.2 6.59995 15.1C 6.49995 14 6.70005 12.9 7.20005 11.8C 7.60005 10.7 8.30005 9.69999 9.20005 8.79999C 9.70005 8.29999 10.2 7.9 10.7 7.5C 11.2 7.2 11.6 6.89999 12 6.79999C 12.4 6.59999 12.8 6.50002 13.1 6.40002C 13.4 6.30002 13.8 6.20001 14.1 6.20001C 14.4 6.10001 14.7 6.1 14.9 6C 15.1 5.9 15.3 5.79998 15.5 5.59998C 15.8 5.29998 15.9 5.09999 16 4.79999C 16 4.49999 16 4.3 16 4L 15.4 -1.13687e-13C 14.6 -1.13687e-13 13.7 0.100012 12.8 0.200012C 11.9 0.400012 11.1 0.6 10.2 1C 9.30005 1.4 8.49995 1.80002 7.59995 2.40002C 6.69995 3.00002 5.89995 3.7 5.09995 4.5C 3.39995 6.2 2.20002 8.00002 1.30002 9.90002C 0.500024 11.8 -2.44141e-05 13.8 -2.44141e-05 15.7C -2.44141e-05 17.6 0.400049 19.6 1.20005 21.5C 1.80005 22.8 2.49998 24.1 3.49998 25.3L 8.59995 20.3Z"/>
<path id="path67_fill" d="M 3.19995 14.6C 4.99995 15.5 6.90005 15.9 8.80005 16C 10.7 16.1 12.6 15.7 14.4 15C 16.3 14.3 18 13.1 19.6 11.4C 21.4 9.60002 22.6 7.80002 23.4 5.90002C 24.1 4.00002 24.4 2.09998 24.1 0.0999756L 20 0C 19.8 0 19.6 -2.44156e-05 19.4 0.0999756C 19.2 0.199976 19.1 0.300024 19 0.400024C 18.9 0.500024 18.7 0.700024 18.7 0.900024C 18.6 1.10002 18.6 1.3 18.6 1.5C 18.6 2.1 18.5 2.6 18.4 3C 18.3 3.5 18.1 3.89999 17.9 4.29999C 17.7 4.69999 17.4 5.19998 17.1 5.59998C 16.8 5.99998 16.4 6.50002 15.9 6.90002C 15.1 7.70002 14.2 8.30001 13.2 8.70001C 12.2 9.10001 11.2 9.20001 10 9.20001C 8.9 9.10001 7.79998 8.79999 6.59998 8.29999C 6.09998 8.09999 5.59995 7.8 5.19995 7.5L 2.27374e-13 12.7C 1 13.4 2.09995 14.1 3.19995 14.6Z"/>
<path id="path68_fill" d="M 3.19995 24C 5.09995 24.8 7 25.2 9 25.2C 11 25.2 12.9 24.8 14.9 24C 16.8 23.2 18.7 21.9 20.3 20.3C 22 18.6 23.2 16.8 24 14.9C 24.8 13 25.2 11 25.2 9C 25.2 7 24.8 5.10001 24 3.20001C 23.5 2.10001 22.9 1 22.1 0L 17 5.10001C 17.3 5.50001 17.6 5.99999 17.8 6.39999C 18.4 7.49999 18.7 8.69999 18.8 9.79999C 18.9 10.9 18.7 12 18.3 13.1C 17.9 14.2 17.2 15.2 16.2 16.1C 15.2 17.1 14.2 17.8 13.1 18.2C 12 18.6 10.9 18.8 9.80005 18.8C 8.70005 18.7 7.60002 18.4 6.40002 17.8C 5.90002 17.6 5.49998 17.3 5.09998 17L -4.54747e-13 22.1C 1 22.9 1.99995 23.5 3.19995 24Z"/>
<path id="path69_fill" d="M 8.70005 20.5C 8.20005 19.9 7.89998 19.3 7.49998 18.7C 6.89998 17.6 6.59998 16.4 6.49998 15.3C 6.39998 14.2 6.59998 13.1 6.99998 12C 7.39998 10.9 8.09995 9.9 9.09995 8.9C 10.1 7.9 11.1 7.20002 12.1 6.80002C 13.2 6.40002 14.3 6.20002 15.4 6.30002C 16.5 6.40002 17.6 6.70002 18.8 7.30002C 19.4 7.60002 20 7.99998 20.6 8.49998L 25.7 3.4C 24.6 2.5 23.3 1.69999 22 1.19999C 20.1 0.399988 18.2 -2.44141e-05 16.2 -2.44141e-05C 14.2 -2.44141e-05 12.3 0.399988 10.3 1.19999C 8.40002 1.99999 6.5 3.3 4.9 4.9C 3.2 6.6 2.00005 8.40002 1.20005 10.3C 0.400049 12.2 -2.44141e-05 14.2 -2.44141e-05 16.2C -2.44141e-05 18.2 0.400049 20.1 1.20005 22C 1.80005 23.3 2.5 24.5 3.4 25.7L 8.70005 20.5Z"/>
<path id="path70_fill" d="M 8.60002 20.3C 8.20002 19.7 7.80005 19.1 7.50005 18.5C 7.00005 17.3 6.60002 16.2 6.60002 15.1C 6.50002 14 6.7 12.9 7.2 11.8C 7.6 10.7 8.3 9.7 9.2 8.8C 9.7 8.3 10.2 7.90001 10.7 7.50001C 11.2 7.20001 11.6 6.9 12 6.8C 12.4 6.6 12.8 6.49998 13.1 6.39998C 13.4 6.29998 13.8 6.20002 14.1 6.20002C 14.4 6.10002 14.7 6.10001 14.9 6.00001C 15.1 5.90001 15.3 5.79999 15.5 5.59999C 15.8 5.29999 15.9 5.1 16 4.8C 16 4.5 16 4.30001 16 4.00001L 15.4 1.2207e-05C 14.6 1.2207e-05 13.7 0.100024 12.8 0.200024C 11.9 0.400024 11.1 0.600012 10.2 1.00001C 9.3 1.40001 8.50002 1.79998 7.60002 2.39998C 6.70002 2.99998 5.90002 3.70001 5.10002 4.50001C 3.40002 6.20001 2.19998 7.99998 1.29998 9.89998C 0.499976 11.8 4.88281e-05 13.8 4.88281e-05 15.7C 4.88281e-05 17.6 0.4 19.6 1.2 21.5C 1.8 22.8 2.50005 24.1 3.50005 25.3L 8.60002 20.3Z"/>
<path id="path71_fill" d="M 3.20002 14.6C 5.00002 15.5 6.9 15.9 8.8 16C 10.7 16.1 12.6 15.7 14.4 15C 16.3 14.3 18 13.1 19.6 11.4C 21.4 9.60001 22.6 7.80001 23.4 5.90001C 24.1 4.00001 24.4 2.10002 24.1 0.100024L 20 -1.2207e-05C 19.7999 -1.2207e-05 19.6 2.44156e-05 19.4 0.100024C 19.2 0.200024 19.1 0.300012 19 0.400012C 18.9 0.500012 18.7 0.700012 18.7 0.900012C 18.6 1.10001 18.6 1.29999 18.6 1.49999C 18.6 2.09999 18.5 2.59999 18.4 2.99999C 18.3 3.49999 18.1 3.89998 17.9 4.29998C 17.7 4.69998 17.4 5.20002 17.1 5.60002C 16.8 6.00002 16.4 6.50001 15.9 6.90001C 15.1 7.70001 14.2 8.3 13.2 8.7C 12.2 9.1 11.2 9.2 9.99995 9.2C 8.89995 9.1 7.80005 8.79998 6.60005 8.29998C 6.10005 8.09998 5.60002 7.79999 5.20002 7.49999L -4.88281e-05 12.7C 0.999951 13.4 2.10002 14 3.20002 14.6Z"/>
<path id="path72_fill" d="M 3.20002 24C 5.10002 24.8 6.99995 25.2 8.99995 25.2C 11 25.2 12.9 24.8 14.9 24C 16.8 23.2 18.7 21.9 20.3 20.3C 22 18.6 23.2 16.8 24 14.9C 24.7999 13 25.2 11 25.2 8.99999C 25.2 6.99999 24.7999 5.1 24 3.2C 23.5 2.1 22.9 0.999988 22.1 -1.2207e-05L 17 5.10002C 17.2999 5.50002 17.6 6.00001 17.8 6.40001C 18.4 7.50001 18.7 8.69998 18.8 9.79998C 18.9 10.9 18.7 12 18.3 13.1C 17.9 14.2 17.2 15.2 16.2 16.1C 15.2 17.1 14.2 17.8 13.1 18.2C 12 18.6 10.9 18.8 9.8 18.8C 8.7 18.7 7.59998 18.4 6.39998 17.8C 5.89998 17.6 5.50005 17.3 5.10005 17L -4.88281e-05 22.1C 0.999951 22.9 2.10002 23.5 3.20002 24Z"/>
<path id="path73_fill" d="M 8.69998 20.5C 8.19998 19.9 7.90002 19.3 7.50002 18.7C 6.90002 17.6 6.60002 16.4 6.50002 15.3C 6.40002 14.2 6.60002 13.1 7.00002 12C 7.40002 10.9 8.1 9.89999 9.1 8.89999C 10.1 7.89999 11.1 7.20001 12.1 6.80001C 13.2 6.40001 14.3 6.20001 15.4 6.30001C 16.5 6.40001 17.6 6.70001 18.8 7.30001C 19.4 7.60001 20 8.00002 20.6 8.50002L 25.7 3.39999C 24.6 2.49999 23.3 1.69998 22 1.19998C 20.1 0.399976 18.2 2.44141e-05 16.2 2.44141e-05C 14.2 2.44141e-05 12.3 0.399976 10.3 1.19998C 8.39995 1.99998 6.50005 3.29999 4.90005 4.89999C 3.20005 6.59999 1.99998 8.40001 1.19998 10.3C 0.399976 12.2 2.44141e-05 14.2 2.44141e-05 16.2C 2.44141e-05 18.2 0.399976 20.1 1.19998 22C 1.79998 23.3 2.50005 24.5 3.40005 25.7L 8.69998 20.5Z"/>
<path id="path74_fill" d="M 3.19998 24C 5.09998 24.8 7.00002 25.2 9.00002 25.2C 11 25.2 12.9 24.8 14.9 24C 16.8 23.2 18.7 21.9 20.3 20.3C 22 18.6 23.2 16.8 24 14.9C 24.8 13 25.2 11 25.2 8.99998C 25.2 6.99998 24.8 5.09999 24 3.19999C 23.5 2.09999 22.9 0.999976 22.1 -2.44141e-05L 17 5.10001C 17.3 5.50001 17.6 6 17.8 6.4C 18.4 7.5 18.7 8.70002 18.8 9.80002C 18.9 10.9 18.7 12 18.3 13.1C 17.9 14.2 17.2 15.2 16.2 16.1C 15.2 17.1 14.2 17.8 13.1 18.2C 12 18.6 10.9 18.8 9.79995 18.8C 8.69995 18.7 7.60005 18.4 6.40005 17.8C 5.90005 17.6 5.5 17.3 5.1 17L 2.44141e-05 22.1C 1.00002 22.9 2.09998 23.5 3.19998 24Z"/>
<path id="path75_fill" d="M 8.60005 20.3C 8.20005 19.7 7.79995 19.1 7.49995 18.5C 6.99995 17.3 6.60005 16.2 6.60005 15.1C 6.50005 14 6.70002 12.9 7.20002 11.8C 7.60002 10.7 8.30002 9.7 9.20002 8.8C 9.70002 8.3 10.2 7.90001 10.7 7.50001C 11.2 7.20001 11.6 6.9 12 6.8C 12.4 6.6 12.8 6.50001 13.1 6.40001C 13.4 6.30001 13.8 6.19999 14.1 6.19999C 14.4 6.09999 14.7 6.10001 14.9 6.00001C 15.1 5.90001 15.3 5.79999 15.5 5.59999C 15.8 5.29999 15.9 5.1 16 4.8C 16 4.5 16 4.30001 16 4.00001L 15.4 1.2207e-05C 14.6 1.2207e-05 13.7 0.0999939 12.8 0.199994C 11.9 0.399994 11.1 0.600012 10.2 1.00001C 9.30002 1.40001 8.50005 1.80001 7.60005 2.40001C 6.70005 3.00001 5.90005 3.70001 5.10005 4.50001C 3.40005 6.20001 2.2 8.00001 1.3 9.90001C 0.5 11.8 -4.88281e-05 13.8 -4.88281e-05 15.7C -4.88281e-05 17.7 0.400024 19.6 1.20002 21.5C 1.80002 22.8 2.49995 24.1 3.49995 25.3L 8.60005 20.3Z"/>
<path id="path76_fill" d="M 3.20005 14.6C 5.00005 15.5 6.90002 15.9 8.80002 16C 10.7 16.1 12.6 15.7 14.4 15C 16.3 14.3 18 13.1 19.6 11.4C 21.4 9.59998 22.6 7.79998 23.4 5.89998C 24.1 3.99998 24.4 2.09999 24.1 0.0999878L 20 1.2207e-05C 19.8 1.2207e-05 19.6 -1.22115e-05 19.4 0.0999878C 19.2 0.199988 19.1 0.300006 19 0.400006C 18.9 0.500006 18.7 0.700006 18.7 0.900006C 18.6 1.10001 18.6 1.30001 18.6 1.50001C 18.6 2.10001 18.5 2.60001 18.4 3.00001C 18.3 3.50001 18.1 3.9 17.9 4.3C 17.7 4.7 17.4 5.19999 17.1 5.59999C 16.8 5.99999 16.4 6.49998 15.9 6.89998C 15.1 7.69998 14.2 8.30002 13.2 8.70002C 12.2 9.10002 11.2 9.20002 9.99998 9.20002C 8.89997 9.10002 7.79995 8.8 6.59995 8.3C 6.09995 8.1 5.60005 7.80001 5.20005 7.50001L -2.44141e-05 12.7C 1.09998 13.4 2.10005 14.1 3.20005 14.6Z"/>
<path id="path77_fill" d="M 8.7 20.5C 8.2 19.9 7.90005 19.3 7.50005 18.7C 6.90005 17.6 6.60005 16.4 6.50005 15.3C 6.40005 14.2 6.60005 13.1 7.00005 12C 7.40005 10.9 8.10002 9.90001 9.10002 8.90001C 10.1 7.90001 11.1 7.19998 12.1 6.79998C 13.2 6.39998 14.3 6.19998 15.4 6.29998C 16.5 6.39998 17.6 6.69998 18.8 7.29998C 19.4 7.59998 20 7.99999 20.6 8.49999L 25.7 3.40001C 24.6 2.50001 23.3 1.7 22 1.2C 20.1 0.4 18.2 -1.2207e-05 16.2 -1.2207e-05C 14.2 -1.2207e-05 12.3 0.4 10.3 1.2C 8.39998 2 6.49995 3.30001 4.89995 4.90001C 3.19995 6.60001 2 8.39998 1.2 10.3C 0.4 12.2 4.88281e-05 14.2 4.88281e-05 16.2C 4.88281e-05 18.2 0.4 20.1 1.2 22C 1.8 23.3 2.49995 24.5 3.39995 25.7L 8.7 20.5Z"/>
<path id="path78_fill" d="M 8.6 20.3C 8.2 19.7 7.80002 19.1 7.50002 18.5C 7.00002 17.3 6.6 16.2 6.6 15.1C 6.5 14 6.69998 12.9 7.19998 11.8C 7.59998 10.7 8.29998 9.69999 9.19998 8.79999C 9.69998 8.29999 10.2 7.9 10.7 7.5C 11.2 7.2 11.6 6.89999 12 6.79999C 12.4 6.59999 12.8 6.50002 13.1 6.40002C 13.4 6.30002 13.8 6.20001 14.1 6.20001C 14.4 6.10001 14.7 6.1 14.9 6C 15.1 5.9 15.3 5.79998 15.5 5.59998C 15.8 5.29998 15.9 5.09999 16 4.79999C 16 4.49999 16 4.3 16 4L 15.4 -1.13687e-13C 14.6 -1.13687e-13 13.7 0.100012 12.8 0.200012C 11.9 0.400012 11.1 0.6 10.2 1C 9.29998 1.4 8.5 1.80002 7.6 2.40002C 6.7 3.00002 5.9 3.7 5.1 4.5C 3.4 6.2 2.19995 8.00002 1.29995 9.90002C 0.499951 11.8 2.44141e-05 13.8 2.44141e-05 15.7C 2.44141e-05 17.7 0.399976 19.6 1.19998 21.5C 1.79998 22.8 2.50002 24.1 3.50002 25.3L 8.6 20.3Z"/>
<path id="path79_fill" d="M 3.19998 14.6C 4.99998 15.5 6.89995 15.9 8.79995 16C 10.7 16.1 12.6 15.7 14.4 15C 16.3 14.3 18 13.1 19.6 11.4C 21.4 9.60002 22.6 7.80002 23.4 5.90002C 24.1 4.00002 24.4 2.09998 24.1 0.0999756L 20 0C 19.8 0 19.6 -2.44156e-05 19.4 0.0999756C 19.2 0.199976 19.1 0.300024 19 0.400024C 18.9 0.500024 18.7 0.700024 18.7 0.900024C 18.6 1.10002 18.6 1.3 18.6 1.5C 18.6 2.1 18.5 2.6 18.4 3C 18.3 3.5 18.1 3.89999 17.9 4.29999C 17.7 4.69999 17.4 5.19998 17.1 5.59998C 16.8 5.99998 16.4 6.50002 15.9 6.90002C 15.1 7.70002 14.2 8.30001 13.2 8.70001C 12.2 9.10001 11.2 9.20001 10 9.20001C 8.90002 9.10001 7.8 8.79999 6.6 8.29999C 6.1 8.09999 5.59998 7.8 5.19998 7.5L 2.44141e-05 12.7C 1.00002 13.4 1.99998 14.1 3.19998 14.6Z"/>
<path id="path80_fill" d="M 3.19998 24C 5.09998 24.8 7.00002 25.2 9.00002 25.2C 11 25.2 12.9 24.8 14.9 24C 16.8 23.2 18.7 21.9 20.3 20.3C 22 18.6 23.2 16.8 24 14.9C 24.8 13 25.2 11 25.2 9C 25.2 7 24.8 5.10001 24 3.20001C 23.5 2.10001 22.9 1 22.1 0L 17 5.09998C 17.3 5.49998 17.6 6.00002 17.8 6.40002C 18.4 7.50002 18.7 8.69999 18.8 9.79999C 18.9 10.9 18.7 12 18.3 13.1C 17.9 14.2 17.2 15.2 16.2 16.1C 15.2 17.1 14.2 17.8 13.1 18.2C 12 18.6 10.9 18.8 9.79995 18.8C 8.69995 18.7 7.60005 18.4 6.40005 17.8C 5.90005 17.6 5.5 17.3 5.1 17L 2.44141e-05 22.1C 1.00002 22.9 1.99998 23.5 3.19998 24Z"/>
<path id="path81_fill" d="M 8.70002 20.5C 8.20002 19.9 7.89995 19.3 7.49995 18.7C 6.89995 17.6 6.59995 16.4 6.49995 15.3C 6.39995 14.2 6.59995 13.1 6.99995 12C 7.39995 10.9 8.10005 9.90001 9.10005 8.90001C 10.1 7.90001 11.1 7.19998 12.1 6.79998C 13.2 6.39998 14.3 6.19998 15.4 6.29998C 16.5 6.39998 17.6 6.69998 18.8 7.29998C 19.4 7.59998 20 7.99999 20.6 8.49999L 25.7 3.40001C 24.6 2.50001 23.2999 1.7 22 1.2C 20.1 0.4 18.2 -1.2207e-05 16.2 -1.2207e-05C 14.2 -1.2207e-05 12.3 0.4 10.3 1.2C 8.4 2 6.49998 3.30001 4.89998 4.90001C 3.19998 6.60001 2.00002 8.39998 1.20002 10.3C 0.400024 12.2 -4.88281e-05 14.2 -4.88281e-05 16.2C -4.88281e-05 18.2 0.400024 20.1 1.20002 22C 1.80002 23.3 2.49998 24.5 3.39998 25.7L 8.70002 20.5Z"/>
<path id="path82_fill" d="M 3.2 24C 5.1 24.8 7.00005 25.2 9.00005 25.2C 11 25.2 12.9 24.8 14.9 24C 16.8 23.2 18.7 21.9 20.3 20.3C 22 18.6 23.2001 16.8 24 14.9C 24.8 13 25.2 11 25.2 9C 25.2 7 24.8 5.10001 24 3.20001C 23.5 2.10001 22.9 1 22.1 0L 17 5.09998C 17.3 5.49998 17.6 6.00002 17.8 6.40002C 18.4 7.50002 18.7 8.69999 18.8 9.79999C 18.9 10.9 18.7 12 18.3 13.1C 17.9 14.2 17.2 15.2 16.2 16.1C 15.2 17.1 14.2 17.8 13.1 18.2C 12 18.6 10.9 18.8 9.79998 18.8C 8.69998 18.7 7.59995 18.4 6.39995 17.8C 5.89995 17.6 5.50002 17.3 5.10002 17L 4.88281e-05 22.1C 1.00005 22.9 2 23.5 3.2 24Z"/>
</defs>
</svg>
