<svg width="272" height="60" viewBox="0 0 272 60" version="1.1" xmlns="http://www.w3.org/2000/svg" xmlns:xlink="http://www.w3.org/1999/xlink">
<title>Logo_menu</title>
<desc>Created using Figma</desc>
<g id="Canvas" transform="translate(-560 516)">
<g id="Logo_menu">
<g id="Vector">
<use xlink:href="#path0_fill" transform="translate(612.196 -516)" fill="#DB71B0"/>
</g>
<g id="Vector">
<use xlink:href="#path1_fill" transform="translate(560 -516)" fill="#394EE5"/>
</g>
<g id="Vector">
<use xlink:href="#path2_fill" transform="translate(584.474 -480.1)" fill="#DB71B0"/>
</g>
<g id="Mask Group">
<mask id="mask0_alpha" mask-type="alpha">
<g id="Vector">
<use xlink:href="#path3_fill" transform="translate(702.477 -495.834)" fill="#201600"/>
</g>
</mask>
<g id="Vector" mask="url(#mask0_alpha)">
<use xlink:href="#path4_fill" transform="translate(702.352 -496.021)" fill="url(#paint4_linear)"/>
</g>
</g>
<g id="Vector">
<use xlink:href="#path5_fill" transform="translate(636.795 -480.1)" fill="#394EE5"/>
</g>
</g>
</g>
<defs>
<linearGradient id="paint4_linear" x1="0" y1="0" x2="1" y2="0" gradientUnits="userSpaceOnUse" gradientTransform="matrix(129.21 0 0 -129.433 0.0161528 84.5152)">
<stop offset="0" stop-color="#394EE5"/>
<stop offset="1" stop-color="#DB71B0"/>
</linearGradient>
<path id="path0_fill" d="M 13.5484 25.1613C 13.7357 23.7877 13.9854 22.4766 14.4225 21.2903C 15.1717 19.0427 16.1707 17.1696 17.5442 15.6087C 18.9178 14.0479 20.5411 12.8616 22.539 12.0499C 24.5369 11.2383 26.7846 10.8012 29.282 10.8012C 31.7794 10.8012 34.0271 11.2383 35.9625 12.0499C 37.898 12.8616 39.5838 14.0479 40.9573 15.6087C 42.3309 17.1696 43.3299 19.0427 44.0791 21.2903C 44.4537 22.4766 44.7659 23.7877 44.9532 25.1613L 58.3767 25.1613C 58.0645 22.4766 57.4402 19.9168 56.4412 17.4818C 55.0052 13.9854 53.0697 10.9261 50.5099 8.30385C 47.9501 5.74402 44.8907 3.68366 41.2695 2.18522C 37.7107 0.74922 33.7149 0 29.282 0C 24.9116 0 20.8533 0.74922 17.232 2.18522C 13.6108 3.68366 10.4891 5.68158 7.92924 8.30385C 5.36941 10.8637 3.37149 13.923 1.93548 17.4818C 0.936523 19.9168 0.312174 22.4766 -9.52682e-07 25.2237L 13.5484 25.2237L 13.5484 25.1613Z"/>
<path id="path1_fill" d="M 13.486 25.1613C 13.6733 23.7877 13.9854 22.539 14.4225 21.3528C 15.2341 19.1051 16.2955 17.2321 17.7315 15.6712C 19.1675 14.1103 20.8533 12.924 22.7888 12.0499C 24.7242 11.2383 26.9095 10.8012 29.282 10.8012C 30.6556 10.8012 31.8418 10.9261 32.8408 11.1134C 33.8398 11.3007 34.7763 11.5505 35.5255 11.8626C 36.2747 12.1748 36.9615 12.487 37.5234 12.8616C 38.0853 13.2362 38.5848 13.5484 39.0843 13.8606C 39.5213 14.1727 39.9584 14.4225 40.3954 14.6098C 40.8325 14.7971 41.2695 14.922 41.7066 14.922C 42.3933 14.922 42.9553 14.7971 43.3299 14.4849C 43.7045 14.1727 44.0791 13.8606 44.3288 13.486L 48.7617 7.55463C 47.7003 6.4308 46.5141 5.43184 45.1405 4.49532C 43.7045 3.55879 42.206 2.74714 40.5827 2.12279C 38.9594 1.436 37.2112 0.936525 35.3382 0.561915C 33.4651 0.187305 31.4672 0 29.3444 0C 24.974 0 20.9781 0.686785 17.3569 2.12279C 13.7357 3.55879 10.6764 5.55671 8.05411 8.11655C 5.43184 10.6764 3.43392 13.7357 1.99792 17.2321C 0.998959 19.7294 0.312175 22.3517 0 25.1613L 13.486 25.1613Z"/>
<path id="path2_fill" d="M 1.62331 6.68054C 2.87201 10.2393 4.68262 13.2362 7.05515 15.8585C 9.42768 18.4183 12.2997 20.4787 15.7336 21.9147C 19.1051 23.3507 22.9761 24.0999 27.2841 24.0999C 31.9667 24.0999 36.025 23.3507 39.4589 21.8522C 42.8928 20.3538 45.7648 18.1061 48.0125 15.1093L 42.8304 9.61499C 42.5182 9.30281 42.2685 9.11551 41.9563 8.99064C 41.6441 8.86577 41.3319 8.80333 41.0198 8.80333C 40.6452 8.80333 40.2706 8.86577 39.8959 9.05307C 39.5213 9.24037 39.2092 9.42768 38.897 9.67742C 38.1478 10.3642 37.3361 10.9261 36.5869 11.3632C 35.8377 11.8002 35.026 12.1748 34.1519 12.487C 33.3403 12.7992 32.4037 12.9865 31.4048 13.1113C 30.4058 13.2362 29.3444 13.2986 28.1582 13.2986C 26.0978 13.2986 24.1623 12.924 22.3517 12.1124C 20.5411 11.3007 18.9802 10.1145 17.6067 8.61603C 16.2331 7.05515 15.1717 5.1821 14.36 2.93444C 14.0479 1.99792 13.7981 0.998959 13.6108 -1.33088e-14L 4.76341e-07 -1.33088e-14C 0.312175 2.31009 0.811654 4.55775 1.62331 6.68054Z"/>
<path id="path3_fill" d="M 9.05307 31.9667L 23.6004 31.9667L 23.6004 39.2092L -1.90536e-06 39.2092L -1.90536e-06 -4.76341e-07L 9.11551 -4.76341e-07L 9.11551 31.9667L 9.05307 31.9667ZM 38.5848 -4.76341e-07L 29.4069 -4.76341e-07L 29.4069 39.2092L 38.5848 39.2092L 38.5848 -4.76341e-07ZM 62.1852 39.2092C 64.5578 39.2092 66.6181 38.897 68.4287 38.3351C 70.2393 37.7107 71.8002 36.8991 73.0489 35.8377C 74.2976 34.7763 75.2341 33.5276 75.8585 32.0916C 76.4828 30.6556 76.8574 29.0947 76.8574 27.4089C 76.8574 25.2237 76.2331 23.4131 74.9844 21.9771C 73.7357 20.5411 71.8627 19.5421 69.2404 18.9178C 70.4266 18.4807 71.4256 17.9813 72.2997 17.4194C 73.1113 16.8574 73.8606 16.1707 74.36 15.4839C 74.922 14.7971 75.2966 13.9854 75.5463 13.1738C 75.7961 12.3621 75.9209 11.488 75.9209 10.6139C 75.9209 8.99064 75.6712 7.55463 75.1093 6.2435C 74.5474 4.93236 73.6733 3.80853 72.487 2.93444C 71.3007 1.99792 69.7399 1.31113 67.8044 0.811654C 65.9313 0.312174 63.6212 0.0624359 60.8741 0.0624359L 46.4516 0.0624359L 46.4516 39.2716L 62.1852 39.2716L 62.1852 39.2092ZM 55.6296 6.80541L 60.9365 6.80541C 61.9355 6.80541 62.872 6.86785 63.5588 7.05515C 64.308 7.24246 64.9324 7.4922 65.4318 7.86681C 65.9313 8.24142 66.3059 8.74089 66.4932 9.36524C 66.743 9.98959 66.8678 10.7388 66.8678 11.6753C 66.8678 12.6119 66.743 13.4235 66.4308 14.0479C 66.1186 14.6722 65.6816 15.1717 65.1197 15.5463C 64.5578 15.9209 63.871 16.1707 63.0593 16.2955C 62.2477 16.4204 61.3736 16.4828 60.3122 16.4828L 55.5671 16.4828L 55.5671 6.80541L 55.6296 6.80541ZM 61.9979 22.6015C 63.1218 22.6015 64.1207 22.7263 64.8699 22.9136C 65.6192 23.1009 66.2435 23.4131 66.6805 23.8502C 67.1176 24.2248 67.4922 24.7242 67.6795 25.2862C 67.8668 25.8481 67.9917 26.5349 67.9917 27.2216C 67.9917 27.846 67.9293 28.4703 67.7419 29.0947C 67.5546 29.719 67.3049 30.281 66.8678 30.718C 66.4308 31.2175 65.8689 31.5921 65.0572 31.9043C 64.308 32.2164 63.3091 32.3413 62.1228 32.3413L 55.692 32.3413L 55.692 22.6015L 61.9979 22.6015ZM 93.9646 24.7242C 94.6514 24.7242 95.2133 24.8491 95.5879 25.0364C 95.9625 25.2237 96.3372 25.5983 96.5869 26.0978L 103.08 37.461C 103.767 38.5848 104.828 39.2092 106.389 39.2092L 114.631 39.2092L 106.264 25.5359C 105.89 24.9116 105.39 24.3496 104.891 23.9126C 104.391 23.4755 103.767 23.1009 103.205 22.7888C 104.454 22.2893 105.578 21.6649 106.576 20.9157C 107.575 20.1665 108.387 19.2924 109.074 18.3559C 109.761 17.4194 110.26 16.358 110.572 15.2341C 110.884 14.1103 111.072 12.924 111.072 11.6129C 111.072 9.92716 110.76 8.42872 110.198 6.99272C 109.636 5.55671 108.699 4.37045 107.451 3.30905C 106.202 2.24766 104.579 1.436 102.581 0.87409C 100.583 0.312175 98.1478 -4.76341e-07 95.3382 -4.76341e-07L 82.6015 -4.76341e-07L 82.6015 39.2092L 91.6545 39.2092L 91.6545 24.7242L 93.9646 24.7242ZM 91.6545 6.80541L 95.3382 6.80541C 97.7107 6.80541 99.3965 7.30489 100.52 8.24142C 101.644 9.17794 102.206 10.5515 102.206 12.2997C 102.206 13.1738 102.081 13.9854 101.831 14.7347C 101.582 15.4839 101.207 16.1082 100.645 16.6701C 100.083 17.2321 99.3965 17.6691 98.5224 17.9813C 97.6483 18.2934 96.5869 18.4808 95.3382 18.4808L 91.6545 18.4808L 91.6545 6.80541ZM 128.991 -4.76341e-07L 119.813 -4.76341e-07L 119.813 39.2092L 128.991 39.2092L 128.991 -4.76341e-07Z"/>
<path id="path4_fill" d="M 129.24 0L 3.81626e-06 0L 3.81626e-06 39.334L 129.24 39.334L 129.24 0Z"/>
<path id="path5_fill" d="M 1.74818 6.61811C 3.18419 10.1145 5.11966 13.1738 7.74193 15.796C 10.3018 18.4183 13.4235 20.4162 17.0447 21.9147C 20.666 23.4131 24.6618 24.0999 29.0947 24.0999C 33.4651 24.0999 37.461 23.3507 41.0822 21.9147C 44.7034 20.4162 47.7628 18.4183 50.3226 15.796C 52.8824 13.1738 54.8803 10.1145 56.2539 6.61811C 57.128 4.49532 57.6899 2.31009 58.0021 4.43627e-15L 44.5161 4.43627e-15C 44.3288 0.998959 44.1415 1.93548 43.8293 2.80957C 43.0801 5.05723 42.0812 6.93028 40.7076 8.49115C 39.334 10.052 37.7107 11.2383 35.7128 12.05C 33.7773 12.8616 31.5297 13.2986 29.0323 13.2986C 26.4724 13.2986 24.2248 12.8616 22.2893 12.05C 20.3538 11.2383 18.6681 10.052 17.2945 8.49115C 15.9209 6.93028 14.922 5.05723 14.1727 2.80957C 13.8606 1.93548 13.6733 0.998959 13.486 4.43627e-15L 0 4.43627e-15C 0.312175 2.31009 0.936526 4.49532 1.74818 6.61811Z"/>
</defs>
</svg>
