<svg width="640" height="217" viewBox="0 0 640 217" version="1.1" xmlns="http://www.w3.org/2000/svg" xmlns:xlink="http://www.w3.org/1999/xlink">
<title>logotype</title>
<desc>Created using Figma</desc>
<g id="Canvas" transform="translate(-60 -60)">
<g id="logotype">
<g id="logo">
<g id="Vector">
<use xlink:href="#path0_fill" transform="translate(166.667 60)" fill="#FFFFFF"/>
</g>
<g id="Vector">
<use xlink:href="#path1_fill" transform="translate(60 60)" fill="#FFFFFF"/>
</g>
<g id="Vector">
<use xlink:href="#path2_fill" transform="translate(106.067 131.987)" fill="#FFFFFF"/>
</g>
<g id="Vector">
<use xlink:href="#path3_fill" transform="translate(353.268 106.305)" fill="#FFFFFF"/>
</g>
<g id="Vector">
<use xlink:href="#path4_fill" transform="translate(408.419 106.305)" fill="#FFFFFF"/>
</g>
<g id="Vector">
<use xlink:href="#path5_fill" transform="translate(442.806 106.435)" fill="#FFFFFF"/>
</g>
<g id="Vector">
<use xlink:href="#path6_fill" transform="translate(510.673 106.435)" fill="#FFFFFF"/>
</g>
<g id="Vector">
<use xlink:href="#path7_fill" transform="translate(582.044 106.305)" fill="#FFFFFF"/>
</g>
<g id="Vector">
<use xlink:href="#path8_fill" transform="translate(212.993 131.987)" fill="#FFFFFF"/>
</g>
</g>
<g id="motto">
<g id="Vector">
<use xlink:href="#path9_fill" transform="translate(106.067 228.36)" fill="#FFFFFF"/>
</g>
<g id="Vector">
<use xlink:href="#path10_fill" transform="translate(143.049 239.515)" fill="#FFFFFF"/>
</g>
<g id="Vector">
<use xlink:href="#path11_fill" transform="translate(174.972 227.582)" fill="#FFFFFF"/>
</g>
<g id="Vector">
<use xlink:href="#path12_fill" transform="translate(186.78 228.36)" fill="#FFFFFF"/>
</g>
<g id="Vector">
<use xlink:href="#path13_fill" transform="translate(200.146 227.452)" fill="#FFFFFF"/>
</g>
<g id="Vector">
<use xlink:href="#path14_fill" transform="translate(229.343 239.515)" fill="#FFFFFF"/>
</g>
<g id="Vector">
<use xlink:href="#path15_fill" transform="translate(250.495 228.36)" fill="#FFFFFF"/>
</g>
<g id="Vector">
<use xlink:href="#path16_fill" transform="translate(262.044 262.213)" fill="#FFFFFF"/>
</g>
<g id="Vector">
<use xlink:href="#path17_fill" transform="translate(280.989 228.619)" fill="#FFFFFF"/>
</g>
<g id="Vector">
<use xlink:href="#path18_fill" transform="translate(310.576 239.515)" fill="#FFFFFF"/>
</g>
<g id="Vector">
<use xlink:href="#path19_fill" transform="translate(341.33 239.904)" fill="#FFFFFF"/>
</g>
<g id="Vector">
<use xlink:href="#path20_fill" transform="translate(371.046 239.515)" fill="#FFFFFF"/>
</g>
<g id="Vector">
<use xlink:href="#path21_fill" transform="translate(403.617 227.582)" fill="#FFFFFF"/>
</g>
<g id="Vector">
<use xlink:href="#path22_fill" transform="translate(415.426 228.36)" fill="#FFFFFF"/>
</g>
<g id="Vector">
<use xlink:href="#path23_fill" transform="translate(426.196 239.515)" fill="#FFFFFF"/>
</g>
<g id="Vector">
<use xlink:href="#path24_fill" transform="translate(455.783 227.452)" fill="#FFFFFF"/>
</g>
<g id="Vector">
<use xlink:href="#path25_fill" transform="translate(481.865 230.695)" fill="#FFFFFF"/>
</g>
<g id="Vector">
<use xlink:href="#path26_fill" transform="translate(516.902 228.619)" fill="#FFFFFF"/>
</g>
<g id="Vector">
<use xlink:href="#path27_fill" transform="translate(527.413 228.619)" fill="#FFFFFF"/>
</g>
<g id="Vector">
<use xlink:href="#path28_fill" transform="translate(555.702 249.762)" fill="#FFFFFF"/>
</g>
<g id="Vector">
<use xlink:href="#path29_fill" transform="translate(571.533 239.644)" fill="#FFFFFF"/>
</g>
<g id="Vector">
<use xlink:href="#path30_fill" transform="translate(614.745 228.36)" fill="#FFFFFF"/>
</g>
<g id="Vector">
<use xlink:href="#path31_fill" transform="translate(627.981 239.385)" fill="#FFFFFF"/>
</g>
<g id="Vector">
<use xlink:href="#path32_fill" transform="translate(654.842 239.515)" fill="#FFFFFF"/>
</g>
<g id="Vector">
<use xlink:href="#path33_fill" transform="translate(681.963 239.126)" fill="#FFFFFF"/>
</g>
</g>
</g>
</g>
<defs>
<path id="path0_fill" d="M 27.5101 51.364C 27.8994 48.5105 28.4185 45.9163 29.1971 43.4519C 30.6245 38.9121 32.8305 35.0209 35.5556 31.908C 38.2806 28.795 41.7843 26.3305 45.807 24.6444C 49.8297 22.9582 54.5012 22.0502 59.5621 22.0502C 64.6229 22.0502 69.2944 22.9582 73.3171 24.6444C 77.3398 26.3305 80.7137 28.795 83.4388 31.908C 86.1638 35.0209 88.3698 38.9121 89.7972 43.4519C 90.5758 45.9163 91.2247 48.5105 91.4842 51.364L 119.124 51.364C 118.475 45.9163 117.178 40.5983 115.231 35.6695C 112.376 28.5356 108.354 22.3096 103.033 16.9916C 97.8427 11.6736 91.4842 7.52301 84.0876 4.53975C 76.691 1.55649 68.5158 0 59.5621 0C 50.6083 0 42.4331 1.55649 35.0365 4.53975C 27.6399 7.52301 21.2814 11.6736 16.0908 16.9916C 10.9002 22.3096 6.74777 28.5356 3.89294 35.6695C 1.94647 40.5983 0.64882 45.9163 -3.96011e-06 51.4937L 27.5101 51.4937L 27.5101 51.364Z"/>
<path id="path1_fill" d="M 27.5101 51.364C 27.8994 48.6402 28.5483 46.046 29.4566 43.5816C 31.0138 39.0418 33.3496 35.1506 36.2044 32.0377C 39.0592 28.795 42.5629 26.3305 46.5856 24.6444C 50.6083 22.9582 55.0203 22.0502 59.9513 22.0502C 62.8062 22.0502 65.1419 22.3096 67.2182 22.6987C 69.2944 23.0879 71.1111 23.6067 72.6683 24.2552C 74.2255 24.9038 75.5231 25.5523 76.691 26.2008C 77.8589 26.8494 78.897 27.6276 79.8054 28.1464C 80.7137 28.795 81.6221 29.3138 82.5304 29.7029C 83.4388 30.0921 84.2174 30.3515 85.2555 30.3515C 86.6829 30.3515 87.8508 30.0921 88.6294 29.4435C 89.408 28.795 90.0568 28.1464 90.7056 27.3682L 99.7891 15.3054C 97.3236 13.1004 94.8581 11.0251 92.133 9.0795C 89.2782 7.2636 86.2936 5.57741 82.9197 4.28033C 79.5458 2.98326 76.0422 1.8159 72.1492 1.16736C 68.3861 0.389121 64.2336 0 59.9513 0C 50.9976 0 42.8224 1.42678 35.4258 4.41004C 28.0292 7.2636 21.6707 11.4142 16.3504 16.6025C 11.03 21.7908 6.87753 28.0167 4.02271 35.2803C 1.94647 40.2092 0.648824 45.6569 0 51.364L 27.5101 51.364Z"/>
<path id="path2_fill" d="M 3.37388 13.749C 5.96918 21.0126 9.73236 27.2385 14.5337 32.4268C 19.335 37.6151 25.3041 41.7657 32.1817 44.749C 39.0592 47.7322 46.9749 49.159 55.7989 49.159C 65.4015 49.159 73.5766 47.6025 80.5839 44.4895C 87.5912 41.3766 93.4307 36.8368 98.1022 30.7406L 87.4615 19.5858C 86.9424 19.0669 86.2936 18.5481 85.6448 18.4184C 84.9959 18.159 84.3471 18.0293 83.6983 18.0293C 82.9197 18.0293 82.1411 18.159 81.3625 18.5481C 80.5839 18.9372 79.9351 19.3264 79.2863 19.8452C 77.7291 21.272 76.1719 22.3096 74.6148 23.3473C 73.0576 24.2552 71.3706 25.0335 69.6837 25.5523C 67.9967 26.0711 66.0503 26.59 64.1038 26.7197C 62.1573 26.9791 59.8216 27.1088 57.4858 27.1088C 53.2036 27.1088 49.3106 26.3305 45.5474 24.6444C 41.914 22.9582 38.6699 20.6234 35.8151 17.5105C 33.09 14.3975 30.884 10.5063 29.1971 5.96653C 28.5483 4.02092 28.0292 2.07531 27.6399 -3.6865e-14L 0 -3.6865e-14C 0.648824 4.79916 1.81671 9.33891 3.37388 13.749Z"/>
<path id="path3_fill" d="M 17.3885 61.0921L 45.1581 61.0921L 45.1581 74.9707L 0 74.9707L 0 9.89587e-07L 17.3885 9.89587e-07L 17.3885 61.0921Z"/>
<path id="path4_fill" d="M 17.5182 0L 0 0L 0 74.9707L 17.5182 74.9707L 17.5182 0Z"/>
<path id="path5_fill" d="M 29.8459 74.841C 34.3877 74.841 38.2806 74.3222 41.7843 73.1548C 45.2879 71.9874 48.2725 70.431 50.6083 68.3557C 52.944 66.2803 54.7608 63.9456 56.0584 61.2218C 57.3561 58.4979 57.8751 55.5146 57.8751 52.272C 57.8751 47.9916 56.7072 44.6193 54.3714 41.8954C 52.0357 39.1716 48.4023 37.2259 43.4712 36.0586C 45.6772 35.2803 47.6237 34.2427 49.3106 33.205C 50.8678 32.0377 52.2952 30.8703 53.3333 29.4435C 54.3715 28.0167 55.15 26.59 55.5393 25.0335C 56.0584 23.477 56.3179 21.7908 56.3179 20.2343C 56.3179 17.1213 55.7989 14.3975 54.7608 11.8034C 53.7226 9.33891 52.0357 7.13389 49.6999 5.4477C 47.3641 3.76151 44.3796 2.33473 40.7461 1.42678C 37.1127 0.518831 32.7007 -9.89587e-07 27.5102 -9.89587e-07L 0 -9.89587e-07L 0 74.9707L 29.8459 74.9707L 29.8459 74.841ZM 17.3885 12.841L 27.6399 12.841C 29.5864 12.841 31.2733 12.9707 32.7007 13.3598C 34.1282 13.6192 35.296 14.1381 36.2044 14.9163C 37.1127 15.6946 37.7616 16.6025 38.2806 17.7699C 38.6699 18.9372 38.9294 20.4937 38.9294 22.1799C 38.9294 23.9958 38.6699 25.5523 38.0211 26.7197C 37.502 27.887 36.5937 28.9247 35.5555 29.5732C 34.5174 30.2218 33.2198 30.7406 31.6626 31C 30.1054 31.2594 28.4185 31.3891 26.472 31.3891L 17.3885 31.3891L 17.3885 12.841ZM 29.4566 43.0628C 31.6626 43.0628 33.4793 43.3222 34.9067 43.7113C 36.3341 44.1004 37.502 44.749 38.4104 45.3975C 39.3187 46.1757 39.9676 47.0837 40.2271 48.1213C 40.6164 49.159 40.7461 50.4561 40.7461 51.8829C 40.7461 53.0502 40.6164 54.2176 40.2271 55.3849C 39.9676 56.5523 39.3188 57.59 38.5402 58.4979C 37.7616 59.4059 36.5937 60.1841 35.1663 60.7029C 33.7389 61.2218 31.7924 61.6109 29.5864 61.6109L 17.3885 61.6109L 17.3885 43.0628L 29.4566 43.0628Z"/>
<path id="path6_fill" d="M 21.9303 47.0837C 23.2279 47.0837 24.266 47.3431 25.0446 47.7322C 25.8232 48.1213 26.472 48.7699 26.9911 49.8075L 39.4485 71.5983C 40.7462 73.8034 42.8224 74.841 45.6772 74.841L 61.3788 74.841L 45.4177 48.7699C 44.6391 47.4728 43.7307 46.4352 42.8224 45.6569C 41.7843 44.749 40.7461 44.1004 39.5783 43.4519C 42.0438 42.5439 44.12 41.3766 46.0665 39.9498C 47.8832 38.523 49.5701 36.8368 50.738 35.0209C 52.0357 33.205 52.944 31.1297 53.5929 29.0544C 54.2417 26.8494 54.631 24.6444 54.631 22.1799C 54.631 18.9372 54.1119 16.0837 52.944 13.3598C 51.9059 10.636 50.0892 8.30126 47.6237 6.35565C 45.1582 4.41004 42.0438 2.85355 38.2806 1.68619C 34.5174 0.518827 29.8459 -9.89587e-07 24.3958 -9.89587e-07L -1.58404e-05 -9.89587e-07L -1.58404e-05 74.9707L 17.3885 74.9707L 17.3885 47.0837L 21.9303 47.0837ZM 17.5182 12.841L 24.5256 12.841C 29.0673 12.841 32.3114 13.749 34.5174 15.5649C 36.7234 17.3808 37.7616 19.9749 37.7616 23.2176C 37.7616 24.9038 37.502 26.4603 36.983 27.7573C 36.4639 29.1841 35.6853 30.4812 34.6472 31.5188C 33.6091 32.5565 32.1817 33.4644 30.4947 33.9833C 28.8078 34.6318 26.8613 34.8912 24.3958 34.8912L 17.3885 34.8912L 17.3885 12.841L 17.5182 12.841Z"/>
<path id="path7_fill" d="M 17.5182 0L -1.58404e-05 0L -1.58404e-05 74.9707L 17.5182 74.9707L 17.5182 0Z"/>
<path id="path8_fill" d="M 3.50365 13.4895C 6.35847 20.6234 10.3812 26.8494 15.7015 32.1674C 20.8921 37.4854 27.2506 41.636 34.6472 44.6193C 42.0438 47.6025 50.219 49.159 59.1727 49.159C 68.1265 49.159 76.3017 47.6025 83.6983 44.6193C 91.0949 41.636 97.3236 37.4854 102.644 32.1674C 107.835 26.8494 111.857 20.6234 114.842 13.4895C 116.529 9.20921 117.826 4.66946 118.475 -9.21625e-15L 90.9651 -9.21625e-15C 90.5758 2.07531 90.1865 3.89122 89.5377 5.70712C 88.1103 10.2469 85.9043 14.1381 83.1792 17.2511C 80.4542 20.364 76.9505 22.8285 73.0576 24.5146C 69.0349 26.2008 64.4931 26.9791 59.3025 26.9791C 54.1119 26.9791 49.5702 26.2008 45.5474 24.5146C 41.5247 22.8285 38.1509 20.4937 35.296 17.2511C 32.571 14.1381 30.365 10.2469 28.9375 5.70712C 28.2887 3.89122 27.8994 1.94561 27.5101 -9.21625e-15L 1.98005e-06 -9.21625e-15C 0.648826 4.66946 1.81671 9.20921 3.50365 13.4895Z"/>
<path id="path9_fill" d="M 30.1054 32.0377C 30.2352 32.0377 30.4947 32.0377 30.6245 32.1674L 31.6626 33.3347C 30.884 34.2427 29.9757 34.8912 29.0673 35.6695C 28.159 36.318 27.1208 36.9665 25.953 37.3557C 24.7851 37.8745 23.6172 38.2636 22.3195 38.523C 21.0219 38.7824 19.5945 38.9121 17.9075 38.9121C 15.3122 38.9121 12.8467 38.3933 10.6407 37.4854C 8.43471 36.5774 6.48824 35.2803 4.93106 33.5941C 3.37388 31.9079 2.07624 29.8326 1.29765 27.4979C 0.389294 25.0335 -9.22034e-15 22.4393 -9.22034e-15 19.4561C -9.22034e-15 16.6025 0.389292 13.8787 1.42741 11.5439C 2.33576 9.2092 3.63341 7.13389 5.32036 5.4477C 7.0073 3.76151 8.95377 2.46443 11.2895 1.42677C 13.6253 0.518821 16.0908 3.95835e-06 18.9457 3.95835e-06C 20.3731 3.95835e-06 21.541 0.129707 22.7088 0.259414C 23.8767 0.518829 24.9148 0.778239 25.953 1.16736C 26.9911 1.55648 27.8994 2.07532 28.8078 2.59415C 29.7161 3.11297 30.4947 3.89122 31.4031 4.53975L 30.6245 5.70711C 30.4947 5.96652 30.2352 5.96652 29.9757 5.96652C 29.8459 5.96652 29.5864 5.83682 29.3268 5.70711C 29.0673 5.5774 28.8078 5.31799 28.4185 5.05857C 28.0292 4.79916 27.5101 4.41004 26.9911 4.15063C 26.472 3.76151 25.8232 3.5021 25.0446 3.24268C 24.266 2.98327 23.3577 2.72385 22.4493 2.59415C 21.4112 2.46444 20.3731 2.33474 19.0754 2.33474C 16.7397 2.33474 14.6634 2.72385 12.717 3.50209C 10.7705 4.28033 9.08354 5.44771 7.65613 6.87449C 6.22871 8.30126 5.19059 10.1172 4.41201 12.3222C 3.63342 14.3975 3.24412 16.8619 3.24412 19.4561C 3.24412 22.1799 3.63342 24.5146 4.41201 26.7197C 5.19059 28.795 6.22871 30.6109 7.65613 32.0377C 9.08354 33.4644 10.6407 34.6318 12.4574 35.4101C 14.2741 36.1883 16.3504 36.5774 18.5564 36.5774C 19.9838 36.5774 21.1517 36.4477 22.1898 36.318C 23.2279 36.1883 24.266 35.9289 25.1744 35.5397C 26.0827 35.1506 26.8613 34.7615 27.6399 34.2427C 28.4185 33.7238 29.1971 33.0753 29.9757 32.4268C 30.1054 32.2971 30.1054 32.2971 30.2352 32.2971C 29.9757 32.0377 29.9757 32.0377 30.1054 32.0377Z"/>
<path id="path10_fill" d="M 12.3277 -7.91669e-06C 14.2741 -7.91669e-06 15.9611 0.389117 17.5182 1.03765C 19.0754 1.68619 20.3731 2.59413 21.4112 3.89121C 22.4493 5.05857 23.2279 6.48536 23.747 8.30126C 24.266 9.98745 24.5255 11.9331 24.5255 14.0084C 24.5255 16.0837 24.266 18.0293 23.747 19.7155C 23.2279 21.4017 22.4493 22.8284 21.4112 23.9958C 20.3731 25.1632 19.0754 26.0711 17.5182 26.7197C 15.9611 27.3682 14.2741 27.6276 12.3277 27.6276C 10.3812 27.6276 8.69424 27.3682 7.13706 26.7197C 5.57989 26.0711 4.28224 25.1632 3.24412 23.9958C 2.206 22.8284 1.42741 21.4017 0.778587 19.7155C 0.259528 18.0293 9.22034e-15 16.0837 9.22034e-15 14.0084C 9.22034e-15 11.9331 0.259528 9.98745 0.778587 8.30126C 1.29765 6.61507 2.07624 5.18828 3.24412 3.89121C 4.28224 2.72384 5.57989 1.8159 7.13706 1.03765C 8.69424 0.389117 10.3812 -7.91669e-06 12.3277 -7.91669e-06ZM 12.3277 25.5523C 13.8848 25.5523 15.3122 25.2929 16.4801 24.7741C 17.648 24.2552 18.6861 23.477 19.4647 22.4393C 20.2433 21.4017 20.8921 20.2343 21.2814 18.6778C 21.6707 17.2511 21.9303 15.5649 21.9303 13.749C 21.9303 11.9331 21.6707 10.3766 21.2814 8.9498C 20.8921 7.52302 20.2433 6.22593 19.4647 5.18828C 18.6861 4.15062 17.648 3.37239 16.4801 2.85356C 15.3122 2.33474 13.8848 2.07531 12.3277 2.07531C 10.7705 2.07531 9.34307 2.33474 8.17519 2.85356C 7.0073 3.37239 5.96918 4.15062 5.19059 5.18828C 4.412 6.22593 3.76318 7.52302 3.37388 8.9498C 2.98459 10.3766 2.72506 12.0628 2.72506 13.749C 2.72506 15.5649 2.98459 17.1213 3.37388 18.6778C 3.76318 20.1046 4.412 21.4017 5.19059 22.4393C 5.96918 23.477 7.0073 24.2552 8.17519 24.7741C 9.34307 25.2929 10.6407 25.5523 12.3277 25.5523Z"/>
<path id="path11_fill" d="M 2.59529 -3.95835e-06L 2.59529 39.3013L -1.98005e-06 39.3013L -1.98005e-06 -3.95835e-06L 2.59529 -3.95835e-06Z"/>
<path id="path12_fill" d="M 4.8013 2.33474C 4.8013 2.59415 4.67153 2.98327 4.54176 3.24268C 4.412 3.5021 4.28224 3.7615 4.02271 4.02091C 3.76318 4.28033 3.50365 4.41005 3.24412 4.53975C 2.98459 4.66946 2.5953 4.66945 2.33577 4.66945C 2.07624 4.66945 1.68695 4.66946 1.42742 4.53975C 1.16789 4.41005 0.90835 4.28033 0.64882 4.02091C 0.38929 3.7615 0.259534 3.5021 0.129769 3.24268C 3.95431e-06 2.98327 -3.96011e-06 2.72386 -3.96011e-06 2.33474C -3.96011e-06 2.07532 3.95431e-06 1.68618 0.129769 1.42677C 0.259534 1.16736 0.38929 0.907954 0.64882 0.64854C 0.90835 0.389125 1.16789 0.259406 1.42742 0.129699C 1.68695 -7.91476e-06 2.07624 3.95835e-06 2.33577 3.95835e-06C 2.5953 3.95835e-06 2.98459 -7.91476e-06 3.24412 0.129699C 3.50365 0.259406 3.76318 0.389125 4.02271 0.64854C 4.28224 0.907954 4.412 1.16736 4.54176 1.42677C 4.67153 1.68618 4.8013 2.07532 4.8013 2.33474ZM 3.63341 11.5439L 3.63341 38.3933L 1.03812 38.3933L 1.03812 11.5439L 3.63341 11.5439Z"/>
<path id="path13_fill" d="M 0 39.3013L 0 7.91669e-06L 2.5953 7.91669e-06L 2.5953 17.1213C 3.76318 15.5649 5.19059 14.2678 6.74777 13.3598C 8.30494 12.4519 10.1217 11.9331 12.0681 11.9331C 15.3123 11.9331 17.9075 13.1004 19.7242 15.3054C 21.541 17.6402 22.4493 21.0126 22.4493 25.5523C 22.4493 27.4979 22.1898 29.3138 21.6707 31C 21.1517 32.6862 20.3731 34.113 19.4647 35.41C 18.4266 36.7071 17.2587 37.6151 15.8313 38.3933C 14.4039 39.1715 12.717 39.431 10.7705 39.431C 8.95378 39.431 7.26683 39.0418 5.96918 38.3933C 4.67153 37.6151 3.50365 36.5774 2.46553 35.1506L 2.33577 38.3933C 2.33577 38.7824 2.07623 39.0418 1.55717 39.0418L 0 39.0418L 0 39.3013ZM 11.2895 14.1381C 9.47283 14.1381 7.91565 14.6569 6.48824 15.5649C 5.06083 16.4728 3.76318 17.7699 2.5953 19.4561L 2.5953 33.5941C 3.63341 35.1506 4.8013 36.1883 5.96918 36.8368C 7.26683 37.4854 8.69424 37.7448 10.2514 37.7448C 11.8086 37.7448 13.236 37.4854 14.4039 36.8368C 15.5718 36.1883 16.6099 35.4101 17.3885 34.3724C 18.1671 33.3347 18.8159 32.0377 19.2052 30.6109C 19.5945 29.1841 19.854 27.4979 19.854 25.8117C 19.854 21.7908 19.0754 18.9372 17.648 16.9916C 16.2206 15.046 14.0146 14.1381 11.2895 14.1381Z"/>
<path id="path14_fill" d="M 0 27.2385L 0 0.389117L 1.29765 0.389117C 1.55718 0.389117 1.81671 0.389125 1.94647 0.518832C 2.07624 0.64854 2.206 0.907954 2.206 1.16737L 2.46552 6.87447C 3.37388 4.66945 4.54178 2.98327 5.96919 1.8159C 7.3966 0.64854 9.2133 -7.91669e-06 11.2895 -7.91669e-06C 12.0681 -7.91669e-06 12.8467 0.129715 13.4955 0.259422C 14.1444 0.389129 14.7932 0.648532 15.442 1.03765L 15.0527 2.85356C 15.0527 3.11298 14.7932 3.24267 14.5337 3.24267C 14.4039 3.24267 14.2741 3.24268 14.0146 3.11297C 13.7551 2.98327 13.6253 2.98327 13.236 2.85356C 12.8467 2.72386 12.5872 2.72384 12.1979 2.59413C 11.8086 2.46443 11.2895 2.46444 10.7705 2.46444C 8.69425 2.46444 7.00729 3.11297 5.70964 4.41005C 4.412 5.70712 3.37389 7.52301 2.5953 9.85774L 2.5953 27.3682L 0 27.3682L 0 27.2385Z"/>
<path id="path15_fill" d="M 4.8013 2.33474C 4.8013 2.59415 4.67154 2.98327 4.54177 3.24268C 4.41201 3.5021 4.28223 3.7615 4.0227 4.02091C 3.76317 4.28033 3.50365 4.41005 3.24412 4.53975C 2.98459 4.66946 2.5953 4.66945 2.33577 4.66945C 2.07624 4.66945 1.68693 4.66946 1.4274 4.53975C 1.16788 4.41005 0.908358 4.28033 0.648828 4.02091C 0.389298 3.7615 0.259522 3.5021 0.129757 3.24268C -7.91828e-06 2.98327 3.96011e-06 2.72386 3.96011e-06 2.33474C 3.96011e-06 2.07532 -7.91828e-06 1.68618 0.129757 1.42677C 0.259522 1.16736 0.389298 0.907954 0.648828 0.64854C 0.908358 0.389125 1.16788 0.259406 1.4274 0.129699C 1.68693 -7.91476e-06 2.07624 3.95835e-06 2.33577 3.95835e-06C 2.5953 3.95835e-06 2.98459 -7.91476e-06 3.24412 0.129699C 3.50365 0.259406 3.76317 0.389125 4.0227 0.64854C 4.28223 0.907954 4.41201 1.16736 4.54177 1.42677C 4.67154 1.68618 4.8013 2.07532 4.8013 2.33474ZM 3.63342 11.5439L 3.63342 38.3933L 1.03813 38.3933L 1.03813 11.5439L 3.63342 11.5439Z"/>
<path id="path16_fill" d="M -3.96011e-06 2.46444C -3.96011e-06 2.07532 3.95431e-06 1.81591 0.129769 1.55649C 0.259534 1.29708 0.38929 1.03766 0.64882 0.778243C 0.90835 0.518829 1.16789 0.389129 1.42742 0.259422C 1.68695 0.129715 2.07624 -7.91669e-06 2.46554 -7.91669e-06C 2.85483 -7.91669e-06 3.11436 0.129715 3.37389 0.259422C 3.63342 0.389129 3.89294 0.518829 4.15247 0.778243C 4.412 1.03766 4.54177 1.29708 4.67154 1.55649C 4.8013 1.81591 4.93106 2.20503 4.93106 2.46444C 4.93106 2.85356 4.8013 3.11298 4.67154 3.5021C 4.54177 3.76151 4.412 4.02092 4.15247 4.28033C 3.89294 4.53975 3.63342 4.66946 3.37389 4.79917C 3.11436 4.92888 2.72507 4.92887 2.46554 4.92887C 1.81672 4.92887 1.16788 4.66946 0.64882 4.15064C 0.259526 3.76151 -3.96011e-06 3.24268 -3.96011e-06 2.46444Z"/>
<path id="path17_fill" d="M 16.8694 22.4393L 16.8694 38.1339L 14.1444 38.1339L 14.1444 22.4393L 3.96011e-06 0L 2.46553 0C 2.72506 0 2.85482 7.91476e-06 3.11435 0.129715C 3.24412 0.259422 3.37388 0.389121 3.50365 0.648536L 14.4039 18.159C 14.6634 18.5481 14.9229 18.9372 15.0527 19.3264C 15.1825 19.7155 15.442 20.1046 15.5718 20.4937C 15.7015 20.1046 15.8313 19.7155 16.0908 19.3264C 16.2206 18.9372 16.4801 18.5481 16.7397 18.159L 27.6399 0.648536C 27.7697 0.389121 27.8994 0.259422 28.0292 0.129715C 28.159 7.91476e-06 28.4185 0 28.678 0L 31.1436 0L 16.8694 22.4393Z"/>
<path id="path18_fill" d="M 12.3277 -7.91669e-06C 14.2741 -7.91669e-06 15.9611 0.389117 17.5183 1.03765C 19.0754 1.68619 20.3731 2.59413 21.4112 3.89121C 22.4493 5.05857 23.2279 6.48536 23.747 8.30126C 24.266 9.98745 24.5255 11.9331 24.5255 14.0084C 24.5255 16.0837 24.266 18.0293 23.747 19.7155C 23.2279 21.4017 22.4493 22.8284 21.4112 23.9958C 20.3731 25.1632 19.0754 26.0711 17.5183 26.7197C 15.9611 27.3682 14.2741 27.6276 12.3277 27.6276C 10.3812 27.6276 8.69425 27.3682 7.13707 26.7197C 5.57989 26.0711 4.28225 25.1632 3.24413 23.9958C 2.20601 22.8284 1.42741 21.4017 0.778585 19.7155C 0.259526 18.0293 7.92022e-06 16.0837 7.92022e-06 14.0084C 7.92022e-06 11.9331 0.259526 9.98745 0.778585 8.30126C 1.29764 6.61507 2.07624 5.18828 3.24413 3.89121C 4.28225 2.72384 5.57989 1.8159 7.13707 1.03765C 8.69425 0.389117 10.3812 -7.91669e-06 12.3277 -7.91669e-06ZM 12.3277 25.5523C 13.8848 25.5523 15.3123 25.2929 16.4801 24.7741C 17.648 24.2552 18.6861 23.477 19.4647 22.4393C 20.2433 21.4017 20.8921 20.2343 21.2814 18.6778C 21.6707 17.2511 21.9303 15.5649 21.9303 13.749C 21.9303 11.9331 21.6707 10.3766 21.2814 8.9498C 20.8921 7.52302 20.2433 6.22593 19.4647 5.18828C 18.6861 4.15062 17.648 3.37239 16.4801 2.85356C 15.3123 2.33474 13.8848 2.07531 12.3277 2.07531C 10.7705 2.07531 9.34306 2.33474 8.17517 2.85356C 7.00729 3.37239 5.96919 4.15062 5.1906 5.18828C 4.41201 6.22593 3.76318 7.52302 3.37388 8.9498C 2.98459 10.3766 2.72506 12.0628 2.72506 13.749C 2.72506 15.5649 2.98459 17.1213 3.37388 18.6778C 3.76318 20.1046 4.41201 21.4017 5.1906 22.4393C 5.96919 23.477 7.00729 24.2552 8.17517 24.7741C 9.34306 25.2929 10.7705 25.5523 12.3277 25.5523Z"/>
<path id="path19_fill" d="M 2.46553 -3.95835e-06L 2.46553 17.251C 2.46553 19.7155 2.98459 21.7908 4.15247 23.2176C 5.32036 24.6444 7.00731 25.4226 9.47284 25.4226C 11.1598 25.4226 12.8467 25.0335 14.4039 24.1255C 15.9611 23.2176 17.2587 22.0502 18.4266 20.364L 18.4266 0.129711L 21.0219 0.129711L 21.0219 26.9791L 19.5945 26.9791C 19.0754 26.9791 18.8159 26.7197 18.8159 26.3305L 18.5564 22.3096C 17.2587 23.8661 15.8313 25.0335 14.2741 26.0711C 12.5872 26.9791 10.7705 27.4979 8.82401 27.4979C 7.26684 27.4979 5.96919 27.2385 4.93107 26.8494C 3.76319 26.3305 2.85483 25.682 2.206 24.7741C 1.42741 23.8661 0.90835 22.8285 0.519055 21.5314C 0.129761 20.2343 3.96011e-06 18.9372 3.96011e-06 17.3808L 3.96011e-06 0.259406L 2.46553 0.259406L 2.46553 -3.95835e-06Z"/>
<path id="path20_fill" d="M -3.96011e-06 27.2385L -3.96011e-06 0.389117L 1.29764 0.389117C 1.55717 0.389117 1.8167 0.389125 1.94647 0.518832C 2.07623 0.64854 2.20599 0.907954 2.20599 1.16737L 2.46554 6.87447C 3.37389 4.66945 4.54177 2.98327 5.96919 1.8159C 7.3966 0.64854 9.21329 -7.91669e-06 11.2895 -7.91669e-06C 12.0681 -7.91669e-06 12.8467 0.129715 13.4955 0.259422C 14.1444 0.389129 14.7932 0.648532 15.442 1.03765L 15.0527 2.85356C 15.0527 3.11298 14.7932 3.24267 14.5337 3.24267C 14.4039 3.24267 14.2741 3.24268 14.0146 3.11297C 13.7551 2.98327 13.6253 2.98327 13.236 2.85356C 12.9765 2.72386 12.5872 2.72384 12.1979 2.59413C 11.8086 2.46443 11.2895 2.46444 10.7705 2.46444C 8.69424 2.46444 7.00731 3.11297 5.70966 4.41005C 4.41201 5.70712 3.37388 7.52301 2.59529 9.85774L 2.59529 27.3682L -3.96011e-06 27.3682L -3.96011e-06 27.2385Z"/>
<path id="path21_fill" d="M 2.59528 -3.95835e-06L 2.59528 39.3013L -1.58404e-05 39.3013L -1.58404e-05 -3.95835e-06L 2.59528 -3.95835e-06Z"/>
<path id="path22_fill" d="M 4.80131 2.33474C 4.80131 2.59415 4.67152 2.98327 4.54176 3.24268C 4.41199 3.5021 4.28224 3.7615 4.02271 4.02091C 3.76318 4.28033 3.50364 4.41005 3.24411 4.53975C 2.98458 4.66946 2.59531 4.66945 2.33578 4.66945C 2.07625 4.66945 1.68694 4.66946 1.42741 4.53975C 1.16788 4.41005 0.908346 4.28033 0.648816 4.02091C 0.389286 3.7615 0.25953 3.5021 0.129765 3.24268C 0 2.98327 -7.92021e-06 2.72386 -7.92021e-06 2.33474C -7.92021e-06 2.07532 0 1.68618 0.129765 1.42677C 0.25953 1.16736 0.389286 0.907954 0.648816 0.64854C 0.908346 0.389125 1.16788 0.259406 1.42741 0.129699C 1.68694 -7.91476e-06 2.07625 3.95835e-06 2.33578 3.95835e-06C 2.59531 3.95835e-06 2.98458 -7.91476e-06 3.24411 0.129699C 3.50364 0.259406 3.76318 0.389125 4.02271 0.64854C 4.28224 0.907954 4.41199 1.16736 4.54176 1.42677C 4.67152 1.68618 4.80131 2.07532 4.80131 2.33474ZM 3.63343 11.5439L 3.63343 38.3933L 1.03813 38.3933L 1.03813 11.5439L 3.63343 11.5439Z"/>
<path id="path23_fill" d="M 11.1598 -7.91669e-06C 12.3276 -7.91669e-06 13.3658 0.129703 14.4039 0.389117C 15.442 0.648532 16.3504 1.03767 17.1289 1.55649L 24.0065 1.55649L 24.0065 2.46444C 24.0065 2.85356 23.747 3.11296 23.2279 3.24267L 19.2052 3.5021C 19.7243 4.15064 20.1135 4.92886 20.3731 5.83681C 20.6326 6.74476 20.7624 7.65272 20.7624 8.56067C 20.7624 9.85774 20.5029 11.0251 20.1136 12.0628C 19.5945 13.1004 18.9457 14.0084 18.1671 14.7866C 17.3885 15.5649 16.3504 16.0837 15.1825 16.4728C 14.0146 16.8619 12.7169 17.1213 11.2895 17.1213C 9.73235 17.1213 8.30496 16.8619 7.13708 16.4728C 6.35849 16.8619 5.8394 17.3808 5.32034 18.0293C 4.93105 18.6778 4.67152 19.1967 4.67152 19.7155C 4.67152 20.4937 4.93106 21.1423 5.45011 21.5314C 5.96917 21.9205 6.74778 22.3096 7.65613 22.4393C 8.56449 22.569 9.60259 22.6987 10.6407 22.8285C 11.8086 22.8285 12.9765 22.9582 14.1444 22.9582C 15.3123 22.9582 16.4801 23.0879 17.648 23.3473C 18.8159 23.477 19.854 23.7364 20.6326 24.2552C 21.541 24.6444 22.1898 25.1632 22.8386 25.9414C 23.3576 26.7197 23.6172 27.6276 23.6172 28.795C 23.6172 29.9624 23.3576 31 22.8386 32.0377C 22.3195 33.0753 21.5409 33.9833 20.3731 34.7615C 19.3349 35.5397 18.0373 36.1883 16.6099 36.7071C 15.0527 37.2259 13.4955 37.4854 11.5491 37.4854C 9.6026 37.4854 8.0454 37.2259 6.61799 36.9665C 5.19058 36.5774 4.02271 36.0586 2.98459 35.41C 2.07624 34.7615 1.29763 33.9833 0.778573 33.0753C 0.259514 32.1674 1.58404e-05 31.2594 1.58404e-05 30.3515C 1.58404e-05 28.9247 0.519043 27.7573 1.4274 26.7197C 2.33575 25.682 3.6334 24.9038 5.32034 24.3849C 4.41199 24.1255 3.76319 23.6067 3.11436 23.0879C 2.5953 22.569 2.33577 21.6611 2.33577 20.6234C 2.33577 20.2343 2.46555 19.8452 2.59531 19.4561C 2.72508 19.0669 2.98461 18.6778 3.24414 18.2887C 3.50367 17.8996 3.89294 17.5105 4.28224 17.1213C 4.67153 16.7322 5.1906 16.4728 5.70966 16.2134C 4.41201 15.4351 3.37387 14.5272 2.72504 13.2301C 2.07622 12.0628 1.68694 10.636 1.68694 8.9498C 1.68694 7.65272 1.94647 6.48536 2.33577 5.44771C 2.85483 4.41005 3.50365 3.50209 4.28224 2.72385C 5.06083 1.94561 6.09893 1.42679 7.26681 0.907958C 8.4347 0.259422 9.73234 -7.91669e-06 11.1598 -7.91669e-06ZM 21.1517 29.0544C 21.1517 28.1465 20.8921 27.4979 20.5028 26.9791C 20.1135 26.4603 19.4647 26.0711 18.6861 25.8117C 17.9076 25.5523 17.129 25.2929 16.0908 25.1632C 15.1825 25.0335 14.1443 24.9038 13.1062 24.9038C 12.0681 24.9038 11.03 24.7741 9.99188 24.7741C 8.95376 24.7741 7.91566 24.6444 7.00731 24.5147C 6.35848 24.7741 5.70966 25.0335 5.06084 25.4226C 4.41201 25.8117 4.0227 26.2008 3.50364 26.59C 3.11435 26.9791 2.72508 27.4979 2.59531 28.0167C 2.33578 28.5356 2.20599 29.1841 2.20599 29.7029C 2.20599 30.4812 2.46552 31.2594 2.85482 31.908C 3.24411 32.5565 3.89293 33.205 4.67152 33.7238C 5.45011 34.2427 6.35848 34.6318 7.52636 34.8912C 8.69424 35.1506 9.99189 35.2803 11.4193 35.2803C 12.8467 35.2803 14.0146 35.1506 15.1825 34.7615C 16.3504 34.5021 17.3885 33.9833 18.2968 33.4644C 19.2052 32.9456 19.854 32.2971 20.3731 31.5188C 20.8921 30.8703 21.1517 29.9624 21.1517 29.0544ZM 11.1598 15.4352C 12.3276 15.4352 13.3658 15.3054 14.2741 14.9163C 15.1825 14.5272 15.9611 14.1381 16.4801 13.4895C 17.1289 12.841 17.5182 12.1925 17.9075 11.4142C 18.1671 10.636 18.4266 9.72804 18.4266 8.69038C 18.4266 7.65273 18.2968 6.74477 17.9075 5.96653C 17.648 5.18828 17.1289 4.41005 16.4801 3.76151C 15.8313 3.11297 15.0527 2.72385 14.2741 2.33472C 13.3658 2.07531 12.3276 1.8159 11.2895 1.8159C 10.1216 1.8159 9.08354 1.9456 8.30496 2.33472C 7.3966 2.59414 6.61799 3.11297 5.96917 3.76151C 5.32034 4.41005 4.93108 5.05858 4.54178 5.96653C 4.28225 6.74477 4.02269 7.78244 4.02269 8.69038C 4.02269 9.72804 4.15249 10.636 4.54178 11.4142C 4.80131 12.1925 5.32034 12.9707 5.96917 13.4895C 6.61799 14.1381 7.3966 14.5272 8.30496 14.9163C 9.08354 15.3054 10.1216 15.4352 11.1598 15.4352Z"/>
<path id="path24_fill" d="M 0 39.3013L 0 7.91669e-06L 2.5953 7.91669e-06L 2.5953 16.9916C 3.89294 15.4351 5.19058 14.2678 6.87752 13.3598C 8.4347 12.4519 10.2514 12.0628 12.1979 12.0628C 13.6253 12.0628 14.9229 12.3222 16.0908 12.7113C 17.2587 13.1004 18.1671 13.8787 18.9457 14.7866C 19.7243 15.6946 20.2433 16.7322 20.6326 18.0293C 21.0219 19.3264 21.1516 20.6234 21.1516 22.1799L 21.1516 39.3013L 18.5564 39.3013L 18.5564 22.1799C 18.5564 19.7155 18.0373 17.6402 16.8694 16.2134C 15.7015 14.7866 14.0146 14.0084 11.5491 14.0084C 9.73235 14.0084 8.17519 14.5272 6.61801 15.4351C 5.06084 16.3431 3.76318 17.6402 2.5953 19.1966L 2.5953 39.3013L 0 39.3013Z"/>
<path id="path25_fill" d="M 10.3812 36.5774C 8.56448 36.5774 7.13705 36.0586 6.09893 35.0209C 5.06081 33.9833 4.54178 32.4268 4.54178 30.3515L 4.54178 12.0628L 0.648832 12.0628C 0.389302 12.0628 0.259545 12.0628 0.129781 11.9331C 1.58366e-05 11.8034 7.92022e-06 11.6736 7.92022e-06 11.4142L 7.92022e-06 10.3766L 4.54178 10.1171L 5.1906 0.518828C 5.1906 0.389121 5.32034 0.25941 5.45011 0.129703C 5.57987 -3.96221e-06 5.70967 7.91669e-06 5.9692 7.91669e-06L 7.13707 7.91669e-06L 7.13707 10.2469L 15.5718 10.2469L 15.5718 12.1925L 7.13707 12.1925L 7.13707 30.3515C 7.13707 31.1297 7.26681 31.7782 7.39658 32.2971C 7.52634 32.8159 7.78588 33.205 8.17517 33.5941C 8.56447 33.9833 8.95376 34.2427 9.34305 34.3724C 9.73234 34.5021 10.2514 34.6318 10.7705 34.6318C 11.4193 34.6318 11.9384 34.5021 12.4574 34.3724C 12.9765 34.2427 13.3658 33.9833 13.6253 33.7239C 13.8848 33.4644 14.2741 33.3347 14.4039 33.0753C 14.6634 32.9456 14.7932 32.8159 14.923 32.8159C 15.0527 32.8159 15.1825 32.9456 15.3122 33.0753L 15.9611 34.2427C 15.3122 35.0209 14.4039 35.6694 13.3658 36.0586C 12.5872 36.318 11.5491 36.5774 10.3812 36.5774Z"/>
<path id="path26_fill" d="M 2.72508 38.1339L 7.92022e-06 38.1339L 7.92022e-06 0L 2.72508 0L 2.72508 38.1339Z"/>
<path id="path27_fill" d="M 29.5864 0L 29.5864 2.33473L 16.2206 2.33473L 16.2206 38.1339L 13.4955 38.1339L 13.4955 2.33473L 1.58404e-05 2.33473L 1.58404e-05 0L 29.5864 0Z"/>
<path id="path28_fill" d="M 0 3.95835e-06L 12.5872 3.95835e-06L 12.5872 2.20502L 0 2.20502L 0 3.95835e-06Z"/>
<path id="path29_fill" d="M 1.58404e-05 0.25941L 1.94649 0.25941C 2.20602 0.25941 2.46555 0.389113 2.59531 0.518821C 2.72508 0.648528 2.85482 0.778239 2.85482 0.907946L 9.6026 22.0502C 9.73237 22.4393 9.86211 22.8284 9.86211 23.2176C 9.99187 23.6067 9.99189 23.9958 10.1217 24.3849C 10.2514 23.9958 10.2514 23.6067 10.3812 23.2176C 10.511 22.8284 10.6407 22.4393 10.7705 22.0502L 18.0373 0.648536C 18.1671 0.259414 18.4266 0 18.8159 0L 19.854 0C 20.2433 0 20.5028 0.259414 20.6326 0.648536L 27.7697 22.0502C 28.0292 22.8285 28.2887 23.6067 28.4185 24.3849C 28.5483 23.9958 28.5482 23.6067 28.678 23.2176C 28.8078 22.8284 28.8078 22.4393 29.0673 22.0502L 35.8151 0.907946C 35.9448 0.518825 36.2044 0.25941 36.7234 0.25941L 38.6699 0.25941L 29.7161 27.1088L 27.7697 27.1088C 27.5101 27.1088 27.2506 26.9791 27.1209 26.59L 19.7242 4.79916C 19.5945 4.53975 19.5945 4.28034 19.4647 4.02093C 19.335 3.76151 19.335 3.50209 19.335 3.24268C 19.335 3.50209 19.2052 3.76151 19.2052 4.02093C 19.2052 4.28034 19.0754 4.53975 18.9456 4.79916L 11.5491 26.59C 11.4193 26.9791 11.2895 27.1088 10.9003 27.1088L 9.08355 27.1088L 1.58404e-05 0.25941Z"/>
<path id="path30_fill" d="M 4.80131 2.33474C 4.80131 2.59415 4.67153 2.98327 4.54177 3.24268C 4.412 3.5021 4.28225 3.7615 4.02272 4.02091C 3.76319 4.28033 3.50365 4.41005 3.24412 4.53975C 2.98459 4.66946 2.59528 4.66945 2.33575 4.66945C 2.07622 4.66945 1.68695 4.66946 1.42742 4.53975C 1.16789 4.41005 0.908354 4.28033 0.648824 4.02091C 0.389294 3.7615 0.259538 3.5021 0.129773 3.24268C 7.91828e-06 2.98327 0 2.72386 0 2.33474C 0 2.07532 7.91828e-06 1.68618 0.129773 1.42677C 0.259538 1.16736 0.389294 0.907954 0.648824 0.64854C 0.908354 0.389125 1.16789 0.259406 1.42742 0.129699C 1.68695 -7.91476e-06 2.07622 3.95835e-06 2.33575 3.95835e-06C 2.59528 3.95835e-06 2.98459 -7.91476e-06 3.24412 0.129699C 3.50365 0.259406 3.76319 0.389125 4.02272 0.64854C 4.28225 0.907954 4.412 1.16736 4.54177 1.42677C 4.8013 1.68618 4.80131 2.07532 4.80131 2.33474ZM 3.76317 11.5439L 3.76317 38.3933L 1.16788 38.3933L 1.16788 11.5439L 3.76317 11.5439Z"/>
<path id="path31_fill" d="M 1.58404e-05 27.3682L 1.58404e-05 0.518825L 1.4274 0.518825C 1.94646 0.518825 2.20599 0.778239 2.20599 1.16736L 2.46554 5.18829C 3.63342 3.6318 5.06082 2.33472 6.74776 1.42677C 8.4347 0.518821 10.2514 3.95835e-06 12.1979 3.95835e-06C 13.6253 3.95835e-06 14.923 0.259418 16.0908 0.64854C 17.2587 1.03766 18.1671 1.81589 18.9456 2.72384C 19.7242 3.63179 20.2433 4.66945 20.6326 5.96652C 21.0219 7.26359 21.1517 8.56068 21.1517 10.1172L 21.1517 27.2385L 18.5564 27.2385L 18.5564 10.1172C 18.5564 7.65273 18.0373 5.57741 16.8694 4.15063C 15.7016 2.72385 14.0146 1.94561 11.5491 1.94561C 9.73237 1.94561 8.17517 2.46443 6.61799 3.37238C 5.06081 4.28033 3.7632 5.57741 2.59531 7.1339L 2.59531 27.2385L 1.58404e-05 27.2385L 1.58404e-05 27.3682Z"/>
<path id="path32_fill" d="M 11.1598 -7.91669e-06C 12.3277 -7.91669e-06 13.3658 0.129703 14.4039 0.389117C 15.442 0.648532 16.3504 1.03767 17.129 1.55649L 24.0065 1.55649L 24.0065 2.46444C 24.0065 2.85356 23.7469 3.11296 23.2279 3.24267L 19.2052 3.5021C 19.7243 4.15064 20.1136 4.92886 20.3731 5.83681C 20.6326 6.74476 20.7624 7.65272 20.7624 8.56067C 20.7624 9.85774 20.5028 11.0251 20.1135 12.0628C 19.5945 13.1004 18.9457 14.0084 18.1671 14.7866C 17.3885 15.5649 16.3504 16.0837 15.1825 16.4728C 14.0146 16.8619 12.717 17.1213 11.2895 17.1213C 9.73237 17.1213 8.30494 16.8619 7.13706 16.4728C 6.35847 16.8619 5.83942 17.3808 5.32036 18.0293C 4.93106 18.6778 4.67153 19.1967 4.67153 19.7155C 4.67153 20.4937 4.93107 21.1423 5.45013 21.5314C 5.96919 21.9205 6.74775 22.3096 7.65611 22.4393C 8.56446 22.569 9.6026 22.6987 10.6407 22.8285C 11.8086 22.8285 12.9765 22.9582 14.1443 22.9582C 15.3122 22.9582 16.4801 23.0879 17.648 23.3473C 18.8159 23.477 19.854 23.7364 20.6326 24.2552C 21.5409 24.6444 22.1898 25.1632 22.8386 25.9414C 23.3577 26.7197 23.6172 27.6276 23.6172 28.795C 23.6172 29.9624 23.3577 31 22.8386 32.0377C 22.3195 33.0753 21.541 33.9833 20.3731 34.7615C 19.335 35.5397 18.0373 36.1883 16.6099 36.7071C 15.0527 37.2259 13.4955 37.4854 11.5491 37.4854C 9.60258 37.4854 8.04542 37.2259 6.618 36.9665C 5.19059 36.5774 4.02272 36.0586 2.98461 35.41C 2.07625 34.7615 1.29765 33.9833 0.778589 33.0753C 0.25953 32.1674 -7.92022e-06 31.2594 -7.92022e-06 30.3515C -7.92022e-06 28.9247 0.519059 27.7573 1.42741 26.7197C 2.33577 25.682 3.63341 24.9038 5.32036 24.3849C 4.412 24.1255 3.76316 23.6067 3.11434 23.0879C 2.59528 22.569 2.33578 21.6611 2.33578 20.6234C 2.33578 20.2343 2.46552 19.8452 2.59529 19.4561C 2.72505 19.0669 2.98458 18.6778 3.24411 18.2887C 3.50364 17.8996 3.89296 17.5105 4.28225 17.1213C 4.67155 16.7322 5.19058 16.4728 5.70964 16.2134C 4.41199 15.4351 3.37388 14.5272 2.72506 13.2301C 2.07624 12.0628 1.68696 10.636 1.68696 8.9498C 1.68696 7.65272 1.94649 6.48536 2.33578 5.44771C 2.85484 4.41005 3.50367 3.50209 4.28225 2.72385C 5.06084 1.94561 6.09895 1.42679 7.26683 0.907958C 8.43471 0.259422 9.73236 -7.91669e-06 11.1598 -7.91669e-06ZM 21.1517 29.0544C 21.1517 28.1465 20.8921 27.4979 20.5029 26.9791C 20.1136 26.4603 19.4647 26.0711 18.6861 25.8117C 17.9075 25.5523 17.1289 25.2929 16.0908 25.1632C 15.1825 25.0335 14.1444 24.9038 13.1062 24.9038C 12.0681 24.9038 11.03 24.7741 9.9919 24.7741C 8.95378 24.7741 7.91564 24.6444 7.00728 24.5147C 6.35846 24.7741 5.70964 25.0335 5.06081 25.4226C 4.41199 25.8117 4.02272 26.2008 3.50366 26.59C 3.11436 26.9791 2.72505 27.4979 2.59529 28.0167C 2.33576 28.5356 2.20601 29.1841 2.20601 29.7029C 2.20601 30.4812 2.46554 31.2594 2.85483 31.908C 3.24413 32.5565 3.89294 33.205 4.67153 33.7238C 5.45012 34.2427 6.35849 34.6318 7.52637 34.8912C 8.69426 35.1506 9.99191 35.2803 11.4193 35.2803C 12.8467 35.2803 14.0146 35.1506 15.1825 34.7615C 16.3504 34.5021 17.3885 33.9833 18.2968 33.4644C 19.2052 32.9456 19.854 32.2971 20.3731 31.5188C 20.8921 30.8703 21.1517 29.9624 21.1517 29.0544ZM 11.1598 15.4352C 12.3277 15.4352 13.3658 15.3054 14.2741 14.9163C 15.1825 14.5272 15.9611 14.1381 16.4801 13.4895C 17.129 12.841 17.5183 12.1925 17.9076 11.4142C 18.1671 10.636 18.4266 9.72804 18.4266 8.69038C 18.4266 7.65273 18.2969 6.74477 17.9076 5.96653C 17.648 5.18828 17.129 4.41005 16.4801 3.76151C 15.8313 3.11297 15.0527 2.72385 14.2741 2.33472C 13.3658 2.07531 12.3277 1.8159 11.2895 1.8159C 10.2514 1.8159 9.08352 1.9456 8.30493 2.33472C 7.39658 2.59414 6.618 3.11297 5.96918 3.76151C 5.32036 4.41005 4.93105 5.05858 4.54176 5.96653C 4.28223 6.74477 4.02271 7.78244 4.02271 8.69038C 4.02271 9.72804 4.15247 10.636 4.54176 11.4142C 4.80129 12.1925 5.32036 12.9707 5.96918 13.4895C 6.618 14.1381 7.39658 14.5272 8.30493 14.9163C 8.95376 15.3054 9.99189 15.4352 11.1598 15.4352Z"/>
<path id="path33_fill" d="M 17.129 4.15063C 16.9992 4.41005 16.8694 4.53976 16.4801 4.53976C 16.2206 4.53976 15.9611 4.41005 15.7015 4.15063C 15.442 3.89122 14.9229 3.6318 14.4039 3.37238C 13.8848 3.11297 13.236 2.85356 12.4574 2.59415C 11.6788 2.33474 10.7705 2.20502 9.73234 2.20502C 8.82399 2.20502 7.91564 2.33474 7.13705 2.59415C 6.35846 2.85356 5.70967 3.24268 5.06084 3.76151C 4.54178 4.28033 4.02273 4.79917 3.7632 5.4477C 3.50367 6.09624 3.2441 6.74477 3.2441 7.39331C 3.2441 8.17155 3.50363 8.94978 3.89293 9.46861C 4.28222 9.98744 4.93107 10.5063 5.57989 10.8954C 6.22872 11.2845 7.13706 11.6736 7.91565 11.9331C 8.824 12.1925 9.73236 12.4519 10.6407 12.841C 11.5491 13.1004 12.4574 13.4895 13.3658 13.749C 14.2741 14.1381 15.0527 14.5272 15.7015 15.046C 16.3504 15.5648 16.9992 16.2134 17.3885 16.9916C 17.7778 17.7699 18.0373 18.6778 18.0373 19.7155C 18.0373 20.8829 17.7778 21.9205 17.3885 22.9582C 16.9992 23.9958 16.3503 24.7741 15.5718 25.5523C 14.7932 26.3305 13.7551 26.8494 12.5872 27.3682C 11.4193 27.7573 10.1216 28.0167 8.56447 28.0167C 6.618 28.0167 5.06084 27.7573 3.63342 27.1088C 2.20601 26.4603 1.0381 25.682 -1.58404e-05 24.7741L 0.648808 23.8661C 0.778573 23.7364 0.778589 23.6067 0.908354 23.6067C 1.03812 23.477 1.16788 23.477 1.4274 23.477C 1.68693 23.477 1.94648 23.6067 2.33577 23.8661C 2.72507 24.1255 3.11436 24.5146 3.63342 24.7741C 4.15248 25.1632 4.80131 25.4226 5.70967 25.682C 6.48826 25.9414 7.52636 26.0711 8.69424 26.0711C 9.86213 26.0711 10.7705 25.9414 11.6788 25.5523C 12.5872 25.2929 13.236 24.7741 13.8848 24.2552C 14.4039 23.7364 14.923 23.0879 15.1825 22.3096C 15.442 21.5314 15.5718 20.7531 15.5718 19.9749C 15.5718 19.0669 15.3122 18.2887 14.9229 17.7699C 14.5336 17.1213 13.8848 16.7322 13.236 16.2134C 12.5872 15.8243 11.6788 15.4352 10.9003 15.1757C 9.99191 14.9163 9.08354 14.6569 8.17519 14.2678C 7.26684 14.0084 6.35848 13.6192 5.45012 13.3598C 4.54177 12.9707 3.7632 12.5816 3.11437 12.0628C 2.46555 11.5439 1.8167 10.8954 1.4274 10.1171C 1.03811 9.33891 0.778581 8.43096 0.778581 7.2636C 0.778581 6.35565 1.03811 5.44771 1.4274 4.53976C 1.8167 3.63181 2.46552 2.85356 3.2441 2.20502C 4.02269 1.55649 4.93106 1.03766 6.09895 0.648543C 7.13706 0.259422 8.4347 7.91669e-06 9.73234 7.91669e-06C 11.4193 7.91669e-06 12.8467 0.259422 14.1444 0.648543C 15.442 1.16737 16.6099 1.8159 17.648 2.85356L 17.129 4.15063Z"/>
</defs>
</svg>
