<svg width="270" height="60" viewBox="0 0 270 60" version="1.1" xmlns="http://www.w3.org/2000/svg" xmlns:xlink="http://www.w3.org/1999/xlink">
<title>logo_header</title>
<desc>Created using Figma</desc>
<g id="Canvas" transform="translate(-1502 -60)">
<g id="logo_header">
<g id="Vector">
<use xlink:href="#path0_fill" transform="translate(1553.99 60)" fill="#FFFFFF"/>
</g>
<g id="Vector">
<use xlink:href="#path1_fill" transform="translate(1502 60)" fill="#FFFFFF"/>
</g>
<g id="Vector">
<use xlink:href="#path2_fill" transform="translate(1526.33 95.8912)" fill="#FFFFFF"/>
</g>
<g id="Vector">
<use xlink:href="#path3_fill" transform="translate(1643.68 80.1326)" fill="#FFFFFF"/>
</g>
<g id="Vector">
<use xlink:href="#path4_fill" transform="translate(1578.37 95.8703)" fill="#FFFFFF"/>
</g>
</g>
</g>
<defs>
<path id="path0_fill" d="M 13.3834 25.1971C 13.5708 23.8158 13.8414 22.5183 14.2368 21.3254C 14.9653 19.0862 15.9852 17.2027 17.3381 15.654C 18.691 14.1053 20.3562 12.9125 22.3127 12.0963C 24.29 11.2592 26.5171 10.8615 29.0356 10.8615C 31.5333 10.8615 33.7604 11.2801 35.7169 12.0963C 37.6735 12.9334 39.3178 14.1053 40.6707 15.654C 42.0236 17.2027 43.0643 19.1071 43.772 21.3254C 44.1674 22.5392 44.438 23.8368 44.6254 25.1971L 58.0088 25.1971C 57.7174 22.4974 57.0722 19.9233 56.1147 17.4956C 54.7202 13.9798 52.7428 10.9243 50.2035 8.35019C 47.6642 5.75515 44.5837 3.72515 41.0037 2.23927C 37.4029 0.753401 33.4274 0 29.0564 0C 24.6855 0 20.6892 0.732473 17.0883 2.21835C 13.4875 3.68329 10.407 5.71329 7.8469 8.30834C 5.28677 10.8825 3.30944 13.9379 1.91489 17.4538C 0.936633 19.9023 0.312212 22.4765 6.35195e-07 25.1971L 13.3834 25.1971Z"/>
<path id="path1_fill" d="M 13.4043 25.1971C 13.5916 23.8368 13.9038 22.5602 14.3201 21.3673C 15.111 19.1489 16.1933 17.2445 17.6087 15.6958C 19.0032 14.1263 20.6892 12.9334 22.6457 12.0963C 24.6022 11.2592 26.7669 10.8406 29.1189 10.8406C 30.4718 10.8406 31.679 10.9452 32.6781 11.1545C 33.698 11.3638 34.5722 11.6149 35.3423 11.9079C 36.0916 12.2009 36.7576 12.5358 37.3196 12.8706C 37.8816 13.2264 38.3811 13.5403 38.839 13.8333C 39.297 14.1263 39.734 14.3774 40.1503 14.5867C 40.5666 14.796 41.0037 14.9006 41.4616 14.9006C 42.1485 14.9006 42.6896 14.7541 43.0851 14.4611C 43.4806 14.1681 43.8136 13.8333 44.0842 13.4775L 48.4968 7.53401C 47.4352 6.42483 46.228 5.39937 44.8751 4.49948C 43.5014 3.55773 42.0028 2.7834 40.3793 2.11371C 38.7558 1.46495 37.0074 0.941751 35.1549 0.565051C 33.3025 0.18835 31.3043 0 29.2021 0C 24.852 0 20.8765 0.711545 17.2757 2.13464C 13.6748 3.55773 10.5944 5.54587 8.01341 8.09906C 5.43247 10.6523 3.41351 13.7077 1.97734 17.2236C 0.957447 19.714 0.312211 22.3509 0 25.1761L 13.4043 25.1761L 13.4043 25.1971Z"/>
<path id="path2_fill" d="M 1.60268 6.71782C 2.87234 10.2546 4.66235 13.2892 7.01434 15.8633C 9.36633 18.4374 12.2387 20.4465 15.6105 21.9114C 18.9824 23.3764 22.8122 24.1088 27.0791 24.1088C 31.7414 24.1088 35.7586 23.3554 39.1721 21.8486C 42.5856 20.3418 45.4163 18.1025 47.685 15.1099L 42.5231 9.64772C 42.2317 9.35473 41.9403 9.16637 41.6281 9.04081C 41.3159 8.91524 41.0037 8.87338 40.7123 8.87338C 40.3168 8.87338 39.963 8.9571 39.5883 9.12452C 39.2345 9.29194 38.9015 9.50122 38.5893 9.77328C 37.8191 10.443 37.049 11.008 36.2997 11.4684C 35.5504 11.9288 34.7387 12.2846 33.9061 12.5776C 33.0735 12.8706 32.1577 13.0589 31.1795 13.1845C 30.2012 13.3101 29.1189 13.3519 27.9325 13.3519C 25.8719 13.3519 23.9362 12.9543 22.1462 12.1591C 20.3562 11.3638 18.7743 10.1918 17.4214 8.64318C 16.0685 7.09452 15.0069 5.21102 14.216 2.95082C 13.883 2.03 13.6332 1.02546 13.4459 0L 3.17597e-07 0C 0.312211 2.32299 0.832562 4.58319 1.60268 6.71782Z"/>
<path id="path3_fill" d="M 9.05412 31.9777L 23.4991 31.9777L 23.4991 39.2396L 2.54078e-06 39.2396L 2.54078e-06 0.0209284L 9.05412 0.0209284L 9.05412 31.9777ZM 38.3811 0.0209284L 29.2854 0.0209284L 29.2854 39.2396L 38.3811 39.2396L 38.3811 0.0209284ZM 61.8802 39.2396C 64.2114 39.2396 66.2928 38.9466 68.1244 38.3397C 69.9352 37.7328 71.4755 36.8957 72.7243 35.8284C 73.9732 34.7611 74.9098 33.5054 75.555 32.0823C 76.2003 30.6383 76.5125 29.0896 76.5125 27.4154C 76.5125 25.218 75.8881 23.3973 74.66 21.9951C 73.432 20.593 71.5379 19.5675 68.957 18.9397C 70.1434 18.5002 71.1425 17.9979 71.975 17.4119C 72.8076 16.8259 73.4945 16.1772 74.0356 15.4656C 74.5768 14.7541 74.9722 13.9798 75.222 13.1636C 75.4718 12.3474 75.5967 11.5103 75.5967 10.6104C 75.5967 8.99895 75.3261 7.53401 74.7849 6.21556C 74.2438 4.8971 73.3696 3.78793 72.1832 2.88804C 70.9968 1.96721 69.4357 1.25567 67.5624 0.753401C 65.6684 0.251134 63.3788 -6.38666e-07 60.673 -6.38666e-07L 46.3321 -6.38666e-07L 46.3321 39.2187L 61.8802 39.2187L 61.8802 39.2396ZM 55.3654 6.84339L 60.673 6.84339C 61.6929 6.84339 62.5671 6.9271 63.3164 7.09452C 64.0657 7.26195 64.6693 7.53401 65.148 7.91071C 65.6267 8.28741 65.9806 8.78967 66.2095 9.39658C 66.4385 10.0244 66.5634 10.7987 66.5634 11.7196C 66.5634 12.6613 66.4177 13.4566 66.1263 14.0844C 65.8349 14.7122 65.3978 15.2145 64.8358 15.5703C 64.2738 15.9261 63.587 16.1772 62.796 16.3237C 61.9843 16.4702 61.0893 16.533 60.0902 16.533L 55.3862 16.533L 55.3862 6.84339L 55.3654 6.84339ZM 61.6721 22.602C 62.8168 22.602 63.7535 22.7067 64.5028 22.9159C 65.2521 23.1252 65.8557 23.4391 66.3136 23.8368C 66.7715 24.2344 67.0837 24.7157 67.271 25.2808C 67.4584 25.8458 67.5624 26.4946 67.5624 27.2271C 67.5624 27.8549 67.4792 28.4827 67.3127 29.0896C 67.1462 29.6965 66.8548 30.2407 66.4385 30.722C 66.0014 31.2033 65.4186 31.601 64.6485 31.9149C 63.8992 32.2288 62.9209 32.3753 61.7137 32.3753L 55.3446 32.3753L 55.3446 22.602L 61.6721 22.602ZM 93.476 24.7367C 94.1628 24.7367 94.704 24.8413 95.0994 25.0506C 95.4741 25.2598 95.8279 25.6156 96.0985 26.1179L 102.572 37.5026C 103.238 38.6536 104.32 39.2187 105.839 39.2187L 114.04 39.2187L 105.735 25.5738C 105.34 24.925 104.882 24.3809 104.362 23.9414C 103.841 23.5019 103.259 23.1252 102.655 22.8113C 103.925 22.33 105.049 21.7021 106.006 20.9487C 106.984 20.1953 107.796 19.3373 108.462 18.3746C 109.128 17.4119 109.628 16.3655 109.981 15.2354C 110.315 14.1053 110.481 12.9124 110.481 11.6359C 110.481 9.96163 110.19 8.4339 109.628 7.01081C 109.066 5.58772 108.15 4.37391 106.88 3.32752C 105.631 2.28113 104.008 1.46495 102.01 0.899895C 100.012 0.313917 97.6179 0.0209284 94.7872 0.0209284L 82.0907 0.0209284L 82.0907 39.2396L 91.1448 39.2396L 91.1448 24.7367L 93.476 24.7367ZM 91.1656 6.84339L 94.808 6.84339C 97.1392 6.84339 98.8668 7.32473 99.9907 8.28741C 101.115 9.25009 101.656 10.6104 101.656 12.3265C 101.656 13.1845 101.531 14.0007 101.281 14.7332C 101.031 15.4866 100.636 16.1353 100.074 16.6795C 99.512 17.2445 98.8044 17.6631 97.951 17.977C 97.0768 18.2909 96.0361 18.4583 94.808 18.4583L 91.1656 18.4583L 91.1656 6.84339ZM 128.319 0.0209284L 119.223 0.0209284L 119.223 39.2396L 128.319 39.2396L 128.319 0.0209284Z"/>
<path id="path4_fill" d="M 1.76919 6.63411C 3.16374 10.15 5.14107 13.2054 7.7012 15.8005C 10.2613 18.3955 13.3418 20.4255 16.9426 21.9114C 20.5435 23.3764 24.519 24.1298 28.8899 24.1298C 33.2609 24.1298 37.2364 23.3973 40.8372 21.9114C 44.4172 20.4465 47.4977 18.3955 50.037 15.8005C 52.5763 13.2054 54.5537 10.15 55.9482 6.63411C 56.7808 4.52041 57.3844 2.30206 57.7174 -1.27733e-06L 44.3131 -1.27733e-06C 44.1466 0.983605 43.9177 1.92536 43.6263 2.82525C 42.8978 5.06453 41.8779 6.94803 40.525 8.51762C 39.1721 10.0663 37.5278 11.2592 35.5712 12.0753C 33.6147 12.8915 31.3876 13.2892 28.8899 13.2892C 26.3714 13.2892 24.1235 12.8915 22.167 12.0753C 20.1896 11.2592 18.5453 10.0872 17.1924 8.51762C 15.8395 6.96896 14.7988 5.06453 14.0911 2.82525C 13.7997 1.92536 13.5708 0.983605 13.4043 -1.27733e-06L -1.27039e-06 -1.27733e-06C 0.333024 2.30206 0.915818 4.52041 1.76919 6.63411Z"/>
</defs>
</svg>
